<?xml version="1.0" encoding="us-ascii" standalone="no"?><svg xmlns="http://www.w3.org/2000/svg" xmlns:xlink="http://www.w3.org/1999/xlink" contentStyleType="text/css" height="2442.1875px" preserveAspectRatio="none" style="width:2250px;height:2442px;background:#FFFFFF;" version="1.1" viewBox="0 0 2250 2442" width="2250px" zoomAndPan="magnify"><defs/><g><text fill="#000000" font-family="Arial" font-size="25" font-weight="bold" lengthAdjust="spacing" textLength="845.3125" x="700.3906" y="54.4556">AppSec Process 01: Application Onboarding &amp; Coverage Plan</text><ellipse cx="1048.4375" cy="93.1641" fill="#222222" rx="15.625" ry="15.625" style="stroke:#222222;stroke-width:1.5625;"/><rect fill="none" height="462.207" rx="7.8125" ry="7.8125" style="stroke:#777777;stroke-width:2.34375;" width="582.8125" x="757.0313" y="124.4141"/><path d="M833.5938,124.4141 L833.5938,135.3027 L817.9688,150.9277 L757.0313,150.9277 " fill="none" style="stroke:#777777;stroke-width:2.34375;"/><text fill="#111111" font-family="Arial" font-size="18.75" lengthAdjust="spacing" textLength="60.9375" x="761.7188" y="143.3807">Intake</text><rect fill="#F7F7F7" height="53.0762" rx="7.8125" ry="7.8125" style="stroke:#444444;stroke-width:0.78125;" width="201.5625" x="947.6563" y="177.4902"/><text fill="#000000" font-family="Arial" font-size="18.75" lengthAdjust="spacing" textLength="170.3125" x="963.2813" y="210.5194">Request received</text><rect fill="#F7F7F7" height="53.0762" rx="7.8125" ry="7.8125" style="stroke:#444444;stroke-width:0.78125;" width="551.5625" x="772.6563" y="261.8164"/><text fill="#000000" font-family="Arial" font-size="18.75" lengthAdjust="spacing" textLength="520.3125" x="788.2813" y="294.8456">Collect metadata (name, repo/vendor, environments)</text><rect fill="#F7F7F7" height="53.0762" rx="7.8125" ry="7.8125" style="stroke:#444444;stroke-width:0.78125;" width="464.0625" x="816.4063" y="346.1426"/><text fill="#000000" font-family="Arial" font-size="18.75" lengthAdjust="spacing" textLength="120.3125" x="832.0313" y="379.1718">Assign/verify</text><text fill="#000000" font-family="Arial" font-size="18.75" font-weight="bold" lengthAdjust="spacing" textLength="306.25" x="958.5938" y="379.1718">Application Code (AppCode)</text><rect fill="#F7F7F7" height="53.0762" rx="7.8125" ry="7.8125" style="stroke:#444444;stroke-width:0.78125;" width="378.125" x="859.375" y="430.4688"/><text fill="#000000" font-family="Arial" font-size="18.75" lengthAdjust="spacing" textLength="346.875" x="875" y="463.4979">Identify business + technical owner</text><rect fill="#F7F7F7" height="53.0762" rx="7.8125" ry="7.8125" style="stroke:#444444;stroke-width:0.78125;" width="429.6875" x="833.5938" y="514.7949"/><text fill="#000000" font-family="Arial" font-size="18.75" lengthAdjust="spacing" textLength="398.4375" x="849.2188" y="547.8241">Record AppCode in app inventory / CMDB</text><rect fill="none" height="925.1953" rx="7.8125" ry="7.8125" style="stroke:#777777;stroke-width:2.34375;" width="2075" x="17.1875" y="602.2461"/><path d="M104.6875,602.2461 L104.6875,613.1348 L89.0625,628.7598 L17.1875,628.7598 " fill="none" style="stroke:#777777;stroke-width:2.34375;"/><text fill="#111111" font-family="Arial" font-size="18.75" lengthAdjust="spacing" textLength="71.875" x="21.875" y="621.2128">Classify</text><polygon fill="#F7F7F7" points="435.1563,660.0098,530.4688,660.0098,549.2188,678.7598,530.4688,697.5098,435.1563,697.5098,416.4063,678.7598,435.1563,660.0098" style="stroke:#444444;stroke-width:0.78125;"/><text fill="#000000" font-family="Arial" font-size="18.75" lengthAdjust="spacing" textLength="115.625" x="489.0625" y="714.9139">Homegrown</text><text fill="#000000" font-family="Arial" font-size="18.75" lengthAdjust="spacing" textLength="95.3125" x="435.1563" y="685.2509">App type?</text><rect fill="#F7F7F7" height="53.0762" rx="7.8125" ry="7.8125" style="stroke:#444444;stroke-width:0.78125;" width="540.625" x="212.5" y="750.5859"/><text fill="#000000" font-family="Arial" font-size="18.75" lengthAdjust="spacing" textLength="509.375" x="228.125" y="783.6151">Repo + CI mapped (tag repo/pipeline with AppCode)</text><rect fill="#F7F7F7" height="53.0762" rx="7.8125" ry="7.8125" style="stroke:#444444;stroke-width:0.78125;" width="223.4375" x="371.0938" y="856.7383"/><text fill="#000000" font-family="Arial" font-size="18.75" lengthAdjust="spacing" textLength="192.1875" x="386.7188" y="889.7675">Language inventory</text><rect fill="#F7F7F7" height="53.0762" rx="7.8125" ry="7.8125" style="stroke:#444444;stroke-width:0.78125;" width="459.375" x="253.125" y="962.8906"/><text fill="#000000" font-family="Arial" font-size="18.75" lengthAdjust="spacing" textLength="428.125" x="268.75" y="995.9198">Enable SonarQube project (key = AppCode)</text><polygon fill="#F7F7F7" points="392.9688,1069.043,572.6563,1069.043,591.4063,1087.793,572.6563,1106.543,392.9688,1106.543,374.2188,1087.793,392.9688,1069.043" style="stroke:#444444;stroke-width:0.78125;"/><text fill="#000000" font-family="Arial" font-size="18.75" lengthAdjust="spacing" textLength="179.6875" x="392.9688" y="1094.2841">CodeQL coverage?</text><text fill="#000000" font-family="Arial" font-size="18.75" lengthAdjust="spacing" textLength="34.375" x="339.8438" y="1083.371">Yes</text><text fill="#000000" font-family="Arial" font-size="18.75" lengthAdjust="spacing" textLength="26.5625" x="591.4063" y="1083.371">No</text><rect fill="#F7F7F7" height="53.0762" rx="7.8125" ry="7.8125" style="stroke:#444444;stroke-width:0.78125;" width="434.375" x="35.9375" y="1122.168"/><text fill="#000000" font-family="Arial" font-size="18.75" lengthAdjust="spacing" textLength="403.125" x="51.5625" y="1155.1971">Enable GHAS SAST (CodeQL) for AppCode</text><rect fill="#F7F7F7" height="53.0762" rx="7.8125" ry="7.8125" style="stroke:#444444;stroke-width:0.78125;" width="421.875" x="501.5625" y="1122.168"/><text fill="#000000" font-family="Arial" font-size="18.75" lengthAdjust="spacing" textLength="390.625" x="517.1875" y="1155.1971">Enable Coverity (gap SAST) for AppCode</text><polygon fill="#F7F7F7" points="482.8125,1184.6191,501.5625,1203.3691,482.8125,1222.1191,464.0625,1203.3691,482.8125,1184.6191" style="stroke:#444444;stroke-width:0.78125;"/><rect fill="#F7F7F7" height="53.0762" rx="7.8125" ry="7.8125" style="stroke:#444444;stroke-width:0.78125;" width="412.5" x="276.5625" y="1255.7129"/><text fill="#000000" font-family="Arial" font-size="18.75" lengthAdjust="spacing" textLength="381.25" x="292.1875" y="1288.7421">Enable GHAS secrets (AppCode scope)</text><rect fill="#F7F7F7" height="53.0762" rx="7.8125" ry="7.8125" style="stroke:#444444;stroke-width:0.78125;" width="504.6875" x="230.4688" y="1340.0391"/><text fill="#000000" font-family="Arial" font-size="18.75" lengthAdjust="spacing" textLength="473.4375" x="246.0938" y="1373.0682">Enable GHAS SCA/Dependabot (AppCode scope)</text><rect fill="#F7F7F7" height="53.0762" rx="7.8125" ry="7.8125" style="stroke:#444444;stroke-width:0.78125;" width="370.3125" x="297.6563" y="1424.3652"/><text fill="#000000" font-family="Arial" font-size="18.75" lengthAdjust="spacing" textLength="339.0625" x="313.2813" y="1457.3944">Plan Trivy scans (IaC + containers)</text><polygon fill="#F7F7F7" points="1197.6563,660.0098,1247.6563,660.0098,1266.4063,678.7598,1247.6563,697.5098,1197.6563,697.5098,1178.9063,678.7598,1197.6563,660.0098" style="stroke:#444444;stroke-width:0.78125;"/><text fill="#000000" font-family="Arial" font-size="18.75" lengthAdjust="spacing" textLength="50" x="1197.6563" y="685.2509">COTS</text><text fill="#000000" font-family="Arial" font-size="18.75" lengthAdjust="spacing" textLength="50" x="1266.4063" y="674.3378">SaaS</text><rect fill="#F7F7F7" height="53.0762" rx="7.8125" ry="7.8125" style="stroke:#444444;stroke-width:0.78125;" width="315.625" x="1064.8438" y="728.7598"/><text fill="#000000" font-family="Arial" font-size="18.75" lengthAdjust="spacing" textLength="284.375" x="1080.4688" y="761.7889">Product + version (AppCode)</text><rect fill="#F7F7F7" height="53.0762" rx="7.8125" ry="7.8125" style="stroke:#444444;stroke-width:0.78125;" width="360.9375" x="1042.1875" y="834.9121"/><text fill="#000000" font-family="Arial" font-size="18.75" lengthAdjust="spacing" textLength="329.6875" x="1057.8125" y="867.9413">Patch channel + update cadence</text><rect fill="#F7F7F7" height="53.0762" rx="7.8125" ry="7.8125" style="stroke:#444444;stroke-width:0.78125;" width="379.6875" x="1032.8125" y="941.0645"/><text fill="#000000" font-family="Arial" font-size="18.75" lengthAdjust="spacing" textLength="348.4375" x="1048.4375" y="974.0936">Support contract + escalation path</text><rect fill="#F7F7F7" height="53.0762" rx="7.8125" ry="7.8125" style="stroke:#444444;stroke-width:0.78125;" width="504.6875" x="970.3125" y="1047.2168"/><text fill="#000000" font-family="Arial" font-size="18.75" lengthAdjust="spacing" textLength="473.4375" x="985.9375" y="1080.246">Define vendor disclosure intake (CVE advisories)</text><rect fill="#F7F7F7" height="53.0762" rx="7.8125" ry="7.8125" style="stroke:#444444;stroke-width:0.78125;" width="307.8125" x="1637.5" y="952.7832"/><text fill="#000000" font-family="Arial" font-size="18.75" lengthAdjust="spacing" textLength="276.5625" x="1653.125" y="985.8124">Vendor + service (AppCode)</text><rect fill="#F7F7F7" height="53.0762" rx="7.8125" ry="7.8125" style="stroke:#444444;stroke-width:0.78125;" width="371.875" x="1605.4688" y="1058.9355"/><text fill="#000000" font-family="Arial" font-size="18.75" lengthAdjust="spacing" textLength="340.625" x="1621.0938" y="1091.9647">Tenant model + data classification</text><rect fill="#F7F7F7" height="53.0762" rx="7.8125" ry="7.8125" style="stroke:#444444;stroke-width:0.78125;" width="376.5625" x="1603.125" y="1166.6992"/><text fill="#000000" font-family="Arial" font-size="18.75" lengthAdjust="spacing" textLength="345.3125" x="1618.75" y="1199.7284">Integration scope (APIs, SSO, SCIM)</text><rect fill="#F7F7F7" height="53.0762" rx="7.8125" ry="7.8125" style="stroke:#444444;stroke-width:0.78125;" width="570.3125" x="1506.25" y="1253.3691"/><text fill="#000000" font-family="Arial" font-size="18.75" lengthAdjust="spacing" textLength="539.0625" x="1521.875" y="1286.3983">Define vendor assurance artifacts (SOC2/ISO, pen test)</text><rect fill="none" height="251.416" rx="7.8125" ry="7.8125" style="stroke:#777777;stroke-width:2.34375;" width="1789.0625" x="153.9063" y="1543.0664"/><path d="M291.4063,1543.0664 L291.4063,1553.9551 L275.7813,1569.5801 L153.9063,1569.5801 " fill="none" style="stroke:#777777;stroke-width:2.34375;"/><text fill="#111111" font-family="Arial" font-size="18.75" lengthAdjust="spacing" textLength="121.875" x="158.5938" y="1562.0331">Install Model</text><polygon fill="#F7F7F7" points="275,1600.8301,390.625,1600.8301,409.375,1619.5801,390.625,1638.3301,275,1638.3301,256.25,1619.5801,275,1600.8301" style="stroke:#444444;stroke-width:0.78125;"/><text fill="#000000" font-family="Arial" font-size="18.75" lengthAdjust="spacing" textLength="54.6875" x="339.0625" y="1655.7343">Cloud</text><text fill="#000000" font-family="Arial" font-size="18.75" lengthAdjust="spacing" textLength="115.625" x="275" y="1626.0712">Install type?</text><rect fill="#F7F7F7" height="53.0762" rx="7.8125" ry="7.8125" style="stroke:#444444;stroke-width:0.78125;" width="326.5625" x="169.5313" y="1691.4063"/><text fill="#000000" font-family="Arial" font-size="18.75" lengthAdjust="spacing" textLength="295.3125" x="185.1563" y="1724.4354">Select scanning environments</text><polygon fill="#F7F7F7" points="660.1563,1600.8301,721.0938,1600.8301,739.8438,1619.5801,721.0938,1638.3301,660.1563,1638.3301,641.4063,1619.5801,660.1563,1600.8301" style="stroke:#444444;stroke-width:0.78125;"/><text fill="#000000" font-family="Arial" font-size="18.75" lengthAdjust="spacing" textLength="60.9375" x="660.1563" y="1626.0712">Hybrid</text><rect fill="#F7F7F7" height="53.0762" rx="7.8125" ry="7.8125" style="stroke:#444444;stroke-width:0.78125;" width="326.5625" x="527.3438" y="1669.5801"/><text fill="#000000" font-family="Arial" font-size="18.75" lengthAdjust="spacing" textLength="295.3125" x="542.9688" y="1702.6093">Select scanning environments</text><polygon fill="#F7F7F7" points="992.9688,1600.8301,1103.9063,1600.8301,1122.6563,1619.5801,1103.9063,1638.3301,992.9688,1638.3301,974.2188,1619.5801,992.9688,1600.8301" style="stroke:#444444;stroke-width:0.78125;"/><text fill="#000000" font-family="Arial" font-size="18.75" lengthAdjust="spacing" textLength="110.9375" x="992.9688" y="1626.0712">On Premise</text><rect fill="#F7F7F7" height="53.0762" rx="7.8125" ry="7.8125" style="stroke:#444444;stroke-width:0.78125;" width="326.5625" x="885.1563" y="1669.5801"/><text fill="#000000" font-family="Arial" font-size="18.75" lengthAdjust="spacing" textLength="295.3125" x="900.7813" y="1702.6093">Select scanning environments</text><polygon fill="#F7F7F7" points="1316.4063,1600.8301,1496.0938,1600.8301,1514.8438,1619.5801,1496.0938,1638.3301,1316.4063,1638.3301,1297.6563,1619.5801,1316.4063,1600.8301" style="stroke:#444444;stroke-width:0.78125;"/><text fill="#000000" font-family="Arial" font-size="18.75" lengthAdjust="spacing" textLength="179.6875" x="1316.4063" y="1626.0712">Third-party hosted</text><text fill="#000000" font-family="Arial" font-size="18.75" lengthAdjust="spacing" textLength="196.875" x="1514.8438" y="1615.1581">Service subscription</text><rect fill="#F7F7F7" height="53.0762" rx="7.8125" ry="7.8125" style="stroke:#444444;stroke-width:0.78125;" width="326.5625" x="1242.9688" y="1669.5801"/><text fill="#000000" font-family="Arial" font-size="18.75" lengthAdjust="spacing" textLength="295.3125" x="1258.5938" y="1702.6093">Select scanning environments</text><rect fill="#F7F7F7" height="53.0762" rx="7.8125" ry="7.8125" style="stroke:#444444;stroke-width:0.78125;" width="326.5625" x="1600.7813" y="1685.1807"/><text fill="#000000" font-family="Arial" font-size="18.75" lengthAdjust="spacing" textLength="295.3125" x="1616.4063" y="1718.2098">Select scanning environments</text><rect fill="none" height="549.6338" rx="7.8125" ry="7.8125" style="stroke:#777777;stroke-width:2.34375;" width="1449.2188" x="784.375" y="1810.1074"/><path d="M940.625,1810.1074 L940.625,1820.9961 L925,1836.6211 L784.375,1836.6211 " fill="none" style="stroke:#777777;stroke-width:2.34375;"/><text fill="#111111" font-family="Arial" font-size="18.75" lengthAdjust="spacing" textLength="140.625" x="789.0625" y="1829.0741">Coverage Plan</text><rect fill="#F7F7F7" height="53.0762" rx="7.8125" ry="7.8125" style="stroke:#444444;stroke-width:0.78125;" width="368.75" x="864.0625" y="1863.1836"/><text fill="#000000" font-family="Arial" font-size="18.75" lengthAdjust="spacing" textLength="337.5" x="879.6875" y="1896.2128">Define required gates (by risk tier)</text><rect fill="#F7F7F7" height="53.0762" rx="7.8125" ry="7.8125" style="stroke:#444444;stroke-width:0.78125;" width="417.1875" x="839.8438" y="1947.5098"/><text fill="#000000" font-family="Arial" font-size="18.75" lengthAdjust="spacing" textLength="385.9375" x="855.4688" y="1980.5389">Select IAST (Seeker) targets (AppCode)</text><rect fill="#F7F7F7" height="53.0762" rx="7.8125" ry="7.8125" style="stroke:#444444;stroke-width:0.78125;" width="496.875" x="800" y="2031.8359"/><text fill="#000000" font-family="Arial" font-size="18.75" lengthAdjust="spacing" textLength="465.625" x="815.625" y="2064.8651">Select DAST (InsightAppSec) targets (AppCode)</text><rect fill="#F7F7F7" height="53.0762" rx="7.8125" ry="7.8125" style="stroke:#444444;stroke-width:0.78125;" width="356.25" x="870.3125" y="2116.1621"/><text fill="#000000" font-family="Arial" font-size="18.75" lengthAdjust="spacing" textLength="325" x="885.9375" y="2149.1913">Define scan cadence + reporting</text><rect fill="#F7F7F7" height="53.0762" rx="7.8125" ry="7.8125" style="stroke:#444444;stroke-width:0.78125;" width="470.3125" x="813.2813" y="2200.4883"/><text fill="#000000" font-family="Arial" font-size="18.75" lengthAdjust="spacing" textLength="439.0625" x="828.9063" y="2233.5175">Define ownership routing (AppCode -&gt; team)</text><path d="M1311.7188,2281.7139 L1311.7188,2305.1025 L1280.4688,2311.3525 L1311.7188,2317.6025 L1311.7188,2340.9912 A0,0 0 0 0 1311.7188,2340.9912 L2217.9688,2340.9912 A0,0 0 0 0 2217.9688,2340.9912 L2217.9688,2297.3389 L2202.3438,2281.7139 L1311.7188,2281.7139 A0,0 0 0 0 1311.7188,2281.7139 " fill="#FFF8D6" style="stroke:#C7A700;stroke-width:0.78125;"/><path d="M2202.3438,2281.7139 L2202.3438,2297.3389 L2217.9688,2297.3389 L2202.3438,2281.7139 " fill="#FFF8D6" style="stroke:#C7A700;stroke-width:0.78125;"/><text fill="#000000" font-family="Arial" font-size="18.75" lengthAdjust="spacing" textLength="134.375" x="1321.0938" y="2306.9305">Key message:</text><text fill="#000000" font-family="Arial" font-size="18.75" font-weight="bold" lengthAdjust="spacing" textLength="732.8125" x="1461.7188" y="2306.9305">Every application has an AppCode, an owner, and a coverage plan</text><text fill="#000000" font-family="Arial" font-size="18.75" lengthAdjust="spacing" textLength="342.1875" x="1321.0938" y="2328.7567">based on app type + install model.</text><rect fill="#F7F7F7" height="53.0762" rx="7.8125" ry="7.8125" style="stroke:#444444;stroke-width:0.78125;" width="464.0625" x="816.4063" y="2284.8145"/><text fill="#000000" font-family="Arial" font-size="18.75" lengthAdjust="spacing" textLength="432.8125" x="832.0313" y="2317.8436">Create baseline record + compliance status</text><ellipse cx="1048.4375" cy="2408.1787" fill="none" rx="17.1875" ry="17.1875" style="stroke:#222222;stroke-width:1.5625;"/><ellipse cx="1048.4375" cy="2408.1787" fill="#222222" rx="9.375" ry="9.375" style="stroke:#222222;stroke-width:1.5625;"/><line style="stroke:#444444;stroke-width:1.5625;" x1="1048.4375" x2="1048.4375" y1="230.5664" y2="261.8164"/><polygon fill="#444444" points="1042.1875,246.1914,1048.4375,261.8164,1054.6875,246.1914,1048.4375,252.4414" style="stroke:#444444;stroke-width:1.5625;"/><line style="stroke:#444444;stroke-width:1.5625;" x1="1048.4375" x2="1048.4375" y1="314.8926" y2="346.1426"/><polygon fill="#444444" points="1042.1875,330.5176,1048.4375,346.1426,1054.6875,330.5176,1048.4375,336.7676" style="stroke:#444444;stroke-width:1.5625;"/><line style="stroke:#444444;stroke-width:1.5625;" x1="1048.4375" x2="1048.4375" y1="399.2188" y2="430.4688"/><polygon fill="#444444" points="1042.1875,414.8438,1048.4375,430.4688,1054.6875,414.8438,1048.4375,421.0938" style="stroke:#444444;stroke-width:1.5625;"/><line style="stroke:#444444;stroke-width:1.5625;" x1="1048.4375" x2="1048.4375" y1="483.5449" y2="514.7949"/><polygon fill="#444444" points="1042.1875,499.1699,1048.4375,514.7949,1054.6875,499.1699,1048.4375,505.4199" style="stroke:#444444;stroke-width:1.5625;"/><line style="stroke:#444444;stroke-width:1.5625;" x1="1048.4375" x2="1048.4375" y1="108.7891" y2="177.4902"/><polygon fill="#444444" points="1042.1875,161.8652,1048.4375,177.4902,1054.6875,161.8652,1048.4375,168.1152" style="stroke:#444444;stroke-width:1.5625;"/><line style="stroke:#444444;stroke-width:1.5625;" x1="482.8125" x2="482.8125" y1="803.6621" y2="856.7383"/><polygon fill="#444444" points="476.5625,841.1133,482.8125,856.7383,489.0625,841.1133,482.8125,847.3633" style="stroke:#444444;stroke-width:1.5625;"/><line style="stroke:#444444;stroke-width:1.5625;" x1="482.8125" x2="482.8125" y1="909.8145" y2="962.8906"/><polygon fill="#444444" points="476.5625,947.2656,482.8125,962.8906,489.0625,947.2656,482.8125,953.5156" style="stroke:#444444;stroke-width:1.5625;"/><line style="stroke:#444444;stroke-width:1.5625;" x1="374.2188" x2="253.125" y1="1087.793" y2="1087.793"/><line style="stroke:#444444;stroke-width:1.5625;" x1="253.125" x2="253.125" y1="1087.793" y2="1122.168"/><polygon fill="#444444" points="246.875,1106.543,253.125,1122.168,259.375,1106.543,253.125,1112.793" style="stroke:#444444;stroke-width:1.5625;"/><line style="stroke:#444444;stroke-width:1.5625;" x1="591.4063" x2="712.5" y1="1087.793" y2="1087.793"/><line style="stroke:#444444;stroke-width:1.5625;" x1="712.5" x2="712.5" y1="1087.793" y2="1122.168"/><polygon fill="#444444" points="706.25,1106.543,712.5,1122.168,718.75,1106.543,712.5,1112.793" style="stroke:#444444;stroke-width:1.5625;"/><line style="stroke:#444444;stroke-width:1.5625;" x1="253.125" x2="253.125" y1="1175.2441" y2="1203.3691"/><line style="stroke:#444444;stroke-width:1.5625;" x1="253.125" x2="464.0625" y1="1203.3691" y2="1203.3691"/><polygon fill="#444444" points="448.4375,1197.1191,464.0625,1203.3691,448.4375,1209.6191,454.6875,1203.3691" style="stroke:#444444;stroke-width:1.5625;"/><line style="stroke:#444444;stroke-width:1.5625;" x1="712.5" x2="712.5" y1="1175.2441" y2="1203.3691"/><line style="stroke:#444444;stroke-width:1.5625;" x1="712.5" x2="501.5625" y1="1203.3691" y2="1203.3691"/><polygon fill="#444444" points="517.1875,1197.1191,501.5625,1203.3691,517.1875,1209.6191,510.9375,1203.3691" style="stroke:#444444;stroke-width:1.5625;"/><line style="stroke:#444444;stroke-width:1.5625;" x1="482.8125" x2="482.8125" y1="1015.9668" y2="1069.043"/><polygon fill="#444444" points="476.5625,1053.418,482.8125,1069.043,489.0625,1053.418,482.8125,1059.668" style="stroke:#444444;stroke-width:1.5625;"/><line style="stroke:#444444;stroke-width:1.5625;" x1="482.8125" x2="482.8125" y1="1222.1191" y2="1255.7129"/><polygon fill="#444444" points="476.5625,1240.0879,482.8125,1255.7129,489.0625,1240.0879,482.8125,1246.3379" style="stroke:#444444;stroke-width:1.5625;"/><line style="stroke:#444444;stroke-width:1.5625;" x1="482.8125" x2="482.8125" y1="1308.7891" y2="1340.0391"/><polygon fill="#444444" points="476.5625,1324.4141,482.8125,1340.0391,489.0625,1324.4141,482.8125,1330.6641" style="stroke:#444444;stroke-width:1.5625;"/><line style="stroke:#444444;stroke-width:1.5625;" x1="482.8125" x2="482.8125" y1="1393.1152" y2="1424.3652"/><polygon fill="#444444" points="476.5625,1408.7402,482.8125,1424.3652,489.0625,1408.7402,482.8125,1414.9902" style="stroke:#444444;stroke-width:1.5625;"/><line style="stroke:#444444;stroke-width:1.5625;" x1="1222.6563" x2="1222.6563" y1="781.8359" y2="834.9121"/><polygon fill="#444444" points="1216.4063,819.2871,1222.6563,834.9121,1228.9063,819.2871,1222.6563,825.5371" style="stroke:#444444;stroke-width:1.5625;"/><line style="stroke:#444444;stroke-width:1.5625;" x1="1222.6563" x2="1222.6563" y1="887.9883" y2="941.0645"/><polygon fill="#444444" points="1216.4063,925.4395,1222.6563,941.0645,1228.9063,925.4395,1222.6563,931.6895" style="stroke:#444444;stroke-width:1.5625;"/><line style="stroke:#444444;stroke-width:1.5625;" x1="1222.6563" x2="1222.6563" y1="994.1406" y2="1047.2168"/><polygon fill="#444444" points="1216.4063,1031.5918,1222.6563,1047.2168,1228.9063,1031.5918,1222.6563,1037.8418" style="stroke:#444444;stroke-width:1.5625;"/><line style="stroke:#444444;stroke-width:1.5625;" x1="1791.4063" x2="1791.4063" y1="1005.8594" y2="1058.9355"/><polygon fill="#444444" points="1785.1563,1043.3105,1791.4063,1058.9355,1797.6563,1043.3105,1791.4063,1049.5605" style="stroke:#444444;stroke-width:1.5625;"/><line style="stroke:#444444;stroke-width:1.5625;" x1="1791.4063" x2="1791.4063" y1="1112.0117" y2="1166.6992"/><polygon fill="#444444" points="1785.1563,1151.0742,1791.4063,1166.6992,1797.6563,1151.0742,1791.4063,1157.3242" style="stroke:#444444;stroke-width:1.5625;"/><line style="stroke:#444444;stroke-width:1.5625;" x1="1791.4063" x2="1791.4063" y1="1219.7754" y2="1253.3691"/><polygon fill="#444444" points="1785.1563,1237.7441,1791.4063,1253.3691,1797.6563,1237.7441,1791.4063,1243.9941" style="stroke:#444444;stroke-width:1.5625;"/><line style="stroke:#444444;stroke-width:1.5625;" x1="482.8125" x2="482.8125" y1="697.5098" y2="750.5859"/><polygon fill="#444444" points="476.5625,734.9609,482.8125,750.5859,489.0625,734.9609,482.8125,741.2109" style="stroke:#444444;stroke-width:1.5625;"/><line style="stroke:#444444;stroke-width:1.5625;" x1="482.8125" x2="482.8125" y1="1477.4414" y2="1508.6914"/><polygon fill="#444444" points="476.5625,1493.0664,482.8125,1508.6914,489.0625,1493.0664,482.8125,1499.3164" style="stroke:#444444;stroke-width:1.5625;"/><line style="stroke:#444444;stroke-width:1.5625;" x1="1222.6563" x2="1222.6563" y1="697.5098" y2="728.7598"/><polygon fill="#444444" points="1216.4063,713.1348,1222.6563,728.7598,1228.9063,713.1348,1222.6563,719.3848" style="stroke:#444444;stroke-width:1.5625;"/><line style="stroke:#444444;stroke-width:1.5625;" x1="1222.6563" x2="1222.6563" y1="1100.293" y2="1508.6914"/><polygon fill="#444444" points="1216.4063,1493.0664,1222.6563,1508.6914,1228.9063,1493.0664,1222.6563,1499.3164" style="stroke:#444444;stroke-width:1.5625;"/><line style="stroke:#444444;stroke-width:1.5625;" x1="549.2188" x2="1178.9063" y1="678.7598" y2="678.7598"/><polygon fill="#444444" points="1163.2813,672.5098,1178.9063,678.7598,1163.2813,685.0098,1169.5313,678.7598" style="stroke:#444444;stroke-width:1.5625;"/><line style="stroke:#444444;stroke-width:1.5625;" x1="1048.4375" x2="1048.4375" y1="567.8711" y2="636.5723"/><line style="stroke:#444444;stroke-width:1.5625;" x1="1048.4375" x2="482.8125" y1="636.5723" y2="636.5723"/><line style="stroke:#444444;stroke-width:1.5625;" x1="482.8125" x2="482.8125" y1="636.5723" y2="660.0098"/><polygon fill="#444444" points="476.5625,644.3848,482.8125,660.0098,489.0625,644.3848,482.8125,650.6348" style="stroke:#444444;stroke-width:1.5625;"/><line style="stroke:#444444;stroke-width:1.5625;" x1="1266.4063" x2="1791.4063" y1="678.7598" y2="678.7598"/><line style="stroke:#444444;stroke-width:1.5625;" x1="1791.4063" x2="1791.4063" y1="678.7598" y2="952.7832"/><polygon fill="#444444" points="1785.1563,937.1582,1791.4063,952.7832,1797.6563,937.1582,1791.4063,943.4082" style="stroke:#444444;stroke-width:1.5625;"/><line style="stroke:#444444;stroke-width:1.5625;" x1="1791.4063" x2="1791.4063" y1="1306.4453" y2="1508.6914"/><polygon fill="#444444" points="1785.1563,1493.0664,1791.4063,1508.6914,1797.6563,1493.0664,1791.4063,1499.3164" style="stroke:#444444;stroke-width:1.5625;"/><line style="stroke:#444444;stroke-width:1.5625;" x1="482.8125" x2="1791.4063" y1="1508.6914" y2="1508.6914"/><line style="stroke:#444444;stroke-width:1.5625;" x1="332.8125" x2="332.8125" y1="1638.3301" y2="1691.4063"/><polygon fill="#444444" points="326.5625,1675.7813,332.8125,1691.4063,339.0625,1675.7813,332.8125,1682.0313" style="stroke:#444444;stroke-width:1.5625;"/><line style="stroke:#444444;stroke-width:1.5625;" x1="332.8125" x2="332.8125" y1="1744.4824" y2="1775.7324"/><polygon fill="#444444" points="326.5625,1760.1074,332.8125,1775.7324,339.0625,1760.1074,332.8125,1766.3574" style="stroke:#444444;stroke-width:1.5625;"/><line style="stroke:#444444;stroke-width:1.5625;" x1="690.625" x2="690.625" y1="1638.3301" y2="1669.5801"/><polygon fill="#444444" points="684.375,1653.9551,690.625,1669.5801,696.875,1653.9551,690.625,1660.2051" style="stroke:#444444;stroke-width:1.5625;"/><line style="stroke:#444444;stroke-width:1.5625;" x1="690.625" x2="690.625" y1="1722.6563" y2="1775.7324"/><polygon fill="#444444" points="684.375,1760.1074,690.625,1775.7324,696.875,1760.1074,690.625,1766.3574" style="stroke:#444444;stroke-width:1.5625;"/><line style="stroke:#444444;stroke-width:1.5625;" x1="1048.4375" x2="1048.4375" y1="1638.3301" y2="1669.5801"/><polygon fill="#444444" points="1042.1875,1653.9551,1048.4375,1669.5801,1054.6875,1653.9551,1048.4375,1660.2051" style="stroke:#444444;stroke-width:1.5625;"/><line style="stroke:#444444;stroke-width:1.5625;" x1="1048.4375" x2="1048.4375" y1="1722.6563" y2="1863.1836"/><polygon fill="#444444" points="1042.1875,1847.5586,1048.4375,1863.1836,1054.6875,1847.5586,1048.4375,1853.8086" style="stroke:#444444;stroke-width:1.5625;"/><line style="stroke:#444444;stroke-width:1.5625;" x1="1406.25" x2="1406.25" y1="1638.3301" y2="1669.5801"/><polygon fill="#444444" points="1400,1653.9551,1406.25,1669.5801,1412.5,1653.9551,1406.25,1660.2051" style="stroke:#444444;stroke-width:1.5625;"/><line style="stroke:#444444;stroke-width:1.5625;" x1="1406.25" x2="1406.25" y1="1722.6563" y2="1775.7324"/><polygon fill="#444444" points="1400,1760.1074,1406.25,1775.7324,1412.5,1760.1074,1406.25,1766.3574" style="stroke:#444444;stroke-width:1.5625;"/><line style="stroke:#444444;stroke-width:1.5625;" x1="409.375" x2="641.4063" y1="1619.5801" y2="1619.5801"/><polygon fill="#444444" points="625.7813,1613.3301,641.4063,1619.5801,625.7813,1625.8301,632.0313,1619.5801" style="stroke:#444444;stroke-width:1.5625;"/><line style="stroke:#444444;stroke-width:1.5625;" x1="739.8438" x2="974.2188" y1="1619.5801" y2="1619.5801"/><polygon fill="#444444" points="958.5938,1613.3301,974.2188,1619.5801,958.5938,1625.8301,964.8438,1619.5801" style="stroke:#444444;stroke-width:1.5625;"/><line style="stroke:#444444;stroke-width:1.5625;" x1="1122.6563" x2="1297.6563" y1="1619.5801" y2="1619.5801"/><polygon fill="#444444" points="1282.0313,1613.3301,1297.6563,1619.5801,1282.0313,1625.8301,1288.2813,1619.5801" style="stroke:#444444;stroke-width:1.5625;"/><line style="stroke:#444444;stroke-width:1.5625;" x1="1048.4375" x2="1048.4375" y1="1508.6914" y2="1577.3926"/><line style="stroke:#444444;stroke-width:1.5625;" x1="1048.4375" x2="332.8125" y1="1577.3926" y2="1577.3926"/><line style="stroke:#444444;stroke-width:1.5625;" x1="332.8125" x2="332.8125" y1="1577.3926" y2="1600.8301"/><polygon fill="#444444" points="326.5625,1585.2051,332.8125,1600.8301,339.0625,1585.2051,332.8125,1591.4551" style="stroke:#444444;stroke-width:1.5625;"/><line style="stroke:#444444;stroke-width:1.5625;" x1="1514.8438" x2="1764.0625" y1="1619.5801" y2="1619.5801"/><line style="stroke:#444444;stroke-width:1.5625;" x1="1764.0625" x2="1764.0625" y1="1619.5801" y2="1685.1807"/><polygon fill="#444444" points="1757.8125,1669.5557,1764.0625,1685.1807,1770.3125,1669.5557,1764.0625,1675.8057" style="stroke:#444444;stroke-width:1.5625;"/><line style="stroke:#444444;stroke-width:1.5625;" x1="1764.0625" x2="1764.0625" y1="1738.2568" y2="1775.7324"/><polygon fill="#444444" points="1757.8125,1760.1074,1764.0625,1775.7324,1770.3125,1760.1074,1764.0625,1766.3574" style="stroke:#444444;stroke-width:1.5625;"/><line style="stroke:#444444;stroke-width:1.5625;" x1="332.8125" x2="1764.0625" y1="1775.7324" y2="1775.7324"/><line style="stroke:#444444;stroke-width:1.5625;" x1="1048.4375" x2="1048.4375" y1="1916.2598" y2="1947.5098"/><polygon fill="#444444" points="1042.1875,1931.8848,1048.4375,1947.5098,1054.6875,1931.8848,1048.4375,1938.1348" style="stroke:#444444;stroke-width:1.5625;"/><line style="stroke:#444444;stroke-width:1.5625;" x1="1048.4375" x2="1048.4375" y1="2000.5859" y2="2031.8359"/><polygon fill="#444444" points="1042.1875,2016.2109,1048.4375,2031.8359,1054.6875,2016.2109,1048.4375,2022.4609" style="stroke:#444444;stroke-width:1.5625;"/><line style="stroke:#444444;stroke-width:1.5625;" x1="1048.4375" x2="1048.4375" y1="2084.9121" y2="2116.1621"/><polygon fill="#444444" points="1042.1875,2100.5371,1048.4375,2116.1621,1054.6875,2100.5371,1048.4375,2106.7871" style="stroke:#444444;stroke-width:1.5625;"/><line style="stroke:#444444;stroke-width:1.5625;" x1="1048.4375" x2="1048.4375" y1="2169.2383" y2="2200.4883"/><polygon fill="#444444" points="1042.1875,2184.8633,1048.4375,2200.4883,1054.6875,2184.8633,1048.4375,2191.1133" style="stroke:#444444;stroke-width:1.5625;"/><line style="stroke:#444444;stroke-width:1.5625;" x1="1048.4375" x2="1048.4375" y1="2253.5645" y2="2284.8145"/><polygon fill="#444444" points="1042.1875,2269.1895,1048.4375,2284.8145,1054.6875,2269.1895,1048.4375,2275.4395" style="stroke:#444444;stroke-width:1.5625;"/><line style="stroke:#444444;stroke-width:1.5625;" x1="1048.4375" x2="1048.4375" y1="2337.8906" y2="2390.9912"/><polygon fill="#444444" points="1042.1875,2375.3662,1048.4375,2390.9912,1054.6875,2375.3662,1048.4375,2381.6162" style="stroke:#444444;stroke-width:1.5625;"/><!--SRC=[bLLDRoCt3BtFhs3tqDhEXpS5UadG5jb9sXZTRBoTO84UQGtjKQsHL4bZmoZslvUIniuucm1D3ib48gb7FlBHhwMswB251OhrofbErwLHni6saO4AVxZt3TPcA_KAbgZyyAQs4Yv-UZyuIM64SPeSN0mlhfqpsnp_W-871rStjCHEXT-C3f-m9JQLg8hlf1QggmdEpwVzfv-YjPx4cGyxHUUsQrKHP53iOcr50kRE2F8UtbzSnYCb1GPfD3peXK5NnnI-Xz9ioE6AOAvG5yKFCE-SDPukeLJelLpk83G4EF0VLOZLj7nuhAPtfYKkrbR32KZj0oe5OMTf3AXhiCxKdM1d3dlu2SQeirXage7HTqu6Ve9yY7WiWu2j30q8HUY08vFpZRGf7aAdvJyT7MLJ6gxAY4_Yn_YyA1Y52qN1rUHgH8jtCnrmJU_WtmBWya_Y23w08q5oG_LLF6Gg58a0BGMiCI2CDDV-b8sicMv8ryQT0kcDT4Qtf8CV9xThBj1Aiu6BTPfCNiSrcII7MStEqNRHUQaZEIUSksWqUwcSxLK6oLrJG-_DfOq4y1-64epRmHJA-viFLyNNepptZELCvJ8zd_ZuTHnPPEeEX8sBI0O_P0rZA6VGyWjCoIZWAgTjfIN583CV-qIkijz7rAikjiq1Ktzngt71BLWPZUvpjw3O17_7qexMj8EVdyM96EE_dp-2w1ln0FKlyXdaKzJVxwuhgAwhnxtN69OyGdtC799uA67qoJptJOqUUssqGfk2lEIiQxaildcI-zHHy0SwmGjZ3xKu0bTUJs_8SXnScF2AGnmrU7Hoi-Dpr1ntXYMp87ZcKSQEJvOnarGWdhIUhdcQgC2sd8nFm_YCc3a6mTFJeDQasAwptCy40hdpH9_bPTLPQrn83pfCyOYHgDov5aFJ6x8OnGx84m2rz48Ptxb8UnmfnlRb5h3UI6-Sf2VOMIDwq5-ozmcNqMsae6ymFv96pSF7Hn5o6a2HUxcVfjwG1vcxDwDC5ULGyva_XQfwu5_bx7xy8d0ErJdKKOfuM9QSCTUyUYX_dCwY8zEL52Z3JotmzPc0P6cxZmYVfcisKBn3svRAT7MVUKL9LIB9EihRK4663D_j5aw-rUb1iy9JApszqV6naQu-Y-dje34-q5jUvhhrBFfkuOMJDfRe_mPueRP72wZNw9uznr8j7OlIYbkO6Llim4c_XY39PG7k7vmbIQY8rdm1hF-huRGUcTuaKsPEhfgG5-Lh7ZsAcCr-VhWxepQwkAo6DazxYbT-scI7oJ_xXNiBsnooT1IdSO4-IwlBEXz7l-NLaLgKUofqFccxDcpi8jBY3rRFbXS6L-gIDyqj5srtj9KRzBmazt9s6hyJgjD-TUxrDUtOoQI866emURF43Xwiy3I9vmNJ1H52tAd6_WS0]--></g></svg>