<?plantuml 1.2026.2?><svg xmlns="http://www.w3.org/2000/svg" xmlns:xlink="http://www.w3.org/1999/xlink" contentStyleType="text/css" data-diagram-type="ACTIVITY" height="2442.1875px" preserveAspectRatio="none" style="width:2175px;height:2442px;background:#FFFFFF;" version="1.1" viewBox="0 0 2175 2442" width="2175px" zoomAndPan="magnify"><title>AppSec Process 01: Application Onboarding &amp; Coverage Plan</title><defs/><g><g class="title" data-source-line="2"><text fill="#000000" font-family="Arial" font-size="25" font-weight="bold" lengthAdjust="spacing" textLength="861.1206" x="655.2185" y="54.4556">AppSec Process 01: Application Onboarding &amp; Coverage Plan</text></g><ellipse cx="1019.8334" cy="93.1641" fill="#222222" rx="15.625" ry="15.625" style="stroke:#222222;stroke-width:1.5625;"/><rect fill="none" height="462.207" rx="7.8125" ry="7.8125" style="stroke:#777777;stroke-width:2.3438;" width="565.2435" x="737.2116" y="124.4141"/><path d="M811.4853,124.4141 L811.4853,135.3027 L795.8603,150.9277 L737.2116,150.9277" fill="none" style="stroke:#777777;stroke-width:2.3438;"/><text fill="#111111" font-family="Arial" font-size="18.75" lengthAdjust="spacing" textLength="58.6487" x="741.8991" y="143.3807">Intake</text><rect fill="#F7F7F7" height="53.0762" rx="7.8125" ry="7.8125" style="stroke:#444444;stroke-width:0.7813;" width="195.047" x="922.3099" y="177.4902"/><text fill="#000000" font-family="Arial" font-size="18.75" lengthAdjust="spacing" textLength="163.797" x="937.9349" y="210.5194">Request received</text><rect fill="#F7F7F7" height="53.0762" rx="7.8125" ry="7.8125" style="stroke:#444444;stroke-width:0.7813;" width="533.9935" x="752.8366" y="261.8164"/><text fill="#000000" font-family="Arial" font-size="18.75" lengthAdjust="spacing" textLength="502.7435" x="768.4616" y="294.8456">Collect metadata (name, repo/vendor, environments)</text><rect fill="#F7F7F7" height="53.0762" rx="7.8125" ry="7.8125" style="stroke:#444444;stroke-width:0.7813;" width="454.837" x="792.4149" y="346.1426"/><text fill="#000000" font-family="Arial" font-size="18.75" lengthAdjust="spacing" textLength="120.9229" x="808.0399" y="379.1718">Assign/verify</text><text fill="#000000" font-family="Arial" font-size="18.75" font-weight="bold" lengthAdjust="spacing" textLength="296.7041" x="934.9228" y="379.1718">Application Code (AppCode)</text><rect fill="#F7F7F7" height="53.0762" rx="7.8125" ry="7.8125" style="stroke:#444444;stroke-width:0.7813;" width="366.745" x="836.4609" y="430.4688"/><text fill="#000000" font-family="Arial" font-size="18.75" lengthAdjust="spacing" textLength="335.495" x="852.0859" y="463.4979">Identify business + technical owner</text><rect fill="#F7F7F7" height="53.0762" rx="7.8125" ry="7.8125" style="stroke:#444444;stroke-width:0.7813;" width="422.1069" x="808.7799" y="514.7949"/><text fill="#000000" font-family="Arial" font-size="18.75" lengthAdjust="spacing" textLength="390.8569" x="824.4049" y="547.8241">Record AppCode in app inventory / CMDB</text><rect fill="none" height="925.1953" rx="7.8125" ry="7.8125" style="stroke:#777777;stroke-width:2.3438;" width="2017.7917" x="17.1875" y="602.2461"/><path d="M105.0476,602.2461 L105.0476,613.1348 L89.4226,628.7598 L17.1875,628.7598" fill="none" style="stroke:#777777;stroke-width:2.3438;"/><text fill="#111111" font-family="Arial" font-size="18.75" lengthAdjust="spacing" textLength="72.2351" x="21.875" y="621.2128">Classify</text><polygon fill="#F7F7F7" points="425.7782,660.0098,520.2057,660.0098,538.9557,678.7598,520.2057,697.5098,425.7782,697.5098,407.0282,678.7598,425.7782,660.0098" style="stroke:#444444;stroke-width:0.7813;"/><text fill="#000000" font-family="Arial" font-size="18.75" lengthAdjust="spacing" textLength="113.6719" x="479.2419" y="714.9139">Homegrown</text><text fill="#000000" font-family="Arial" font-size="18.75" lengthAdjust="spacing" textLength="94.4275" x="425.7782" y="685.2509">App type?</text><rect fill="#F7F7F7" height="53.0762" rx="7.8125" ry="7.8125" style="stroke:#444444;stroke-width:0.7813;" width="525.3418" x="210.321" y="750.5859"/><text fill="#000000" font-family="Arial" font-size="18.75" lengthAdjust="spacing" textLength="494.0918" x="225.946" y="783.6151">Repo + CI mapped (tag repo/pipeline with AppCode)</text><rect fill="#F7F7F7" height="53.0762" rx="7.8125" ry="7.8125" style="stroke:#444444;stroke-width:0.7813;" width="218.9789" x="363.5025" y="856.7383"/><text fill="#000000" font-family="Arial" font-size="18.75" lengthAdjust="spacing" textLength="187.7289" x="379.1275" y="889.7675">Language inventory</text><rect fill="#F7F7F7" height="53.0762" rx="7.8125" ry="7.8125" style="stroke:#444444;stroke-width:0.7813;" width="443.4021" x="251.2909" y="962.8906"/><text fill="#000000" font-family="Arial" font-size="18.75" lengthAdjust="spacing" textLength="412.1521" x="266.9159" y="995.9198">Enable SonarQube project (key = AppCode)</text><polygon fill="#F7F7F7" points="384.9091,1069.043,561.0748,1069.043,579.8248,1087.793,561.0748,1106.543,384.9091,1106.543,366.1591,1087.793,384.9091,1069.043" style="stroke:#444444;stroke-width:0.7813;"/><text fill="#000000" font-family="Arial" font-size="18.75" lengthAdjust="spacing" textLength="176.1658" x="384.9091" y="1094.2841">CodeQL coverage?</text><text fill="#000000" font-family="Arial" font-size="18.75" lengthAdjust="spacing" textLength="32.7576" x="333.4015" y="1083.371">Yes</text><text fill="#000000" font-family="Arial" font-size="18.75" lengthAdjust="spacing" textLength="25.4974" x="579.8248" y="1083.371">No</text><rect fill="#F7F7F7" height="53.0762" rx="7.8125" ry="7.8125" style="stroke:#444444;stroke-width:0.7813;" width="424.6063" x="35.9375" y="1122.168"/><text fill="#000000" font-family="Arial" font-size="18.75" lengthAdjust="spacing" textLength="393.3563" x="51.5625" y="1155.1971">Enable GHAS SAST (CodeQL) for AppCode</text><rect fill="#F7F7F7" height="53.0762" rx="7.8125" ry="7.8125" style="stroke:#444444;stroke-width:0.7813;" width="411.8988" x="491.7938" y="1122.168"/><text fill="#000000" font-family="Arial" font-size="18.75" lengthAdjust="spacing" textLength="380.6488" x="507.4188" y="1155.1971">Enable Coverity (gap SAST) for AppCode</text><polygon fill="#F7F7F7" points="472.9919,1184.6191,491.7419,1203.3691,472.9919,1222.1191,454.2419,1203.3691,472.9919,1184.6191" style="stroke:#444444;stroke-width:0.7813;"/><rect fill="#F7F7F7" height="53.0762" rx="7.8125" ry="7.8125" style="stroke:#444444;stroke-width:0.7813;" width="394.5404" x="275.7217" y="1255.7129"/><text fill="#000000" font-family="Arial" font-size="18.75" lengthAdjust="spacing" textLength="363.2904" x="291.3467" y="1288.7421">Enable GHAS secrets (AppCode scope)</text><rect fill="#F7F7F7" height="53.0762" rx="7.8125" ry="7.8125" style="stroke:#444444;stroke-width:0.7813;" width="486.1115" x="229.9362" y="1340.0391"/><text fill="#000000" font-family="Arial" font-size="18.75" lengthAdjust="spacing" textLength="454.8615" x="245.5612" y="1373.0682">Enable GHAS SCA/Dependabot (AppCode scope)</text><rect fill="#F7F7F7" height="53.0762" rx="7.8125" ry="7.8125" style="stroke:#444444;stroke-width:0.7813;" width="359.787" x="293.0984" y="1424.3652"/><text fill="#000000" font-family="Arial" font-size="18.75" lengthAdjust="spacing" textLength="328.537" x="308.7234" y="1457.3944">Plan Trivy scans (IaC + containers)</text><polygon fill="#F7F7F7" points="1169.2154,660.0098,1220.4208,660.0098,1239.1708,678.7598,1220.4208,697.5098,1169.2154,697.5098,1150.4654,678.7598,1169.2154,660.0098" style="stroke:#444444;stroke-width:0.7813;"/><text fill="#000000" font-family="Arial" font-size="18.75" lengthAdjust="spacing" textLength="51.2054" x="1169.2154" y="685.2509">COTS</text><text fill="#000000" font-family="Arial" font-size="18.75" lengthAdjust="spacing" textLength="46.7834" x="1239.1708" y="674.3378">SaaS</text><rect fill="#F7F7F7" height="53.0762" rx="7.8125" ry="7.8125" style="stroke:#444444;stroke-width:0.7813;" width="304.7089" x="1042.4637" y="728.7598"/><text fill="#000000" font-family="Arial" font-size="18.75" lengthAdjust="spacing" textLength="273.4589" x="1058.0887" y="761.7889">Product + version (AppCode)</text><rect fill="#F7F7F7" height="53.0762" rx="7.8125" ry="7.8125" style="stroke:#444444;stroke-width:0.7813;" width="342.3645" x="1023.6359" y="834.9121"/><text fill="#000000" font-family="Arial" font-size="18.75" lengthAdjust="spacing" textLength="311.1145" x="1039.2609" y="867.9413">Patch channel + update cadence</text><rect fill="#F7F7F7" height="53.0762" rx="7.8125" ry="7.8125" style="stroke:#444444;stroke-width:0.7813;" width="361.142" x="1014.2471" y="941.0645"/><text fill="#000000" font-family="Arial" font-size="18.75" lengthAdjust="spacing" textLength="329.892" x="1029.8721" y="974.0936">Support contract + escalation path</text><rect fill="#F7F7F7" height="53.0762" rx="7.8125" ry="7.8125" style="stroke:#444444;stroke-width:0.7813;" width="488.501" x="950.5676" y="1047.2168"/><text fill="#000000" font-family="Arial" font-size="18.75" lengthAdjust="spacing" textLength="457.251" x="966.1926" y="1080.246">Define vendor disclosure intake (CVE advisories)</text><rect fill="#F7F7F7" height="53.0762" rx="7.8125" ry="7.8125" style="stroke:#444444;stroke-width:0.7813;" width="298.5931" x="1595.5399" y="952.7832"/><text fill="#000000" font-family="Arial" font-size="18.75" lengthAdjust="spacing" textLength="267.3431" x="1611.1649" y="985.8124">Vendor + service (AppCode)</text><rect fill="#F7F7F7" height="53.0762" rx="7.8125" ry="7.8125" style="stroke:#444444;stroke-width:0.7813;" width="358.2947" x="1565.6891" y="1058.9355"/><text fill="#000000" font-family="Arial" font-size="18.75" lengthAdjust="spacing" textLength="327.0447" x="1581.3141" y="1091.9647">Tenant model + data classification</text><rect fill="#F7F7F7" height="53.0762" rx="7.8125" ry="7.8125" style="stroke:#444444;stroke-width:0.7813;" width="364.6393" x="1562.5168" y="1166.6992"/><text fill="#000000" font-family="Arial" font-size="18.75" lengthAdjust="spacing" textLength="333.3893" x="1578.1418" y="1199.7284">Integration scope (APIs, SSO, SCIM)</text><rect fill="#F7F7F7" height="53.0762" rx="7.8125" ry="7.8125" style="stroke:#444444;stroke-width:0.7813;" width="549.0356" x="1470.3186" y="1253.3691"/><text fill="#000000" font-family="Arial" font-size="18.75" lengthAdjust="spacing" textLength="517.7856" x="1485.9436" y="1286.3983">Define vendor assurance artifacts (SOC2/ISO, pen test)</text><rect fill="none" height="251.416" rx="7.8125" ry="7.8125" style="stroke:#777777;stroke-width:2.3438;" width="1730.9265" x="154.3701" y="1543.0664"/><path d="M288.6932,1543.0664 L288.6932,1553.9551 L273.0682,1569.5801 L154.3701,1569.5801" fill="none" style="stroke:#777777;stroke-width:2.3438;"/><text fill="#111111" font-family="Arial" font-size="18.75" lengthAdjust="spacing" textLength="118.6981" x="159.0576" y="1562.0331">Install Model</text><polygon fill="#F7F7F7" points="270.343,1600.8301,384.5825,1600.8301,403.3325,1619.5801,384.5825,1638.3301,270.343,1638.3301,251.593,1619.5801,270.343,1600.8301" style="stroke:#444444;stroke-width:0.7813;"/><text fill="#000000" font-family="Arial" font-size="18.75" lengthAdjust="spacing" textLength="53.5583" x="333.7128" y="1655.7343">Cloud</text><text fill="#000000" font-family="Arial" font-size="18.75" lengthAdjust="spacing" textLength="114.2395" x="270.343" y="1626.0712">Install type?</text><rect fill="#F7F7F7" height="53.0762" rx="7.8125" ry="7.8125" style="stroke:#444444;stroke-width:0.7813;" width="314.9353" x="169.9951" y="1691.4063"/><text fill="#000000" font-family="Arial" font-size="18.75" lengthAdjust="spacing" textLength="283.6853" x="185.6201" y="1724.4354">Select scanning environments</text><polygon fill="#F7F7F7" points="642.6895,1600.8301,704.6066,1600.8301,723.3566,1619.5801,704.6066,1638.3301,642.6895,1638.3301,623.9395,1619.5801,642.6895,1600.8301" style="stroke:#444444;stroke-width:0.7813;"/><text fill="#000000" font-family="Arial" font-size="18.75" lengthAdjust="spacing" textLength="61.9171" x="642.6895" y="1626.0712">Hybrid</text><rect fill="#F7F7F7" height="53.0762" rx="7.8125" ry="7.8125" style="stroke:#444444;stroke-width:0.7813;" width="314.9353" x="516.1804" y="1669.5801"/><text fill="#000000" font-family="Arial" font-size="18.75" lengthAdjust="spacing" textLength="283.6853" x="531.8054" y="1702.6093">Select scanning environments</text><polygon fill="#F7F7F7" points="965.8676,1600.8301,1073.7991,1600.8301,1092.5491,1619.5801,1073.7991,1638.3301,965.8676,1638.3301,947.1176,1619.5801,965.8676,1600.8301" style="stroke:#444444;stroke-width:0.7813;"/><text fill="#000000" font-family="Arial" font-size="18.75" lengthAdjust="spacing" textLength="107.9315" x="965.8676" y="1626.0712">On Premise</text><rect fill="#F7F7F7" height="53.0762" rx="7.8125" ry="7.8125" style="stroke:#444444;stroke-width:0.7813;" width="314.9353" x="862.3657" y="1669.5801"/><text fill="#000000" font-family="Arial" font-size="18.75" lengthAdjust="spacing" textLength="283.6853" x="877.9907" y="1702.6093">Select scanning environments</text><polygon fill="#F7F7F7" points="1278.8467,1600.8301,1453.1906,1600.8301,1471.9406,1619.5801,1453.1906,1638.3301,1278.8467,1638.3301,1260.0967,1619.5801,1278.8467,1600.8301" style="stroke:#444444;stroke-width:0.7813;"/><text fill="#000000" font-family="Arial" font-size="18.75" lengthAdjust="spacing" textLength="174.3439" x="1278.8467" y="1626.0712">Third-party hosted</text><text fill="#000000" font-family="Arial" font-size="18.75" lengthAdjust="spacing" textLength="189.624" x="1471.9406" y="1615.1581">Service subscription</text><rect fill="#F7F7F7" height="53.0762" rx="7.8125" ry="7.8125" style="stroke:#444444;stroke-width:0.7813;" width="314.9353" x="1208.551" y="1669.5801"/><text fill="#000000" font-family="Arial" font-size="18.75" lengthAdjust="spacing" textLength="283.6853" x="1224.176" y="1702.6093">Select scanning environments</text><rect fill="#F7F7F7" height="53.0762" rx="7.8125" ry="7.8125" style="stroke:#444444;stroke-width:0.7813;" width="314.9353" x="1554.7363" y="1685.1807"/><text fill="#000000" font-family="Arial" font-size="18.75" lengthAdjust="spacing" textLength="283.6853" x="1570.3613" y="1718.2098">Select scanning environments</text><rect fill="none" height="549.6338" rx="7.8125" ry="7.8125" style="stroke:#777777;stroke-width:2.3438;" width="1394.0781" x="764.9796" y="1810.1074"/><path d="M916.2857,1810.1074 L916.2857,1820.9961 L900.6607,1836.6211 L764.9796,1836.6211" fill="none" style="stroke:#777777;stroke-width:2.3438;"/><text fill="#111111" font-family="Arial" font-size="18.75" lengthAdjust="spacing" textLength="135.6812" x="769.6671" y="1829.0741">Coverage Plan</text><rect fill="#F7F7F7" height="53.0762" rx="7.8125" ry="7.8125" style="stroke:#444444;stroke-width:0.7813;" width="356.665" x="841.5009" y="1863.1836"/><text fill="#000000" font-family="Arial" font-size="18.75" lengthAdjust="spacing" textLength="325.415" x="857.1259" y="1896.2128">Define required gates (by risk tier)</text><rect fill="#F7F7F7" height="53.0762" rx="7.8125" ry="7.8125" style="stroke:#444444;stroke-width:0.7813;" width="400.7202" x="819.4733" y="1947.5098"/><text fill="#000000" font-family="Arial" font-size="18.75" lengthAdjust="spacing" textLength="369.4702" x="835.0983" y="1980.5389">Select IAST (Seeker) targets (AppCode)</text><rect fill="#F7F7F7" height="53.0762" rx="7.8125" ry="7.8125" style="stroke:#444444;stroke-width:0.7813;" width="478.4576" x="780.6046" y="2031.8359"/><text fill="#000000" font-family="Arial" font-size="18.75" lengthAdjust="spacing" textLength="447.2076" x="796.2296" y="2064.8651">Select DAST (InsightAppSec) targets (AppCode)</text><rect fill="#F7F7F7" height="53.0762" rx="7.8125" ry="7.8125" style="stroke:#444444;stroke-width:0.7813;" width="341.0919" x="849.2874" y="2116.1621"/><text fill="#000000" font-family="Arial" font-size="18.75" lengthAdjust="spacing" textLength="309.8419" x="864.9124" y="2149.1913">Define scan cadence + reporting</text><rect fill="#F7F7F7" height="53.0762" rx="7.8125" ry="7.8125" style="stroke:#444444;stroke-width:0.7813;" width="456.7413" x="791.4627" y="2200.4883"/><text fill="#000000" font-family="Arial" font-size="18.75" lengthAdjust="spacing" textLength="425.4913" x="807.0877" y="2233.5175">Define ownership routing (AppCode -&gt; team)</text><path d="M1273.0042,2281.7139 L1273.0042,2305.1025 L1241.7542,2311.3525 L1273.0042,2317.6025 L1273.0042,2340.9912 A0,0 0 0 0 1273.0042,2340.9912 L2143.4326,2340.9912 A0,0 0 0 0 2143.4326,2340.9912 L2143.4326,2297.3389 L2127.8076,2281.7139 L1273.0042,2281.7139 A0,0 0 0 0 1273.0042,2281.7139" fill="#FFF8D6" style="stroke:#C7A700;stroke-width:0.7813;"/><path d="M2127.8076,2281.7139 L2127.8076,2297.3389 L2143.4326,2297.3389 L2127.8076,2281.7139" fill="#FFF8D6" style="stroke:#C7A700;stroke-width:0.7813;"/><text fill="#000000" font-family="Arial" font-size="18.75" lengthAdjust="spacing" textLength="131.4697" x="1282.3792" y="2306.9305">Key message:</text><text fill="#000000" font-family="Arial" font-size="18.75" font-weight="bold" lengthAdjust="spacing" textLength="700.1862" x="1419.809" y="2306.9305">Every application has an AppCode, an owner, and a coverage plan</text><text fill="#000000" font-family="Arial" font-size="18.75" lengthAdjust="spacing" textLength="329.068" x="1282.3792" y="2328.7567">based on app type + install model.</text><rect fill="#F7F7F7" height="53.0762" rx="7.8125" ry="7.8125" style="stroke:#444444;stroke-width:0.7813;" width="443.8416" x="797.9126" y="2284.8145"/><text fill="#000000" font-family="Arial" font-size="18.75" lengthAdjust="spacing" textLength="412.5916" x="813.5376" y="2317.8436">Create baseline record + compliance status</text><ellipse cx="1019.8334" cy="2408.1787" fill="none" rx="17.1875" ry="17.1875" style="stroke:#222222;stroke-width:1.5625;"/><ellipse cx="1019.8334" cy="2408.1787" fill="#222222" rx="9.375" ry="9.375" style="stroke:#222222;stroke-width:1.5625;"/><line style="stroke:#444444;stroke-width:1.5625;" x1="1019.8334" x2="1019.8334" y1="230.5664" y2="261.8164"/><polygon fill="#444444" points="1013.5834,246.1914,1019.8334,261.8164,1026.0834,246.1914,1019.8334,252.4414" style="stroke:#444444;stroke-width:1.5625;"/><line style="stroke:#444444;stroke-width:1.5625;" x1="1019.8334" x2="1019.8334" y1="314.8926" y2="346.1426"/><polygon fill="#444444" points="1013.5834,330.5176,1019.8334,346.1426,1026.0834,330.5176,1019.8334,336.7676" style="stroke:#444444;stroke-width:1.5625;"/><line style="stroke:#444444;stroke-width:1.5625;" x1="1019.8334" x2="1019.8334" y1="399.2188" y2="430.4688"/><polygon fill="#444444" points="1013.5834,414.8438,1019.8334,430.4688,1026.0834,414.8438,1019.8334,421.0938" style="stroke:#444444;stroke-width:1.5625;"/><line style="stroke:#444444;stroke-width:1.5625;" x1="1019.8334" x2="1019.8334" y1="483.5449" y2="514.7949"/><polygon fill="#444444" points="1013.5834,499.1699,1019.8334,514.7949,1026.0834,499.1699,1019.8334,505.4199" style="stroke:#444444;stroke-width:1.5625;"/><line style="stroke:#444444;stroke-width:1.5625;" x1="1019.8334" x2="1019.8334" y1="108.7891" y2="177.4902"/><polygon fill="#444444" points="1013.5834,161.8652,1019.8334,177.4902,1026.0834,161.8652,1019.8334,168.1152" style="stroke:#444444;stroke-width:1.5625;"/><line style="stroke:#444444;stroke-width:1.5625;" x1="472.9919" x2="472.9919" y1="803.6621" y2="856.7383"/><polygon fill="#444444" points="466.7419,841.1133,472.9919,856.7383,479.2419,841.1133,472.9919,847.3633" style="stroke:#444444;stroke-width:1.5625;"/><line style="stroke:#444444;stroke-width:1.5625;" x1="472.9919" x2="472.9919" y1="909.8145" y2="962.8906"/><polygon fill="#444444" points="466.7419,947.2656,472.9919,962.8906,479.2419,947.2656,472.9919,953.5156" style="stroke:#444444;stroke-width:1.5625;"/><line style="stroke:#444444;stroke-width:1.5625;" x1="366.1591" x2="248.2407" y1="1087.793" y2="1087.793"/><line style="stroke:#444444;stroke-width:1.5625;" x1="248.2407" x2="248.2407" y1="1087.793" y2="1122.168"/><polygon fill="#444444" points="241.9907,1106.543,248.2407,1122.168,254.4907,1106.543,248.2407,1112.793" style="stroke:#444444;stroke-width:1.5625;"/><line style="stroke:#444444;stroke-width:1.5625;" x1="579.8248" x2="697.7432" y1="1087.793" y2="1087.793"/><line style="stroke:#444444;stroke-width:1.5625;" x1="697.7432" x2="697.7432" y1="1087.793" y2="1122.168"/><polygon fill="#444444" points="691.4932,1106.543,697.7432,1122.168,703.9932,1106.543,697.7432,1112.793" style="stroke:#444444;stroke-width:1.5625;"/><line style="stroke:#444444;stroke-width:1.5625;" x1="248.2407" x2="248.2407" y1="1175.2441" y2="1203.3691"/><line style="stroke:#444444;stroke-width:1.5625;" x1="248.2407" x2="454.2419" y1="1203.3691" y2="1203.3691"/><polygon fill="#444444" points="438.6169,1197.1191,454.2419,1203.3691,438.6169,1209.6191,444.8669,1203.3691" style="stroke:#444444;stroke-width:1.5625;"/><line style="stroke:#444444;stroke-width:1.5625;" x1="697.7432" x2="697.7432" y1="1175.2441" y2="1203.3691"/><line style="stroke:#444444;stroke-width:1.5625;" x1="697.7432" x2="491.7419" y1="1203.3691" y2="1203.3691"/><polygon fill="#444444" points="507.3669,1197.1191,491.7419,1203.3691,507.3669,1209.6191,501.1169,1203.3691" style="stroke:#444444;stroke-width:1.5625;"/><line style="stroke:#444444;stroke-width:1.5625;" x1="472.9919" x2="472.9919" y1="1015.9668" y2="1069.043"/><polygon fill="#444444" points="466.7419,1053.418,472.9919,1069.043,479.2419,1053.418,472.9919,1059.668" style="stroke:#444444;stroke-width:1.5625;"/><line style="stroke:#444444;stroke-width:1.5625;" x1="472.9919" x2="472.9919" y1="1222.1191" y2="1255.7129"/><polygon fill="#444444" points="466.7419,1240.0879,472.9919,1255.7129,479.2419,1240.0879,472.9919,1246.3379" style="stroke:#444444;stroke-width:1.5625;"/><line style="stroke:#444444;stroke-width:1.5625;" x1="472.9919" x2="472.9919" y1="1308.7891" y2="1340.0391"/><polygon fill="#444444" points="466.7419,1324.4141,472.9919,1340.0391,479.2419,1324.4141,472.9919,1330.6641" style="stroke:#444444;stroke-width:1.5625;"/><line style="stroke:#444444;stroke-width:1.5625;" x1="472.9919" x2="472.9919" y1="1393.1152" y2="1424.3652"/><polygon fill="#444444" points="466.7419,1408.7402,472.9919,1424.3652,479.2419,1408.7402,472.9919,1414.9902" style="stroke:#444444;stroke-width:1.5625;"/><line style="stroke:#444444;stroke-width:1.5625;" x1="1194.8181" x2="1194.8181" y1="781.8359" y2="834.9121"/><polygon fill="#444444" points="1188.5681,819.2871,1194.8181,834.9121,1201.0681,819.2871,1194.8181,825.5371" style="stroke:#444444;stroke-width:1.5625;"/><line style="stroke:#444444;stroke-width:1.5625;" x1="1194.8181" x2="1194.8181" y1="887.9883" y2="941.0645"/><polygon fill="#444444" points="1188.5681,925.4395,1194.8181,941.0645,1201.0681,925.4395,1194.8181,931.6895" style="stroke:#444444;stroke-width:1.5625;"/><line style="stroke:#444444;stroke-width:1.5625;" x1="1194.8181" x2="1194.8181" y1="994.1406" y2="1047.2168"/><polygon fill="#444444" points="1188.5681,1031.5918,1194.8181,1047.2168,1201.0681,1031.5918,1194.8181,1037.8418" style="stroke:#444444;stroke-width:1.5625;"/><line style="stroke:#444444;stroke-width:1.5625;" x1="1744.8364" x2="1744.8364" y1="1005.8594" y2="1058.9355"/><polygon fill="#444444" points="1738.5864,1043.3105,1744.8364,1058.9355,1751.0864,1043.3105,1744.8364,1049.5605" style="stroke:#444444;stroke-width:1.5625;"/><line style="stroke:#444444;stroke-width:1.5625;" x1="1744.8364" x2="1744.8364" y1="1112.0117" y2="1166.6992"/><polygon fill="#444444" points="1738.5864,1151.0742,1744.8364,1166.6992,1751.0864,1151.0742,1744.8364,1157.3242" style="stroke:#444444;stroke-width:1.5625;"/><line style="stroke:#444444;stroke-width:1.5625;" x1="1744.8364" x2="1744.8364" y1="1219.7754" y2="1253.3691"/><polygon fill="#444444" points="1738.5864,1237.7441,1744.8364,1253.3691,1751.0864,1237.7441,1744.8364,1243.9941" style="stroke:#444444;stroke-width:1.5625;"/><line style="stroke:#444444;stroke-width:1.5625;" x1="472.9919" x2="472.9919" y1="697.5098" y2="750.5859"/><polygon fill="#444444" points="466.7419,734.9609,472.9919,750.5859,479.2419,734.9609,472.9919,741.2109" style="stroke:#444444;stroke-width:1.5625;"/><line style="stroke:#444444;stroke-width:1.5625;" x1="472.9919" x2="472.9919" y1="1477.4414" y2="1508.6914"/><polygon fill="#444444" points="466.7419,1493.0664,472.9919,1508.6914,479.2419,1493.0664,472.9919,1499.3164" style="stroke:#444444;stroke-width:1.5625;"/><line style="stroke:#444444;stroke-width:1.5625;" x1="1194.8181" x2="1194.8181" y1="697.5098" y2="728.7598"/><polygon fill="#444444" points="1188.5681,713.1348,1194.8181,728.7598,1201.0681,713.1348,1194.8181,719.3848" style="stroke:#444444;stroke-width:1.5625;"/><line style="stroke:#444444;stroke-width:1.5625;" x1="1194.8181" x2="1194.8181" y1="1100.293" y2="1508.6914"/><polygon fill="#444444" points="1188.5681,1493.0664,1194.8181,1508.6914,1201.0681,1493.0664,1194.8181,1499.3164" style="stroke:#444444;stroke-width:1.5625;"/><line style="stroke:#444444;stroke-width:1.5625;" x1="538.9557" x2="1150.4654" y1="678.7598" y2="678.7598"/><polygon fill="#444444" points="1134.8404,672.5098,1150.4654,678.7598,1134.8404,685.0098,1141.0904,678.7598" style="stroke:#444444;stroke-width:1.5625;"/><line style="stroke:#444444;stroke-width:1.5625;" x1="1019.8334" x2="1019.8334" y1="567.8711" y2="636.5723"/><line style="stroke:#444444;stroke-width:1.5625;" x1="1019.8334" x2="472.9919" y1="636.5723" y2="636.5723"/><line style="stroke:#444444;stroke-width:1.5625;" x1="472.9919" x2="472.9919" y1="636.5723" y2="660.0098"/><polygon fill="#444444" points="466.7419,644.3848,472.9919,660.0098,479.2419,644.3848,472.9919,650.6348" style="stroke:#444444;stroke-width:1.5625;"/><line style="stroke:#444444;stroke-width:1.5625;" x1="1239.1708" x2="1744.8364" y1="678.7598" y2="678.7598"/><line style="stroke:#444444;stroke-width:1.5625;" x1="1744.8364" x2="1744.8364" y1="678.7598" y2="952.7832"/><polygon fill="#444444" points="1738.5864,937.1582,1744.8364,952.7832,1751.0864,937.1582,1744.8364,943.4082" style="stroke:#444444;stroke-width:1.5625;"/><line style="stroke:#444444;stroke-width:1.5625;" x1="1744.8364" x2="1744.8364" y1="1306.4453" y2="1508.6914"/><polygon fill="#444444" points="1738.5864,1493.0664,1744.8364,1508.6914,1751.0864,1493.0664,1744.8364,1499.3164" style="stroke:#444444;stroke-width:1.5625;"/><line style="stroke:#444444;stroke-width:1.5625;" x1="472.9919" x2="1744.8364" y1="1508.6914" y2="1508.6914"/><line style="stroke:#444444;stroke-width:1.5625;" x1="327.4628" x2="327.4628" y1="1638.3301" y2="1691.4063"/><polygon fill="#444444" points="321.2128,1675.7813,327.4628,1691.4063,333.7128,1675.7813,327.4628,1682.0313" style="stroke:#444444;stroke-width:1.5625;"/><line style="stroke:#444444;stroke-width:1.5625;" x1="327.4628" x2="327.4628" y1="1744.4824" y2="1775.7324"/><polygon fill="#444444" points="321.2128,1760.1074,327.4628,1775.7324,333.7128,1760.1074,327.4628,1766.3574" style="stroke:#444444;stroke-width:1.5625;"/><line style="stroke:#444444;stroke-width:1.5625;" x1="673.6481" x2="673.6481" y1="1638.3301" y2="1669.5801"/><polygon fill="#444444" points="667.3981,1653.9551,673.6481,1669.5801,679.8981,1653.9551,673.6481,1660.2051" style="stroke:#444444;stroke-width:1.5625;"/><line style="stroke:#444444;stroke-width:1.5625;" x1="673.6481" x2="673.6481" y1="1722.6563" y2="1775.7324"/><polygon fill="#444444" points="667.3981,1760.1074,673.6481,1775.7324,679.8981,1760.1074,673.6481,1766.3574" style="stroke:#444444;stroke-width:1.5625;"/><line style="stroke:#444444;stroke-width:1.5625;" x1="1019.8334" x2="1019.8334" y1="1638.3301" y2="1669.5801"/><polygon fill="#444444" points="1013.5834,1653.9551,1019.8334,1669.5801,1026.0834,1653.9551,1019.8334,1660.2051" style="stroke:#444444;stroke-width:1.5625;"/><line style="stroke:#444444;stroke-width:1.5625;" x1="1019.8334" x2="1019.8334" y1="1722.6563" y2="1863.1836"/><polygon fill="#444444" points="1013.5834,1847.5586,1019.8334,1863.1836,1026.0834,1847.5586,1019.8334,1853.8086" style="stroke:#444444;stroke-width:1.5625;"/><line style="stroke:#444444;stroke-width:1.5625;" x1="1366.0187" x2="1366.0187" y1="1638.3301" y2="1669.5801"/><polygon fill="#444444" points="1359.7687,1653.9551,1366.0187,1669.5801,1372.2687,1653.9551,1366.0187,1660.2051" style="stroke:#444444;stroke-width:1.5625;"/><line style="stroke:#444444;stroke-width:1.5625;" x1="1366.0187" x2="1366.0187" y1="1722.6563" y2="1775.7324"/><polygon fill="#444444" points="1359.7687,1760.1074,1366.0187,1775.7324,1372.2687,1760.1074,1366.0187,1766.3574" style="stroke:#444444;stroke-width:1.5625;"/><line style="stroke:#444444;stroke-width:1.5625;" x1="403.3325" x2="623.9395" y1="1619.5801" y2="1619.5801"/><polygon fill="#444444" points="608.3145,1613.3301,623.9395,1619.5801,608.3145,1625.8301,614.5645,1619.5801" style="stroke:#444444;stroke-width:1.5625;"/><line style="stroke:#444444;stroke-width:1.5625;" x1="723.3566" x2="947.1176" y1="1619.5801" y2="1619.5801"/><polygon fill="#444444" points="931.4926,1613.3301,947.1176,1619.5801,931.4926,1625.8301,937.7426,1619.5801" style="stroke:#444444;stroke-width:1.5625;"/><line style="stroke:#444444;stroke-width:1.5625;" x1="1092.5491" x2="1260.0967" y1="1619.5801" y2="1619.5801"/><polygon fill="#444444" points="1244.4717,1613.3301,1260.0967,1619.5801,1244.4717,1625.8301,1250.7217,1619.5801" style="stroke:#444444;stroke-width:1.5625;"/><line style="stroke:#444444;stroke-width:1.5625;" x1="1019.8334" x2="1019.8334" y1="1508.6914" y2="1577.3926"/><line style="stroke:#444444;stroke-width:1.5625;" x1="1019.8334" x2="327.4628" y1="1577.3926" y2="1577.3926"/><line style="stroke:#444444;stroke-width:1.5625;" x1="327.4628" x2="327.4628" y1="1577.3926" y2="1600.8301"/><polygon fill="#444444" points="321.2128,1585.2051,327.4628,1600.8301,333.7128,1585.2051,327.4628,1591.4551" style="stroke:#444444;stroke-width:1.5625;"/><line style="stroke:#444444;stroke-width:1.5625;" x1="1471.9406" x2="1712.204" y1="1619.5801" y2="1619.5801"/><line style="stroke:#444444;stroke-width:1.5625;" x1="1712.204" x2="1712.204" y1="1619.5801" y2="1685.1807"/><polygon fill="#444444" points="1705.954,1669.5557,1712.204,1685.1807,1718.454,1669.5557,1712.204,1675.8057" style="stroke:#444444;stroke-width:1.5625;"/><line style="stroke:#444444;stroke-width:1.5625;" x1="1712.204" x2="1712.204" y1="1738.2568" y2="1775.7324"/><polygon fill="#444444" points="1705.954,1760.1074,1712.204,1775.7324,1718.454,1760.1074,1712.204,1766.3574" style="stroke:#444444;stroke-width:1.5625;"/><line style="stroke:#444444;stroke-width:1.5625;" x1="327.4628" x2="1712.204" y1="1775.7324" y2="1775.7324"/><line style="stroke:#444444;stroke-width:1.5625;" x1="1019.8334" x2="1019.8334" y1="1916.2598" y2="1947.5098"/><polygon fill="#444444" points="1013.5834,1931.8848,1019.8334,1947.5098,1026.0834,1931.8848,1019.8334,1938.1348" style="stroke:#444444;stroke-width:1.5625;"/><line style="stroke:#444444;stroke-width:1.5625;" x1="1019.8334" x2="1019.8334" y1="2000.5859" y2="2031.8359"/><polygon fill="#444444" points="1013.5834,2016.2109,1019.8334,2031.8359,1026.0834,2016.2109,1019.8334,2022.4609" style="stroke:#444444;stroke-width:1.5625;"/><line style="stroke:#444444;stroke-width:1.5625;" x1="1019.8334" x2="1019.8334" y1="2084.9121" y2="2116.1621"/><polygon fill="#444444" points="1013.5834,2100.5371,1019.8334,2116.1621,1026.0834,2100.5371,1019.8334,2106.7871" style="stroke:#444444;stroke-width:1.5625;"/><line style="stroke:#444444;stroke-width:1.5625;" x1="1019.8334" x2="1019.8334" y1="2169.2383" y2="2200.4883"/><polygon fill="#444444" points="1013.5834,2184.8633,1019.8334,2200.4883,1026.0834,2184.8633,1019.8334,2191.1133" style="stroke:#444444;stroke-width:1.5625;"/><line style="stroke:#444444;stroke-width:1.5625;" x1="1019.8334" x2="1019.8334" y1="2253.5645" y2="2284.8145"/><polygon fill="#444444" points="1013.5834,2269.1895,1019.8334,2284.8145,1026.0834,2269.1895,1019.8334,2275.4395" style="stroke:#444444;stroke-width:1.5625;"/><line style="stroke:#444444;stroke-width:1.5625;" x1="1019.8334" x2="1019.8334" y1="2337.8906" y2="2390.9912"/><polygon fill="#444444" points="1013.5834,2375.3662,1019.8334,2390.9912,1026.0834,2375.3662,1019.8334,2381.6162" style="stroke:#444444;stroke-width:1.5625;"/><?plantuml-src bLLDRoCt3BtFhs3tqDhEXpS5UadG5jb9sXZTRBoTO84UQGtjKQsHL4bZmoZslvUIniuucm1D3ib48gb7FlBHhwMswB251OhrofbErwLHni6saO4AVxZt3TPcA_KAbgZyyAQs4Yv-UZyuIM64SPeSN0mlhfqpsnp_W-871rStjCHEXT-C3f-m9JQLg8hlf1QggmdEpwVzfv-YjPx4cGyxHUUsQrKHP53iOcr50kRE2F8UtbzSnYCb1GPfD3peXK5NnnI-Xz9ioE6AOAvG5yKFCE-SDPukeLJelLpk83G4EF0VLOZLj7nuhAPtfYKkrbR32KZj0oe5OMTf3AXhiCxKdM1d3dlu2SQeirXage7HTqu6Ve9yY7WiWu2j30q8HUY08vFpZRGf7aAdvJyT7MLJ6gxAY4_Yn_YyA1Y52qN1rUHgH8jtCnrmJU_WtmBWya_Y23w08q5oG_LLF6Gg58a0BGMiCI2CDDV-b8sicMv8ryQT0kcDT4Qtf8CV9xThBj1Aiu6BTPfCNiSrcII7MStEqNRHUQaZEIUSksWqUwcSxLK6oLrJG-_DfOq4y1-64epRmHJA-viFLyNNepptZELCvJ8zd_ZuTHnPPEeEX8sBI0O_P0rZA6VGyWjCoIZWAgTjfIN583CV-qIkijz7rAikjiq1Ktzngt71BLWPZUvpjw3O17_7qexMj8EVdyM96EE_dp-2w1ln0FKlyXdaKzJVxwuhgAwhnxtN69OyGdtC799uA67qoJptJOqUUssqGfk2lEIiQxaildcI-zHHy0SwmGjZ3xKu0bTUJs_8SXnScF2AGnmrU7Hoi-Dpr1ntXYMp87ZcKSQEJvOnarGWdhIUhdcQgC2sd8nFm_YCc3a6mTFJeDQasAwptCy40hdpH9_bPTLPQrn83pfCyOYHgDov5aFJ6x8OnGx84m2rz48Ptxb8UnmfnlRb5h3UI6-Sf2VOMIDwq5-ozmcNqMsae6ymFv96pSF7Hn5o6a2HUxcVfjwG1vcxDwDC5ULGyva_XQfwu5_bx7xy8d0ErJdKKOfuM9QSCTUyUYX_dCwY8zEL52Z3JotmzPc0P6cxZmYVfcisKBn3svRAT7MVUKL9LIB9EihRK4663D_j5aw-rUb1iy9JApszqV6naQu-Y-dje34-q5jUvhhrBFfkuOMJDfRe_mPueRP72wZNw9uznr8j7OlIYbkO6Llim4c_XY39PG7k7vmbIQY8rdm1hF-huRGUcTuaKsPEhfgG5-Lh7ZsAcCr-VhWxepQwkAo6DazxYbT-scI7oJ_xXNiBsnooT1IdSO4-IwlBEXz7l-NLaLgKUofqFccxDcpi8jBY3rRFbXS6L-gIDyqj5srtj9KRzBmazt9s6hyJgjD-TUxrDUtOoQI866emURF43Xwiy3I9vmNJ1H52tAd6_WS0?></g></svg>