<?plantuml 1.2026.2?><svg xmlns="http://www.w3.org/2000/svg" xmlns:xlink="http://www.w3.org/1999/xlink" contentStyleType="text/css" data-diagram-type="ACTIVITY" height="2278.125px" preserveAspectRatio="none" style="width:1532px;height:2278px;background:#FFFFFF;" version="1.1" viewBox="0 0 1532 2278" width="1532.8125px" zoomAndPan="magnify"><title>Seeker Agent Update - Readiness and Approval</title><defs/><g><g class="title" data-source-line="1"><text fill="#000000" font-family="Arial" font-size="21.875" font-weight="bold" lengthAdjust="spacing" textLength="585.5835" x="471.4203" y="51.5549">Seeker Agent Update - Readiness and Approval</text></g><ellipse cx="767.9222" cy="89.5264" fill="#5B8FF9" rx="15.625" ry="15.625" style="stroke:#222222;stroke-width:1.5625;"/><rect fill="#FAFAFA" height="256.5186" rx="7.8125" ry="7.8125" style="stroke:#BDBDBD;stroke-width:2.3438;" width="312.9517" x="611.4464" y="120.7764"/><path d="M883.4297,120.7764 L883.4297,135.3027 L867.8047,150.9277 L611.4464,150.9277" fill="none" style="stroke:#BDBDBD;stroke-width:2.3438;"/><text fill="#222222" font-family="Arial" font-size="21.875" lengthAdjust="spacing" textLength="256.3583" x="616.1339" y="142.6437">AppSec / Seeker Admin</text><rect fill="#F7F7F7" height="74.9023" rx="7.8125" ry="7.8125" style="stroke:#4C4C4C;stroke-width:0.7813;" width="241.8304" x="647.007" y="177.4902"/><text fill="#222222" font-family="Arial" font-size="18.75" lengthAdjust="spacing" textLength="210.5804" x="662.632" y="210.5194">Confirm Seeker server</text><text fill="#222222" font-family="Arial" font-size="18.75" lengthAdjust="spacing" textLength="183.7646" x="662.632" y="232.3456">upgrade completed</text><rect fill="#F7F7F7" height="74.9023" rx="7.8125" ry="7.8125" style="stroke:#4C4C4C;stroke-width:0.7813;" width="281.7017" x="627.0714" y="283.6426"/><text fill="#222222" font-family="Arial" font-size="18.75" lengthAdjust="spacing" textLength="222.0154" x="642.6964" y="316.6718">Identify impacted apps,</text><text fill="#222222" font-family="Arial" font-size="18.75" lengthAdjust="spacing" textLength="250.4517" x="642.6964" y="338.4979">owners, and environments</text><rect fill="#FAFAFA" height="256.5186" rx="7.8125" ry="7.8125" style="stroke:#BDBDBD;stroke-width:2.3438;" width="303.9886" x="615.9279" y="392.9199"/><path d="M850.5592,392.9199 L850.5592,407.4463 L834.9342,423.0713 L615.9279,423.0713" fill="none" style="stroke:#BDBDBD;stroke-width:2.3438;"/><text fill="#222222" font-family="Arial" font-size="21.875" lengthAdjust="spacing" textLength="219.0063" x="620.6154" y="414.7873">Application Security</text><rect fill="#F7F7F7" height="74.9023" rx="7.8125" ry="7.8125" style="stroke:#4C4C4C;stroke-width:0.7813;" width="272.7386" x="631.5529" y="449.6338"/><text fill="#222222" font-family="Arial" font-size="18.75" lengthAdjust="spacing" textLength="241.4886" x="647.1779" y="482.663">Capture application code,</text><text fill="#222222" font-family="Arial" font-size="18.75" lengthAdjust="spacing" textLength="206.9" x="647.1779" y="504.4891">stack, and install type</text><rect fill="#F7F7F7" height="74.9023" rx="7.8125" ry="7.8125" style="stroke:#4C4C4C;stroke-width:0.7813;" width="260.553" x="637.6457" y="555.7861"/><text fill="#222222" font-family="Arial" font-size="18.75" lengthAdjust="spacing" textLength="184.964" x="653.2707" y="588.8153">Map update path to</text><text fill="#222222" font-family="Arial" font-size="18.75" lengthAdjust="spacing" textLength="229.303" x="653.2707" y="610.6415">stack-specific procedure</text><rect fill="#FAFAFA" height="234.6924" rx="7.8125" ry="7.8125" style="stroke:#BDBDBD;stroke-width:2.3438;" width="374.6948" x="580.5748" y="665.0635"/><path d="M786.9118,665.0635 L786.9118,679.5898 L771.2868,695.2148 L580.5748,695.2148" fill="none" style="stroke:#BDBDBD;stroke-width:2.3438;"/><text fill="#222222" font-family="Arial" font-size="21.875" lengthAdjust="spacing" textLength="190.712" x="585.2623" y="686.9308">Application Team</text><rect fill="#F7F7F7" height="74.9023" rx="7.8125" ry="7.8125" style="stroke:#4C4C4C;stroke-width:0.7813;" width="343.4448" x="596.1998" y="721.7773"/><text fill="#222222" font-family="Arial" font-size="18.75" lengthAdjust="spacing" textLength="312.1948" x="611.8248" y="754.8065">Document current agent version,</text><text fill="#222222" font-family="Arial" font-size="18.75" lengthAdjust="spacing" textLength="297.3633" x="611.8248" y="776.6327">attach method, and config path</text><rect fill="#F7F7F7" height="53.0762" rx="7.8125" ry="7.8125" style="stroke:#4C4C4C;stroke-width:0.7813;" width="298.4009" x="618.7218" y="827.9297"/><text fill="#222222" font-family="Arial" font-size="18.75" lengthAdjust="spacing" textLength="267.1509" x="634.3468" y="860.9589">Define validation traffic plan</text><rect fill="#FAFAFA" height="340.8447" rx="7.8125" ry="7.8125" style="stroke:#BDBDBD;stroke-width:2.3438;" width="335.025" x="600.4097" y="915.3809"/><path d="M815.6975,915.3809 L815.6975,929.9072 L800.0725,945.5322 L600.4097,945.5322" fill="none" style="stroke:#BDBDBD;stroke-width:2.3438;"/><text fill="#222222" font-family="Arial" font-size="21.875" lengthAdjust="spacing" textLength="199.6628" x="605.0972" y="937.2482">DevOps / Platform</text><rect fill="#F7F7F7" height="74.9023" rx="7.8125" ry="7.8125" style="stroke:#4C4C4C;stroke-width:0.7813;" width="241.7023" x="647.0711" y="972.0947"/><text fill="#222222" font-family="Arial" font-size="18.75" lengthAdjust="spacing" textLength="210.4523" x="662.6961" y="1005.1239">Verify network path to</text><text fill="#222222" font-family="Arial" font-size="18.75" lengthAdjust="spacing" textLength="203.1921" x="662.6961" y="1026.9501">SEEKER_SERVER_URL</text><rect fill="#F7F7F7" height="74.9023" rx="7.8125" ry="7.8125" style="stroke:#4C4C4C;stroke-width:0.7813;" width="287.8174" x="624.0135" y="1078.2471"/><text fill="#222222" font-family="Arial" font-size="18.75" lengthAdjust="spacing" textLength="256.5674" x="639.6385" y="1111.2762">Confirm restart or redeploy</text><text fill="#222222" font-family="Arial" font-size="18.75" lengthAdjust="spacing" textLength="182.666" x="639.6385" y="1133.1024">window is available</text><rect fill="#F7F7F7" height="53.0762" rx="7.8125" ry="7.8125" style="stroke:#4C4C4C;stroke-width:0.7813;" width="303.775" x="616.0347" y="1184.3994"/><text fill="#222222" font-family="Arial" font-size="18.75" lengthAdjust="spacing" textLength="272.525" x="631.6597" y="1217.4286">Confirm backup targets exist</text><rect fill="#FAFAFA" height="128.54" rx="7.8125" ry="7.8125" style="stroke:#BDBDBD;stroke-width:2.3438;" width="387.3291" x="574.2577" y="1358.8982"/><path d="M789.5454,1358.8982 L789.5454,1373.4245 L773.9204,1389.0495 L574.2577,1389.0495" fill="none" style="stroke:#BDBDBD;stroke-width:2.3438;"/><text fill="#222222" font-family="Arial" font-size="21.875" lengthAdjust="spacing" textLength="199.6628" x="578.9452" y="1380.7655">DevOps / Platform</text><rect fill="#F7F7F7" height="53.0762" rx="7.8125" ry="7.8125" style="stroke:#4C4C4C;stroke-width:0.7813;" width="356.0791" x="589.8827" y="1415.612"/><text fill="#222222" font-family="Arial" font-size="18.75" lengthAdjust="spacing" textLength="324.8291" x="605.5077" y="1448.6412">Create config and artifact backups</text><polygon fill="#FFF6E5" points="684.2464,1287.4756,851.598,1287.4756,870.348,1306.2256,851.598,1324.9756,684.2464,1324.9756,665.4964,1306.2256,684.2464,1287.4756" style="stroke:#B26B00;stroke-width:0.7813;"/><text fill="#000000" font-family="Arial" font-size="17.1875" lengthAdjust="spacing" textLength="21.4088" x="774.1722" y="1340.9294">no</text><text fill="#222222" font-family="Arial" font-size="17.1875" lengthAdjust="spacing" textLength="167.3515" x="684.2464" y="1312.1758">Backups complete?</text><text fill="#000000" font-family="Arial" font-size="17.1875" lengthAdjust="spacing" textLength="29.7005" x="870.348" y="1302.1721">yes</text><polygon fill="#FFF6E5" points="767.9222,1518.6882,786.6722,1537.4382,767.9222,1556.1882,749.1722,1537.4382,767.9222,1518.6882" style="stroke:#B26B00;stroke-width:0.7813;"/><rect fill="#FAFAFA" height="150.3662" rx="7.8125" ry="7.8125" style="stroke:#BDBDBD;stroke-width:2.3438;" width="329.9622" x="602.9411" y="1571.8132"/><path d="M837.5725,1571.8132 L837.5725,1586.3396 L821.9475,1601.9646 L602.9411,1601.9646" fill="none" style="stroke:#BDBDBD;stroke-width:2.3438;"/><text fill="#222222" font-family="Arial" font-size="21.875" lengthAdjust="spacing" textLength="219.0063" x="607.6286" y="1593.6806">Application Security</text><rect fill="#F7F7F7" height="74.9023" rx="7.8125" ry="7.8125" style="stroke:#4C4C4C;stroke-width:0.7813;" width="298.7122" x="618.5661" y="1628.5271"/><text fill="#222222" font-family="Arial" font-size="18.75" lengthAdjust="spacing" textLength="267.4622" x="634.1911" y="1661.5562">Review rollback method and</text><text fill="#222222" font-family="Arial" font-size="18.75" lengthAdjust="spacing" textLength="145.8252" x="634.1911" y="1683.3824">success criteria</text><polygon fill="#FFF6E5" points="678.3173,1753.4294,857.5272,1753.4294,876.2772,1772.1794,857.5272,1790.9294,678.3173,1790.9294,659.5673,1772.1794,678.3173,1753.4294" style="stroke:#B26B00;stroke-width:0.7813;"/><text fill="#222222" font-family="Arial" font-size="17.1875" lengthAdjust="spacing" textLength="179.2099" x="678.3173" y="1778.1296">Go/No-Go approved?</text><text fill="#000000" font-family="Arial" font-size="17.1875" lengthAdjust="spacing" textLength="21.4256" x="638.1416" y="1768.1259">go</text><text fill="#000000" font-family="Arial" font-size="17.1875" lengthAdjust="spacing" textLength="49.0364" x="876.2772" y="1768.1259">no-go</text><rect fill="#FAFAFA" height="150.3662" rx="7.8125" ry="7.8125" style="stroke:#BDBDBD;stroke-width:2.3438;" width="320.285" x="433.3786" y="1806.5544"/><path d="M668.0099,1806.5544 L668.0099,1821.0808 L652.3849,1836.7058 L433.3786,1836.7058" fill="none" style="stroke:#BDBDBD;stroke-width:2.3438;"/><text fill="#222222" font-family="Arial" font-size="21.875" lengthAdjust="spacing" textLength="219.0063" x="438.0661" y="1828.4218">Application Security</text><rect fill="#F7F7F7" height="74.9023" rx="7.8125" ry="7.8125" style="stroke:#4C4C4C;stroke-width:0.7813;" width="289.035" x="449.0036" y="1863.2683"/><text fill="#222222" font-family="Arial" font-size="18.75" lengthAdjust="spacing" textLength="257.785" x="464.6286" y="1896.2975">Release execution package</text><text fill="#222222" font-family="Arial" font-size="18.75" lengthAdjust="spacing" textLength="145.4498" x="464.6286" y="1918.1236">to update team</text><ellipse cx="593.5211" cy="2005.3581" fill="none" rx="17.1875" ry="17.1875" style="stroke:#222222;stroke-width:1.5625;"/><ellipse cx="593.5211" cy="2005.3581" fill="#222222" rx="9.375" ry="9.375" style="stroke:#222222;stroke-width:1.5625;"/><rect fill="#FAFAFA" height="150.3662" rx="7.8125" ry="7.8125" style="stroke:#BDBDBD;stroke-width:2.3438;" width="314.8193" x="784.9136" y="1806.5544"/><path d="M1019.545,1806.5544 L1019.545,1821.0808 L1003.92,1836.7058 L784.9136,1836.7058" fill="none" style="stroke:#BDBDBD;stroke-width:2.3438;"/><text fill="#222222" font-family="Arial" font-size="21.875" lengthAdjust="spacing" textLength="219.0063" x="789.6011" y="1828.4218">Application Security</text><rect fill="#F7F7F7" height="74.9023" rx="7.8125" ry="7.8125" style="stroke:#4C4C4C;stroke-width:0.7813;" width="283.5693" x="800.5386" y="1863.2683"/><text fill="#222222" font-family="Arial" font-size="18.75" lengthAdjust="spacing" textLength="252.3193" x="816.1636" y="1896.2975">Reschedule and remediate</text><text fill="#222222" font-family="Arial" font-size="18.75" lengthAdjust="spacing" textLength="210.0128" x="816.1636" y="1918.1236">gaps before execution</text><ellipse cx="942.3233" cy="2005.3581" fill="none" rx="17.1875" ry="17.1875" style="stroke:#222222;stroke-width:1.5625;"/><ellipse cx="942.3233" cy="2005.3581" fill="#222222" rx="9.375" ry="9.375" style="stroke:#222222;stroke-width:1.5625;"/><line style="stroke:#000000;stroke-width:1.5625;" x1="767.9222" x2="767.9222" y1="252.3926" y2="283.6426"/><polygon fill="#000000" points="761.6722,268.0176,767.9222,283.6426,774.1722,268.0176,767.9222,274.2676" style="stroke:#000000;stroke-width:1.5625;"/><line style="stroke:#000000;stroke-width:1.5625;" x1="767.9222" x2="767.9222" y1="105.1514" y2="177.4902"/><polygon fill="#000000" points="761.6722,161.8652,767.9222,177.4902,774.1722,161.8652,767.9222,168.1152" style="stroke:#000000;stroke-width:1.5625;"/><line style="stroke:#000000;stroke-width:1.5625;" x1="767.9222" x2="767.9222" y1="524.5361" y2="555.7861"/><polygon fill="#000000" points="761.6722,540.1611,767.9222,555.7861,774.1722,540.1611,767.9222,546.4111" style="stroke:#000000;stroke-width:1.5625;"/><line style="stroke:#000000;stroke-width:1.5625;" x1="767.9222" x2="767.9222" y1="358.5449" y2="449.6338"/><polygon fill="#000000" points="761.6722,434.0088,767.9222,449.6338,774.1722,434.0088,767.9222,440.2588" style="stroke:#000000;stroke-width:1.5625;"/><line style="stroke:#000000;stroke-width:1.5625;" x1="767.9222" x2="767.9222" y1="796.6797" y2="827.9297"/><polygon fill="#000000" points="761.6722,812.3047,767.9222,827.9297,774.1722,812.3047,767.9222,818.5547" style="stroke:#000000;stroke-width:1.5625;"/><line style="stroke:#000000;stroke-width:1.5625;" x1="767.9222" x2="767.9222" y1="630.6885" y2="721.7773"/><polygon fill="#000000" points="761.6722,706.1523,767.9222,721.7773,774.1722,706.1523,767.9222,712.4023" style="stroke:#000000;stroke-width:1.5625;"/><line style="stroke:#000000;stroke-width:1.5625;" x1="767.9222" x2="767.9222" y1="1046.9971" y2="1078.2471"/><polygon fill="#000000" points="761.6722,1062.6221,767.9222,1078.2471,774.1722,1062.6221,767.9222,1068.8721" style="stroke:#000000;stroke-width:1.5625;"/><line style="stroke:#000000;stroke-width:1.5625;" x1="767.9222" x2="767.9222" y1="1153.1494" y2="1184.3994"/><polygon fill="#000000" points="761.6722,1168.7744,767.9222,1184.3994,774.1722,1168.7744,767.9222,1175.0244" style="stroke:#000000;stroke-width:1.5625;"/><line style="stroke:#000000;stroke-width:1.5625;" x1="767.9222" x2="767.9222" y1="881.0059" y2="972.0947"/><polygon fill="#000000" points="761.6722,956.4697,767.9222,972.0947,774.1722,956.4697,767.9222,962.7197" style="stroke:#000000;stroke-width:1.5625;"/><line style="stroke:#000000;stroke-width:1.5625;" x1="767.9222" x2="767.9222" y1="1324.9756" y2="1415.612"/><polygon fill="#000000" points="761.6722,1399.987,767.9222,1415.612,774.1722,1399.987,767.9222,1406.237" style="stroke:#000000;stroke-width:1.5625;"/><line style="stroke:#000000;stroke-width:1.5625;" x1="870.348" x2="977.2118" y1="1306.2256" y2="1306.2256"/><polygon fill="#000000" points="970.9618,1413.7932,977.2118,1429.4182,983.4618,1413.7932,977.2118,1420.0432" style="stroke:#000000;stroke-width:1.5625;"/><line style="stroke:#000000;stroke-width:1.5625;" x1="977.2118" x2="977.2118" y1="1306.2256" y2="1537.4382"/><line style="stroke:#000000;stroke-width:1.5625;" x1="977.2118" x2="786.6722" y1="1537.4382" y2="1537.4382"/><polygon fill="#000000" points="802.2972,1531.1882,786.6722,1537.4382,802.2972,1543.6882,796.0472,1537.4382" style="stroke:#000000;stroke-width:1.5625;"/><line style="stroke:#000000;stroke-width:1.5625;" x1="767.9222" x2="767.9222" y1="1468.6882" y2="1518.6882"/><polygon fill="#000000" points="761.6722,1503.0632,767.9222,1518.6882,774.1722,1503.0632,767.9222,1509.3132" style="stroke:#000000;stroke-width:1.5625;"/><line style="stroke:#000000;stroke-width:1.5625;" x1="767.9222" x2="767.9222" y1="1237.4756" y2="1287.4756"/><polygon fill="#000000" points="761.6722,1271.8506,767.9222,1287.4756,774.1722,1271.8506,767.9222,1278.1006" style="stroke:#000000;stroke-width:1.5625;"/><line style="stroke:#000000;stroke-width:1.5625;" x1="767.9222" x2="767.9222" y1="1556.1882" y2="1628.5271"/><polygon fill="#000000" points="761.6722,1612.9021,767.9222,1628.5271,774.1722,1612.9021,767.9222,1619.1521" style="stroke:#000000;stroke-width:1.5625;"/><line style="stroke:#000000;stroke-width:1.5625;" x1="593.5211" x2="593.5211" y1="1938.1706" y2="1988.1706"/><polygon fill="#000000" points="587.2711,1972.5456,593.5211,1988.1706,599.7711,1972.5456,593.5211,1978.7956" style="stroke:#000000;stroke-width:1.5625;"/><line style="stroke:#000000;stroke-width:1.5625;" x1="942.3233" x2="942.3233" y1="1938.1706" y2="1988.1706"/><polygon fill="#000000" points="936.0733,1972.5456,942.3233,1988.1706,948.5733,1972.5456,942.3233,1978.7956" style="stroke:#000000;stroke-width:1.5625;"/><line style="stroke:#000000;stroke-width:1.5625;" x1="659.5673" x2="593.5211" y1="1772.1794" y2="1772.1794"/><line style="stroke:#000000;stroke-width:1.5625;" x1="593.5211" x2="593.5211" y1="1772.1794" y2="1863.2683"/><polygon fill="#000000" points="587.2711,1847.6433,593.5211,1863.2683,599.7711,1847.6433,593.5211,1853.8933" style="stroke:#000000;stroke-width:1.5625;"/><line style="stroke:#000000;stroke-width:1.5625;" x1="876.2772" x2="942.3233" y1="1772.1794" y2="1772.1794"/><line style="stroke:#000000;stroke-width:1.5625;" x1="942.3233" x2="942.3233" y1="1772.1794" y2="1863.2683"/><polygon fill="#000000" points="936.0733,1847.6433,942.3233,1863.2683,948.5733,1847.6433,942.3233,1853.8933" style="stroke:#000000;stroke-width:1.5625;"/><line style="stroke:#000000;stroke-width:1.5625;" x1="767.9222" x2="767.9222" y1="1703.4294" y2="1753.4294"/><polygon fill="#000000" points="761.6722,1737.8044,767.9222,1753.4294,774.1722,1737.8044,767.9222,1744.0544" style="stroke:#000000;stroke-width:1.5625;"/><g class="legend" data-source-line="28"><rect fill="none" height="200.1221" rx="7.8125" ry="7.8125" style="stroke:#000000;stroke-width:1.5625;" width="1459.6741" x="34.375" y="2039.7331"/><text fill="#000000" font-family="Arial" font-size="21.875" font-weight="bold" lengthAdjust="spacing" textLength="60.434" x="49.8032" y="2070.9755">Field</text><text fill="#000000" font-family="Arial" font-size="21.875" font-weight="bold" lengthAdjust="spacing" textLength="69.5984" x="253.8879" y="2070.9755">Value</text><text fill="#000000" font-family="Arial" font-size="21.875" lengthAdjust="spacing" textLength="83.847" x="49.1409" y="2096.4394">Process</text><text fill="#000000" font-family="Arial" font-size="21.875" lengthAdjust="spacing" textLength="608.6441" x="253.2257" y="2096.4394">Pre-update readiness, risk review, and go/no-go control</text><text fill="#000000" font-family="Arial" font-size="21.875" lengthAdjust="spacing" textLength="190.1779" x="49.1409" y="2121.9032">Primary message</text><text fill="#000000" font-family="Arial" font-size="21.875" lengthAdjust="spacing" textLength="1226.0574" x="253.2257" y="2121.9032">A Seeker update should not begin until scope, backups, validation traffic, and rollback capability are confirmed.</text><text fill="#000000" font-family="Arial" font-size="21.875" lengthAdjust="spacing" textLength="78.656" x="49.1409" y="2147.3671">Trigger</text><text fill="#000000" font-family="Arial" font-size="21.875" lengthAdjust="spacing" textLength="414.7385" x="253.2257" y="2147.3671">Planned Seeker agent update window</text><text fill="#000000" font-family="Arial" font-size="21.875" lengthAdjust="spacing" textLength="142.7643" x="49.1409" y="2172.831">Entry criteria</text><text fill="#000000" font-family="Arial" font-size="21.875" lengthAdjust="spacing" textLength="598.8708" x="253.2257" y="2172.831">Server upgrade complete and update request initiated</text><text fill="#000000" font-family="Arial" font-size="21.875" lengthAdjust="spacing" textLength="125.9842" x="49.1409" y="2198.2948">Exit criteria</text><text fill="#000000" font-family="Arial" font-size="21.875" lengthAdjust="spacing" textLength="643.8278" x="253.2257" y="2198.2948">Approved go/no-go decision with execution package ready</text><text fill="#000000" font-family="Arial" font-size="21.875" lengthAdjust="spacing" textLength="146.8765" x="49.1409" y="2223.7587">Key evidence</text><text fill="#000000" font-family="Arial" font-size="21.875" lengthAdjust="spacing" textLength="1077.5146" x="253.2257" y="2223.7587">Application inventory, backup confirmation, smoke-test plan, rollback plan, maintenance approval</text><line style="stroke:#000000;stroke-width:1.5625;" x1="42.1875" x2="1486.2366" y1="2050.6706" y2="2050.6706"/><line style="stroke:#000000;stroke-width:1.5625;" x1="42.1875" x2="1486.2366" y1="2076.1345" y2="2076.1345"/><line style="stroke:#000000;stroke-width:1.5625;" x1="42.1875" x2="1486.2366" y1="2101.5984" y2="2101.5984"/><line style="stroke:#000000;stroke-width:1.5625;" x1="42.1875" x2="1486.2366" y1="2127.0622" y2="2127.0622"/><line style="stroke:#000000;stroke-width:1.5625;" x1="42.1875" x2="1486.2366" y1="2152.5261" y2="2152.5261"/><line style="stroke:#000000;stroke-width:1.5625;" x1="42.1875" x2="1486.2366" y1="2177.99" y2="2177.99"/><line style="stroke:#000000;stroke-width:1.5625;" x1="42.1875" x2="1486.2366" y1="2203.4538" y2="2203.4538"/><line style="stroke:#000000;stroke-width:1.5625;" x1="42.1875" x2="1486.2366" y1="2228.9177" y2="2228.9177"/><line style="stroke:#000000;stroke-width:1.5625;" x1="42.1875" x2="42.1875" y1="2050.6706" y2="2228.9177"/><line style="stroke:#000000;stroke-width:1.5625;" x1="246.2723" x2="246.2723" y1="2050.6706" y2="2228.9177"/><line style="stroke:#000000;stroke-width:1.5625;" x1="1486.2366" x2="1486.2366" y1="2050.6706" y2="2228.9177"/></g><?plantuml-src bLLTRnit47o_Nx58Nsn0gfsWJfiQHM7PKb2aJGehyPE1WZwkJeHuv9NaIJdK-UyPyZvqLjGczG6Mn8_PsTdPFRzHfX9EbFGWyatXR6tajTNMqMwj0cT-sFTh8UrEcO9MGllnZgmKFRyu7wqacDmwmuwUZpUkdBEx5d-c4N2qTSChKUkmi2Qy5INZg18w2ofefYNp1b1N1Pj07oef0jEKRbb8PTXx4aRILLKvkyMLRw7yjMJbKJBxVP47jLMXeNyoeja1s7UB7-CJTwoJxBhL7wxZWzM8sgszI7zOkr6Yj4P-2RLOl9nVZ0wC4MSlNixEp_URnu2NGRX-yMBsqsBn2elp0NzOcWdtTEdJA5tyHo6KDMs-JpZSnEUe2bVnEPhl6DjO5FEuZ1UBLul5OS21yJ7OjP9CN5QeZ6IVErL5rbcc6TQHv5In3jdZBxHGh2NXovtGDTDZzaX_Efj7ByLlFArRaxdUOXFSzHlytYhUJPBX2djcxBImb8E8ixf3KQLm3PMu8meWqrNltWxIhssDs4YR7hXGXceJb2QVsuedoPXrXN1miiBvg7bmOhLIUHiLWNGyHBcen8FIqOJ2SIInKgva-NtYyHwf5WWAHbeOmx9d8L8FTLpG6sYGT66E71g2Oe7XTTnRijicreKJCkANbMRSYIG6TVwksGTI1kR0WcoHFgem1ceRaqU2ISwLZvdjL5WJV-IyJebMo2kA5bLl4jORRWYIIpOvjr1QvQqgocoHYNLDBrelGTgUa2_jXgSXygiWmMIlNFkp5Ce4DY8YYsvs82Piqfebop8VUoVBzkv_1W9Bpkbic4YoLEPPik_FrstuViid_UxDeO3oCXx-3Ia5jMf8bSWwIWSEVd9lx0v3qxUrPhDLpfeIH_qbt7t0P902b6hetVH4H1Lgbx8QZkHMCj2HKRvfmLNyeJM5fk94wGzHzOMj1EeIR7T-wYiK30waAlQ81FP_iNdFekoOtDYyZkm9_5pyRDq7NMBvmKS415YZMyBQofPNgcAHA2HQU2-W0u_qGwhZ8P4RthwhF0e4suULTJsJEvWHQXiEE-is-mINy_cR-UrVo_dj7Ju-tFv-EIwbusG1mennBBdIjhatNTCel7QsGcdneFd9fSwDk5XmyB2tyY7HL2iwcRNzFRZXrrCAQpPqqh0_pHXlAJenzXHuNqygnaIh1EurY_B5MoiugfyaaTgdw6gr-bR_tAOXj--NjZeH7OQeypGb-_uU4djjpzxQwMlRzHBB8RFYC9r_3vs2QnPGuOkfS8zcx_qPOB4sCI8VR3K8D_s_mNo-Xg5rEzOSOtx6GNPl2W717nXYZwWy3Paa_Gm0?></g></svg>