<?xml version="1.0" encoding="us-ascii" standalone="no"?><svg xmlns="http://www.w3.org/2000/svg" xmlns:xlink="http://www.w3.org/1999/xlink" contentStyleType="text/css" height="2317.1875px" preserveAspectRatio="none" style="width:1085px;height:2317px;background:#FFFFFF;" version="1.1" viewBox="0 0 1085 2317" width="1085.9375px" zoomAndPan="magnify"><defs/><g><text fill="#000000" font-family="Arial" font-size="25" font-weight="bold" lengthAdjust="spacing" textLength="865.625" x="108.2031" y="54.4556">AppSec Process 02: Homegrown CI Security Gates (Shift Left)</text><ellipse cx="363.2813" cy="93.1641" fill="#222222" rx="15.625" ry="15.625" style="stroke:#222222;stroke-width:1.5625;"/><rect fill="none" height="293.5547" rx="7.8125" ry="7.8125" style="stroke:#777777;stroke-width:2.34375;" width="692.1875" x="17.1875" y="124.4141"/><path d="M154.6875,124.4141 L154.6875,135.3027 L139.0625,150.9277 L17.1875,150.9277 " fill="none" style="stroke:#777777;stroke-width:2.34375;"/><text fill="#111111" font-family="Arial" font-size="18.75" lengthAdjust="spacing" textLength="121.875" x="21.875" y="143.3807">Pull Request</text><rect fill="#F7F7F7" height="53.0762" rx="7.8125" ry="7.8125" style="stroke:#444444;stroke-width:0.78125;" width="128.125" x="299.2188" y="177.4902"/><text fill="#000000" font-family="Arial" font-size="18.75" lengthAdjust="spacing" textLength="96.875" x="314.8438" y="210.5194">Create PR</text><rect fill="#F7F7F7" height="53.0762" rx="7.8125" ry="7.8125" style="stroke:#444444;stroke-width:0.78125;" width="660.9375" x="32.8125" y="261.8164"/><text fill="#000000" font-family="Arial" font-size="18.75" lengthAdjust="spacing" textLength="629.6875" x="48.4375" y="294.8456">Attach AppCode metadata (repo tags, build vars, artifact labels)</text><rect fill="#F7F7F7" height="53.0762" rx="7.8125" ry="7.8125" style="stroke:#444444;stroke-width:0.78125;" width="200" x="263.2813" y="346.1426"/><text fill="#000000" font-family="Arial" font-size="18.75" lengthAdjust="spacing" textLength="168.75" x="278.9063" y="379.1718">Build + unit tests</text><rect fill="none" height="209.2285" rx="7.8125" ry="7.8125" style="stroke:#777777;stroke-width:2.34375;" width="401.5625" x="162.5" y="433.5938"/><path d="M382.8125,433.5938 L382.8125,444.4824 L367.1875,460.1074 L162.5,460.1074 " fill="none" style="stroke:#777777;stroke-width:2.34375;"/><text fill="#111111" font-family="Arial" font-size="18.75" lengthAdjust="spacing" textLength="204.6875" x="167.1875" y="452.5604">Build &amp; Quality Gates</text><rect fill="#F7F7F7" height="53.0762" rx="7.8125" ry="7.8125" style="stroke:#444444;stroke-width:0.78125;" width="370.3125" x="178.125" y="486.6699"/><text fill="#000000" font-family="Arial" font-size="18.75" lengthAdjust="spacing" textLength="339.0625" x="193.75" y="519.6991">Static analysis (SonarQube)&#171;gate&#187;</text><rect fill="#F7F7F7" height="53.0762" rx="7.8125" ry="7.8125" style="stroke:#444444;stroke-width:0.78125;" width="337.5" x="194.5313" y="570.9961"/><text fill="#000000" font-family="Arial" font-size="18.75" lengthAdjust="spacing" textLength="306.25" x="210.1563" y="604.0253">80% coverage threshold&#171;gate&#187;</text><rect fill="none" height="546.5332" rx="7.8125" ry="7.8125" style="stroke:#777777;stroke-width:2.34375;" width="439.0625" x="143.75" y="658.4473"/><path d="M340.625,658.4473 L340.625,669.3359 L325,684.9609 L143.75,684.9609 " fill="none" style="stroke:#777777;stroke-width:2.34375;"/><text fill="#111111" font-family="Arial" font-size="18.75" lengthAdjust="spacing" textLength="181.25" x="148.4375" y="677.4139">Security Gates (CI)</text><rect fill="#F7F7F7" height="53.0762" rx="7.8125" ry="7.8125" style="stroke:#444444;stroke-width:0.78125;" width="234.375" x="246.0938" y="711.5234"/><text fill="#000000" font-family="Arial" font-size="18.75" lengthAdjust="spacing" textLength="203.125" x="261.7188" y="744.5526">GHAS SAST (CodeQL)</text><rect fill="#F7F7F7" height="53.0762" rx="7.8125" ry="7.8125" style="stroke:#444444;stroke-width:0.78125;" width="164.0625" x="281.25" y="795.8496"/><text fill="#000000" font-family="Arial" font-size="18.75" lengthAdjust="spacing" textLength="132.8125" x="296.875" y="828.8788">GHAS secrets</text><rect fill="#F7F7F7" height="53.0762" rx="7.8125" ry="7.8125" style="stroke:#444444;stroke-width:0.78125;" width="334.375" x="196.0938" y="880.1758"/><text fill="#000000" font-family="Arial" font-size="18.75" lengthAdjust="spacing" textLength="303.125" x="211.7188" y="913.205">GHAS dependency review / SCA</text><rect fill="#F7F7F7" height="53.0762" rx="7.8125" ry="7.8125" style="stroke:#444444;stroke-width:0.78125;" width="228.125" x="249.2188" y="964.502"/><text fill="#000000" font-family="Arial" font-size="18.75" lengthAdjust="spacing" textLength="196.875" x="264.8438" y="997.5311">Trivy IaC/config scan</text><rect fill="#F7F7F7" height="53.0762" rx="7.8125" ry="7.8125" style="stroke:#444444;stroke-width:0.78125;" width="325" x="200.7813" y="1048.8281"/><text fill="#000000" font-family="Arial" font-size="18.75" lengthAdjust="spacing" textLength="293.75" x="216.4063" y="1081.8573">Trivy image scan (if container)</text><rect fill="#F7F7F7" height="53.0762" rx="7.8125" ry="7.8125" style="stroke:#444444;stroke-width:0.78125;" width="407.8125" x="159.375" y="1133.1543"/><text fill="#000000" font-family="Arial" font-size="18.75" lengthAdjust="spacing" textLength="376.5625" x="175" y="1166.1835">Optional Coverity (language gap SAST)</text><rect fill="none" height="393.5547" rx="7.8125" ry="7.8125" style="stroke:#777777;stroke-width:2.34375;" width="597.2656" x="22.2656" y="1220.6055"/><path d="M98.8281,1220.6055 L98.8281,1231.4941 L83.2031,1247.1191 L22.2656,1247.1191 " fill="none" style="stroke:#777777;stroke-width:2.34375;"/><text fill="#111111" font-family="Arial" font-size="18.75" lengthAdjust="spacing" textLength="60.9375" x="26.9531" y="1239.5721">Triage</text><rect fill="#F7F7F7" height="53.0762" rx="7.8125" ry="7.8125" style="stroke:#444444;stroke-width:0.78125;" width="481.25" x="122.6563" y="1273.6816"/><text fill="#000000" font-family="Arial" font-size="18.75" lengthAdjust="spacing" textLength="450" x="138.2813" y="1306.7108">Normalize + dedupe findings (key = AppCode)</text><polygon fill="#F7F7F7" points="278.9063,1358.0078,447.6563,1358.0078,466.4063,1376.7578,447.6563,1395.5078,278.9063,1395.5078,260.1563,1376.7578,278.9063,1358.0078" style="stroke:#444444;stroke-width:0.78125;"/><text fill="#000000" font-family="Arial" font-size="18.75" lengthAdjust="spacing" textLength="168.75" x="278.9063" y="1383.2489">New critical/high?</text><text fill="#000000" font-family="Arial" font-size="18.75" lengthAdjust="spacing" textLength="34.375" x="225.7813" y="1372.3358">Yes</text><text fill="#000000" font-family="Arial" font-size="18.75" lengthAdjust="spacing" textLength="26.5625" x="466.4063" y="1372.3358">No</text><rect fill="#F7F7F7" height="53.0762" rx="7.8125" ry="7.8125" style="stroke:#444444;stroke-width:0.78125;" width="354.6875" x="53.5156" y="1411.1328"/><text fill="#000000" font-family="Arial" font-size="18.75" lengthAdjust="spacing" textLength="323.4375" x="69.1406" y="1444.162">Assign owner (AppCode -&gt; team)</text><rect fill="#F7F7F7" height="53.0762" rx="7.8125" ry="7.8125" style="stroke:#444444;stroke-width:0.78125;" width="168.75" x="146.4844" y="1495.459"/><text fill="#000000" font-family="Arial" font-size="18.75" lengthAdjust="spacing" textLength="137.5" x="162.1094" y="1528.4882">Fix or mitigate</text><rect fill="#F7F7F7" height="53.0762" rx="7.8125" ry="7.8125" style="stroke:#444444;stroke-width:0.78125;" width="112.5" x="439.4531" y="1411.1328"/><text fill="#000000" font-family="Arial" font-size="18.75" lengthAdjust="spacing" textLength="81.25" x="455.0781" y="1444.162">Proceed</text><polygon fill="#F7F7F7" points="363.2813,1557.9102,382.0313,1576.6602,363.2813,1595.4102,344.5313,1576.6602,363.2813,1557.9102" style="stroke:#444444;stroke-width:0.78125;"/><rect fill="none" height="124.9023" rx="7.8125" ry="7.8125" style="stroke:#777777;stroke-width:2.34375;" width="278.125" x="224.2188" y="1629.7852"/><path d="M286.7188,1629.7852 L286.7188,1640.6738 L271.0938,1656.2988 L224.2188,1656.2988 " fill="none" style="stroke:#777777;stroke-width:2.34375;"/><text fill="#111111" font-family="Arial" font-size="18.75" lengthAdjust="spacing" textLength="46.875" x="228.9063" y="1648.7518">Gate</text><rect fill="#F7F7F7" height="53.0762" rx="7.8125" ry="7.8125" style="stroke:#444444;stroke-width:0.78125;" width="246.875" x="239.8438" y="1682.8613"/><text fill="#000000" font-family="Arial" font-size="18.75" lengthAdjust="spacing" textLength="215.625" x="255.4688" y="1715.8905">Merge decision&#171;gate&#187;</text><rect fill="none" height="465.3076" rx="7.8125" ry="7.8125" style="stroke:#777777;stroke-width:2.34375;" width="949.2188" x="120.3125" y="1770.3125"/><path d="M250,1770.3125 L250,1781.2012 L234.375,1796.8262 L120.3125,1796.8262 " fill="none" style="stroke:#777777;stroke-width:2.34375;"/><text fill="#111111" font-family="Arial" font-size="18.75" lengthAdjust="spacing" textLength="114.0625" x="125" y="1789.2792">After Merge</text><rect fill="#F7F7F7" height="53.0762" rx="7.8125" ry="7.8125" style="stroke:#444444;stroke-width:0.78125;" width="454.6875" x="135.9375" y="1823.3887"/><text fill="#000000" font-family="Arial" font-size="18.75" lengthAdjust="spacing" textLength="423.4375" x="151.5625" y="1856.4178">Main branch scans (GHAS/SonarQube/Trivy)</text><rect fill="#F7F7F7" height="53.0762" rx="7.8125" ry="7.8125" style="stroke:#444444;stroke-width:0.78125;" width="407.8125" x="159.375" y="1907.7148"/><text fill="#000000" font-family="Arial" font-size="18.75" lengthAdjust="spacing" textLength="376.5625" x="175" y="1940.744">Publish SBOM (Trivy) + link to AppCode</text><rect fill="#F7F7F7" height="53.0762" rx="7.8125" ry="7.8125" style="stroke:#444444;stroke-width:0.78125;" width="128.125" x="299.2188" y="1992.041"/><text fill="#000000" font-family="Arial" font-size="18.75" lengthAdjust="spacing" textLength="96.875" x="314.8438" y="2025.0702">CD deploy</text><rect fill="#F7F7F7" height="53.0762" rx="7.8125" ry="7.8125" style="stroke:#444444;stroke-width:0.78125;" width="337.5" x="194.5313" y="2076.3672"/><text fill="#000000" font-family="Arial" font-size="18.75" lengthAdjust="spacing" textLength="306.25" x="210.1563" y="2109.3964">DAST schedule (InsightAppSec)</text><path d="M503.9063,2157.5928 L503.9063,2180.9814 L472.6563,2187.2314 L503.9063,2193.4814 L503.9063,2216.8701 A0,0 0 0 0 503.9063,2216.8701 L1053.9063,2216.8701 A0,0 0 0 0 1053.9063,2216.8701 L1053.9063,2173.2178 L1038.2813,2157.5928 L503.9063,2157.5928 A0,0 0 0 0 503.9063,2157.5928 " fill="#FFF8D6" style="stroke:#C7A700;stroke-width:0.78125;"/><path d="M1038.2813,2157.5928 L1038.2813,2173.2178 L1053.9063,2173.2178 L1038.2813,2157.5928 " fill="#FFF8D6" style="stroke:#C7A700;stroke-width:0.78125;"/><text fill="#000000" font-family="Arial" font-size="18.75" lengthAdjust="spacing" textLength="134.375" x="513.2813" y="2182.8094">Key message:</text><text fill="#000000" font-family="Arial" font-size="18.75" font-weight="bold" lengthAdjust="spacing" textLength="370.3125" x="653.9063" y="2182.8094">"No new critical/high" merge gate</text><text fill="#000000" font-family="Arial" font-size="18.75" lengthAdjust="spacing" textLength="6.25" x="1024.2188" y="2182.8094">.</text><text fill="#000000" font-family="Arial" font-size="18.75" lengthAdjust="spacing" textLength="504.6875" x="513.2813" y="2204.6356">AppCode ties every finding to an owner and an SLA.</text><rect fill="#F7F7F7" height="53.0762" rx="7.8125" ry="7.8125" style="stroke:#444444;stroke-width:0.78125;" width="218.75" x="253.9063" y="2160.6934"/><text fill="#000000" font-family="Arial" font-size="18.75" lengthAdjust="spacing" textLength="187.5" x="269.5313" y="2193.7225">IAST in QA (Seeker)</text><ellipse cx="363.2813" cy="2284.0576" fill="none" rx="17.1875" ry="17.1875" style="stroke:#222222;stroke-width:1.5625;"/><ellipse cx="363.2813" cy="2284.0576" fill="#222222" rx="9.375" ry="9.375" style="stroke:#222222;stroke-width:1.5625;"/><line style="stroke:#444444;stroke-width:1.5625;" x1="363.2813" x2="363.2813" y1="230.5664" y2="261.8164"/><polygon fill="#444444" points="357.0313,246.1914,363.2813,261.8164,369.5313,246.1914,363.2813,252.4414" style="stroke:#444444;stroke-width:1.5625;"/><line style="stroke:#444444;stroke-width:1.5625;" x1="363.2813" x2="363.2813" y1="314.8926" y2="346.1426"/><polygon fill="#444444" points="357.0313,330.5176,363.2813,346.1426,369.5313,330.5176,363.2813,336.7676" style="stroke:#444444;stroke-width:1.5625;"/><line style="stroke:#444444;stroke-width:1.5625;" x1="363.2813" x2="363.2813" y1="108.7891" y2="177.4902"/><polygon fill="#444444" points="357.0313,161.8652,363.2813,177.4902,369.5313,161.8652,363.2813,168.1152" style="stroke:#444444;stroke-width:1.5625;"/><line style="stroke:#444444;stroke-width:1.5625;" x1="363.2813" x2="363.2813" y1="539.7461" y2="570.9961"/><polygon fill="#444444" points="357.0313,555.3711,363.2813,570.9961,369.5313,555.3711,363.2813,561.6211" style="stroke:#444444;stroke-width:1.5625;"/><line style="stroke:#444444;stroke-width:1.5625;" x1="363.2813" x2="363.2813" y1="399.2188" y2="486.6699"/><polygon fill="#444444" points="357.0313,471.0449,363.2813,486.6699,369.5313,471.0449,363.2813,477.2949" style="stroke:#444444;stroke-width:1.5625;"/><line style="stroke:#444444;stroke-width:1.5625;" x1="363.2813" x2="363.2813" y1="764.5996" y2="795.8496"/><polygon fill="#444444" points="357.0313,780.2246,363.2813,795.8496,369.5313,780.2246,363.2813,786.4746" style="stroke:#444444;stroke-width:1.5625;"/><line style="stroke:#444444;stroke-width:1.5625;" x1="363.2813" x2="363.2813" y1="848.9258" y2="880.1758"/><polygon fill="#444444" points="357.0313,864.5508,363.2813,880.1758,369.5313,864.5508,363.2813,870.8008" style="stroke:#444444;stroke-width:1.5625;"/><line style="stroke:#444444;stroke-width:1.5625;" x1="363.2813" x2="363.2813" y1="933.252" y2="964.502"/><polygon fill="#444444" points="357.0313,948.877,363.2813,964.502,369.5313,948.877,363.2813,955.127" style="stroke:#444444;stroke-width:1.5625;"/><line style="stroke:#444444;stroke-width:1.5625;" x1="363.2813" x2="363.2813" y1="1017.5781" y2="1048.8281"/><polygon fill="#444444" points="357.0313,1033.2031,363.2813,1048.8281,369.5313,1033.2031,363.2813,1039.4531" style="stroke:#444444;stroke-width:1.5625;"/><line style="stroke:#444444;stroke-width:1.5625;" x1="363.2813" x2="363.2813" y1="1101.9043" y2="1133.1543"/><polygon fill="#444444" points="357.0313,1117.5293,363.2813,1133.1543,369.5313,1117.5293,363.2813,1123.7793" style="stroke:#444444;stroke-width:1.5625;"/><line style="stroke:#444444;stroke-width:1.5625;" x1="363.2813" x2="363.2813" y1="624.0723" y2="711.5234"/><polygon fill="#444444" points="357.0313,695.8984,363.2813,711.5234,369.5313,695.8984,363.2813,702.1484" style="stroke:#444444;stroke-width:1.5625;"/><line style="stroke:#444444;stroke-width:1.5625;" x1="230.8594" x2="230.8594" y1="1464.209" y2="1495.459"/><polygon fill="#444444" points="224.6094,1479.834,230.8594,1495.459,237.1094,1479.834,230.8594,1486.084" style="stroke:#444444;stroke-width:1.5625;"/><line style="stroke:#444444;stroke-width:1.5625;" x1="260.1563" x2="230.8594" y1="1376.7578" y2="1376.7578"/><line style="stroke:#444444;stroke-width:1.5625;" x1="230.8594" x2="230.8594" y1="1376.7578" y2="1411.1328"/><polygon fill="#444444" points="224.6094,1395.5078,230.8594,1411.1328,237.1094,1395.5078,230.8594,1401.7578" style="stroke:#444444;stroke-width:1.5625;"/><line style="stroke:#444444;stroke-width:1.5625;" x1="466.4063" x2="495.7031" y1="1376.7578" y2="1376.7578"/><line style="stroke:#444444;stroke-width:1.5625;" x1="495.7031" x2="495.7031" y1="1376.7578" y2="1411.1328"/><polygon fill="#444444" points="489.4531,1395.5078,495.7031,1411.1328,501.9531,1395.5078,495.7031,1401.7578" style="stroke:#444444;stroke-width:1.5625;"/><line style="stroke:#444444;stroke-width:1.5625;" x1="230.8594" x2="230.8594" y1="1548.5352" y2="1576.6602"/><line style="stroke:#444444;stroke-width:1.5625;" x1="230.8594" x2="344.5313" y1="1576.6602" y2="1576.6602"/><polygon fill="#444444" points="328.9063,1570.4102,344.5313,1576.6602,328.9063,1582.9102,335.1563,1576.6602" style="stroke:#444444;stroke-width:1.5625;"/><line style="stroke:#444444;stroke-width:1.5625;" x1="495.7031" x2="495.7031" y1="1464.209" y2="1576.6602"/><line style="stroke:#444444;stroke-width:1.5625;" x1="495.7031" x2="382.0313" y1="1576.6602" y2="1576.6602"/><polygon fill="#444444" points="397.6563,1570.4102,382.0313,1576.6602,397.6563,1582.9102,391.4063,1576.6602" style="stroke:#444444;stroke-width:1.5625;"/><line style="stroke:#444444;stroke-width:1.5625;" x1="363.2813" x2="363.2813" y1="1326.7578" y2="1358.0078"/><polygon fill="#444444" points="357.0313,1342.3828,363.2813,1358.0078,369.5313,1342.3828,363.2813,1348.6328" style="stroke:#444444;stroke-width:1.5625;"/><line style="stroke:#444444;stroke-width:1.5625;" x1="363.2813" x2="363.2813" y1="1186.2305" y2="1273.6816"/><polygon fill="#444444" points="357.0313,1258.0566,363.2813,1273.6816,369.5313,1258.0566,363.2813,1264.3066" style="stroke:#444444;stroke-width:1.5625;"/><line style="stroke:#444444;stroke-width:1.5625;" x1="363.2813" x2="363.2813" y1="1595.4102" y2="1682.8613"/><polygon fill="#444444" points="357.0313,1667.2363,363.2813,1682.8613,369.5313,1667.2363,363.2813,1673.4863" style="stroke:#444444;stroke-width:1.5625;"/><line style="stroke:#444444;stroke-width:1.5625;" x1="363.2813" x2="363.2813" y1="1876.4648" y2="1907.7148"/><polygon fill="#444444" points="357.0313,1892.0898,363.2813,1907.7148,369.5313,1892.0898,363.2813,1898.3398" style="stroke:#444444;stroke-width:1.5625;"/><line style="stroke:#444444;stroke-width:1.5625;" x1="363.2813" x2="363.2813" y1="1960.791" y2="1992.041"/><polygon fill="#444444" points="357.0313,1976.416,363.2813,1992.041,369.5313,1976.416,363.2813,1982.666" style="stroke:#444444;stroke-width:1.5625;"/><line style="stroke:#444444;stroke-width:1.5625;" x1="363.2813" x2="363.2813" y1="2045.1172" y2="2076.3672"/><polygon fill="#444444" points="357.0313,2060.7422,363.2813,2076.3672,369.5313,2060.7422,363.2813,2066.9922" style="stroke:#444444;stroke-width:1.5625;"/><line style="stroke:#444444;stroke-width:1.5625;" x1="363.2813" x2="363.2813" y1="2129.4434" y2="2160.6934"/><polygon fill="#444444" points="357.0313,2145.0684,363.2813,2160.6934,369.5313,2145.0684,363.2813,2151.3184" style="stroke:#444444;stroke-width:1.5625;"/><line style="stroke:#444444;stroke-width:1.5625;" x1="363.2813" x2="363.2813" y1="1735.9375" y2="1823.3887"/><polygon fill="#444444" points="357.0313,1807.7637,363.2813,1823.3887,369.5313,1807.7637,363.2813,1814.0137" style="stroke:#444444;stroke-width:1.5625;"/><line style="stroke:#444444;stroke-width:1.5625;" x1="363.2813" x2="363.2813" y1="2213.7695" y2="2266.8701"/><polygon fill="#444444" points="357.0313,2251.2451,363.2813,2266.8701,369.5313,2251.2451,363.2813,2257.4951" style="stroke:#444444;stroke-width:1.5625;"/><!--SRC=[TLJVRzis47xNNt4Bi4tELZiTC61mkmoAWhR6qjIf-hB7itII25EaHb9slM7_-pvAjkjcc9v4tl7k-t6atohJi-EEDbnk6sS7K-LMMqVxLWL9_3dkMwxiNfc6QjR-CbBrYbx-V7EnCvOfhJFYwELb87FExgVwTneDBqBtKlEWmnjhmYDtWbJ5Elb6cL8FbT1ylZZ- -WNtlPVoXGy7BVD-w7GILD0uqlU5bBHsjXJlwUQd9RspdO3Ltb2-8WG7fyA1td8GJsdHgZhGWzHXbYJVqtfmlVMoH07PYGbaP4yb3gYIzQ9LJKjE-ItLobJGmLFjR4UTk2Qg0hq0OIlInrM52jhsu5zhkv-Z-la3ojo2aV8qUAaeM89KJZH0aHCF4JnnwIme16ir5gQAaY8C8k9yg_fvalZ0BYG9r0DxPGrThGUjwQFyEOWFL_HtGhJCdSIowu-luYeBWSlsZA2Jm1K7fjH9Robmut-apQ1qHJjs-8-bQou3QTw8zhEnoDsOy0CDHWM2Zi6_Ilxv2iUKyHqz3QpFSXy15O6X9oYnFdWLJR26tTEmaTdhrmqIRs_7Bh_SV0jPTkAu4GejT6cjhhwaVDtnkRFvQdRiz_PTLb2H5P-m2SvF3nE9SHj3v2J2FsrKqekfn9G76B5Ji7z1HPwD2P-SsXrenVcYjAPM3VcIpKL4TH5ftAHKrS1k0YkuDVNxq4UWh2cFd2BILBDfXdYcuNv4E7lE2eKHFn9vjAw3d7y9fA-a6dhvCeZfLWxqwydNiICWf8_Fv_Ut6QGK0Fn3_2o9mxZCl5UDcGQBqjDalBY5izoDbP3qHdqcNDaEfQB-SHVZ8EXWZsN6EoVL606e-XcJQCkHntlS5m63Kdc4_i_Gh0x0C-QUpa5DsZWs6E2eCbX7pnRd-LcCFanohuUDLhwbukx3Uqgd07JJocpZVJlI75Fp-sYxjeTnTHydnPSj1CPjJbS6whHXUbYcqgkO0IXF6MPNP3iw3F36nkiRivFVuKQ75mZcBUdw-khH_lSfkHeVZcX-aElhUN9IFYZCBnuFTpZP6m7poQ7u561HF6Jp149Jx1gV0jl_2m00]--></g></svg>