<?plantuml 1.2026.2?><svg xmlns="http://www.w3.org/2000/svg" xmlns:xlink="http://www.w3.org/1999/xlink" contentStyleType="text/css" data-diagram-type="ACTIVITY" height="2317.1875px" preserveAspectRatio="none" style="width:1056px;height:2317px;background:#FFFFFF;" version="1.1" viewBox="0 0 1056 2317" width="1056.25px" zoomAndPan="magnify"><title>AppSec Process 02: Homegrown CI Security Gates (Shift Left)</title><defs/><g><g class="title" data-source-line="2"><text fill="#000000" font-family="Arial" font-size="25" font-weight="bold" lengthAdjust="spacing" textLength="869.4092" x="91.2117" y="54.4556">AppSec Process 02: Homegrown CI Security Gates (Shift Left)</text></g><ellipse cx="349.8749" cy="93.1641" fill="#222222" rx="15.625" ry="15.625" style="stroke:#222222;stroke-width:1.5625;"/><rect fill="none" height="293.5547" rx="7.8125" ry="7.8125" style="stroke:#777777;stroke-width:2.3438;" width="665.3748" x="17.1875" y="124.4141"/><path d="M149.3866,124.4141 L149.3866,135.3027 L133.7616,150.9277 L17.1875,150.9277" fill="none" style="stroke:#777777;stroke-width:2.3438;"/><text fill="#111111" font-family="Arial" font-size="18.75" lengthAdjust="spacing" textLength="116.5741" x="21.875" y="143.3807">Pull Request</text><rect fill="#F7F7F7" height="53.0762" rx="7.8125" ry="7.8125" style="stroke:#444444;stroke-width:0.7813;" width="124.2584" x="287.7457" y="177.4902"/><text fill="#000000" font-family="Arial" font-size="18.75" lengthAdjust="spacing" textLength="93.0084" x="303.3707" y="210.5194">Create PR</text><rect fill="#F7F7F7" height="53.0762" rx="7.8125" ry="7.8125" style="stroke:#444444;stroke-width:0.7813;" width="634.1248" x="32.8125" y="261.8164"/><text fill="#000000" font-family="Arial" font-size="18.75" lengthAdjust="spacing" textLength="602.8748" x="48.4375" y="294.8456">Attach AppCode metadata (repo tags, build vars, artifact labels)</text><rect fill="#F7F7F7" height="53.0762" rx="7.8125" ry="7.8125" style="stroke:#444444;stroke-width:0.7813;" width="194.0125" x="252.8687" y="346.1426"/><text fill="#000000" font-family="Arial" font-size="18.75" lengthAdjust="spacing" textLength="162.7625" x="268.4937" y="379.1718">Build + unit tests</text><rect fill="none" height="209.2285" rx="7.8125" ry="7.8125" style="stroke:#777777;stroke-width:2.3438;" width="388.3362" x="155.7068" y="433.5938"/><path d="M372.5739,433.5938 L372.5739,444.4824 L356.9489,460.1074 L155.7068,460.1074" fill="none" style="stroke:#777777;stroke-width:2.3438;"/><text fill="#111111" font-family="Arial" font-size="18.75" lengthAdjust="spacing" textLength="201.2421" x="160.3943" y="452.5604">Build &amp; Quality Gates</text><rect fill="#F7F7F7" height="53.0762" rx="7.8125" ry="7.8125" style="stroke:#444444;stroke-width:0.7813;" width="357.0862" x="171.3318" y="486.6699"/><text fill="#000000" font-family="Arial" font-size="18.75" lengthAdjust="spacing" textLength="325.8362" x="186.9568" y="519.6991">Static analysis (SonarQube)&#171;gate&#187;</text><rect fill="#F7F7F7" height="53.0762" rx="7.8125" ry="7.8125" style="stroke:#444444;stroke-width:0.7813;" width="325.8301" x="186.9598" y="570.9961"/><text fill="#000000" font-family="Arial" font-size="18.75" lengthAdjust="spacing" textLength="294.5801" x="202.5848" y="604.0253">80% coverage threshold&#171;gate&#187;</text><rect fill="none" height="546.5332" rx="7.8125" ry="7.8125" style="stroke:#777777;stroke-width:2.3438;" width="429.48" x="135.1349" y="658.4473"/><path d="M327.6031,658.4473 L327.6031,669.3359 L311.9781,684.9609 L135.1349,684.9609" fill="none" style="stroke:#777777;stroke-width:2.3438;"/><text fill="#111111" font-family="Arial" font-size="18.75" lengthAdjust="spacing" textLength="176.8433" x="139.8224" y="677.4139">Security Gates (CI)</text><rect fill="#F7F7F7" height="53.0762" rx="7.8125" ry="7.8125" style="stroke:#444444;stroke-width:0.7813;" width="232.4463" x="233.6517" y="711.5234"/><text fill="#000000" font-family="Arial" font-size="18.75" lengthAdjust="spacing" textLength="201.1963" x="249.2767" y="744.5526">GHAS SAST (CodeQL)</text><rect fill="#F7F7F7" height="53.0762" rx="7.8125" ry="7.8125" style="stroke:#444444;stroke-width:0.7813;" width="158.5449" x="270.6024" y="795.8496"/><text fill="#000000" font-family="Arial" font-size="18.75" lengthAdjust="spacing" textLength="127.2949" x="286.2274" y="828.8788">GHAS secrets</text><rect fill="#F7F7F7" height="53.0762" rx="7.8125" ry="7.8125" style="stroke:#444444;stroke-width:0.7813;" width="330.4901" x="184.6298" y="880.1758"/><text fill="#000000" font-family="Arial" font-size="18.75" lengthAdjust="spacing" textLength="299.2401" x="200.2548" y="913.205">GHAS dependency review / SCA</text><rect fill="#F7F7F7" height="53.0762" rx="7.8125" ry="7.8125" style="stroke:#444444;stroke-width:0.7813;" width="226.9897" x="236.38" y="964.502"/><text fill="#000000" font-family="Arial" font-size="18.75" lengthAdjust="spacing" textLength="195.7397" x="252.005" y="997.5311">Trivy IaC/config scan</text><rect fill="#F7F7F7" height="53.0762" rx="7.8125" ry="7.8125" style="stroke:#444444;stroke-width:0.7813;" width="318.7897" x="190.48" y="1048.8281"/><text fill="#000000" font-family="Arial" font-size="18.75" lengthAdjust="spacing" textLength="287.5397" x="206.105" y="1081.8573">Trivy image scan (if container)</text><rect fill="#F7F7F7" height="53.0762" rx="7.8125" ry="7.8125" style="stroke:#444444;stroke-width:0.7813;" width="398.23" x="150.7599" y="1133.1543"/><text fill="#000000" font-family="Arial" font-size="18.75" lengthAdjust="spacing" textLength="366.98" x="166.3849" y="1166.1835">Optional Coverity (language gap SAST)</text><rect fill="none" height="393.5547" rx="7.8125" ry="7.8125" style="stroke:#777777;stroke-width:2.3438;" width="583.3069" x="17.6727" y="1220.6055"/><path d="M92.5964,1220.6055 L92.5964,1231.4941 L76.9714,1247.1191 L17.6727,1247.1191" fill="none" style="stroke:#777777;stroke-width:2.3438;"/><text fill="#111111" font-family="Arial" font-size="18.75" lengthAdjust="spacing" textLength="59.2987" x="22.3602" y="1239.5721">Triage</text><rect fill="#F7F7F7" height="53.0762" rx="7.8125" ry="7.8125" style="stroke:#444444;stroke-width:0.7813;" width="470.9595" x="114.3951" y="1273.6816"/><text fill="#000000" font-family="Arial" font-size="18.75" lengthAdjust="spacing" textLength="439.7095" x="130.0201" y="1306.7108">Normalize + dedupe findings (key = AppCode)</text><polygon fill="#F7F7F7" points="266.4749,1358.0078,433.2748,1358.0078,452.0248,1376.7578,433.2748,1395.5078,266.4749,1395.5078,247.7249,1376.7578,266.4749,1358.0078" style="stroke:#444444;stroke-width:0.7813;"/><text fill="#000000" font-family="Arial" font-size="18.75" lengthAdjust="spacing" textLength="166.7999" x="266.4749" y="1383.2489">New critical/high?</text><text fill="#000000" font-family="Arial" font-size="18.75" lengthAdjust="spacing" textLength="32.7576" x="214.9673" y="1372.3358">Yes</text><text fill="#000000" font-family="Arial" font-size="18.75" lengthAdjust="spacing" textLength="25.4974" x="452.0248" y="1372.3358">No</text><rect fill="#F7F7F7" height="53.0762" rx="7.8125" ry="7.8125" style="stroke:#444444;stroke-width:0.7813;" width="344.7632" x="48.9227" y="1411.1328"/><text fill="#000000" font-family="Arial" font-size="18.75" lengthAdjust="spacing" textLength="313.5132" x="64.5477" y="1444.162">Assign owner (AppCode -&gt; team)</text><rect fill="#F7F7F7" height="53.0762" rx="7.8125" ry="7.8125" style="stroke:#444444;stroke-width:0.7813;" width="167.7551" x="137.4268" y="1495.459"/><text fill="#000000" font-family="Arial" font-size="18.75" lengthAdjust="spacing" textLength="136.5051" x="153.0518" y="1528.4882">Fix or mitigate</text><rect fill="#F7F7F7" height="53.0762" rx="7.8125" ry="7.8125" style="stroke:#444444;stroke-width:0.7813;" width="107.019" x="424.9359" y="1411.1328"/><text fill="#000000" font-family="Arial" font-size="18.75" lengthAdjust="spacing" textLength="75.769" x="440.5609" y="1444.162">Proceed</text><polygon fill="#F7F7F7" points="349.8749,1557.9102,368.6249,1576.6602,349.8749,1595.4102,331.1249,1576.6602,349.8749,1557.9102" style="stroke:#444444;stroke-width:0.7813;"/><rect fill="none" height="124.9023" rx="7.8125" ry="7.8125" style="stroke:#777777;stroke-width:2.3438;" width="269.8303" x="214.9597" y="1629.7852"/><path d="M275.4913,1629.7852 L275.4913,1640.6738 L259.8663,1656.2988 L214.9597,1656.2988" fill="none" style="stroke:#777777;stroke-width:2.3438;"/><text fill="#111111" font-family="Arial" font-size="18.75" lengthAdjust="spacing" textLength="44.9066" x="219.6472" y="1648.7518">Gate</text><rect fill="#F7F7F7" height="53.0762" rx="7.8125" ry="7.8125" style="stroke:#444444;stroke-width:0.7813;" width="238.5803" x="230.5847" y="1682.8613"/><text fill="#000000" font-family="Arial" font-size="18.75" lengthAdjust="spacing" textLength="207.3303" x="246.2097" y="1715.8905">Merge decision&#171;gate&#187;</text><rect fill="none" height="465.3076" rx="7.8125" ry="7.8125" style="stroke:#777777;stroke-width:2.3438;" width="927.0859" x="112.2467" y="1770.3125"/><path d="M238.7146,1770.3125 L238.7146,1781.2012 L223.0896,1796.8262 L112.2467,1796.8262" fill="none" style="stroke:#777777;stroke-width:2.3438;"/><text fill="#111111" font-family="Arial" font-size="18.75" lengthAdjust="spacing" textLength="110.8429" x="116.9342" y="1789.2792">After Merge</text><rect fill="#F7F7F7" height="53.0762" rx="7.8125" ry="7.8125" style="stroke:#444444;stroke-width:0.7813;" width="444.0063" x="127.8717" y="1823.3887"/><text fill="#000000" font-family="Arial" font-size="18.75" lengthAdjust="spacing" textLength="412.7563" x="143.4967" y="1856.4178">Main branch scans (GHAS/SonarQube/Trivy)</text><rect fill="#F7F7F7" height="53.0762" rx="7.8125" ry="7.8125" style="stroke:#444444;stroke-width:0.7813;" width="403.3936" x="148.1781" y="1907.7148"/><text fill="#000000" font-family="Arial" font-size="18.75" lengthAdjust="spacing" textLength="372.1436" x="163.8031" y="1940.744">Publish SBOM (Trivy) + link to AppCode</text><rect fill="#F7F7F7" height="53.0762" rx="7.8125" ry="7.8125" style="stroke:#444444;stroke-width:0.7813;" width="127.8564" x="285.9467" y="1992.041"/><text fill="#000000" font-family="Arial" font-size="18.75" lengthAdjust="spacing" textLength="96.6064" x="301.5717" y="2025.0702">CD deploy</text><rect fill="#F7F7F7" height="53.0762" rx="7.8125" ry="7.8125" style="stroke:#444444;stroke-width:0.7813;" width="326.3519" x="186.6989" y="2076.3672"/><text fill="#000000" font-family="Arial" font-size="18.75" lengthAdjust="spacing" textLength="295.1019" x="202.3239" y="2109.3964">DAST schedule (InsightAppSec)</text><path d="M488.7375,2157.5928 L488.7375,2180.9814 L457.4875,2187.2314 L488.7375,2193.4814 L488.7375,2216.8701 A0,0 0 0 0 488.7375,2216.8701 L1023.7076,2216.8701 A0,0 0 0 0 1023.7076,2216.8701 L1023.7076,2173.2178 L1008.0826,2157.5928 L488.7375,2157.5928 A0,0 0 0 0 488.7375,2157.5928" fill="#FFF8D6" style="stroke:#C7A700;stroke-width:0.7813;"/><path d="M1008.0826,2157.5928 L1008.0826,2173.2178 L1023.7076,2173.2178 L1008.0826,2157.5928" fill="#FFF8D6" style="stroke:#C7A700;stroke-width:0.7813;"/><text fill="#000000" font-family="Arial" font-size="18.75" lengthAdjust="spacing" textLength="131.4697" x="498.1125" y="2182.8094">Key message:</text><text fill="#000000" font-family="Arial" font-size="18.75" font-weight="bold" lengthAdjust="spacing" textLength="358.7677" x="635.5423" y="2182.8094">"No new critical/high" merge gate</text><text fill="#000000" font-family="Arial" font-size="18.75" lengthAdjust="spacing" textLength="5.9601" x="994.31" y="2182.8094">.</text><text fill="#000000" font-family="Arial" font-size="18.75" lengthAdjust="spacing" textLength="489.6149" x="498.1125" y="2204.6356">AppCode ties every finding to an owner and an SLA.</text><rect fill="#F7F7F7" height="53.0762" rx="7.8125" ry="7.8125" style="stroke:#444444;stroke-width:0.7813;" width="215.2252" x="242.2623" y="2160.6934"/><text fill="#000000" font-family="Arial" font-size="18.75" lengthAdjust="spacing" textLength="183.9752" x="257.8873" y="2193.7225">IAST in QA (Seeker)</text><ellipse cx="349.8749" cy="2284.0576" fill="none" rx="17.1875" ry="17.1875" style="stroke:#222222;stroke-width:1.5625;"/><ellipse cx="349.8749" cy="2284.0576" fill="#222222" rx="9.375" ry="9.375" style="stroke:#222222;stroke-width:1.5625;"/><line style="stroke:#444444;stroke-width:1.5625;" x1="349.8749" x2="349.8749" y1="230.5664" y2="261.8164"/><polygon fill="#444444" points="343.6249,246.1914,349.8749,261.8164,356.1249,246.1914,349.8749,252.4414" style="stroke:#444444;stroke-width:1.5625;"/><line style="stroke:#444444;stroke-width:1.5625;" x1="349.8749" x2="349.8749" y1="314.8926" y2="346.1426"/><polygon fill="#444444" points="343.6249,330.5176,349.8749,346.1426,356.1249,330.5176,349.8749,336.7676" style="stroke:#444444;stroke-width:1.5625;"/><line style="stroke:#444444;stroke-width:1.5625;" x1="349.8749" x2="349.8749" y1="108.7891" y2="177.4902"/><polygon fill="#444444" points="343.6249,161.8652,349.8749,177.4902,356.1249,161.8652,349.8749,168.1152" style="stroke:#444444;stroke-width:1.5625;"/><line style="stroke:#444444;stroke-width:1.5625;" x1="349.8749" x2="349.8749" y1="539.7461" y2="570.9961"/><polygon fill="#444444" points="343.6249,555.3711,349.8749,570.9961,356.1249,555.3711,349.8749,561.6211" style="stroke:#444444;stroke-width:1.5625;"/><line style="stroke:#444444;stroke-width:1.5625;" x1="349.8749" x2="349.8749" y1="399.2188" y2="486.6699"/><polygon fill="#444444" points="343.6249,471.0449,349.8749,486.6699,356.1249,471.0449,349.8749,477.2949" style="stroke:#444444;stroke-width:1.5625;"/><line style="stroke:#444444;stroke-width:1.5625;" x1="349.8749" x2="349.8749" y1="764.5996" y2="795.8496"/><polygon fill="#444444" points="343.6249,780.2246,349.8749,795.8496,356.1249,780.2246,349.8749,786.4746" style="stroke:#444444;stroke-width:1.5625;"/><line style="stroke:#444444;stroke-width:1.5625;" x1="349.8749" x2="349.8749" y1="848.9258" y2="880.1758"/><polygon fill="#444444" points="343.6249,864.5508,349.8749,880.1758,356.1249,864.5508,349.8749,870.8008" style="stroke:#444444;stroke-width:1.5625;"/><line style="stroke:#444444;stroke-width:1.5625;" x1="349.8749" x2="349.8749" y1="933.252" y2="964.502"/><polygon fill="#444444" points="343.6249,948.877,349.8749,964.502,356.1249,948.877,349.8749,955.127" style="stroke:#444444;stroke-width:1.5625;"/><line style="stroke:#444444;stroke-width:1.5625;" x1="349.8749" x2="349.8749" y1="1017.5781" y2="1048.8281"/><polygon fill="#444444" points="343.6249,1033.2031,349.8749,1048.8281,356.1249,1033.2031,349.8749,1039.4531" style="stroke:#444444;stroke-width:1.5625;"/><line style="stroke:#444444;stroke-width:1.5625;" x1="349.8749" x2="349.8749" y1="1101.9043" y2="1133.1543"/><polygon fill="#444444" points="343.6249,1117.5293,349.8749,1133.1543,356.1249,1117.5293,349.8749,1123.7793" style="stroke:#444444;stroke-width:1.5625;"/><line style="stroke:#444444;stroke-width:1.5625;" x1="349.8749" x2="349.8749" y1="624.0723" y2="711.5234"/><polygon fill="#444444" points="343.6249,695.8984,349.8749,711.5234,356.1249,695.8984,349.8749,702.1484" style="stroke:#444444;stroke-width:1.5625;"/><line style="stroke:#444444;stroke-width:1.5625;" x1="221.3043" x2="221.3043" y1="1464.209" y2="1495.459"/><polygon fill="#444444" points="215.0543,1479.834,221.3043,1495.459,227.5543,1479.834,221.3043,1486.084" style="stroke:#444444;stroke-width:1.5625;"/><line style="stroke:#444444;stroke-width:1.5625;" x1="247.7249" x2="221.3043" y1="1376.7578" y2="1376.7578"/><line style="stroke:#444444;stroke-width:1.5625;" x1="221.3043" x2="221.3043" y1="1376.7578" y2="1411.1328"/><polygon fill="#444444" points="215.0543,1395.5078,221.3043,1411.1328,227.5543,1395.5078,221.3043,1401.7578" style="stroke:#444444;stroke-width:1.5625;"/><line style="stroke:#444444;stroke-width:1.5625;" x1="452.0248" x2="478.4454" y1="1376.7578" y2="1376.7578"/><line style="stroke:#444444;stroke-width:1.5625;" x1="478.4454" x2="478.4454" y1="1376.7578" y2="1411.1328"/><polygon fill="#444444" points="472.1954,1395.5078,478.4454,1411.1328,484.6954,1395.5078,478.4454,1401.7578" style="stroke:#444444;stroke-width:1.5625;"/><line style="stroke:#444444;stroke-width:1.5625;" x1="221.3043" x2="221.3043" y1="1548.5352" y2="1576.6602"/><line style="stroke:#444444;stroke-width:1.5625;" x1="221.3043" x2="331.1249" y1="1576.6602" y2="1576.6602"/><polygon fill="#444444" points="315.4999,1570.4102,331.1249,1576.6602,315.4999,1582.9102,321.7499,1576.6602" style="stroke:#444444;stroke-width:1.5625;"/><line style="stroke:#444444;stroke-width:1.5625;" x1="478.4454" x2="478.4454" y1="1464.209" y2="1576.6602"/><line style="stroke:#444444;stroke-width:1.5625;" x1="478.4454" x2="368.6249" y1="1576.6602" y2="1576.6602"/><polygon fill="#444444" points="384.2499,1570.4102,368.6249,1576.6602,384.2499,1582.9102,377.9999,1576.6602" style="stroke:#444444;stroke-width:1.5625;"/><line style="stroke:#444444;stroke-width:1.5625;" x1="349.8749" x2="349.8749" y1="1326.7578" y2="1358.0078"/><polygon fill="#444444" points="343.6249,1342.3828,349.8749,1358.0078,356.1249,1342.3828,349.8749,1348.6328" style="stroke:#444444;stroke-width:1.5625;"/><line style="stroke:#444444;stroke-width:1.5625;" x1="349.8749" x2="349.8749" y1="1186.2305" y2="1273.6816"/><polygon fill="#444444" points="343.6249,1258.0566,349.8749,1273.6816,356.1249,1258.0566,349.8749,1264.3066" style="stroke:#444444;stroke-width:1.5625;"/><line style="stroke:#444444;stroke-width:1.5625;" x1="349.8749" x2="349.8749" y1="1595.4102" y2="1682.8613"/><polygon fill="#444444" points="343.6249,1667.2363,349.8749,1682.8613,356.1249,1667.2363,349.8749,1673.4863" style="stroke:#444444;stroke-width:1.5625;"/><line style="stroke:#444444;stroke-width:1.5625;" x1="349.8749" x2="349.8749" y1="1876.4648" y2="1907.7148"/><polygon fill="#444444" points="343.6249,1892.0898,349.8749,1907.7148,356.1249,1892.0898,349.8749,1898.3398" style="stroke:#444444;stroke-width:1.5625;"/><line style="stroke:#444444;stroke-width:1.5625;" x1="349.8749" x2="349.8749" y1="1960.791" y2="1992.041"/><polygon fill="#444444" points="343.6249,1976.416,349.8749,1992.041,356.1249,1976.416,349.8749,1982.666" style="stroke:#444444;stroke-width:1.5625;"/><line style="stroke:#444444;stroke-width:1.5625;" x1="349.8749" x2="349.8749" y1="2045.1172" y2="2076.3672"/><polygon fill="#444444" points="343.6249,2060.7422,349.8749,2076.3672,356.1249,2060.7422,349.8749,2066.9922" style="stroke:#444444;stroke-width:1.5625;"/><line style="stroke:#444444;stroke-width:1.5625;" x1="349.8749" x2="349.8749" y1="2129.4434" y2="2160.6934"/><polygon fill="#444444" points="343.6249,2145.0684,349.8749,2160.6934,356.1249,2145.0684,349.8749,2151.3184" style="stroke:#444444;stroke-width:1.5625;"/><line style="stroke:#444444;stroke-width:1.5625;" x1="349.8749" x2="349.8749" y1="1735.9375" y2="1823.3887"/><polygon fill="#444444" points="343.6249,1807.7637,349.8749,1823.3887,356.1249,1807.7637,349.8749,1814.0137" style="stroke:#444444;stroke-width:1.5625;"/><line style="stroke:#444444;stroke-width:1.5625;" x1="349.8749" x2="349.8749" y1="2213.7695" y2="2266.8701"/><polygon fill="#444444" points="343.6249,2251.2451,349.8749,2266.8701,356.1249,2251.2451,349.8749,2257.4951" style="stroke:#444444;stroke-width:1.5625;"/><?plantuml-src TLJVRzis47xNNt4Bi4tELZiTC61mkmoAWhR6qjIf-hB7itII25EaHb9slM7_-pvAjkjcc9v4tl7k-t6atohJi-EEDbnk6sS7K-LMMqVxLWL9_3dkMwxiNfc6QjR-CbBrYbx-V7EnCvOfhJFYwELb87FExgVwTneDBqBtKlEWmnjhmYDtWbJ5Elb6cL8FbT1ylZZ--WNtlPVoXGy7BVD-w7GILD0uqlU5bBHsjXJlwUQd9RspdO3Ltb2-8WG7fyA1td8GJsdHgZhGWzHXbYJVqtfmlVMoH07PYGbaP4yb3gYIzQ9LJKjE-ItLobJGmLFjR4UTk2Qg0hq0OIlInrM52jhsu5zhkv-Z-la3ojo2aV8qUAaeM89KJZH0aHCF4JnnwIme16ir5gQAaY8C8k9yg_fvalZ0BYG9r0DxPGrThGUjwQFyEOWFL_HtGhJCdSIowu-luYeBWSlsZA2Jm1K7fjH9Robmut-apQ1qHJjs-8-bQou3QTw8zhEnoDsOy0CDHWM2Zi6_Ilxv2iUKyHqz3QpFSXy15O6X9oYnFdWLJR26tTEmaTdhrmqIRs_7Bh_SV0jPTkAu4GejT6cjhhwaVDtnkRFvQdRiz_PTLb2H5P-m2SvF3nE9SHj3v2J2FsrKqekfn9G76B5Ji7z1HPwD2P-SsXrenVcYjAPM3VcIpKL4TH5ftAHKrS1k0YkuDVNxq4UWh2cFd2BILBDfXdYcuNv4E7lE2eKHFn9vjAw3d7y9fA-a6dhvCeZfLWxqwydNiICWf8_Fv_Ut6QGK0Fn3_2o9mxZCl5UDcGQBqjDalBY5izoDbP3qHdqcNDaEfQB-SHVZ8EXWZsN6EoVL606e-XcJQCkHntlS5m63Kdc4_i_Gh0x0C-QUpa5DsZWs6E2eCbX7pnRd-LcCFanohuUDLhwbukx3Uqgd07JJocpZVJlI75Fp-sYxjeTnTHydnPSj1CPjJbS6whHXUbYcqgkO0IXF6MPNP3iw3F36nkiRivFVuKQ75mZcBUdw-khH_lSfkHeVZcX-aElhUN9IFYZCBnuFTpZP6m7poQ7u561HF6Jp149Jx1gV0jl_2m00?></g></svg>