<?plantuml 1.2026.2?><svg xmlns="http://www.w3.org/2000/svg" xmlns:xlink="http://www.w3.org/1999/xlink" contentStyleType="text/css" data-diagram-type="ACTIVITY" height="1984.375px" preserveAspectRatio="none" style="width:1854px;height:1984px;background:#FFFFFF;" version="1.1" viewBox="0 0 1854 1984" width="1854.6875px" zoomAndPan="magnify"><title>Seeker Agent Update - Java Process</title><defs/><g><g class="title" data-source-line="1"><text fill="#000000" font-family="Arial" font-size="21.875" font-weight="bold" lengthAdjust="spacing" textLength="442.9581" x="704.2694" y="51.5549">Seeker Agent Update - Java Process</text></g><ellipse cx="928.5971" cy="89.5264" fill="#5B8FF9" rx="15.625" ry="15.625" style="stroke:#222222;stroke-width:1.5625;"/><rect fill="#FAFAFA" height="150.3662" rx="7.8125" ry="7.8125" style="stroke:#BDBDBD;stroke-width:2.3438;" width="293.4143" x="781.8899" y="120.7764"/><path d="M1016.5213,120.7764 L1016.5213,135.3027 L1000.8963,150.9277 L781.8899,150.9277" fill="none" style="stroke:#BDBDBD;stroke-width:2.3438;"/><text fill="#222222" font-family="Arial" font-size="21.875" lengthAdjust="spacing" textLength="219.0063" x="786.5774" y="142.6437">Application Security</text><rect fill="#F7F7F7" height="74.9023" rx="7.8125" ry="7.8125" style="stroke:#4C4C4C;stroke-width:0.7813;" width="262.1643" x="797.5149" y="177.4902"/><text fill="#222222" font-family="Arial" font-size="18.75" lengthAdjust="spacing" textLength="163.8885" x="813.1399" y="210.5194">Identify Java app,</text><text fill="#222222" font-family="Arial" font-size="18.75" lengthAdjust="spacing" textLength="230.9143" x="813.1399" y="232.3456">owner, and environment</text><rect fill="#FAFAFA" height="150.3662" rx="7.8125" ry="7.8125" style="stroke:#BDBDBD;stroke-width:2.3438;" width="344.693" x="756.2506" y="286.7676"/><path d="M962.5875,286.7676 L962.5875,301.2939 L946.9625,316.9189 L756.2506,316.9189" fill="none" style="stroke:#BDBDBD;stroke-width:2.3438;"/><text fill="#222222" font-family="Arial" font-size="21.875" lengthAdjust="spacing" textLength="190.712" x="760.9381" y="308.6349">Application Team</text><rect fill="#F7F7F7" height="74.9023" rx="7.8125" ry="7.8125" style="stroke:#4C4C4C;stroke-width:0.7813;" width="313.443" x="771.8756" y="343.4814"/><text fill="#222222" font-family="Arial" font-size="18.75" lengthAdjust="spacing" textLength="250.9735" x="787.5006" y="376.5106">Verify -javaagent path and</text><text fill="#222222" font-family="Arial" font-size="18.75" lengthAdjust="spacing" textLength="282.193" x="787.5006" y="398.3368">seeker.server.url / project.key</text><polygon fill="#FFF6E5" points="794.4582,468.3838,1062.7359,468.3838,1081.4859,487.1338,1062.7359,505.8838,794.4582,505.8838,775.7082,487.1338,794.4582,468.3838" style="stroke:#B26B00;stroke-width:0.7813;"/><text fill="#222222" font-family="Arial" font-size="17.1875" lengthAdjust="spacing" textLength="268.2777" x="794.4582" y="493.084">Managed JAR in image or host?</text><text fill="#000000" font-family="Arial" font-size="17.1875" lengthAdjust="spacing" textLength="29.7005" x="746.0077" y="483.0803">yes</text><text fill="#000000" font-family="Arial" font-size="17.1875" lengthAdjust="spacing" textLength="21.4088" x="1081.4859" y="483.0803">no</text><rect fill="#FAFAFA" height="350.2686" rx="7.8125" ry="7.8125" style="stroke:#BDBDBD;stroke-width:2.3438;" width="288.1317" x="616.0173" y="521.5088"/><path d="M831.3051,521.5088 L831.3051,536.0352 L815.6801,551.6602 L616.0173,551.6602" fill="none" style="stroke:#BDBDBD;stroke-width:2.3438;"/><text fill="#222222" font-family="Arial" font-size="21.875" lengthAdjust="spacing" textLength="199.6628" x="620.7048" y="543.3762">DevOps / Platform</text><rect fill="#F7F7F7" height="74.9023" rx="7.8125" ry="7.8125" style="stroke:#4C4C4C;stroke-width:0.7813;" width="185.4889" x="667.3388" y="578.2227"/><text fill="#222222" font-family="Arial" font-size="18.75" lengthAdjust="spacing" textLength="137.915" x="682.9638" y="611.2518">Download new</text><text fill="#222222" font-family="Arial" font-size="18.75" lengthAdjust="spacing" textLength="154.2389" x="682.9638" y="633.078">seeker-agent.jar</text><rect fill="#F7F7F7" height="74.9023" rx="7.8125" ry="7.8125" style="stroke:#4C4C4C;stroke-width:0.7813;" width="201.1993" x="659.4835" y="693.7988"/><text fill="#222222" font-family="Arial" font-size="18.75" lengthAdjust="spacing" textLength="169.9493" x="675.1085" y="726.828">Replace old JAR in</text><text fill="#222222" font-family="Arial" font-size="18.75" lengthAdjust="spacing" textLength="168.8232" x="675.1085" y="748.6542">managed location</text><rect fill="#F7F7F7" height="53.0762" rx="7.8125" ry="7.8125" style="stroke:#4C4C4C;stroke-width:0.7813;" width="256.8817" x="631.6423" y="799.9512"/><text fill="#222222" font-family="Arial" font-size="18.75" lengthAdjust="spacing" textLength="225.6317" x="647.2673" y="832.9803">Verify package integrity</text><rect fill="#FAFAFA" height="141.04" rx="7.8125" ry="7.8125" style="stroke:#BDBDBD;stroke-width:2.3438;" width="319.5984" x="937.3117" y="521.5088"/><path d="M1143.6487,521.5088 L1143.6487,536.0352 L1128.0237,551.6602 L937.3117,551.6602" fill="none" style="stroke:#BDBDBD;stroke-width:2.3438;"/><text fill="#222222" font-family="Arial" font-size="21.875" lengthAdjust="spacing" textLength="190.712" x="941.9992" y="543.3762">Application Team</text><rect fill="#F7F7F7" height="53.0762" rx="7.8125" ry="7.8125" style="stroke:#4C4C4C;stroke-width:0.7813;" width="288.3484" x="952.9367" y="578.2227"/><text fill="#222222" font-family="Arial" font-size="18.75" lengthAdjust="spacing" textLength="257.0984" x="968.5617" y="611.2518">Use automatic refresh path</text><polygon fill="#FFF6E5" points="928.5971,881.1523,947.3471,899.9023,928.5971,918.6523,909.8471,899.9023,928.5971,881.1523" style="stroke:#B26B00;stroke-width:0.7813;"/><rect fill="#FAFAFA" height="150.3662" rx="7.8125" ry="7.8125" style="stroke:#BDBDBD;stroke-width:2.3438;" width="262.442" x="797.3761" y="934.2773"/><path d="M1003.713,934.2773 L1003.713,948.8037 L988.088,964.4287 L797.3761,964.4287" fill="none" style="stroke:#BDBDBD;stroke-width:2.3438;"/><text fill="#222222" font-family="Arial" font-size="21.875" lengthAdjust="spacing" textLength="190.712" x="802.0636" y="956.1447">Application Team</text><rect fill="#F7F7F7" height="74.9023" rx="7.8125" ry="7.8125" style="stroke:#4C4C4C;stroke-width:0.7813;" width="231.192" x="813.0011" y="990.9912"/><text fill="#222222" font-family="Arial" font-size="18.75" lengthAdjust="spacing" textLength="199.942" x="828.6261" y="1024.0204">Restart app server or</text><text fill="#222222" font-family="Arial" font-size="18.75" lengthAdjust="spacing" textLength="191.748" x="828.6261" y="1045.8466">redeploy application</text><rect fill="#FAFAFA" height="234.6924" rx="7.8125" ry="7.8125" style="stroke:#BDBDBD;stroke-width:2.3438;" width="291.9861" x="782.604" y="1100.2686"/><path d="M1017.2354,1100.2686 L1017.2354,1114.7949 L1001.6104,1130.4199 L782.604,1130.4199" fill="none" style="stroke:#BDBDBD;stroke-width:2.3438;"/><text fill="#222222" font-family="Arial" font-size="21.875" lengthAdjust="spacing" textLength="219.0063" x="787.2915" y="1122.1359">Application Security</text><rect fill="#F7F7F7" height="53.0762" rx="7.8125" ry="7.8125" style="stroke:#4C4C4C;stroke-width:0.7813;" width="227.5482" x="814.823" y="1156.9824"/><text fill="#222222" font-family="Arial" font-size="18.75" lengthAdjust="spacing" textLength="196.2982" x="830.448" y="1190.0116">Run validation traffic</text><rect fill="#F7F7F7" height="74.9023" rx="7.8125" ry="7.8125" style="stroke:#4C4C4C;stroke-width:0.7813;" width="260.7361" x="798.229" y="1241.3086"/><text fill="#222222" font-family="Arial" font-size="18.75" lengthAdjust="spacing" textLength="185.6689" x="813.854" y="1274.3378">Check Seeker UI for</text><text fill="#222222" font-family="Arial" font-size="18.75" lengthAdjust="spacing" textLength="229.4861" x="813.854" y="1296.1639">agent version alignment</text><polygon fill="#FFF6E5" points="820.2101,1366.2109,1036.9841,1366.2109,1055.7341,1384.9609,1036.9841,1403.7109,820.2101,1403.7109,801.4601,1384.9609,820.2101,1366.2109" style="stroke:#B26B00;stroke-width:0.7813;"/><text fill="#222222" font-family="Arial" font-size="17.1875" lengthAdjust="spacing" textLength="216.774" x="820.2101" y="1390.9111">Data and version visible?</text><text fill="#000000" font-family="Arial" font-size="17.1875" lengthAdjust="spacing" textLength="29.7005" x="771.7596" y="1380.9074">yes</text><text fill="#000000" font-family="Arial" font-size="17.1875" lengthAdjust="spacing" textLength="21.4088" x="1055.7341" y="1380.9074">no</text><rect fill="#FAFAFA" height="141.04" rx="7.8125" ry="7.8125" style="stroke:#BDBDBD;stroke-width:2.3438;" width="314.9109" x="599.2743" y="1419.3359"/><path d="M833.9056,1419.3359 L833.9056,1433.8623 L818.2806,1449.4873 L599.2743,1449.4873" fill="none" style="stroke:#BDBDBD;stroke-width:2.3438;"/><text fill="#222222" font-family="Arial" font-size="21.875" lengthAdjust="spacing" textLength="219.0063" x="603.9618" y="1441.2033">Application Security</text><rect fill="#F7F7F7" height="53.0762" rx="7.8125" ry="7.8125" style="stroke:#4C4C4C;stroke-width:0.7813;" width="283.6609" x="614.8993" y="1476.0498"/><text fill="#222222" font-family="Arial" font-size="18.75" lengthAdjust="spacing" textLength="252.4109" x="630.5243" y="1509.079">Record evidence and close</text><ellipse cx="756.7297" cy="1618.2373" fill="none" rx="17.1875" ry="17.1875" style="stroke:#222222;stroke-width:1.5625;"/><ellipse cx="756.7297" cy="1618.2373" fill="#222222" rx="9.375" ry="9.375" style="stroke:#222222;stroke-width:1.5625;"/><rect fill="#FAFAFA" height="244.1162" rx="7.8125" ry="7.8125" style="stroke:#BDBDBD;stroke-width:2.3438;" width="310.0586" x="945.4351" y="1419.3359"/><path d="M1151.7721,1419.3359 L1151.7721,1433.8623 L1136.1471,1449.4873 L945.4351,1449.4873" fill="none" style="stroke:#BDBDBD;stroke-width:2.3438;"/><text fill="#222222" font-family="Arial" font-size="21.875" lengthAdjust="spacing" textLength="190.712" x="950.1226" y="1441.2033">Application Team</text><rect fill="#F7F7F7" height="74.9023" rx="7.8125" ry="7.8125" style="stroke:#4C4C4C;stroke-width:0.7813;" width="278.8086" x="961.0601" y="1476.0498"/><text fill="#222222" font-family="Arial" font-size="18.75" lengthAdjust="spacing" textLength="184.845" x="976.6851" y="1509.079">Restore prior JAR or</text><text fill="#222222" font-family="Arial" font-size="18.75" lengthAdjust="spacing" textLength="247.5586" x="976.6851" y="1530.9052">prior deployment package</text><rect fill="#F7F7F7" height="53.0762" rx="7.8125" ry="7.8125" style="stroke:#4C4C4C;stroke-width:0.7813;" width="190.8905" x="1005.0192" y="1591.626"/><text fill="#222222" font-family="Arial" font-size="18.75" lengthAdjust="spacing" textLength="159.6405" x="1020.6442" y="1624.6552">Restart workload</text><ellipse cx="1100.4644" cy="1711.8896" fill="none" rx="17.1875" ry="17.1875" style="stroke:#222222;stroke-width:1.5625;"/><ellipse cx="1100.4644" cy="1711.8896" fill="#222222" rx="9.375" ry="9.375" style="stroke:#222222;stroke-width:1.5625;"/><line style="stroke:#000000;stroke-width:1.5625;" x1="928.5971" x2="928.5971" y1="105.1514" y2="177.4902"/><polygon fill="#000000" points="922.3471,161.8652,928.5971,177.4902,934.8471,161.8652,928.5971,168.1152" style="stroke:#000000;stroke-width:1.5625;"/><line style="stroke:#000000;stroke-width:1.5625;" x1="928.5971" x2="928.5971" y1="252.3926" y2="343.4814"/><polygon fill="#000000" points="922.3471,327.8564,928.5971,343.4814,934.8471,327.8564,928.5971,334.1064" style="stroke:#000000;stroke-width:1.5625;"/><line style="stroke:#000000;stroke-width:1.5625;" x1="760.0832" x2="760.0832" y1="653.125" y2="693.7988"/><polygon fill="#000000" points="753.8332,678.1738,760.0832,693.7988,766.3332,678.1738,760.0832,684.4238" style="stroke:#000000;stroke-width:1.5625;"/><line style="stroke:#000000;stroke-width:1.5625;" x1="760.0832" x2="760.0832" y1="768.7012" y2="799.9512"/><polygon fill="#000000" points="753.8332,784.3262,760.0832,799.9512,766.3332,784.3262,760.0832,790.5762" style="stroke:#000000;stroke-width:1.5625;"/><line style="stroke:#000000;stroke-width:1.5625;" x1="775.7082" x2="760.0832" y1="487.1338" y2="487.1338"/><line style="stroke:#000000;stroke-width:1.5625;" x1="760.0832" x2="760.0832" y1="487.1338" y2="578.2227"/><polygon fill="#000000" points="753.8332,562.5977,760.0832,578.2227,766.3332,562.5977,760.0832,568.8477" style="stroke:#000000;stroke-width:1.5625;"/><line style="stroke:#000000;stroke-width:1.5625;" x1="1081.4859" x2="1097.1109" y1="487.1338" y2="487.1338"/><line style="stroke:#000000;stroke-width:1.5625;" x1="1097.1109" x2="1097.1109" y1="487.1338" y2="578.2227"/><polygon fill="#000000" points="1090.8609,562.5977,1097.1109,578.2227,1103.3609,562.5977,1097.1109,568.8477" style="stroke:#000000;stroke-width:1.5625;"/><line style="stroke:#000000;stroke-width:1.5625;" x1="760.0832" x2="760.0832" y1="853.0273" y2="899.9023"/><line style="stroke:#000000;stroke-width:1.5625;" x1="760.0832" x2="909.8471" y1="899.9023" y2="899.9023"/><polygon fill="#000000" points="894.2221,893.6523,909.8471,899.9023,894.2221,906.1523,900.4721,899.9023" style="stroke:#000000;stroke-width:1.5625;"/><line style="stroke:#000000;stroke-width:1.5625;" x1="1097.1109" x2="1097.1109" y1="631.2988" y2="899.9023"/><line style="stroke:#000000;stroke-width:1.5625;" x1="1097.1109" x2="947.3471" y1="899.9023" y2="899.9023"/><polygon fill="#000000" points="962.9721,893.6523,947.3471,899.9023,962.9721,906.1523,956.7221,899.9023" style="stroke:#000000;stroke-width:1.5625;"/><line style="stroke:#000000;stroke-width:1.5625;" x1="928.5971" x2="928.5971" y1="418.3838" y2="468.3838"/><polygon fill="#000000" points="922.3471,452.7588,928.5971,468.3838,934.8471,452.7588,928.5971,459.0088" style="stroke:#000000;stroke-width:1.5625;"/><line style="stroke:#000000;stroke-width:1.5625;" x1="928.5971" x2="928.5971" y1="918.6523" y2="990.9912"/><polygon fill="#000000" points="922.3471,975.3662,928.5971,990.9912,934.8471,975.3662,928.5971,981.6162" style="stroke:#000000;stroke-width:1.5625;"/><line style="stroke:#000000;stroke-width:1.5625;" x1="928.5971" x2="928.5971" y1="1210.0586" y2="1241.3086"/><polygon fill="#000000" points="922.3471,1225.6836,928.5971,1241.3086,934.8471,1225.6836,928.5971,1231.9336" style="stroke:#000000;stroke-width:1.5625;"/><line style="stroke:#000000;stroke-width:1.5625;" x1="928.5971" x2="928.5971" y1="1065.8936" y2="1156.9824"/><polygon fill="#000000" points="922.3471,1141.3574,928.5971,1156.9824,934.8471,1141.3574,928.5971,1147.6074" style="stroke:#000000;stroke-width:1.5625;"/><line style="stroke:#000000;stroke-width:1.5625;" x1="756.7297" x2="756.7297" y1="1529.126" y2="1601.0498"/><polygon fill="#000000" points="750.4797,1585.4248,756.7297,1601.0498,762.9797,1585.4248,756.7297,1591.6748" style="stroke:#000000;stroke-width:1.5625;"/><line style="stroke:#000000;stroke-width:1.5625;" x1="1100.4644" x2="1100.4644" y1="1550.9521" y2="1591.626"/><polygon fill="#000000" points="1094.2144,1576.001,1100.4644,1591.626,1106.7144,1576.001,1100.4644,1582.251" style="stroke:#000000;stroke-width:1.5625;"/><line style="stroke:#000000;stroke-width:1.5625;" x1="1100.4644" x2="1100.4644" y1="1644.7021" y2="1694.7021"/><polygon fill="#000000" points="1094.2144,1679.0771,1100.4644,1694.7021,1106.7144,1679.0771,1100.4644,1685.3271" style="stroke:#000000;stroke-width:1.5625;"/><line style="stroke:#000000;stroke-width:1.5625;" x1="801.4601" x2="756.7297" y1="1384.9609" y2="1384.9609"/><line style="stroke:#000000;stroke-width:1.5625;" x1="756.7297" x2="756.7297" y1="1384.9609" y2="1476.0498"/><polygon fill="#000000" points="750.4797,1460.4248,756.7297,1476.0498,762.9797,1460.4248,756.7297,1466.6748" style="stroke:#000000;stroke-width:1.5625;"/><line style="stroke:#000000;stroke-width:1.5625;" x1="1055.7341" x2="1100.4644" y1="1384.9609" y2="1384.9609"/><line style="stroke:#000000;stroke-width:1.5625;" x1="1100.4644" x2="1100.4644" y1="1384.9609" y2="1476.0498"/><polygon fill="#000000" points="1094.2144,1460.4248,1100.4644,1476.0498,1106.7144,1460.4248,1100.4644,1466.6748" style="stroke:#000000;stroke-width:1.5625;"/><line style="stroke:#000000;stroke-width:1.5625;" x1="928.5971" x2="928.5971" y1="1316.2109" y2="1366.2109"/><polygon fill="#000000" points="922.3471,1350.5859,928.5971,1366.2109,934.8471,1350.5859,928.5971,1356.8359" style="stroke:#000000;stroke-width:1.5625;"/><g class="legend" data-source-line="28"><rect fill="none" height="200.1221" rx="7.8125" ry="7.8125" style="stroke:#000000;stroke-width:1.5625;" width="1782.7469" x="34.375" y="1746.2646"/><text fill="#000000" font-family="Arial" font-size="21.875" font-weight="bold" lengthAdjust="spacing" textLength="60.434" x="49.8032" y="1777.507">Field</text><text fill="#000000" font-family="Arial" font-size="21.875" font-weight="bold" lengthAdjust="spacing" textLength="69.5984" x="253.8879" y="1777.507">Value</text><text fill="#000000" font-family="Arial" font-size="21.875" lengthAdjust="spacing" textLength="83.847" x="49.1409" y="1802.9709">Process</text><text fill="#000000" font-family="Arial" font-size="21.875" lengthAdjust="spacing" textLength="486.3556" x="253.2257" y="1802.9709">Java Seeker agent refresh for JVM workloads</text><text fill="#000000" font-family="Arial" font-size="21.875" lengthAdjust="spacing" textLength="190.1779" x="49.1409" y="1828.4348">Primary message</text><text fill="#000000" font-family="Arial" font-size="21.875" lengthAdjust="spacing" textLength="1549.1302" x="253.2257" y="1828.4348">For Java, preserve JVM attachment settings, choose auto-refresh or managed JAR replacement, then validate the reporting version in Seeker.</text><text fill="#000000" font-family="Arial" font-size="21.875" lengthAdjust="spacing" textLength="78.656" x="49.1409" y="1853.8986">Trigger</text><text fill="#000000" font-family="Arial" font-size="21.875" lengthAdjust="spacing" textLength="609.7549" x="253.2257" y="1853.8986">Java application included in Seeker agent refresh scope</text><text fill="#000000" font-family="Arial" font-size="21.875" lengthAdjust="spacing" textLength="142.7643" x="49.1409" y="1879.3625">Entry criteria</text><text fill="#000000" font-family="Arial" font-size="21.875" lengthAdjust="spacing" textLength="714.1205" x="253.2257" y="1879.3625">Server upgraded; Java app uses -javaagent and seeker.* settings</text><text fill="#000000" font-family="Arial" font-size="21.875" lengthAdjust="spacing" textLength="125.9842" x="49.1409" y="1904.8264">Exit criteria</text><text fill="#000000" font-family="Arial" font-size="21.875" lengthAdjust="spacing" textLength="671.8552" x="253.2257" y="1904.8264">Java workload restarted and reporting updated agent version</text><text fill="#000000" font-family="Arial" font-size="21.875" lengthAdjust="spacing" textLength="146.8765" x="49.1409" y="1930.2902">Key evidence</text><text fill="#000000" font-family="Arial" font-size="21.875" lengthAdjust="spacing" textLength="1109.5901" x="253.2257" y="1930.2902">Launcher settings, JAR replacement record, app restart log, Seeker Projects &gt; Analysis version check</text><line style="stroke:#000000;stroke-width:1.5625;" x1="42.1875" x2="1809.3094" y1="1757.2021" y2="1757.2021"/><line style="stroke:#000000;stroke-width:1.5625;" x1="42.1875" x2="1809.3094" y1="1782.666" y2="1782.666"/><line style="stroke:#000000;stroke-width:1.5625;" x1="42.1875" x2="1809.3094" y1="1808.1299" y2="1808.1299"/><line style="stroke:#000000;stroke-width:1.5625;" x1="42.1875" x2="1809.3094" y1="1833.5938" y2="1833.5938"/><line style="stroke:#000000;stroke-width:1.5625;" x1="42.1875" x2="1809.3094" y1="1859.0576" y2="1859.0576"/><line style="stroke:#000000;stroke-width:1.5625;" x1="42.1875" x2="1809.3094" y1="1884.5215" y2="1884.5215"/><line style="stroke:#000000;stroke-width:1.5625;" x1="42.1875" x2="1809.3094" y1="1909.9854" y2="1909.9854"/><line style="stroke:#000000;stroke-width:1.5625;" x1="42.1875" x2="1809.3094" y1="1935.4492" y2="1935.4492"/><line style="stroke:#000000;stroke-width:1.5625;" x1="42.1875" x2="42.1875" y1="1757.2021" y2="1935.4492"/><line style="stroke:#000000;stroke-width:1.5625;" x1="246.2723" x2="246.2723" y1="1757.2021" y2="1935.4492"/><line style="stroke:#000000;stroke-width:1.5625;" x1="1809.3094" x2="1809.3094" y1="1757.2021" y2="1935.4492"/></g><?plantuml-src bLHHRzis47xNhpYqB-dWP6cnT6k3RR3Z26ZMRaNIvCalL-aaCQP8WQJa6al_Uu-a92kkstKMO4WyyhllllkETYrKWmPh-8ZPkZIwLVc5bjh0fXAE4Zl6ROMvtWXLGe7IJYDv8-3vsUba9S1asYWoy7mQc1kZDn5_8JdX9BIa0blfKgtStrWJRnKe4oUS9BWXMZFKl2JbuBR9qH4SmnLs2E-DpiZQ7oBwNoNc1odiufWvqGctXNyJWCKUsDFqL__uY3OvcNxrbml_yAf7xTTUX1-lBGNMMkLVGwNfoykpoOOfukB5oyNfwIvu2FZ6eHaMpnQ_fUahNhmSySUb1Ph7IvydvV8_oo-qYlK-uh3qpq4LvluvMEyKMsbkuM4Ppz9NQRgVS6Hy2BOIEG7L3NSc9viPqNZMIIA93PE34MNbaeVV8HKaS-2NEvGjmKFoCDW77gARUgDXC9gXmf2jeE1aLtVlOAFDMchCRNzIr6YsKFDntiy8gT_7A3De-1oPZi8nT0wpglQ8bfnZOzePP9NMbW1Rfu-7F7oyHiLOELpDhpbzmoD2_k0CN4KAEfGYU9-_V5WRZmOT6Ukx95JF_oGG_C1rbrnCNnesZHGPkhWpastEUSOZUoNRJ3THe4lbk4ZMr15F0uFT-C8Cj4rfa27EHtHeBLaulkVF28QilOs4VXfBZw2VX9jY1eX1NYPXlNsPdaVOrTc6mSzxgaFL7kylsW9rx0AL-KQynLPb5PFSwRqdAB_pzPJF0ky-7qXTpWOvs1Vtb3aBVy1SeTnQOSUC39sjEIzxApeiIPA0a2IxaNaod-XzGrdBrMwV1Ck_ViD4dIYsetIpbT8RlYndeM9IdJ1QUPxdxEvlWNuWh7l0EzQHuIRQD-Wg3xPIVGU27yr9QoJypFuCrPsiQHioY0AEtasinxPWSxEfsPALjkxFPz60HrkoppZXXD6IkdyQovZl9JgUb9uIarfoIQ6VYZO3ZUF0xkGUpNdST1rx0beEcLTg60AfOwNzrhx8XYyCJqqeHwKNrOS_9yHNFHmflKVli62CTjjFNysnRFIzbwt7KxaeVaJxwzuztabHP5PjfGpbN9hUJkVkUztSiyXrEuwxZpg3HI4oJ-trHR1VxzFRD_vwMgd7Cy47ovr_V7UNw32OQzZI2Ii-IlfEPx_DBbJjvsStT1uwatobHVK0hDFD_swArr8ROdyAVvUo7tnjyIlAMKTp1mkSxmxv1WptnsC6eOrV0000?></g></svg>