<?plantuml 1.2026.2?><svg xmlns="http://www.w3.org/2000/svg" xmlns:xlink="http://www.w3.org/1999/xlink" contentStyleType="text/css" data-diagram-type="ACTIVITY" height="1771.875px" preserveAspectRatio="none" style="width:1309px;height:1771px;background:#FFFFFF;" version="1.1" viewBox="0 0 1309 1771" width="1309.375px" zoomAndPan="magnify"><title>AppSec Process 03: Static Analysis (GHAS + Coverity + SonarQube) &#8212; Analysis &amp; Triage</title><defs/><g><g class="title" data-source-line="2"><text fill="#000000" font-family="Arial" font-size="25" font-weight="bold" lengthAdjust="spacing" textLength="1242.8223" x="31.25" y="54.4556">AppSec Process 03: Static Analysis (GHAS + Coverity + SonarQube) &#8212; Analysis &amp; Triage</text></g><ellipse cx="463.8351" cy="93.1641" fill="#222222" rx="15.625" ry="15.625" style="stroke:#222222;stroke-width:1.5625;"/><rect fill="none" height="293.5547" rx="7.8125" ry="7.8125" style="stroke:#777777;stroke-width:2.3438;" width="496.3684" x="215.6509" y="124.4141"/><path d="M329.3839,124.4141 L329.3839,135.3027 L313.7589,150.9277 L215.6509,150.9277" fill="none" style="stroke:#777777;stroke-width:2.3438;"/><text fill="#111111" font-family="Arial" font-size="18.75" lengthAdjust="spacing" textLength="98.1079" x="220.3384" y="143.3807">Run Scans</text><rect fill="#F7F7F7" height="53.0762" rx="7.8125" ry="7.8125" style="stroke:#444444;stroke-width:0.7813;" width="456.9519" x="235.3592" y="177.4902"/><text fill="#000000" font-family="Arial" font-size="18.75" lengthAdjust="spacing" textLength="425.7019" x="250.9842" y="210.5194">SonarQube analysis (quality + security rules)</text><rect fill="#F7F7F7" height="53.0762" rx="7.8125" ry="7.8125" style="stroke:#444444;stroke-width:0.7813;" width="245.6482" x="341.011" y="261.8164"/><text fill="#000000" font-family="Arial" font-size="18.75" lengthAdjust="spacing" textLength="214.3982" x="356.636" y="294.8456">GHAS CodeQL analysis</text><rect fill="#F7F7F7" height="53.0762" rx="7.8125" ry="7.8125" style="stroke:#444444;stroke-width:0.7813;" width="465.1184" x="231.2759" y="346.1426"/><text fill="#000000" font-family="Arial" font-size="18.75" lengthAdjust="spacing" textLength="433.8684" x="246.9009" y="379.1718">Coverity scan (gap languages / deep analysis)</text><rect fill="none" height="377.8809" rx="7.8125" ry="7.8125" style="stroke:#777777;stroke-width:2.3438;" width="406.9672" x="260.3516" y="433.5938"/><path d="M370.7336,433.5938 L370.7336,444.4824 L355.1086,460.1074 L260.3516,460.1074" fill="none" style="stroke:#777777;stroke-width:2.3438;"/><text fill="#111111" font-family="Arial" font-size="18.75" lengthAdjust="spacing" textLength="94.7571" x="265.0391" y="452.5604">Normalize</text><rect fill="#F7F7F7" height="53.0762" rx="7.8125" ry="7.8125" style="stroke:#444444;stroke-width:0.7813;" width="320.3461" x="303.6621" y="486.6699"/><text fill="#000000" font-family="Arial" font-size="18.75" lengthAdjust="spacing" textLength="289.0961" x="319.2871" y="519.6991">Map finding -&gt; CWE / category</text><rect fill="#F7F7F7" height="53.0762" rx="7.8125" ry="7.8125" style="stroke:#444444;stroke-width:0.7813;" width="375.7172" x="275.9766" y="570.9961"/><text fill="#000000" font-family="Arial" font-size="18.75" lengthAdjust="spacing" textLength="344.4672" x="291.6016" y="604.0253">Enrich with repo + branch + commit</text><rect fill="#F7F7F7" height="53.0762" rx="7.8125" ry="7.8125" style="stroke:#444444;stroke-width:0.7813;" width="233.728" x="346.9711" y="655.3223"/><text fill="#000000" font-family="Arial" font-size="18.75" lengthAdjust="spacing" textLength="202.478" x="362.5961" y="688.3514">Correlate to AppCode</text><rect fill="#F7F7F7" height="53.0762" rx="7.8125" ry="7.8125" style="stroke:#444444;stroke-width:0.7813;" width="222.1558" x="352.7573" y="739.6484"/><text fill="#000000" font-family="Arial" font-size="18.75" lengthAdjust="spacing" textLength="190.9058" x="368.3823" y="772.6776">Dedupe across tools</text><rect fill="none" height="224.9023" rx="7.8125" ry="7.8125" style="stroke:#777777;stroke-width:2.3438;" width="597.8882" x="166.2415" y="827.0996"/><path d="M264.4196,827.0996 L264.4196,837.9883 L248.7946,853.6133 L166.2415,853.6133" fill="none" style="stroke:#777777;stroke-width:2.3438;"/><text fill="#111111" font-family="Arial" font-size="18.75" lengthAdjust="spacing" textLength="82.5531" x="170.929" y="846.0663">Prioritize</text><polygon fill="#F7F7F7" points="328.5843,880.1758,599.086,880.1758,617.836,898.9258,599.086,917.6758,328.5843,917.6758,309.8343,898.9258,328.5843,880.1758" style="stroke:#444444;stroke-width:0.7813;"/><text fill="#000000" font-family="Arial" font-size="18.75" lengthAdjust="spacing" textLength="270.5017" x="328.5843" y="905.4169">Exploitability + impact high?</text><text fill="#000000" font-family="Arial" font-size="18.75" lengthAdjust="spacing" textLength="32.7576" x="277.0767" y="894.5038">Yes</text><text fill="#000000" font-family="Arial" font-size="18.75" lengthAdjust="spacing" textLength="25.4974" x="617.836" y="894.5038">No</text><rect fill="#F7F7F7" height="53.0762" rx="7.8125" ry="7.8125" style="stroke:#444444;stroke-width:0.7813;" width="193.4357" x="197.4915" y="933.3008"/><text fill="#000000" font-family="Arial" font-size="18.75" lengthAdjust="spacing" textLength="162.1857" x="213.1165" y="966.33">Mark critical/high</text><rect fill="#F7F7F7" height="53.0762" rx="7.8125" ry="7.8125" style="stroke:#444444;stroke-width:0.7813;" width="198.8373" x="534.0424" y="933.3008"/><text fill="#000000" font-family="Arial" font-size="18.75" lengthAdjust="spacing" textLength="167.5873" x="549.6674" y="966.33">Mark medium/low</text><polygon fill="#F7F7F7" points="463.8351,995.752,482.5851,1014.502,463.8351,1033.252,445.0851,1014.502,463.8351,995.752" style="stroke:#444444;stroke-width:0.7813;"/><rect fill="none" height="393.5547" rx="7.8125" ry="7.8125" style="stroke:#777777;stroke-width:2.3438;" width="720.5139" x="48.3002" y="1067.627"/><path d="M203.6438,1067.627 L203.6438,1078.5156 L188.0188,1094.1406 L48.3002,1094.1406" fill="none" style="stroke:#777777;stroke-width:2.3438;"/><text fill="#111111" font-family="Arial" font-size="18.75" lengthAdjust="spacing" textLength="139.7186" x="52.9877" y="1086.5936">Assign &amp; Track</text><rect fill="#F7F7F7" height="53.0762" rx="7.8125" ry="7.8125" style="stroke:#444444;stroke-width:0.7813;" width="481.9" x="222.8851" y="1120.7031"/><text fill="#000000" font-family="Arial" font-size="18.75" lengthAdjust="spacing" textLength="450.65" x="238.5101" y="1153.7323">Create/Update ticket (AppCode + owning team)</text><rect fill="#F7F7F7" height="53.0762" rx="7.8125" ry="7.8125" style="stroke:#444444;stroke-width:0.7813;" width="213.3942" x="357.1381" y="1205.0293"/><text fill="#000000" font-family="Arial" font-size="18.75" lengthAdjust="spacing" textLength="182.1442" x="372.7631" y="1238.0585">Set SLA by severity</text><polygon fill="#F7F7F7" points="380.3482,1289.3555,547.3221,1289.3555,566.0721,1308.1055,547.3221,1326.8555,380.3482,1326.8555,361.5982,1308.1055,380.3482,1289.3555" style="stroke:#444444;stroke-width:0.7813;"/><text fill="#000000" font-family="Arial" font-size="18.75" lengthAdjust="spacing" textLength="166.9739" x="380.3482" y="1314.5966">Needs exception?</text><text fill="#000000" font-family="Arial" font-size="18.75" lengthAdjust="spacing" textLength="32.7576" x="328.8406" y="1303.6835">Yes</text><text fill="#000000" font-family="Arial" font-size="18.75" lengthAdjust="spacing" textLength="25.4974" x="566.0721" y="1303.6835">No</text><rect fill="#F7F7F7" height="53.0762" rx="7.8125" ry="7.8125" style="stroke:#444444;stroke-width:0.7813;" width="442.688" x="67.0502" y="1342.4805"/><text fill="#000000" font-family="Arial" font-size="18.75" lengthAdjust="spacing" textLength="411.438" x="82.6752" y="1375.5096">Time-boxed waiver + compensating control</text><rect fill="#F7F7F7" height="53.0762" rx="7.8125" ry="7.8125" style="stroke:#444444;stroke-width:0.7813;" width="196.5759" x="540.9882" y="1342.4805"/><text fill="#000000" font-family="Arial" font-size="18.75" lengthAdjust="spacing" textLength="165.3259" x="556.6132" y="1375.5096">Remediation plan</text><polygon fill="#F7F7F7" points="463.8351,1404.9316,482.5851,1423.6816,463.8351,1442.4316,445.0851,1423.6816,463.8351,1404.9316" style="stroke:#444444;stroke-width:0.7813;"/><rect fill="none" height="212.3291" rx="7.8125" ry="7.8125" style="stroke:#777777;stroke-width:2.3438;" width="998.4833" x="263.2263" y="1476.8066"/><path d="M329.9286,1476.8066 L329.9286,1487.6953 L314.3036,1503.3203 L263.2263,1503.3203" fill="none" style="stroke:#777777;stroke-width:2.3438;"/><text fill="#111111" font-family="Arial" font-size="18.75" lengthAdjust="spacing" textLength="51.0773" x="267.9138" y="1495.7733">Close</text><rect fill="#F7F7F7" height="53.0762" rx="7.8125" ry="7.8125" style="stroke:#444444;stroke-width:0.7813;" width="224.2706" x="351.6998" y="1529.8828"/><text fill="#000000" font-family="Arial" font-size="18.75" lengthAdjust="spacing" textLength="193.0206" x="367.3248" y="1562.912">Verify fix via re-scan</text><path d="M680.069,1611.1084 L680.069,1634.4971 L648.819,1640.7471 L680.069,1646.9971 L680.069,1670.3857 A0,0 0 0 0 680.069,1670.3857 L1246.0846,1670.3857 A0,0 0 0 0 1246.0846,1670.3857 L1246.0846,1626.7334 L1230.4596,1611.1084 L680.069,1611.1084 A0,0 0 0 0 680.069,1611.1084" fill="#FFF8D6" style="stroke:#C7A700;stroke-width:0.7813;"/><path d="M1230.4596,1611.1084 L1230.4596,1626.7334 L1246.0846,1626.7334 L1230.4596,1611.1084" fill="#FFF8D6" style="stroke:#C7A700;stroke-width:0.7813;"/><text fill="#000000" font-family="Arial" font-size="18.75" lengthAdjust="spacing" textLength="131.4697" x="689.444" y="1636.3251">Key message:</text><text fill="#000000" font-family="Arial" font-size="18.75" font-weight="bold" lengthAdjust="spacing" textLength="166.8732" x="826.8738" y="1636.3251">One triage path</text><text fill="#000000" font-family="Arial" font-size="18.75" lengthAdjust="spacing" textLength="222.9401" x="999.707" y="1636.3251">for multiple static tools.</text><text fill="#000000" font-family="Arial" font-size="18.75" lengthAdjust="spacing" textLength="355.3894" x="689.444" y="1658.1512">AppCode prevents orphaned findings.</text><rect fill="#F7F7F7" height="53.0762" rx="7.8125" ry="7.8125" style="stroke:#444444;stroke-width:0.7813;" width="369.9677" x="278.8513" y="1614.209"/><text fill="#000000" font-family="Arial" font-size="18.75" lengthAdjust="spacing" textLength="338.7177" x="294.4763" y="1647.2382">Update metrics (MTTR, reopen rate)</text><ellipse cx="463.8351" cy="1737.5732" fill="none" rx="17.1875" ry="17.1875" style="stroke:#222222;stroke-width:1.5625;"/><ellipse cx="463.8351" cy="1737.5732" fill="#222222" rx="9.375" ry="9.375" style="stroke:#222222;stroke-width:1.5625;"/><line style="stroke:#444444;stroke-width:1.5625;" x1="463.8351" x2="463.8351" y1="230.5664" y2="261.8164"/><polygon fill="#444444" points="457.5851,246.1914,463.8351,261.8164,470.0851,246.1914,463.8351,252.4414" style="stroke:#444444;stroke-width:1.5625;"/><line style="stroke:#444444;stroke-width:1.5625;" x1="463.8351" x2="463.8351" y1="314.8926" y2="346.1426"/><polygon fill="#444444" points="457.5851,330.5176,463.8351,346.1426,470.0851,330.5176,463.8351,336.7676" style="stroke:#444444;stroke-width:1.5625;"/><line style="stroke:#444444;stroke-width:1.5625;" x1="463.8351" x2="463.8351" y1="108.7891" y2="177.4902"/><polygon fill="#444444" points="457.5851,161.8652,463.8351,177.4902,470.0851,161.8652,463.8351,168.1152" style="stroke:#444444;stroke-width:1.5625;"/><line style="stroke:#444444;stroke-width:1.5625;" x1="463.8351" x2="463.8351" y1="539.7461" y2="570.9961"/><polygon fill="#444444" points="457.5851,555.3711,463.8351,570.9961,470.0851,555.3711,463.8351,561.6211" style="stroke:#444444;stroke-width:1.5625;"/><line style="stroke:#444444;stroke-width:1.5625;" x1="463.8351" x2="463.8351" y1="624.0723" y2="655.3223"/><polygon fill="#444444" points="457.5851,639.6973,463.8351,655.3223,470.0851,639.6973,463.8351,645.9473" style="stroke:#444444;stroke-width:1.5625;"/><line style="stroke:#444444;stroke-width:1.5625;" x1="463.8351" x2="463.8351" y1="708.3984" y2="739.6484"/><polygon fill="#444444" points="457.5851,724.0234,463.8351,739.6484,470.0851,724.0234,463.8351,730.2734" style="stroke:#444444;stroke-width:1.5625;"/><line style="stroke:#444444;stroke-width:1.5625;" x1="463.8351" x2="463.8351" y1="399.2188" y2="486.6699"/><polygon fill="#444444" points="457.5851,471.0449,463.8351,486.6699,470.0851,471.0449,463.8351,477.2949" style="stroke:#444444;stroke-width:1.5625;"/><line style="stroke:#444444;stroke-width:1.5625;" x1="309.8343" x2="294.2093" y1="898.9258" y2="898.9258"/><line style="stroke:#444444;stroke-width:1.5625;" x1="294.2093" x2="294.2093" y1="898.9258" y2="933.3008"/><polygon fill="#444444" points="287.9593,917.6758,294.2093,933.3008,300.4593,917.6758,294.2093,923.9258" style="stroke:#444444;stroke-width:1.5625;"/><line style="stroke:#444444;stroke-width:1.5625;" x1="617.836" x2="633.461" y1="898.9258" y2="898.9258"/><line style="stroke:#444444;stroke-width:1.5625;" x1="633.461" x2="633.461" y1="898.9258" y2="933.3008"/><polygon fill="#444444" points="627.211,917.6758,633.461,933.3008,639.711,917.6758,633.461,923.9258" style="stroke:#444444;stroke-width:1.5625;"/><line style="stroke:#444444;stroke-width:1.5625;" x1="294.2093" x2="294.2093" y1="986.377" y2="1014.502"/><line style="stroke:#444444;stroke-width:1.5625;" x1="294.2093" x2="445.0851" y1="1014.502" y2="1014.502"/><polygon fill="#444444" points="429.4601,1008.252,445.0851,1014.502,429.4601,1020.752,435.7101,1014.502" style="stroke:#444444;stroke-width:1.5625;"/><line style="stroke:#444444;stroke-width:1.5625;" x1="633.461" x2="633.461" y1="986.377" y2="1014.502"/><line style="stroke:#444444;stroke-width:1.5625;" x1="633.461" x2="482.5851" y1="1014.502" y2="1014.502"/><polygon fill="#444444" points="498.2101,1008.252,482.5851,1014.502,498.2101,1020.752,491.9601,1014.502" style="stroke:#444444;stroke-width:1.5625;"/><line style="stroke:#444444;stroke-width:1.5625;" x1="463.8351" x2="463.8351" y1="792.7246" y2="880.1758"/><polygon fill="#444444" points="457.5851,864.5508,463.8351,880.1758,470.0851,864.5508,463.8351,870.8008" style="stroke:#444444;stroke-width:1.5625;"/><line style="stroke:#444444;stroke-width:1.5625;" x1="463.8351" x2="463.8351" y1="1173.7793" y2="1205.0293"/><polygon fill="#444444" points="457.5851,1189.4043,463.8351,1205.0293,470.0851,1189.4043,463.8351,1195.6543" style="stroke:#444444;stroke-width:1.5625;"/><line style="stroke:#444444;stroke-width:1.5625;" x1="361.5982" x2="288.3942" y1="1308.1055" y2="1308.1055"/><line style="stroke:#444444;stroke-width:1.5625;" x1="288.3942" x2="288.3942" y1="1308.1055" y2="1342.4805"/><polygon fill="#444444" points="282.1442,1326.8555,288.3942,1342.4805,294.6442,1326.8555,288.3942,1333.1055" style="stroke:#444444;stroke-width:1.5625;"/><line style="stroke:#444444;stroke-width:1.5625;" x1="566.0721" x2="639.2761" y1="1308.1055" y2="1308.1055"/><line style="stroke:#444444;stroke-width:1.5625;" x1="639.2761" x2="639.2761" y1="1308.1055" y2="1342.4805"/><polygon fill="#444444" points="633.0261,1326.8555,639.2761,1342.4805,645.5261,1326.8555,639.2761,1333.1055" style="stroke:#444444;stroke-width:1.5625;"/><line style="stroke:#444444;stroke-width:1.5625;" x1="288.3942" x2="288.3942" y1="1395.5566" y2="1423.6816"/><line style="stroke:#444444;stroke-width:1.5625;" x1="288.3942" x2="445.0851" y1="1423.6816" y2="1423.6816"/><polygon fill="#444444" points="429.4601,1417.4316,445.0851,1423.6816,429.4601,1429.9316,435.7101,1423.6816" style="stroke:#444444;stroke-width:1.5625;"/><line style="stroke:#444444;stroke-width:1.5625;" x1="639.2761" x2="639.2761" y1="1395.5566" y2="1423.6816"/><line style="stroke:#444444;stroke-width:1.5625;" x1="639.2761" x2="482.5851" y1="1423.6816" y2="1423.6816"/><polygon fill="#444444" points="498.2101,1417.4316,482.5851,1423.6816,498.2101,1429.9316,491.9601,1423.6816" style="stroke:#444444;stroke-width:1.5625;"/><line style="stroke:#444444;stroke-width:1.5625;" x1="463.8351" x2="463.8351" y1="1258.1055" y2="1289.3555"/><polygon fill="#444444" points="457.5851,1273.7305,463.8351,1289.3555,470.0851,1273.7305,463.8351,1279.9805" style="stroke:#444444;stroke-width:1.5625;"/><line style="stroke:#444444;stroke-width:1.5625;" x1="463.8351" x2="463.8351" y1="1033.252" y2="1120.7031"/><polygon fill="#444444" points="457.5851,1105.0781,463.8351,1120.7031,470.0851,1105.0781,463.8351,1111.3281" style="stroke:#444444;stroke-width:1.5625;"/><line style="stroke:#444444;stroke-width:1.5625;" x1="463.8351" x2="463.8351" y1="1582.959" y2="1614.209"/><polygon fill="#444444" points="457.5851,1598.584,463.8351,1614.209,470.0851,1598.584,463.8351,1604.834" style="stroke:#444444;stroke-width:1.5625;"/><line style="stroke:#444444;stroke-width:1.5625;" x1="463.8351" x2="463.8351" y1="1442.4316" y2="1529.8828"/><polygon fill="#444444" points="457.5851,1514.2578,463.8351,1529.8828,470.0851,1514.2578,463.8351,1520.5078" style="stroke:#444444;stroke-width:1.5625;"/><line style="stroke:#444444;stroke-width:1.5625;" x1="463.8351" x2="463.8351" y1="1667.2852" y2="1720.3857"/><polygon fill="#444444" points="457.5851,1704.7607,463.8351,1720.3857,470.0851,1704.7607,463.8351,1711.0107" style="stroke:#444444;stroke-width:1.5625;"/><?plantuml-src TLJRRXCn57pVhpZq0TAK95I8brG2XRI0H1lQ9e1uTBmdkrQyjh6zJG92uYFuGhw4yMOJGbNULZwtcJbpDYoLSSABYkP2BWjlQvEFhRQULgMAd8LzF9GYjojb2be87GuZkLDq-kBPmKlJHbflsDFfOM3alLrj-x_M67WGEkU5g7LyOqsSY8gHgeJE7YaZTPqpzVk3zZCCX7E1PI_4ZUQ-gokTHHKrIfoRigHhRoM7GC-U3saQHLIIHaReJL21Ec_VZQPqGcDxnrx53JwdrWX_Ky_vc7x__FKtzJ7D0A7WB7j2rxLtDl0mzSvhoIHaLAYROsfeHlJ4hcwXJ0wP0WcJ9oKYKooveZeayO1nR7FkpKNWdEmA4eLIkNwMeO-FMGOrm0RDwUYsDZILmeGZ-fuH3VT8QJ-iyxKMUii3ajGD9Lzh3iTdgQ9Xc-RTNEvhci2UVq1_wXJ2aHQcgC4tq81oPhSlGAiV_-2QM5zXwZTkSLsXkcLDlPSq_do15b94BgpVDECkZ5Uof9MA9Nbs5d3dNXWydP2qLQLYYyfxrY8fPdTADO5ppckNLFSMYutMwd0VrBLN5epsgDI2EXThfwsAOgvQZLJbi3agLL6-Eavh0VSl40lv3G-_99cQIA47AIaDPxYTEXDxc5HnhkfgeEsgoG3rnJquen1KOHeJmUUjK6FF83VuwFA6ev9BZjHfYG8Ux90qZ2ogxVwcY4ylHpJ7edYxiREMsuGv3yHhoIvDV83EJ5NmcLt3PokXKBqLsx49S2pcIDoQj_e1ahUS68g6YeCn_iToh74LBRbFWBVOm0XhkbC2Q-ubRpKqMi8LHzW0fhsQpMwV8iC22tc4jXOp5aaUiiViFM-G7WByEAHkzuE1NCqraXEnx7PfWLz8XV-5SliJtFgYd-tqT1wIcHZ8UbSA0nbsfzdFG8RIk7Hsrlq1?></g></svg>