<?xml version="1.0" encoding="us-ascii" standalone="no"?><svg xmlns="http://www.w3.org/2000/svg" xmlns:xlink="http://www.w3.org/1999/xlink" contentStyleType="text/css" height="1771.875px" preserveAspectRatio="none" style="width:1289px;height:1771px;background:#FFFFFF;" version="1.1" viewBox="0 0 1289 1771" width="1289.0625px" zoomAndPan="magnify"><defs/><g><text fill="#000000" font-family="Arial" font-size="25" font-weight="bold" lengthAdjust="spacing" textLength="1221.875" x="31.25" y="54.4556">AppSec Process 03: Static Analysis (GHAS + Coverity + SonarQube) &#8212; Analysis &amp; Triage</text><ellipse cx="443.3594" cy="93.1641" fill="#222222" rx="15.625" ry="15.625" style="stroke:#222222;stroke-width:1.5625;"/><rect fill="none" height="293.5547" rx="7.8125" ry="7.8125" style="stroke:#777777;stroke-width:2.34375;" width="514.0625" x="186.3281" y="124.4141"/><path d="M305.0781,124.4141 L305.0781,135.3027 L289.4531,150.9277 L186.3281,150.9277 " fill="none" style="stroke:#777777;stroke-width:2.34375;"/><text fill="#111111" font-family="Arial" font-size="18.75" lengthAdjust="spacing" textLength="103.125" x="191.0156" y="143.3807">Run Scans</text><rect fill="#F7F7F7" height="53.0762" rx="7.8125" ry="7.8125" style="stroke:#444444;stroke-width:0.78125;" width="470.3125" x="208.2031" y="177.4902"/><text fill="#000000" font-family="Arial" font-size="18.75" lengthAdjust="spacing" textLength="439.0625" x="223.8281" y="210.5194">SonarQube analysis (quality + security rules)</text><rect fill="#F7F7F7" height="53.0762" rx="7.8125" ry="7.8125" style="stroke:#444444;stroke-width:0.78125;" width="248.4375" x="319.1406" y="261.8164"/><text fill="#000000" font-family="Arial" font-size="18.75" lengthAdjust="spacing" textLength="217.1875" x="334.7656" y="294.8456">GHAS CodeQL analysis</text><rect fill="#F7F7F7" height="53.0762" rx="7.8125" ry="7.8125" style="stroke:#444444;stroke-width:0.78125;" width="482.8125" x="201.9531" y="346.1426"/><text fill="#000000" font-family="Arial" font-size="18.75" lengthAdjust="spacing" textLength="451.5625" x="217.5781" y="379.1718">Coverity scan (gap languages / deep analysis)</text><rect fill="none" height="377.8809" rx="7.8125" ry="7.8125" style="stroke:#777777;stroke-width:2.34375;" width="415.625" x="235.5469" y="433.5938"/><path d="M344.9219,433.5938 L344.9219,444.4824 L329.2969,460.1074 L235.5469,460.1074 " fill="none" style="stroke:#777777;stroke-width:2.34375;"/><text fill="#111111" font-family="Arial" font-size="18.75" lengthAdjust="spacing" textLength="93.75" x="240.2344" y="452.5604">Normalize</text><rect fill="#F7F7F7" height="53.0762" rx="7.8125" ry="7.8125" style="stroke:#444444;stroke-width:0.78125;" width="325" x="280.8594" y="486.6699"/><text fill="#000000" font-family="Arial" font-size="18.75" lengthAdjust="spacing" textLength="293.75" x="296.4844" y="519.6991">Map finding -&gt; CWE / category</text><rect fill="#F7F7F7" height="53.0762" rx="7.8125" ry="7.8125" style="stroke:#444444;stroke-width:0.78125;" width="384.375" x="251.1719" y="570.9961"/><text fill="#000000" font-family="Arial" font-size="18.75" lengthAdjust="spacing" textLength="353.125" x="266.7969" y="604.0253">Enrich with repo + branch + commit</text><rect fill="#F7F7F7" height="53.0762" rx="7.8125" ry="7.8125" style="stroke:#444444;stroke-width:0.78125;" width="242.1875" x="322.2656" y="655.3223"/><text fill="#000000" font-family="Arial" font-size="18.75" lengthAdjust="spacing" textLength="210.9375" x="337.8906" y="688.3514">Correlate to AppCode</text><rect fill="#F7F7F7" height="53.0762" rx="7.8125" ry="7.8125" style="stroke:#444444;stroke-width:0.78125;" width="234.375" x="326.1719" y="739.6484"/><text fill="#000000" font-family="Arial" font-size="18.75" lengthAdjust="spacing" textLength="203.125" x="341.7969" y="772.6776">Dedupe across tools</text><rect fill="none" height="224.9023" rx="7.8125" ry="7.8125" style="stroke:#777777;stroke-width:2.34375;" width="600.7813" x="143.3594" y="827.0996"/><path d="M241.7969,827.0996 L241.7969,837.9883 L226.1719,853.6133 L143.3594,853.6133 " fill="none" style="stroke:#777777;stroke-width:2.34375;"/><text fill="#111111" font-family="Arial" font-size="18.75" lengthAdjust="spacing" textLength="82.8125" x="148.0469" y="846.0663">Prioritize</text><polygon fill="#F7F7F7" points="307.4219,880.1758,579.2969,880.1758,598.0469,898.9258,579.2969,917.6758,307.4219,917.6758,288.6719,898.9258,307.4219,880.1758" style="stroke:#444444;stroke-width:0.78125;"/><text fill="#000000" font-family="Arial" font-size="18.75" lengthAdjust="spacing" textLength="271.875" x="307.4219" y="905.4169">Exploitability + impact high?</text><text fill="#000000" font-family="Arial" font-size="18.75" lengthAdjust="spacing" textLength="34.375" x="254.2969" y="894.5038">Yes</text><text fill="#000000" font-family="Arial" font-size="18.75" lengthAdjust="spacing" textLength="26.5625" x="598.0469" y="894.5038">No</text><rect fill="#F7F7F7" height="53.0762" rx="7.8125" ry="7.8125" style="stroke:#444444;stroke-width:0.78125;" width="196.875" x="174.6094" y="933.3008"/><text fill="#000000" font-family="Arial" font-size="18.75" lengthAdjust="spacing" textLength="165.625" x="190.2344" y="966.33">Mark critical/high</text><rect fill="#F7F7F7" height="53.0762" rx="7.8125" ry="7.8125" style="stroke:#444444;stroke-width:0.78125;" width="198.4375" x="514.4531" y="933.3008"/><text fill="#000000" font-family="Arial" font-size="18.75" lengthAdjust="spacing" textLength="167.1875" x="530.0781" y="966.33">Mark medium/low</text><polygon fill="#F7F7F7" points="443.3594,995.752,462.1094,1014.502,443.3594,1033.252,424.6094,1014.502,443.3594,995.752" style="stroke:#444444;stroke-width:0.78125;"/><rect fill="none" height="393.5547" rx="7.8125" ry="7.8125" style="stroke:#777777;stroke-width:2.34375;" width="734.375" x="19.9219" y="1067.627"/><path d="M180.8594,1067.627 L180.8594,1078.5156 L165.2344,1094.1406 L19.9219,1094.1406 " fill="none" style="stroke:#777777;stroke-width:2.34375;"/><text fill="#111111" font-family="Arial" font-size="18.75" lengthAdjust="spacing" textLength="145.3125" x="24.6094" y="1086.5936">Assign &amp; Track</text><rect fill="#F7F7F7" height="53.0762" rx="7.8125" ry="7.8125" style="stroke:#444444;stroke-width:0.78125;" width="498.4375" x="194.1406" y="1120.7031"/><text fill="#000000" font-family="Arial" font-size="18.75" lengthAdjust="spacing" textLength="467.1875" x="209.7656" y="1153.7323">Create/Update ticket (AppCode + owning team)</text><rect fill="#F7F7F7" height="53.0762" rx="7.8125" ry="7.8125" style="stroke:#444444;stroke-width:0.78125;" width="214.0625" x="336.3281" y="1205.0293"/><text fill="#000000" font-family="Arial" font-size="18.75" lengthAdjust="spacing" textLength="182.8125" x="351.9531" y="1238.0585">Set SLA by severity</text><polygon fill="#F7F7F7" points="356.6406,1289.3555,530.0781,1289.3555,548.8281,1308.1055,530.0781,1326.8555,356.6406,1326.8555,337.8906,1308.1055,356.6406,1289.3555" style="stroke:#444444;stroke-width:0.78125;"/><text fill="#000000" font-family="Arial" font-size="18.75" lengthAdjust="spacing" textLength="173.4375" x="356.6406" y="1314.5966">Needs exception?</text><text fill="#000000" font-family="Arial" font-size="18.75" lengthAdjust="spacing" textLength="34.375" x="303.5156" y="1303.6835">Yes</text><text fill="#000000" font-family="Arial" font-size="18.75" lengthAdjust="spacing" textLength="26.5625" x="548.8281" y="1303.6835">No</text><rect fill="#F7F7F7" height="53.0762" rx="7.8125" ry="7.8125" style="stroke:#444444;stroke-width:0.78125;" width="451.5625" x="38.6719" y="1342.4805"/><text fill="#000000" font-family="Arial" font-size="18.75" lengthAdjust="spacing" textLength="420.3125" x="54.2969" y="1375.5096">Time-boxed waiver + compensating control</text><rect fill="#F7F7F7" height="53.0762" rx="7.8125" ry="7.8125" style="stroke:#444444;stroke-width:0.78125;" width="201.5625" x="521.4844" y="1342.4805"/><text fill="#000000" font-family="Arial" font-size="18.75" lengthAdjust="spacing" textLength="170.3125" x="537.1094" y="1375.5096">Remediation plan</text><polygon fill="#F7F7F7" points="443.3594,1404.9316,462.1094,1423.6816,443.3594,1442.4316,424.6094,1423.6816,443.3594,1404.9316" style="stroke:#444444;stroke-width:0.78125;"/><rect fill="none" height="212.3291" rx="7.8125" ry="7.8125" style="stroke:#777777;stroke-width:2.34375;" width="1032.8125" x="236.3281" y="1476.8066"/><path d="M305.0781,1476.8066 L305.0781,1487.6953 L289.4531,1503.3203 L236.3281,1503.3203 " fill="none" style="stroke:#777777;stroke-width:2.34375;"/><text fill="#111111" font-family="Arial" font-size="18.75" lengthAdjust="spacing" textLength="53.125" x="241.0156" y="1495.7733">Close</text><rect fill="#F7F7F7" height="53.0762" rx="7.8125" ry="7.8125" style="stroke:#444444;stroke-width:0.78125;" width="223.4375" x="331.6406" y="1529.8828"/><text fill="#000000" font-family="Arial" font-size="18.75" lengthAdjust="spacing" textLength="192.1875" x="347.2656" y="1562.912">Verify fix via re-scan</text><path d="M666.0156,1611.1084 L666.0156,1634.4971 L634.7656,1640.7471 L666.0156,1646.9971 L666.0156,1670.3857 A0,0 0 0 0 666.0156,1670.3857 L1253.5156,1670.3857 A0,0 0 0 0 1253.5156,1670.3857 L1253.5156,1626.7334 L1237.8906,1611.1084 L666.0156,1611.1084 A0,0 0 0 0 666.0156,1611.1084 " fill="#FFF8D6" style="stroke:#C7A700;stroke-width:0.78125;"/><path d="M1237.8906,1611.1084 L1237.8906,1626.7334 L1253.5156,1626.7334 L1237.8906,1611.1084 " fill="#FFF8D6" style="stroke:#C7A700;stroke-width:0.78125;"/><text fill="#000000" font-family="Arial" font-size="18.75" lengthAdjust="spacing" textLength="134.375" x="675.3906" y="1636.3251">Key message:</text><text fill="#000000" font-family="Arial" font-size="18.75" font-weight="bold" lengthAdjust="spacing" textLength="176.5625" x="816.0156" y="1636.3251">One triage path</text><text fill="#000000" font-family="Arial" font-size="18.75" lengthAdjust="spacing" textLength="231.25" x="998.8281" y="1636.3251">for multiple static tools.</text><text fill="#000000" font-family="Arial" font-size="18.75" lengthAdjust="spacing" textLength="370.3125" x="675.3906" y="1658.1512">AppCode prevents orphaned findings.</text><rect fill="#F7F7F7" height="53.0762" rx="7.8125" ry="7.8125" style="stroke:#444444;stroke-width:0.78125;" width="382.8125" x="251.9531" y="1614.209"/><text fill="#000000" font-family="Arial" font-size="18.75" lengthAdjust="spacing" textLength="351.5625" x="267.5781" y="1647.2382">Update metrics (MTTR, reopen rate)</text><ellipse cx="443.3594" cy="1737.5732" fill="none" rx="17.1875" ry="17.1875" style="stroke:#222222;stroke-width:1.5625;"/><ellipse cx="443.3594" cy="1737.5732" fill="#222222" rx="9.375" ry="9.375" style="stroke:#222222;stroke-width:1.5625;"/><line style="stroke:#444444;stroke-width:1.5625;" x1="443.3594" x2="443.3594" y1="230.5664" y2="261.8164"/><polygon fill="#444444" points="437.1094,246.1914,443.3594,261.8164,449.6094,246.1914,443.3594,252.4414" style="stroke:#444444;stroke-width:1.5625;"/><line style="stroke:#444444;stroke-width:1.5625;" x1="443.3594" x2="443.3594" y1="314.8926" y2="346.1426"/><polygon fill="#444444" points="437.1094,330.5176,443.3594,346.1426,449.6094,330.5176,443.3594,336.7676" style="stroke:#444444;stroke-width:1.5625;"/><line style="stroke:#444444;stroke-width:1.5625;" x1="443.3594" x2="443.3594" y1="108.7891" y2="177.4902"/><polygon fill="#444444" points="437.1094,161.8652,443.3594,177.4902,449.6094,161.8652,443.3594,168.1152" style="stroke:#444444;stroke-width:1.5625;"/><line style="stroke:#444444;stroke-width:1.5625;" x1="443.3594" x2="443.3594" y1="539.7461" y2="570.9961"/><polygon fill="#444444" points="437.1094,555.3711,443.3594,570.9961,449.6094,555.3711,443.3594,561.6211" style="stroke:#444444;stroke-width:1.5625;"/><line style="stroke:#444444;stroke-width:1.5625;" x1="443.3594" x2="443.3594" y1="624.0723" y2="655.3223"/><polygon fill="#444444" points="437.1094,639.6973,443.3594,655.3223,449.6094,639.6973,443.3594,645.9473" style="stroke:#444444;stroke-width:1.5625;"/><line style="stroke:#444444;stroke-width:1.5625;" x1="443.3594" x2="443.3594" y1="708.3984" y2="739.6484"/><polygon fill="#444444" points="437.1094,724.0234,443.3594,739.6484,449.6094,724.0234,443.3594,730.2734" style="stroke:#444444;stroke-width:1.5625;"/><line style="stroke:#444444;stroke-width:1.5625;" x1="443.3594" x2="443.3594" y1="399.2188" y2="486.6699"/><polygon fill="#444444" points="437.1094,471.0449,443.3594,486.6699,449.6094,471.0449,443.3594,477.2949" style="stroke:#444444;stroke-width:1.5625;"/><line style="stroke:#444444;stroke-width:1.5625;" x1="288.6719" x2="273.0469" y1="898.9258" y2="898.9258"/><line style="stroke:#444444;stroke-width:1.5625;" x1="273.0469" x2="273.0469" y1="898.9258" y2="933.3008"/><polygon fill="#444444" points="266.7969,917.6758,273.0469,933.3008,279.2969,917.6758,273.0469,923.9258" style="stroke:#444444;stroke-width:1.5625;"/><line style="stroke:#444444;stroke-width:1.5625;" x1="598.0469" x2="613.6719" y1="898.9258" y2="898.9258"/><line style="stroke:#444444;stroke-width:1.5625;" x1="613.6719" x2="613.6719" y1="898.9258" y2="933.3008"/><polygon fill="#444444" points="607.4219,917.6758,613.6719,933.3008,619.9219,917.6758,613.6719,923.9258" style="stroke:#444444;stroke-width:1.5625;"/><line style="stroke:#444444;stroke-width:1.5625;" x1="273.0469" x2="273.0469" y1="986.377" y2="1014.502"/><line style="stroke:#444444;stroke-width:1.5625;" x1="273.0469" x2="424.6094" y1="1014.502" y2="1014.502"/><polygon fill="#444444" points="408.9844,1008.252,424.6094,1014.502,408.9844,1020.752,415.2344,1014.502" style="stroke:#444444;stroke-width:1.5625;"/><line style="stroke:#444444;stroke-width:1.5625;" x1="613.6719" x2="613.6719" y1="986.377" y2="1014.502"/><line style="stroke:#444444;stroke-width:1.5625;" x1="613.6719" x2="462.1094" y1="1014.502" y2="1014.502"/><polygon fill="#444444" points="477.7344,1008.252,462.1094,1014.502,477.7344,1020.752,471.4844,1014.502" style="stroke:#444444;stroke-width:1.5625;"/><line style="stroke:#444444;stroke-width:1.5625;" x1="443.3594" x2="443.3594" y1="792.7246" y2="880.1758"/><polygon fill="#444444" points="437.1094,864.5508,443.3594,880.1758,449.6094,864.5508,443.3594,870.8008" style="stroke:#444444;stroke-width:1.5625;"/><line style="stroke:#444444;stroke-width:1.5625;" x1="443.3594" x2="443.3594" y1="1173.7793" y2="1205.0293"/><polygon fill="#444444" points="437.1094,1189.4043,443.3594,1205.0293,449.6094,1189.4043,443.3594,1195.6543" style="stroke:#444444;stroke-width:1.5625;"/><line style="stroke:#444444;stroke-width:1.5625;" x1="337.8906" x2="264.4531" y1="1308.1055" y2="1308.1055"/><line style="stroke:#444444;stroke-width:1.5625;" x1="264.4531" x2="264.4531" y1="1308.1055" y2="1342.4805"/><polygon fill="#444444" points="258.2031,1326.8555,264.4531,1342.4805,270.7031,1326.8555,264.4531,1333.1055" style="stroke:#444444;stroke-width:1.5625;"/><line style="stroke:#444444;stroke-width:1.5625;" x1="548.8281" x2="622.2656" y1="1308.1055" y2="1308.1055"/><line style="stroke:#444444;stroke-width:1.5625;" x1="622.2656" x2="622.2656" y1="1308.1055" y2="1342.4805"/><polygon fill="#444444" points="616.0156,1326.8555,622.2656,1342.4805,628.5156,1326.8555,622.2656,1333.1055" style="stroke:#444444;stroke-width:1.5625;"/><line style="stroke:#444444;stroke-width:1.5625;" x1="264.4531" x2="264.4531" y1="1395.5566" y2="1423.6816"/><line style="stroke:#444444;stroke-width:1.5625;" x1="264.4531" x2="424.6094" y1="1423.6816" y2="1423.6816"/><polygon fill="#444444" points="408.9844,1417.4316,424.6094,1423.6816,408.9844,1429.9316,415.2344,1423.6816" style="stroke:#444444;stroke-width:1.5625;"/><line style="stroke:#444444;stroke-width:1.5625;" x1="622.2656" x2="622.2656" y1="1395.5566" y2="1423.6816"/><line style="stroke:#444444;stroke-width:1.5625;" x1="622.2656" x2="462.1094" y1="1423.6816" y2="1423.6816"/><polygon fill="#444444" points="477.7344,1417.4316,462.1094,1423.6816,477.7344,1429.9316,471.4844,1423.6816" style="stroke:#444444;stroke-width:1.5625;"/><line style="stroke:#444444;stroke-width:1.5625;" x1="443.3594" x2="443.3594" y1="1258.1055" y2="1289.3555"/><polygon fill="#444444" points="437.1094,1273.7305,443.3594,1289.3555,449.6094,1273.7305,443.3594,1279.9805" style="stroke:#444444;stroke-width:1.5625;"/><line style="stroke:#444444;stroke-width:1.5625;" x1="443.3594" x2="443.3594" y1="1033.252" y2="1120.7031"/><polygon fill="#444444" points="437.1094,1105.0781,443.3594,1120.7031,449.6094,1105.0781,443.3594,1111.3281" style="stroke:#444444;stroke-width:1.5625;"/><line style="stroke:#444444;stroke-width:1.5625;" x1="443.3594" x2="443.3594" y1="1582.959" y2="1614.209"/><polygon fill="#444444" points="437.1094,1598.584,443.3594,1614.209,449.6094,1598.584,443.3594,1604.834" style="stroke:#444444;stroke-width:1.5625;"/><line style="stroke:#444444;stroke-width:1.5625;" x1="443.3594" x2="443.3594" y1="1442.4316" y2="1529.8828"/><polygon fill="#444444" points="437.1094,1514.2578,443.3594,1529.8828,449.6094,1514.2578,443.3594,1520.5078" style="stroke:#444444;stroke-width:1.5625;"/><line style="stroke:#444444;stroke-width:1.5625;" x1="443.3594" x2="443.3594" y1="1667.2852" y2="1720.3857"/><polygon fill="#444444" points="437.1094,1704.7607,443.3594,1720.3857,449.6094,1704.7607,443.3594,1711.0107" style="stroke:#444444;stroke-width:1.5625;"/><!--SRC=[TLJRRXCn57pVhpZq0TAK95I8brG2XRI0H1lQ9e1uTBmdkrQyjh6zJG92uYFuGhw4yMOJGbNULZwtcJbpDYoLSSABYkP2BWjlQvEFhRQULgMAd8LzF9GYjojb2be87GuZkLDq-kBPmKlJHbflsDFfOM3alLrj-x_M67WGEkU5g7LyOqsSY8gHgeJE7YaZTPqpzVk3zZCCX7E1PI_4ZUQ-gokTHHKrIfoRigHhRoM7GC-U3saQHLIIHaReJL21Ec_VZQPqGcDxnrx53JwdrWX_Ky_vc7x__FKtzJ7D0A7WB7j2rxLtDl0mzSvhoIHaLAYROsfeHlJ4hcwXJ0wP0WcJ9oKYKooveZeayO1nR7FkpKNWdEmA4eLIkNwMeO-FMGOrm0RDwUYsDZILmeGZ-fuH3VT8QJ-iyxKMUii3ajGD9Lzh3iTdgQ9Xc-RTNEvhci2UVq1_wXJ2aHQcgC4tq81oPhSlGAiV_-2QM5zXwZTkSLsXkcLDlPSq_do15b94BgpVDECkZ5Uof9MA9Nbs5d3dNXWydP2qLQLYYyfxrY8fPdTADO5ppckNLFSMYutMwd0VrBLN5epsgDI2EXThfwsAOgvQZLJbi3agLL6-Eavh0VSl40lv3G-_99cQIA47AIaDPxYTEXDxc5HnhkfgeEsgoG3rnJquen1KOHeJmUUjK6FF83VuwFA6ev9BZjHfYG8Ux90qZ2ogxVwcY4ylHpJ7edYxiREMsuGv3yHhoIvDV83EJ5NmcLt3PokXKBqLsx49S2pcIDoQj_e1ahUS68g6YeCn_iToh74LBRbFWBVOm0XhkbC2Q-ubRpKqMi8LHzW0fhsQpMwV8iC22tc4jXOp5aaUiiViFM-G7WByEAHkzuE1NCqraXEnx7PfWLz8XV-5SliJtFgYd-tqT1wIcHZ8UbSA0nbsfzdFG8RIk7Hsrlq1]--></g></svg>