<?plantuml 1.2026.2?><svg xmlns="http://www.w3.org/2000/svg" xmlns:xlink="http://www.w3.org/1999/xlink" contentStyleType="text/css" data-diagram-type="ACTIVITY" height="2112.5px" preserveAspectRatio="none" style="width:1967px;height:2112px;background:#FFFFFF;" version="1.1" viewBox="0 0 1967 2112" width="1967.1875px" zoomAndPan="magnify"><title>Seeker Agent Update - .NET Framework Process</title><defs/><g><g class="title" data-source-line="1"><text fill="#000000" font-family="Arial" font-size="21.875" font-weight="bold" lengthAdjust="spacing" textLength="593.8293" x="684.6802" y="51.5549">Seeker Agent Update - .NET Framework Process</text></g><ellipse cx="994.1628" cy="89.5264" fill="#5B8FF9" rx="15.625" ry="15.625" style="stroke:#222222;stroke-width:1.5625;"/><rect fill="#FAFAFA" height="150.3662" rx="7.8125" ry="7.8125" style="stroke:#BDBDBD;stroke-width:2.3438;" width="321.0358" x="833.6449" y="120.7764"/><path d="M1068.2762,120.7764 L1068.2762,135.3027 L1052.6512,150.9277 L833.6449,150.9277" fill="none" style="stroke:#BDBDBD;stroke-width:2.3438;"/><text fill="#222222" font-family="Arial" font-size="21.875" lengthAdjust="spacing" textLength="219.0063" x="838.3324" y="142.6437">Application Security</text><rect fill="#F7F7F7" height="74.9023" rx="7.8125" ry="7.8125" style="stroke:#4C4C4C;stroke-width:0.7813;" width="289.7858" x="849.2699" y="177.4902"/><text fill="#222222" font-family="Arial" font-size="18.75" lengthAdjust="spacing" textLength="258.5358" x="864.8949" y="210.5194">Confirm app-pool to project</text><text fill="#222222" font-family="Arial" font-size="18.75" lengthAdjust="spacing" textLength="177.832" x="864.8949" y="232.3456">mapping is current</text><rect fill="#FAFAFA" height="128.54" rx="7.8125" ry="7.8125" style="stroke:#BDBDBD;stroke-width:2.3438;" width="329.4861" x="829.4197" y="286.7676"/><path d="M1035.7567,286.7676 L1035.7567,301.2939 L1020.1317,316.9189 L829.4197,316.9189" fill="none" style="stroke:#BDBDBD;stroke-width:2.3438;"/><text fill="#222222" font-family="Arial" font-size="21.875" lengthAdjust="spacing" textLength="190.712" x="834.1072" y="308.6349">Application Team</text><rect fill="#F7F7F7" height="53.0762" rx="7.8125" ry="7.8125" style="stroke:#4C4C4C;stroke-width:0.7813;" width="298.2361" x="845.0447" y="343.4814"/><text fill="#222222" font-family="Arial" font-size="18.75" lengthAdjust="spacing" textLength="266.9861" x="860.6697" y="376.5106">Back up dotnet-agent.config</text><rect fill="#FAFAFA" height="234.6924" rx="7.8125" ry="7.8125" style="stroke:#BDBDBD;stroke-width:2.3438;" width="335.3912" x="826.4671" y="430.9326"/><path d="M995.0676,430.9326 L995.0676,445.459 L979.4426,461.084 L826.4671,461.084" fill="none" style="stroke:#BDBDBD;stroke-width:2.3438;"/><text fill="#222222" font-family="Arial" font-size="21.875" lengthAdjust="spacing" textLength="152.9755" x="831.1546" y="452.8">Seeker Admin</text><rect fill="#F7F7F7" height="74.9023" rx="7.8125" ry="7.8125" style="stroke:#4C4C4C;stroke-width:0.7813;" width="259.848" x="864.2387" y="487.6465"/><text fill="#222222" font-family="Arial" font-size="18.75" lengthAdjust="spacing" textLength="228.598" x="879.8637" y="520.6757">Run Connect New Agent</text><text fill="#222222" font-family="Arial" font-size="18.75" lengthAdjust="spacing" textLength="186.145" x="879.8637" y="542.5018">for .NET Framework</text><rect fill="#F7F7F7" height="53.0762" rx="7.8125" ry="7.8125" style="stroke:#4C4C4C;stroke-width:0.7813;" width="304.1412" x="842.0921" y="593.7988"/><text fill="#222222" font-family="Arial" font-size="18.75" lengthAdjust="spacing" textLength="272.8912" x="857.7171" y="626.828">Download updated agent ZIP</text><rect fill="#FAFAFA" height="553.1494" rx="7.8125" ry="7.8125" style="stroke:#BDBDBD;stroke-width:2.3438;" width="299.8138" x="844.2558" y="681.25"/><path d="M1055.5275,681.25 L1055.5275,695.7764 L1039.9025,711.4014 L844.2558,711.4014" fill="none" style="stroke:#BDBDBD;stroke-width:2.3438;"/><text fill="#222222" font-family="Arial" font-size="21.875" lengthAdjust="spacing" textLength="195.6467" x="848.9433" y="703.1174">Windows / IIS Ops</text><rect fill="#F7F7F7" height="74.9023" rx="7.8125" ry="7.8125" style="stroke:#4C4C4C;stroke-width:0.7813;" width="265.387" x="861.4693" y="737.9639"/><text fill="#222222" font-family="Arial" font-size="18.75" lengthAdjust="spacing" textLength="234.137" x="877.0943" y="770.993">Stop Seeker .NET Agents</text><text fill="#222222" font-family="Arial" font-size="18.75" lengthAdjust="spacing" textLength="157.2327" x="877.0943" y="792.8192">Windows service</text><rect fill="#F7F7F7" height="74.9023" rx="7.8125" ry="7.8125" style="stroke:#4C4C4C;stroke-width:0.7813;" width="248.5687" x="869.8784" y="844.1162"/><text fill="#222222" font-family="Arial" font-size="18.75" lengthAdjust="spacing" textLength="217.3187" x="885.5034" y="877.1454">Extract new binaries to</text><text fill="#222222" font-family="Arial" font-size="18.75" lengthAdjust="spacing" textLength="181.1188" x="885.5034" y="898.9716">Seeker dotnet path</text><rect fill="#F7F7F7" height="74.9023" rx="7.8125" ry="7.8125" style="stroke:#4C4C4C;stroke-width:0.7813;" width="208.1573" x="890.0841" y="950.2686"/><text fill="#222222" font-family="Arial" font-size="18.75" lengthAdjust="spacing" textLength="176.9073" x="905.7091" y="983.2977">Restore backed-up</text><text fill="#222222" font-family="Arial" font-size="18.75" lengthAdjust="spacing" textLength="91.8915" x="905.7091" y="1005.1239">config file</text><rect fill="#F7F7F7" height="74.9023" rx="7.8125" ry="7.8125" style="stroke:#4C4C4C;stroke-width:0.7813;" width="268.5638" x="859.8808" y="1056.4209"/><text fill="#222222" font-family="Arial" font-size="18.75" lengthAdjust="spacing" textLength="237.3138" x="875.5058" y="1089.4501">Start Seeker .NET Agents</text><text fill="#222222" font-family="Arial" font-size="18.75" lengthAdjust="spacing" textLength="67.1631" x="875.5058" y="1111.2762">service</text><rect fill="#F7F7F7" height="53.0762" rx="7.8125" ry="7.8125" style="stroke:#4C4C4C;stroke-width:0.7813;" width="142.0929" x="923.1163" y="1162.5732"/><text fill="#222222" font-family="Arial" font-size="18.75" lengthAdjust="spacing" textLength="110.8429" x="938.7413" y="1195.6024">Run iisreset</text><rect fill="#FAFAFA" height="212.8662" rx="7.8125" ry="7.8125" style="stroke:#BDBDBD;stroke-width:2.3438;" width="312.0361" x="838.1447" y="1250.0244"/><path d="M1072.776,1250.0244 L1072.776,1264.5508 L1057.151,1280.1758 L838.1447,1280.1758" fill="none" style="stroke:#BDBDBD;stroke-width:2.3438;"/><text fill="#222222" font-family="Arial" font-size="21.875" lengthAdjust="spacing" textLength="219.0063" x="842.8322" y="1271.8918">Application Security</text><rect fill="#F7F7F7" height="53.0762" rx="7.8125" ry="7.8125" style="stroke:#4C4C4C;stroke-width:0.7813;" width="266.3116" x="861.0069" y="1306.7383"/><text fill="#222222" font-family="Arial" font-size="18.75" lengthAdjust="spacing" textLength="235.0616" x="876.6319" y="1339.7675">Execute validation traffic</text><rect fill="#F7F7F7" height="53.0762" rx="7.8125" ry="7.8125" style="stroke:#4C4C4C;stroke-width:0.7813;" width="280.7861" x="853.7697" y="1391.0645"/><text fill="#222222" font-family="Arial" font-size="18.75" lengthAdjust="spacing" textLength="249.5361" x="869.3947" y="1424.0936">Review Seeker UI and logs</text><polygon fill="#FFF6E5" points="910.722,1494.1406,1077.6035,1494.1406,1096.3535,1512.8906,1077.6035,1531.6406,910.722,1531.6406,891.972,1512.8906,910.722,1494.1406" style="stroke:#B26B00;stroke-width:0.7813;"/><text fill="#222222" font-family="Arial" font-size="17.1875" lengthAdjust="spacing" textLength="166.8816" x="910.722" y="1518.8408">Telemetry healthy?</text><text fill="#000000" font-family="Arial" font-size="17.1875" lengthAdjust="spacing" textLength="29.7005" x="862.2715" y="1508.8371">yes</text><text fill="#000000" font-family="Arial" font-size="17.1875" lengthAdjust="spacing" textLength="21.4088" x="1096.3535" y="1508.8371">no</text><rect fill="#FAFAFA" height="141.04" rx="7.8125" ry="7.8125" style="stroke:#BDBDBD;stroke-width:2.3438;" width="314.9109" x="673.851" y="1547.2656"/><path d="M908.4824,1547.2656 L908.4824,1561.792 L892.8574,1577.417 L673.851,1577.417" fill="none" style="stroke:#BDBDBD;stroke-width:2.3438;"/><text fill="#222222" font-family="Arial" font-size="21.875" lengthAdjust="spacing" textLength="219.0063" x="678.5385" y="1569.133">Application Security</text><rect fill="#F7F7F7" height="53.0762" rx="7.8125" ry="7.8125" style="stroke:#4C4C4C;stroke-width:0.7813;" width="283.6609" x="689.476" y="1603.9795"/><text fill="#222222" font-family="Arial" font-size="18.75" lengthAdjust="spacing" textLength="252.4109" x="705.101" y="1637.0087">Record evidence and close</text><ellipse cx="831.3065" cy="1746.167" fill="none" rx="17.1875" ry="17.1875" style="stroke:#222222;stroke-width:1.5625;"/><ellipse cx="831.3065" cy="1746.167" fill="#222222" rx="9.375" ry="9.375" style="stroke:#222222;stroke-width:1.5625;"/><rect fill="#FAFAFA" height="244.1162" rx="7.8125" ry="7.8125" style="stroke:#BDBDBD;stroke-width:2.3438;" width="274.0143" x="1020.0119" y="1547.2656"/><path d="M1231.2836,1547.2656 L1231.2836,1561.792 L1215.6586,1577.417 L1020.0119,1577.417" fill="none" style="stroke:#BDBDBD;stroke-width:2.3438;"/><text fill="#222222" font-family="Arial" font-size="21.875" lengthAdjust="spacing" textLength="195.6467" x="1024.6994" y="1569.133">Windows / IIS Ops</text><rect fill="#F7F7F7" height="74.9023" rx="7.8125" ry="7.8125" style="stroke:#4C4C4C;stroke-width:0.7813;" width="234.2773" x="1039.8804" y="1603.9795"/><text fill="#222222" font-family="Arial" font-size="18.75" lengthAdjust="spacing" textLength="203.0273" x="1055.5054" y="1637.0087">Restore prior binaries</text><text fill="#222222" font-family="Arial" font-size="18.75" lengthAdjust="spacing" textLength="172.9156" x="1055.5054" y="1658.8348">and config backup</text><rect fill="#F7F7F7" height="53.0762" rx="7.8125" ry="7.8125" style="stroke:#4C4C4C;stroke-width:0.7813;" width="242.7643" x="1035.6369" y="1719.5557"/><text fill="#222222" font-family="Arial" font-size="18.75" lengthAdjust="spacing" textLength="211.5143" x="1051.2619" y="1752.5848">Restart service and IIS</text><ellipse cx="1157.019" cy="1839.8193" fill="none" rx="17.1875" ry="17.1875" style="stroke:#222222;stroke-width:1.5625;"/><ellipse cx="1157.019" cy="1839.8193" fill="#222222" rx="9.375" ry="9.375" style="stroke:#222222;stroke-width:1.5625;"/><line style="stroke:#000000;stroke-width:1.5625;" x1="994.1628" x2="994.1628" y1="105.1514" y2="177.4902"/><polygon fill="#000000" points="987.9128,161.8652,994.1628,177.4902,1000.4128,161.8652,994.1628,168.1152" style="stroke:#000000;stroke-width:1.5625;"/><line style="stroke:#000000;stroke-width:1.5625;" x1="994.1628" x2="994.1628" y1="252.3926" y2="343.4814"/><polygon fill="#000000" points="987.9128,327.8564,994.1628,343.4814,1000.4128,327.8564,994.1628,334.1064" style="stroke:#000000;stroke-width:1.5625;"/><line style="stroke:#000000;stroke-width:1.5625;" x1="994.1628" x2="994.1628" y1="562.5488" y2="593.7988"/><polygon fill="#000000" points="987.9128,578.1738,994.1628,593.7988,1000.4128,578.1738,994.1628,584.4238" style="stroke:#000000;stroke-width:1.5625;"/><line style="stroke:#000000;stroke-width:1.5625;" x1="994.1628" x2="994.1628" y1="396.5576" y2="487.6465"/><polygon fill="#000000" points="987.9128,472.0215,994.1628,487.6465,1000.4128,472.0215,994.1628,478.2715" style="stroke:#000000;stroke-width:1.5625;"/><line style="stroke:#000000;stroke-width:1.5625;" x1="994.1628" x2="994.1628" y1="812.8662" y2="844.1162"/><polygon fill="#000000" points="987.9128,828.4912,994.1628,844.1162,1000.4128,828.4912,994.1628,834.7412" style="stroke:#000000;stroke-width:1.5625;"/><line style="stroke:#000000;stroke-width:1.5625;" x1="994.1628" x2="994.1628" y1="919.0186" y2="950.2686"/><polygon fill="#000000" points="987.9128,934.6436,994.1628,950.2686,1000.4128,934.6436,994.1628,940.8936" style="stroke:#000000;stroke-width:1.5625;"/><line style="stroke:#000000;stroke-width:1.5625;" x1="994.1628" x2="994.1628" y1="1025.1709" y2="1056.4209"/><polygon fill="#000000" points="987.9128,1040.7959,994.1628,1056.4209,1000.4128,1040.7959,994.1628,1047.0459" style="stroke:#000000;stroke-width:1.5625;"/><line style="stroke:#000000;stroke-width:1.5625;" x1="994.1628" x2="994.1628" y1="1131.3232" y2="1162.5732"/><polygon fill="#000000" points="987.9128,1146.9482,994.1628,1162.5732,1000.4128,1146.9482,994.1628,1153.1982" style="stroke:#000000;stroke-width:1.5625;"/><line style="stroke:#000000;stroke-width:1.5625;" x1="994.1628" x2="994.1628" y1="646.875" y2="737.9639"/><polygon fill="#000000" points="987.9128,722.3389,994.1628,737.9639,1000.4128,722.3389,994.1628,728.5889" style="stroke:#000000;stroke-width:1.5625;"/><line style="stroke:#000000;stroke-width:1.5625;" x1="994.1628" x2="994.1628" y1="1359.8145" y2="1391.0645"/><polygon fill="#000000" points="987.9128,1375.4395,994.1628,1391.0645,1000.4128,1375.4395,994.1628,1381.6895" style="stroke:#000000;stroke-width:1.5625;"/><line style="stroke:#000000;stroke-width:1.5625;" x1="994.1628" x2="994.1628" y1="1215.6494" y2="1306.7383"/><polygon fill="#000000" points="987.9128,1291.1133,994.1628,1306.7383,1000.4128,1291.1133,994.1628,1297.3633" style="stroke:#000000;stroke-width:1.5625;"/><line style="stroke:#000000;stroke-width:1.5625;" x1="831.3065" x2="831.3065" y1="1657.0557" y2="1728.9795"/><polygon fill="#000000" points="825.0565,1713.3545,831.3065,1728.9795,837.5565,1713.3545,831.3065,1719.6045" style="stroke:#000000;stroke-width:1.5625;"/><line style="stroke:#000000;stroke-width:1.5625;" x1="1157.019" x2="1157.019" y1="1678.8818" y2="1719.5557"/><polygon fill="#000000" points="1150.769,1703.9307,1157.019,1719.5557,1163.269,1703.9307,1157.019,1710.1807" style="stroke:#000000;stroke-width:1.5625;"/><line style="stroke:#000000;stroke-width:1.5625;" x1="1157.019" x2="1157.019" y1="1772.6318" y2="1822.6318"/><polygon fill="#000000" points="1150.769,1807.0068,1157.019,1822.6318,1163.269,1807.0068,1157.019,1813.2568" style="stroke:#000000;stroke-width:1.5625;"/><line style="stroke:#000000;stroke-width:1.5625;" x1="891.972" x2="831.3065" y1="1512.8906" y2="1512.8906"/><line style="stroke:#000000;stroke-width:1.5625;" x1="831.3065" x2="831.3065" y1="1512.8906" y2="1603.9795"/><polygon fill="#000000" points="825.0565,1588.3545,831.3065,1603.9795,837.5565,1588.3545,831.3065,1594.6045" style="stroke:#000000;stroke-width:1.5625;"/><line style="stroke:#000000;stroke-width:1.5625;" x1="1096.3535" x2="1157.019" y1="1512.8906" y2="1512.8906"/><line style="stroke:#000000;stroke-width:1.5625;" x1="1157.019" x2="1157.019" y1="1512.8906" y2="1603.9795"/><polygon fill="#000000" points="1150.769,1588.3545,1157.019,1603.9795,1163.269,1588.3545,1157.019,1594.6045" style="stroke:#000000;stroke-width:1.5625;"/><line style="stroke:#000000;stroke-width:1.5625;" x1="994.1628" x2="994.1628" y1="1444.1406" y2="1494.1406"/><polygon fill="#000000" points="987.9128,1478.5156,994.1628,1494.1406,1000.4128,1478.5156,994.1628,1484.7656" style="stroke:#000000;stroke-width:1.5625;"/><g class="legend" data-source-line="28"><rect fill="none" height="200.1221" rx="7.8125" ry="7.8125" style="stroke:#000000;stroke-width:1.5625;" width="1894.4397" x="34.375" y="1874.1943"/><text fill="#000000" font-family="Arial" font-size="21.875" font-weight="bold" lengthAdjust="spacing" textLength="60.434" x="49.8032" y="1905.4367">Field</text><text fill="#000000" font-family="Arial" font-size="21.875" font-weight="bold" lengthAdjust="spacing" textLength="69.5984" x="253.8879" y="1905.4367">Value</text><text fill="#000000" font-family="Arial" font-size="21.875" lengthAdjust="spacing" textLength="83.847" x="49.1409" y="1930.9006">Process</text><text fill="#000000" font-family="Arial" font-size="21.875" lengthAdjust="spacing" textLength="606.7856" x="253.2257" y="1930.9006">.NET Framework Seeker agent refresh for IIS workloads</text><text fill="#000000" font-family="Arial" font-size="21.875" lengthAdjust="spacing" textLength="190.1779" x="49.1409" y="1956.3644">Primary message</text><text fill="#000000" font-family="Arial" font-size="21.875" lengthAdjust="spacing" textLength="1660.8231" x="253.2257" y="1956.3644">For .NET Framework, preserve dotnet-agent.config, replace binaries under the service path, restart the Seeker service and IIS, then validate telemetry.</text><text fill="#000000" font-family="Arial" font-size="21.875" lengthAdjust="spacing" textLength="78.656" x="49.1409" y="1981.8283">Trigger</text><text fill="#000000" font-family="Arial" font-size="21.875" lengthAdjust="spacing" textLength="743.6859" x="253.2257" y="1981.8283">.NET Framework application included in Seeker agent refresh scope</text><text fill="#000000" font-family="Arial" font-size="21.875" lengthAdjust="spacing" textLength="142.7643" x="49.1409" y="2007.2922">Entry criteria</text><text fill="#000000" font-family="Arial" font-size="21.875" lengthAdjust="spacing" textLength="685.6232" x="253.2257" y="2007.2922">Server upgraded; IIS app pools mapped in dotnet-agent.config</text><text fill="#000000" font-family="Arial" font-size="21.875" lengthAdjust="spacing" textLength="125.9842" x="49.1409" y="2032.756">Exit criteria</text><text fill="#000000" font-family="Arial" font-size="21.875" lengthAdjust="spacing" textLength="712.1124" x="253.2257" y="2032.756">Seeker .NET Agents service and IIS restarted with valid reporting</text><text fill="#000000" font-family="Arial" font-size="21.875" lengthAdjust="spacing" textLength="146.8765" x="49.1409" y="2058.2199">Key evidence</text><text fill="#000000" font-family="Arial" font-size="21.875" lengthAdjust="spacing" textLength="1209.3842" x="253.2257" y="2058.2199">dotnet-agent.config backup, ZIP deployment record, service restart log, IIS reset log, Seeker validation results</text><line style="stroke:#000000;stroke-width:1.5625;" x1="42.1875" x2="1921.0022" y1="1885.1318" y2="1885.1318"/><line style="stroke:#000000;stroke-width:1.5625;" x1="42.1875" x2="1921.0022" y1="1910.5957" y2="1910.5957"/><line style="stroke:#000000;stroke-width:1.5625;" x1="42.1875" x2="1921.0022" y1="1936.0596" y2="1936.0596"/><line style="stroke:#000000;stroke-width:1.5625;" x1="42.1875" x2="1921.0022" y1="1961.5234" y2="1961.5234"/><line style="stroke:#000000;stroke-width:1.5625;" x1="42.1875" x2="1921.0022" y1="1986.9873" y2="1986.9873"/><line style="stroke:#000000;stroke-width:1.5625;" x1="42.1875" x2="1921.0022" y1="2012.4512" y2="2012.4512"/><line style="stroke:#000000;stroke-width:1.5625;" x1="42.1875" x2="1921.0022" y1="2037.915" y2="2037.915"/><line style="stroke:#000000;stroke-width:1.5625;" x1="42.1875" x2="1921.0022" y1="2063.3789" y2="2063.3789"/><line style="stroke:#000000;stroke-width:1.5625;" x1="42.1875" x2="42.1875" y1="1885.1318" y2="2063.3789"/><line style="stroke:#000000;stroke-width:1.5625;" x1="246.2723" x2="246.2723" y1="1885.1318" y2="2063.3789"/><line style="stroke:#000000;stroke-width:1.5625;" x1="1921.0022" x2="1921.0022" y1="1885.1318" y2="2063.3789"/></g><?plantuml-src ZLNlRzis4Fskl-BGVKa19qsBfLiN54ESM40m82lgT0C6Vs75atKBHH8aPSTO-h_lI4cshAW_B3YGUUIxT-_UCVw1j1LErF1P50zhPnejhuqo3hOL1SpyFkuh8SsMz1fAeVmm8Yt1wulpmKg2AOpJwE3rC73bdDcs-7F52GUX6on5eq9kTBWJDV9M4YeB51J24l61eQxMg0Dyib84X5CukrlSGyvdSMlS0tnmfa3lVuZozugLasGESL44sb3OmNyPm7m4zbF-ItnYn3Y9hblz-Je-l1fHkxKtwSDhDoHge-Lpg3n_kxWOR1WYpj-ydP-V7u9JmCiWNBzuCVyrpz_nucAFlr-Q2tUyz6LGBl_bHf3HRRr776xYCwd2LNmcwnrYQyFDd9Rn8d-Nv-E4UyPJi1L91AmjTqQYBnpPo3hB5B9r93XQLo5xUWyvePB0Bty9rI0yPK-zVU1fxAlEV2APps7fq5TGSjhRsoN47Se8wJiCgeNRGSr0l9-nSjvtZ3S3omZeDWZI18tXD26V5KQNj9vn1ikJWV2Pj7247bWGJXygX7YAE6H5gE967tkR8Xt7VeFWMfdTBCOqR8IYD3815TOOtEuiiRrdETPywbd5mbf5XKWD9rseHgBabsabV65ig-12CpImw05vN1Xs6QjqqDYr4mnncHHZSB36A0yrlxR04qAqY8yKZW4JWKGtNGP-N7Al2kDkALHjxL5JmmxMBUeVk0FSi5Dq4LiqbJpU3usTmJ-t7zX8LfbTtTRCbvgSxPFsBL266zTbn-vdnxKJFqh9GRvJebFOYwqZionB25bs6B4NLmFvbrWqNF_kHHgHtwuZFLT74K-ZY10CsydyYqLOwQXdh94yy277X2zv9Bw6V8-Yxb3Zv76NffGO8_GtiQn9TwS_DXgObsOES8VRjZ4hNJvp_cNSVMEsEWuCvukUb9sRMEXnghz9y-tjuLLIza_hktpBOEo44rQwFz1r9wLRF0R7bpLe9hQVg61MkWDeIquJbVP_v8uQXya0A4yRkzAT9KfIBMIwKIS931D7LOXyCiItsZ1gyEAHV_Ee3cp31PGb5Hsz3N4bNV9FjydsR3UVKb099_VzZ4E5GeLgz_lBzXOusQ5_oHW_n2EbYbu_34hCL2ZZKtbV-Cj2sGpv_ogSQ3D2_ahl1W9RHsoGlYKhdU27mtTvs1_r7itvCGajgSp-1m00?></g></svg>