<?plantuml 1.2026.2?><svg xmlns="http://www.w3.org/2000/svg" xmlns:xlink="http://www.w3.org/1999/xlink" contentStyleType="text/css" data-diagram-type="ACTIVITY" height="1668.75px" preserveAspectRatio="none" style="width:1421px;height:1668px;background:#FFFFFF;" version="1.1" viewBox="0 0 1421 1668" width="1421.875px" zoomAndPan="magnify"><title>AppSec Process 04: SCA &amp; Dependency Vulnerability Management (GHAS + Trivy)</title><defs/><g><g class="title" data-source-line="2"><text fill="#000000" font-family="Arial" font-size="25" font-weight="bold" lengthAdjust="spacing" textLength="1156.4087" x="131.102" y="54.4556">AppSec Process 04: SCA &amp; Dependency Vulnerability Management (GHAS + Trivy)</text></g><ellipse cx="403.7506" cy="93.1641" fill="#222222" rx="15.625" ry="15.625" style="stroke:#222222;stroke-width:1.5625;"/><rect fill="none" height="209.2285" rx="7.8125" ry="7.8125" style="stroke:#777777;stroke-width:2.3438;" width="456.8359" x="175.3326" y="124.4141"/><path d="M272.4945,124.4141 L272.4945,135.3027 L256.8695,150.9277 L175.3326,150.9277" fill="none" style="stroke:#777777;stroke-width:2.3438;"/><text fill="#111111" font-family="Arial" font-size="18.75" lengthAdjust="spacing" textLength="81.5369" x="180.0201" y="143.3807">Discover</text><rect fill="#F7F7F7" height="53.0762" rx="7.8125" ry="7.8125" style="stroke:#444444;stroke-width:0.7813;" width="425.5859" x="190.9576" y="177.4902"/><text fill="#000000" font-family="Arial" font-size="18.75" lengthAdjust="spacing" textLength="394.3359" x="206.5826" y="210.5194">Detect dependencies (manifests/lockfiles)</text><rect fill="#F7F7F7" height="53.0762" rx="7.8125" ry="7.8125" style="stroke:#444444;stroke-width:0.7813;" width="425.238" x="191.1316" y="261.8164"/><text fill="#000000" font-family="Arial" font-size="18.75" lengthAdjust="spacing" textLength="393.988" x="206.7566" y="294.8456">Generate/update SBOM (Trivy) (AppCode)</text><rect fill="none" height="293.5547" rx="7.8125" ry="7.8125" style="stroke:#777777;stroke-width:2.3438;" width="350.6073" x="228.447" y="349.2676"/><path d="M289.6561,349.2676 L289.6561,360.1563 L274.0311,375.7813 L228.447,375.7813" fill="none" style="stroke:#777777;stroke-width:2.3438;"/><text fill="#111111" font-family="Arial" font-size="18.75" lengthAdjust="spacing" textLength="45.5841" x="233.1345" y="368.2343">Scan</text><rect fill="#F7F7F7" height="53.0762" rx="7.8125" ry="7.8125" style="stroke:#444444;stroke-width:0.7813;" width="319.3573" x="244.072" y="402.3438"/><text fill="#000000" font-family="Arial" font-size="18.75" lengthAdjust="spacing" textLength="288.1073" x="259.697" y="435.3729">GHAS dependency review (PR)</text><rect fill="#F7F7F7" height="53.0762" rx="7.8125" ry="7.8125" style="stroke:#444444;stroke-width:0.7813;" width="292.2485" x="257.6263" y="486.6699"/><text fill="#000000" font-family="Arial" font-size="18.75" lengthAdjust="spacing" textLength="260.9985" x="273.2513" y="519.6991">Dependabot alerts (default)</text><rect fill="#F7F7F7" height="53.0762" rx="7.8125" ry="7.8125" style="stroke:#444444;stroke-width:0.7813;" width="233.7189" x="286.8912" y="570.9961"/><text fill="#000000" font-family="Arial" font-size="18.75" lengthAdjust="spacing" textLength="202.4689" x="302.5162" y="604.0253">License policy checks</text><rect fill="none" height="393.5547" rx="7.8125" ry="7.8125" style="stroke:#777777;stroke-width:2.3438;" width="680.835" x="17.1875" y="658.4473"/><path d="M92.1112,658.4473 L92.1112,669.3359 L76.4862,684.9609 L17.1875,684.9609" fill="none" style="stroke:#777777;stroke-width:2.3438;"/><text fill="#111111" font-family="Arial" font-size="18.75" lengthAdjust="spacing" textLength="59.2987" x="21.875" y="677.4139">Triage</text><rect fill="#F7F7F7" height="53.0762" rx="7.8125" ry="7.8125" style="stroke:#444444;stroke-width:0.7813;" width="386.2457" x="210.6277" y="711.5234"/><text fill="#000000" font-family="Arial" font-size="18.75" lengthAdjust="spacing" textLength="354.9957" x="226.2527" y="744.5526">Normalize findings (CVE/CWE/license)</text><rect fill="#F7F7F7" height="53.0762" rx="7.8125" ry="7.8125" style="stroke:#444444;stroke-width:0.7813;" width="367.8711" x="219.8151" y="795.8496"/><text fill="#000000" font-family="Arial" font-size="18.75" lengthAdjust="spacing" textLength="336.6211" x="235.4401" y="828.8788">Correlate to AppCode + repo owner</text><polygon fill="#F7F7F7" points="342.3874,880.1758,465.1138,880.1758,483.8638,898.9258,465.1138,917.6758,342.3874,917.6758,323.6374,898.9258,342.3874,880.1758" style="stroke:#444444;stroke-width:0.7813;"/><text fill="#000000" font-family="Arial" font-size="18.75" lengthAdjust="spacing" textLength="122.7264" x="342.3874" y="905.4169">Critical/high?</text><text fill="#000000" font-family="Arial" font-size="18.75" lengthAdjust="spacing" textLength="32.7576" x="290.8798" y="894.5038">Yes</text><text fill="#000000" font-family="Arial" font-size="18.75" lengthAdjust="spacing" textLength="25.4974" x="483.8638" y="894.5038">No</text><rect fill="#F7F7F7" height="53.0762" rx="7.8125" ry="7.8125" style="stroke:#444444;stroke-width:0.7813;" width="404.5837" x="35.9375" y="933.3008"/><text fill="#000000" font-family="Arial" font-size="18.75" lengthAdjust="spacing" textLength="373.3337" x="51.5625" y="966.33">Block merge / release as needed&#171;gate&#187;</text><rect fill="#F7F7F7" height="53.0762" rx="7.8125" ry="7.8125" style="stroke:#444444;stroke-width:0.7813;" width="195.0012" x="471.7712" y="933.3008"/><text fill="#000000" font-family="Arial" font-size="18.75" lengthAdjust="spacing" textLength="163.7512" x="487.3962" y="966.33">Queue in backlog</text><polygon fill="#F7F7F7" points="403.7506,995.752,422.5006,1014.502,403.7506,1033.252,385.0006,1014.502,403.7506,995.752" style="stroke:#444444;stroke-width:0.7813;"/><rect fill="none" height="209.2285" rx="7.8125" ry="7.8125" style="stroke:#777777;stroke-width:2.3438;" width="458.7402" x="174.3805" y="1067.627"/><path d="M291.8579,1067.627 L291.8579,1078.5156 L276.2329,1094.1406 L174.3805,1094.1406" fill="none" style="stroke:#777777;stroke-width:2.3438;"/><text fill="#111111" font-family="Arial" font-size="18.75" lengthAdjust="spacing" textLength="101.8524" x="179.068" y="1086.5936">Remediate</text><rect fill="#F7F7F7" height="53.0762" rx="7.8125" ry="7.8125" style="stroke:#444444;stroke-width:0.7813;" width="427.4902" x="190.0055" y="1120.7031"/><text fill="#000000" font-family="Arial" font-size="18.75" lengthAdjust="spacing" textLength="396.2402" x="205.6305" y="1153.7323">Auto-PR (Dependabot) or manual upgrade</text><rect fill="#F7F7F7" height="53.0762" rx="7.8125" ry="7.8125" style="stroke:#444444;stroke-width:0.7813;" width="164.3402" x="321.5805" y="1205.0293"/><text fill="#000000" font-family="Arial" font-size="18.75" lengthAdjust="spacing" textLength="133.0902" x="337.2055" y="1238.0585">Test + rebuild</text><rect fill="none" height="293.5547" rx="7.8125" ry="7.8125" style="stroke:#777777;stroke-width:2.3438;" width="1153.9215" x="252.1912" y="1292.4805"/><path d="M400.412,1292.4805 L400.412,1303.3691 L384.787,1318.9941 L252.1912,1318.9941" fill="none" style="stroke:#777777;stroke-width:2.3438;"/><text fill="#111111" font-family="Arial" font-size="18.75" lengthAdjust="spacing" textLength="132.5958" x="256.8787" y="1311.4471">Verify &amp; Close</text><rect fill="#F7F7F7" height="53.0762" rx="7.8125" ry="7.8125" style="stroke:#444444;stroke-width:0.7813;" width="240.1184" x="283.6914" y="1345.5566"/><text fill="#000000" font-family="Arial" font-size="18.75" lengthAdjust="spacing" textLength="208.8684" x="299.3164" y="1378.5858">Re-scan on PR + main</text><rect fill="#F7F7F7" height="53.0762" rx="7.8125" ry="7.8125" style="stroke:#444444;stroke-width:0.7813;" width="202.4353" x="302.533" y="1429.8828"/><text fill="#000000" font-family="Arial" font-size="18.75" lengthAdjust="spacing" textLength="171.1853" x="318.158" y="1462.912">Close ticket / alert</text><path d="M570.9351,1522.0215 L570.9351,1534.4971 L539.6851,1540.7471 L570.9351,1546.9971 L570.9351,1559.4727 A0,0 0 0 0 570.9351,1559.4727 L1390.4877,1559.4727 A0,0 0 0 0 1390.4877,1559.4727 L1390.4877,1537.6465 L1374.8627,1522.0215 L570.9351,1522.0215 A0,0 0 0 0 570.9351,1522.0215" fill="#FFF8D6" style="stroke:#C7A700;stroke-width:0.7813;"/><path d="M1374.8627,1522.0215 L1374.8627,1537.6465 L1390.4877,1537.6465 L1374.8627,1522.0215" fill="#FFF8D6" style="stroke:#C7A700;stroke-width:0.7813;"/><text fill="#000000" font-family="Arial" font-size="18.75" lengthAdjust="spacing" textLength="131.4697" x="580.3101" y="1547.2382">Key message:</text><text fill="#000000" font-family="Arial" font-size="18.75" font-weight="bold" lengthAdjust="spacing" textLength="246.4783" x="717.7399" y="1547.2382">Dependencies are code</text><text fill="#000000" font-family="Arial" font-size="18.75" lengthAdjust="spacing" textLength="396.8719" x="970.1782" y="1547.2382">&#8212; manage with the same gates and SLAs.</text><rect fill="#F7F7F7" height="53.0762" rx="7.8125" ry="7.8125" style="stroke:#444444;stroke-width:0.7813;" width="271.8689" x="267.8162" y="1514.209"/><text fill="#000000" font-family="Arial" font-size="18.75" lengthAdjust="spacing" textLength="240.6189" x="283.4412" y="1547.2382">Report MTTR by AppCode</text><ellipse cx="403.7506" cy="1634.4727" fill="none" rx="17.1875" ry="17.1875" style="stroke:#222222;stroke-width:1.5625;"/><ellipse cx="403.7506" cy="1634.4727" fill="#222222" rx="9.375" ry="9.375" style="stroke:#222222;stroke-width:1.5625;"/><line style="stroke:#444444;stroke-width:1.5625;" x1="403.7506" x2="403.7506" y1="230.5664" y2="261.8164"/><polygon fill="#444444" points="397.5006,246.1914,403.7506,261.8164,410.0006,246.1914,403.7506,252.4414" style="stroke:#444444;stroke-width:1.5625;"/><line style="stroke:#444444;stroke-width:1.5625;" x1="403.7506" x2="403.7506" y1="108.7891" y2="177.4902"/><polygon fill="#444444" points="397.5006,161.8652,403.7506,177.4902,410.0006,161.8652,403.7506,168.1152" style="stroke:#444444;stroke-width:1.5625;"/><line style="stroke:#444444;stroke-width:1.5625;" x1="403.7506" x2="403.7506" y1="455.4199" y2="486.6699"/><polygon fill="#444444" points="397.5006,471.0449,403.7506,486.6699,410.0006,471.0449,403.7506,477.2949" style="stroke:#444444;stroke-width:1.5625;"/><line style="stroke:#444444;stroke-width:1.5625;" x1="403.7506" x2="403.7506" y1="539.7461" y2="570.9961"/><polygon fill="#444444" points="397.5006,555.3711,403.7506,570.9961,410.0006,555.3711,403.7506,561.6211" style="stroke:#444444;stroke-width:1.5625;"/><line style="stroke:#444444;stroke-width:1.5625;" x1="403.7506" x2="403.7506" y1="314.8926" y2="402.3438"/><polygon fill="#444444" points="397.5006,386.7188,403.7506,402.3438,410.0006,386.7188,403.7506,392.9688" style="stroke:#444444;stroke-width:1.5625;"/><line style="stroke:#444444;stroke-width:1.5625;" x1="403.7506" x2="403.7506" y1="764.5996" y2="795.8496"/><polygon fill="#444444" points="397.5006,780.2246,403.7506,795.8496,410.0006,780.2246,403.7506,786.4746" style="stroke:#444444;stroke-width:1.5625;"/><line style="stroke:#444444;stroke-width:1.5625;" x1="323.6374" x2="238.2294" y1="898.9258" y2="898.9258"/><line style="stroke:#444444;stroke-width:1.5625;" x1="238.2294" x2="238.2294" y1="898.9258" y2="933.3008"/><polygon fill="#444444" points="231.9794,917.6758,238.2294,933.3008,244.4794,917.6758,238.2294,923.9258" style="stroke:#444444;stroke-width:1.5625;"/><line style="stroke:#444444;stroke-width:1.5625;" x1="483.8638" x2="569.2719" y1="898.9258" y2="898.9258"/><line style="stroke:#444444;stroke-width:1.5625;" x1="569.2719" x2="569.2719" y1="898.9258" y2="933.3008"/><polygon fill="#444444" points="563.0219,917.6758,569.2719,933.3008,575.5219,917.6758,569.2719,923.9258" style="stroke:#444444;stroke-width:1.5625;"/><line style="stroke:#444444;stroke-width:1.5625;" x1="238.2294" x2="238.2294" y1="986.377" y2="1014.502"/><line style="stroke:#444444;stroke-width:1.5625;" x1="238.2294" x2="385.0006" y1="1014.502" y2="1014.502"/><polygon fill="#444444" points="369.3756,1008.252,385.0006,1014.502,369.3756,1020.752,375.6256,1014.502" style="stroke:#444444;stroke-width:1.5625;"/><line style="stroke:#444444;stroke-width:1.5625;" x1="569.2719" x2="569.2719" y1="986.377" y2="1014.502"/><line style="stroke:#444444;stroke-width:1.5625;" x1="569.2719" x2="422.5006" y1="1014.502" y2="1014.502"/><polygon fill="#444444" points="438.1256,1008.252,422.5006,1014.502,438.1256,1020.752,431.8756,1014.502" style="stroke:#444444;stroke-width:1.5625;"/><line style="stroke:#444444;stroke-width:1.5625;" x1="403.7506" x2="403.7506" y1="848.9258" y2="880.1758"/><polygon fill="#444444" points="397.5006,864.5508,403.7506,880.1758,410.0006,864.5508,403.7506,870.8008" style="stroke:#444444;stroke-width:1.5625;"/><line style="stroke:#444444;stroke-width:1.5625;" x1="403.7506" x2="403.7506" y1="624.0723" y2="711.5234"/><polygon fill="#444444" points="397.5006,695.8984,403.7506,711.5234,410.0006,695.8984,403.7506,702.1484" style="stroke:#444444;stroke-width:1.5625;"/><line style="stroke:#444444;stroke-width:1.5625;" x1="403.7506" x2="403.7506" y1="1173.7793" y2="1205.0293"/><polygon fill="#444444" points="397.5006,1189.4043,403.7506,1205.0293,410.0006,1189.4043,403.7506,1195.6543" style="stroke:#444444;stroke-width:1.5625;"/><line style="stroke:#444444;stroke-width:1.5625;" x1="403.7506" x2="403.7506" y1="1033.252" y2="1120.7031"/><polygon fill="#444444" points="397.5006,1105.0781,403.7506,1120.7031,410.0006,1105.0781,403.7506,1111.3281" style="stroke:#444444;stroke-width:1.5625;"/><line style="stroke:#444444;stroke-width:1.5625;" x1="403.7506" x2="403.7506" y1="1398.6328" y2="1429.8828"/><polygon fill="#444444" points="397.5006,1414.2578,403.7506,1429.8828,410.0006,1414.2578,403.7506,1420.5078" style="stroke:#444444;stroke-width:1.5625;"/><line style="stroke:#444444;stroke-width:1.5625;" x1="403.7506" x2="403.7506" y1="1482.959" y2="1514.209"/><polygon fill="#444444" points="397.5006,1498.584,403.7506,1514.209,410.0006,1498.584,403.7506,1504.834" style="stroke:#444444;stroke-width:1.5625;"/><line style="stroke:#444444;stroke-width:1.5625;" x1="403.7506" x2="403.7506" y1="1258.1055" y2="1345.5566"/><polygon fill="#444444" points="397.5006,1329.9316,403.7506,1345.5566,410.0006,1329.9316,403.7506,1336.1816" style="stroke:#444444;stroke-width:1.5625;"/><line style="stroke:#444444;stroke-width:1.5625;" x1="403.7506" x2="403.7506" y1="1567.2852" y2="1617.2852"/><polygon fill="#444444" points="397.5006,1601.6602,403.7506,1617.2852,410.0006,1601.6602,403.7506,1607.9102" style="stroke:#444444;stroke-width:1.5625;"/><?plantuml-src NLFRRjD047ttLmnz02TLubQ2bxGgIfrI9DeIagY8nytks5vblRlQIoA3aFW8lf0lONmf3NrAv9avPywPitudjMMErR1bV5Sw4xN8ZJ8E3fKCcFX_TLynOGvIbr0mvOyhmaeuVtTszAM3uSPfT71-N9WxPmuz_hKYmgFI0WiMLVXWT7XWDLAhP2fv9JLNKI1CfzdmrsVCMezyuaEZS6fZhP8WWw8HQzV8OUaCH-_XxEqCrlaSNXEsHIrGymOUewAjs5Og6HguPvgLMACEaDv-dA_X53PExfjHaho1PNJMU9n1JZivey0GoiIRw3Y2atu7wPxGF0qfoL5xz2Cuo52rY-H6u6JBF0em1sBqbRJ0j00MWwbPa4PFayG7vaAIa0EaW3x1oK9wRlReJk170Z1RO40UG3m9aEWXhPcM1VhWCsNuhf2AY2_QxbjijGNCeXNq0-lhp_UGzeeW7RQYrf__KQuvqmDTvu5uTilXNk81qkMg9-YDP5iJW2bqWPOH_Ttw-btl0rX3ZZJ0A-Gx_vAFzY7J1yO7usgcv7U4Gcf1yIB8_F4cox_UP8EhFNHkd4FLgWhcoM1otg4rlSDjbonesX4FPoghP5cz7q6eK4FwZJoY1WAwRas36bs9aD6yGheIC0yQKQ2ul2o9vEggXKCAEgGFPfZy4Z4YIDsz5MNAheMMBbu8N56YX2IKGUESJZvPhY1zjcy4z0JeZf4fYBPqJ62dSaDdxLHjerJYfNEFw6JHKA1pHS4Sq5SuyNH1e0RYE2LKgNl7sYOWBtOOI6bti8j-mXeNu7wpMS6sUJAp8zCcjDakgv1ymePSyfvkDOFnU74SGUOGECsCn_3dr-zM27NrsIUxmRSFkBNHTv5VtytzDA5fQE7Rr1lx5m00?></g></svg>