<?xml version="1.0" encoding="us-ascii" standalone="no"?><svg xmlns="http://www.w3.org/2000/svg" xmlns:xlink="http://www.w3.org/1999/xlink" contentStyleType="text/css" height="1668.75px" preserveAspectRatio="none" style="width:1471px;height:1668px;background:#FFFFFF;" version="1.1" viewBox="0 0 1471 1668" width="1471.875px" zoomAndPan="magnify"><defs/><g><text fill="#000000" font-family="Arial" font-size="25" font-weight="bold" lengthAdjust="spacing" textLength="1134.375" x="166.9922" y="54.4556">AppSec Process 04: SCA &amp; Dependency Vulnerability Management (GHAS + Trivy)</text><ellipse cx="418.3594" cy="93.1641" fill="#222222" rx="15.625" ry="15.625" style="stroke:#222222;stroke-width:1.5625;"/><rect fill="none" height="209.2285" rx="7.8125" ry="7.8125" style="stroke:#777777;stroke-width:2.34375;" width="475" x="180.8594" y="124.4141"/><path d="M279.2969,124.4141 L279.2969,135.3027 L263.6719,150.9277 L180.8594,150.9277 " fill="none" style="stroke:#777777;stroke-width:2.34375;"/><text fill="#111111" font-family="Arial" font-size="18.75" lengthAdjust="spacing" textLength="82.8125" x="185.5469" y="143.3807">Discover</text><rect fill="#F7F7F7" height="53.0762" rx="7.8125" ry="7.8125" style="stroke:#444444;stroke-width:0.78125;" width="443.75" x="196.4844" y="177.4902"/><text fill="#000000" font-family="Arial" font-size="18.75" lengthAdjust="spacing" textLength="412.5" x="212.1094" y="210.5194">Detect dependencies (manifests/lockfiles)</text><rect fill="#F7F7F7" height="53.0762" rx="7.8125" ry="7.8125" style="stroke:#444444;stroke-width:0.78125;" width="434.375" x="201.1719" y="261.8164"/><text fill="#000000" font-family="Arial" font-size="18.75" lengthAdjust="spacing" textLength="403.125" x="216.7969" y="294.8456">Generate/update SBOM (Trivy) (AppCode)</text><rect fill="none" height="293.5547" rx="7.8125" ry="7.8125" style="stroke:#777777;stroke-width:2.34375;" width="356.25" x="240.2344" y="349.2676"/><path d="M304.2969,349.2676 L304.2969,360.1563 L288.6719,375.7813 L240.2344,375.7813 " fill="none" style="stroke:#777777;stroke-width:2.34375;"/><text fill="#111111" font-family="Arial" font-size="18.75" lengthAdjust="spacing" textLength="48.4375" x="244.9219" y="368.2343">Scan</text><rect fill="#F7F7F7" height="53.0762" rx="7.8125" ry="7.8125" style="stroke:#444444;stroke-width:0.78125;" width="325" x="255.8594" y="402.3438"/><text fill="#000000" font-family="Arial" font-size="18.75" lengthAdjust="spacing" textLength="293.75" x="271.4844" y="435.3729">GHAS dependency review (PR)</text><rect fill="#F7F7F7" height="53.0762" rx="7.8125" ry="7.8125" style="stroke:#444444;stroke-width:0.78125;" width="306.25" x="265.2344" y="486.6699"/><text fill="#000000" font-family="Arial" font-size="18.75" lengthAdjust="spacing" textLength="275" x="280.8594" y="519.6991">Dependabot alerts (default)</text><rect fill="#F7F7F7" height="53.0762" rx="7.8125" ry="7.8125" style="stroke:#444444;stroke-width:0.78125;" width="240.625" x="298.0469" y="570.9961"/><text fill="#000000" font-family="Arial" font-size="18.75" lengthAdjust="spacing" textLength="209.375" x="313.6719" y="604.0253">License policy checks</text><rect fill="none" height="393.5547" rx="7.8125" ry="7.8125" style="stroke:#777777;stroke-width:2.34375;" width="704.6875" x="17.1875" y="658.4473"/><path d="M93.75,658.4473 L93.75,669.3359 L78.125,684.9609 L17.1875,684.9609 " fill="none" style="stroke:#777777;stroke-width:2.34375;"/><text fill="#111111" font-family="Arial" font-size="18.75" lengthAdjust="spacing" textLength="60.9375" x="21.875" y="677.4139">Triage</text><rect fill="#F7F7F7" height="53.0762" rx="7.8125" ry="7.8125" style="stroke:#444444;stroke-width:0.78125;" width="390.625" x="223.0469" y="711.5234"/><text fill="#000000" font-family="Arial" font-size="18.75" lengthAdjust="spacing" textLength="359.375" x="238.6719" y="744.5526">Normalize findings (CVE/CWE/license)</text><rect fill="#F7F7F7" height="53.0762" rx="7.8125" ry="7.8125" style="stroke:#444444;stroke-width:0.78125;" width="381.25" x="227.7344" y="795.8496"/><text fill="#000000" font-family="Arial" font-size="18.75" lengthAdjust="spacing" textLength="350" x="243.3594" y="828.8788">Correlate to AppCode + repo owner</text><polygon fill="#F7F7F7" points="356.6406,880.1758,480.0781,880.1758,498.8281,898.9258,480.0781,917.6758,356.6406,917.6758,337.8906,898.9258,356.6406,880.1758" style="stroke:#444444;stroke-width:0.78125;"/><text fill="#000000" font-family="Arial" font-size="18.75" lengthAdjust="spacing" textLength="123.4375" x="356.6406" y="905.4169">Critical/high?</text><text fill="#000000" font-family="Arial" font-size="18.75" lengthAdjust="spacing" textLength="34.375" x="303.5156" y="894.5038">Yes</text><text fill="#000000" font-family="Arial" font-size="18.75" lengthAdjust="spacing" textLength="26.5625" x="498.8281" y="894.5038">No</text><rect fill="#F7F7F7" height="53.0762" rx="7.8125" ry="7.8125" style="stroke:#444444;stroke-width:0.78125;" width="421.875" x="35.9375" y="933.3008"/><text fill="#000000" font-family="Arial" font-size="18.75" lengthAdjust="spacing" textLength="390.625" x="51.5625" y="966.33">Block merge / release as needed&#171;gate&#187;</text><rect fill="#F7F7F7" height="53.0762" rx="7.8125" ry="7.8125" style="stroke:#444444;stroke-width:0.78125;" width="201.5625" x="489.0625" y="933.3008"/><text fill="#000000" font-family="Arial" font-size="18.75" lengthAdjust="spacing" textLength="170.3125" x="504.6875" y="966.33">Queue in backlog</text><polygon fill="#F7F7F7" points="418.3594,995.752,437.1094,1014.502,418.3594,1033.252,399.6094,1014.502,418.3594,995.752" style="stroke:#444444;stroke-width:0.78125;"/><rect fill="none" height="209.2285" rx="7.8125" ry="7.8125" style="stroke:#777777;stroke-width:2.34375;" width="476.5625" x="180.0781" y="1067.627"/><path d="M300.3906,1067.627 L300.3906,1078.5156 L284.7656,1094.1406 L180.0781,1094.1406 " fill="none" style="stroke:#777777;stroke-width:2.34375;"/><text fill="#111111" font-family="Arial" font-size="18.75" lengthAdjust="spacing" textLength="104.6875" x="184.7656" y="1086.5936">Remediate</text><rect fill="#F7F7F7" height="53.0762" rx="7.8125" ry="7.8125" style="stroke:#444444;stroke-width:0.78125;" width="445.3125" x="195.7031" y="1120.7031"/><text fill="#000000" font-family="Arial" font-size="18.75" lengthAdjust="spacing" textLength="414.0625" x="211.3281" y="1153.7323">Auto-PR (Dependabot) or manual upgrade</text><rect fill="#F7F7F7" height="53.0762" rx="7.8125" ry="7.8125" style="stroke:#444444;stroke-width:0.78125;" width="168.75" x="333.9844" y="1205.0293"/><text fill="#000000" font-family="Arial" font-size="18.75" lengthAdjust="spacing" textLength="137.5" x="349.6094" y="1238.0585">Test + rebuild</text><rect fill="none" height="293.5547" rx="7.8125" ry="7.8125" style="stroke:#777777;stroke-width:2.34375;" width="1190.625" x="265.2344" y="1292.4805"/><path d="M415.2344,1292.4805 L415.2344,1303.3691 L399.6094,1318.9941 L265.2344,1318.9941 " fill="none" style="stroke:#777777;stroke-width:2.34375;"/><text fill="#111111" font-family="Arial" font-size="18.75" lengthAdjust="spacing" textLength="134.375" x="269.9219" y="1311.4471">Verify &amp; Close</text><rect fill="#F7F7F7" height="53.0762" rx="7.8125" ry="7.8125" style="stroke:#444444;stroke-width:0.78125;" width="246.875" x="294.9219" y="1345.5566"/><text fill="#000000" font-family="Arial" font-size="18.75" lengthAdjust="spacing" textLength="215.625" x="310.5469" y="1378.5858">Re-scan on PR + main</text><rect fill="#F7F7F7" height="53.0762" rx="7.8125" ry="7.8125" style="stroke:#444444;stroke-width:0.78125;" width="209.375" x="313.6719" y="1429.8828"/><text fill="#000000" font-family="Arial" font-size="18.75" lengthAdjust="spacing" textLength="178.125" x="329.2969" y="1462.912">Close ticket / alert</text><path d="M587.1094,1522.0215 L587.1094,1534.4971 L555.8594,1540.7471 L587.1094,1546.9971 L587.1094,1559.4727 A0,0 0 0 0 587.1094,1559.4727 L1440.2344,1559.4727 A0,0 0 0 0 1440.2344,1559.4727 L1440.2344,1537.6465 L1424.6094,1522.0215 L587.1094,1522.0215 A0,0 0 0 0 587.1094,1522.0215 " fill="#FFF8D6" style="stroke:#C7A700;stroke-width:0.78125;"/><path d="M1424.6094,1522.0215 L1424.6094,1537.6465 L1440.2344,1537.6465 L1424.6094,1522.0215 " fill="#FFF8D6" style="stroke:#C7A700;stroke-width:0.78125;"/><text fill="#000000" font-family="Arial" font-size="18.75" lengthAdjust="spacing" textLength="134.375" x="596.4844" y="1547.2382">Key message:</text><text fill="#000000" font-family="Arial" font-size="18.75" font-weight="bold" lengthAdjust="spacing" textLength="260.9375" x="737.1094" y="1547.2382">Dependencies are code</text><text fill="#000000" font-family="Arial" font-size="18.75" lengthAdjust="spacing" textLength="412.5" x="1004.2969" y="1547.2382">&#8212; manage with the same gates and SLAs.</text><rect fill="#F7F7F7" height="53.0762" rx="7.8125" ry="7.8125" style="stroke:#444444;stroke-width:0.78125;" width="275" x="280.8594" y="1514.209"/><text fill="#000000" font-family="Arial" font-size="18.75" lengthAdjust="spacing" textLength="243.75" x="296.4844" y="1547.2382">Report MTTR by AppCode</text><ellipse cx="418.3594" cy="1634.4727" fill="none" rx="17.1875" ry="17.1875" style="stroke:#222222;stroke-width:1.5625;"/><ellipse cx="418.3594" cy="1634.4727" fill="#222222" rx="9.375" ry="9.375" style="stroke:#222222;stroke-width:1.5625;"/><line style="stroke:#444444;stroke-width:1.5625;" x1="418.3594" x2="418.3594" y1="230.5664" y2="261.8164"/><polygon fill="#444444" points="412.1094,246.1914,418.3594,261.8164,424.6094,246.1914,418.3594,252.4414" style="stroke:#444444;stroke-width:1.5625;"/><line style="stroke:#444444;stroke-width:1.5625;" x1="418.3594" x2="418.3594" y1="108.7891" y2="177.4902"/><polygon fill="#444444" points="412.1094,161.8652,418.3594,177.4902,424.6094,161.8652,418.3594,168.1152" style="stroke:#444444;stroke-width:1.5625;"/><line style="stroke:#444444;stroke-width:1.5625;" x1="418.3594" x2="418.3594" y1="455.4199" y2="486.6699"/><polygon fill="#444444" points="412.1094,471.0449,418.3594,486.6699,424.6094,471.0449,418.3594,477.2949" style="stroke:#444444;stroke-width:1.5625;"/><line style="stroke:#444444;stroke-width:1.5625;" x1="418.3594" x2="418.3594" y1="539.7461" y2="570.9961"/><polygon fill="#444444" points="412.1094,555.3711,418.3594,570.9961,424.6094,555.3711,418.3594,561.6211" style="stroke:#444444;stroke-width:1.5625;"/><line style="stroke:#444444;stroke-width:1.5625;" x1="418.3594" x2="418.3594" y1="314.8926" y2="402.3438"/><polygon fill="#444444" points="412.1094,386.7188,418.3594,402.3438,424.6094,386.7188,418.3594,392.9688" style="stroke:#444444;stroke-width:1.5625;"/><line style="stroke:#444444;stroke-width:1.5625;" x1="418.3594" x2="418.3594" y1="764.5996" y2="795.8496"/><polygon fill="#444444" points="412.1094,780.2246,418.3594,795.8496,424.6094,780.2246,418.3594,786.4746" style="stroke:#444444;stroke-width:1.5625;"/><line style="stroke:#444444;stroke-width:1.5625;" x1="337.8906" x2="246.875" y1="898.9258" y2="898.9258"/><line style="stroke:#444444;stroke-width:1.5625;" x1="246.875" x2="246.875" y1="898.9258" y2="933.3008"/><polygon fill="#444444" points="240.625,917.6758,246.875,933.3008,253.125,917.6758,246.875,923.9258" style="stroke:#444444;stroke-width:1.5625;"/><line style="stroke:#444444;stroke-width:1.5625;" x1="498.8281" x2="589.8438" y1="898.9258" y2="898.9258"/><line style="stroke:#444444;stroke-width:1.5625;" x1="589.8438" x2="589.8438" y1="898.9258" y2="933.3008"/><polygon fill="#444444" points="583.5938,917.6758,589.8438,933.3008,596.0938,917.6758,589.8438,923.9258" style="stroke:#444444;stroke-width:1.5625;"/><line style="stroke:#444444;stroke-width:1.5625;" x1="246.875" x2="246.875" y1="986.377" y2="1014.502"/><line style="stroke:#444444;stroke-width:1.5625;" x1="246.875" x2="399.6094" y1="1014.502" y2="1014.502"/><polygon fill="#444444" points="383.9844,1008.252,399.6094,1014.502,383.9844,1020.752,390.2344,1014.502" style="stroke:#444444;stroke-width:1.5625;"/><line style="stroke:#444444;stroke-width:1.5625;" x1="589.8438" x2="589.8438" y1="986.377" y2="1014.502"/><line style="stroke:#444444;stroke-width:1.5625;" x1="589.8438" x2="437.1094" y1="1014.502" y2="1014.502"/><polygon fill="#444444" points="452.7344,1008.252,437.1094,1014.502,452.7344,1020.752,446.4844,1014.502" style="stroke:#444444;stroke-width:1.5625;"/><line style="stroke:#444444;stroke-width:1.5625;" x1="418.3594" x2="418.3594" y1="848.9258" y2="880.1758"/><polygon fill="#444444" points="412.1094,864.5508,418.3594,880.1758,424.6094,864.5508,418.3594,870.8008" style="stroke:#444444;stroke-width:1.5625;"/><line style="stroke:#444444;stroke-width:1.5625;" x1="418.3594" x2="418.3594" y1="624.0723" y2="711.5234"/><polygon fill="#444444" points="412.1094,695.8984,418.3594,711.5234,424.6094,695.8984,418.3594,702.1484" style="stroke:#444444;stroke-width:1.5625;"/><line style="stroke:#444444;stroke-width:1.5625;" x1="418.3594" x2="418.3594" y1="1173.7793" y2="1205.0293"/><polygon fill="#444444" points="412.1094,1189.4043,418.3594,1205.0293,424.6094,1189.4043,418.3594,1195.6543" style="stroke:#444444;stroke-width:1.5625;"/><line style="stroke:#444444;stroke-width:1.5625;" x1="418.3594" x2="418.3594" y1="1033.252" y2="1120.7031"/><polygon fill="#444444" points="412.1094,1105.0781,418.3594,1120.7031,424.6094,1105.0781,418.3594,1111.3281" style="stroke:#444444;stroke-width:1.5625;"/><line style="stroke:#444444;stroke-width:1.5625;" x1="418.3594" x2="418.3594" y1="1398.6328" y2="1429.8828"/><polygon fill="#444444" points="412.1094,1414.2578,418.3594,1429.8828,424.6094,1414.2578,418.3594,1420.5078" style="stroke:#444444;stroke-width:1.5625;"/><line style="stroke:#444444;stroke-width:1.5625;" x1="418.3594" x2="418.3594" y1="1482.959" y2="1514.209"/><polygon fill="#444444" points="412.1094,1498.584,418.3594,1514.209,424.6094,1498.584,418.3594,1504.834" style="stroke:#444444;stroke-width:1.5625;"/><line style="stroke:#444444;stroke-width:1.5625;" x1="418.3594" x2="418.3594" y1="1258.1055" y2="1345.5566"/><polygon fill="#444444" points="412.1094,1329.9316,418.3594,1345.5566,424.6094,1329.9316,418.3594,1336.1816" style="stroke:#444444;stroke-width:1.5625;"/><line style="stroke:#444444;stroke-width:1.5625;" x1="418.3594" x2="418.3594" y1="1567.2852" y2="1617.2852"/><polygon fill="#444444" points="412.1094,1601.6602,418.3594,1617.2852,424.6094,1601.6602,418.3594,1607.9102" style="stroke:#444444;stroke-width:1.5625;"/><!--SRC=[NLFRRjD047ttLmnz02TLubQ2bxGgIfrI9DeIagY8nytks5vblRlQIoA3aFW8lf0lONmf3NrAv9avPywPitudjMMErR1bV5Sw4xN8ZJ8E3fKCcFX_TLynOGvIbr0mvOyhmaeuVtTszAM3uSPfT71-N9WxPmuz_hKYmgFI0WiMLVXWT7XWDLAhP2fv9JLNKI1CfzdmrsVCMezyuaEZS6fZhP8WWw8HQzV8OUaCH-_XxEqCrlaSNXEsHIrGymOUewAjs5Og6HguPvgLMACEaDv-dA_X53PExfjHaho1PNJMU9n1JZivey0GoiIRw3Y2atu7wPxGF0qfoL5xz2Cuo52rY-H6u6JBF0em1sBqbRJ0j00MWwbPa4PFayG7vaAIa0EaW3x1oK9wRlReJk170Z1RO40UG3m9aEWXhPcM1VhWCsNuhf2AY2_QxbjijGNCeXNq0-lhp_UGzeeW7RQYrf__KQuvqmDTvu5uTilXNk81qkMg9-YDP5iJW2bqWPOH_Ttw-btl0rX3ZZJ0A-Gx_vAFzY7J1yO7usgcv7U4Gcf1yIB8_F4cox_UP8EhFNHkd4FLgWhcoM1otg4rlSDjbonesX4FPoghP5cz7q6eK4FwZJoY1WAwRas36bs9aD6yGheIC0yQKQ2ul2o9vEggXKCAEgGFPfZy4Z4YIDsz5MNAheMMBbu8N56YX2IKGUESJZvPhY1zjcy4z0JeZf4fYBPqJ62dSaDdxLHjerJYfNEFw6JHKA1pHS4Sq5SuyNH1e0RYE2LKgNl7sYOWBtOOI6bti8j-mXeNu7wpMS6sUJAp8zCcjDakgv1ymePSyfvkDOFnU74SGUOGECsCn_3dr-zM27NrsIUxmRSFkBNHTv5VtytzDA5fQE7Rr1lx5m00]--></g></svg>