<?plantuml 1.2026.2?><svg xmlns="http://www.w3.org/2000/svg" xmlns:xlink="http://www.w3.org/1999/xlink" contentStyleType="text/css" data-diagram-type="ACTIVITY" height="1946.875px" preserveAspectRatio="none" style="width:1718px;height:1946px;background:#FFFFFF;" version="1.1" viewBox="0 0 1718 1946" width="1718.75px" zoomAndPan="magnify"><title>Seeker Agent Update - .NET Core Process</title><defs/><g><g class="title" data-source-line="1"><text fill="#000000" font-family="Arial" font-size="21.875" font-weight="bold" lengthAdjust="spacing" textLength="511.8408" x="601.6129" y="51.5549">Seeker Agent Update - .NET Core Process</text></g><ellipse cx="854.7958" cy="89.5264" fill="#5B8FF9" rx="15.625" ry="15.625" style="stroke:#222222;stroke-width:1.5625;"/><rect fill="#FAFAFA" height="234.6924" rx="7.8125" ry="7.8125" style="stroke:#BDBDBD;stroke-width:2.3438;" width="335.3912" x="687.1002" y="120.7764"/><path d="M855.7007,120.7764 L855.7007,135.3027 L840.0757,150.9277 L687.1002,150.9277" fill="none" style="stroke:#BDBDBD;stroke-width:2.3438;"/><text fill="#222222" font-family="Arial" font-size="21.875" lengthAdjust="spacing" textLength="152.9755" x="691.7877" y="142.6437">Seeker Admin</text><rect fill="#F7F7F7" height="74.9023" rx="7.8125" ry="7.8125" style="stroke:#4C4C4C;stroke-width:0.7813;" width="259.848" x="724.8718" y="177.4902"/><text fill="#222222" font-family="Arial" font-size="18.75" lengthAdjust="spacing" textLength="228.598" x="740.4968" y="210.5194">Run Connect New Agent</text><text fill="#222222" font-family="Arial" font-size="18.75" lengthAdjust="spacing" textLength="124.7955" x="740.4968" y="232.3456">for .NET Core</text><rect fill="#F7F7F7" height="53.0762" rx="7.8125" ry="7.8125" style="stroke:#4C4C4C;stroke-width:0.7813;" width="304.1412" x="702.7252" y="283.6426"/><text fill="#222222" font-family="Arial" font-size="18.75" lengthAdjust="spacing" textLength="272.8912" x="718.3502" y="316.6718">Download updated agent ZIP</text><rect fill="#FAFAFA" height="509.4971" rx="7.8125" ry="7.8125" style="stroke:#BDBDBD;stroke-width:2.3438;" width="405.2734" x="652.1591" y="371.0938"/><path d="M867.4469,371.0938 L867.4469,385.6201 L851.8219,401.2451 L652.1591,401.2451" fill="none" style="stroke:#BDBDBD;stroke-width:2.3438;"/><text fill="#222222" font-family="Arial" font-size="21.875" lengthAdjust="spacing" textLength="199.6628" x="656.8466" y="392.9611">DevOps / Platform</text><rect fill="#F7F7F7" height="74.9023" rx="7.8125" ry="7.8125" style="stroke:#4C4C4C;stroke-width:0.7813;" width="246.2982" x="731.6467" y="427.8076"/><text fill="#222222" font-family="Arial" font-size="18.75" lengthAdjust="spacing" textLength="215.0482" x="747.2717" y="460.8368">Replace existing agent</text><text fill="#222222" font-family="Arial" font-size="18.75" lengthAdjust="spacing" textLength="171.8079" x="747.2717" y="482.663">directory contents</text><rect fill="#F7F7F7" height="53.0762" rx="7.8125" ry="7.8125" style="stroke:#4C4C4C;stroke-width:0.7813;" width="374.0234" x="667.7841" y="533.96"/><text fill="#222222" font-family="Arial" font-size="18.75" lengthAdjust="spacing" textLength="342.7734" x="683.4091" y="566.9891">Verify CORECLR_ENABLE_PROFILING</text><rect fill="#F7F7F7" height="53.0762" rx="7.8125" ry="7.8125" style="stroke:#4C4C4C;stroke-width:0.7813;" width="281.5826" x="714.0045" y="618.2861"/><text fill="#222222" font-family="Arial" font-size="18.75" lengthAdjust="spacing" textLength="250.3326" x="729.6295" y="651.3153">Verify CORECLR_PROFILER</text><rect fill="#F7F7F7" height="53.0762" rx="7.8125" ry="7.8125" style="stroke:#4C4C4C;stroke-width:0.7813;" width="340.6433" x="684.4742" y="702.6123"/><text fill="#222222" font-family="Arial" font-size="18.75" lengthAdjust="spacing" textLength="309.3933" x="700.0992" y="735.6415">Verify CORECLR_PROFILER_PATH</text><rect fill="#F7F7F7" height="74.9023" rx="7.8125" ry="7.8125" style="stroke:#4C4C4C;stroke-width:0.7813;" width="295.3796" x="707.106" y="786.9385"/><text fill="#222222" font-family="Arial" font-size="18.75" lengthAdjust="spacing" textLength="264.1296" x="722.731" y="819.9677">Verify SEEKER_SERVER_URL</text><text fill="#222222" font-family="Arial" font-size="18.75" lengthAdjust="spacing" textLength="249.3622" x="722.731" y="841.7938">and SEEKER_PROJECT_KEY</text><rect fill="#FAFAFA" height="150.3662" rx="7.8125" ry="7.8125" style="stroke:#BDBDBD;stroke-width:2.3438;" width="345.636" x="681.9778" y="896.2158"/><path d="M888.3148,896.2158 L888.3148,910.7422 L872.6898,926.3672 L681.9778,926.3672" fill="none" style="stroke:#BDBDBD;stroke-width:2.3438;"/><text fill="#222222" font-family="Arial" font-size="21.875" lengthAdjust="spacing" textLength="190.712" x="686.6653" y="918.0832">Application Team</text><rect fill="#F7F7F7" height="74.9023" rx="7.8125" ry="7.8125" style="stroke:#4C4C4C;stroke-width:0.7813;" width="314.386" x="697.6028" y="952.9297"/><text fill="#222222" font-family="Arial" font-size="18.75" lengthAdjust="spacing" textLength="191.9952" x="713.2278" y="985.9589">Restart Kestrel host,</text><text fill="#222222" font-family="Arial" font-size="18.75" lengthAdjust="spacing" textLength="283.136" x="713.2278" y="1007.785">Windows service, or container</text><rect fill="#FAFAFA" height="234.6924" rx="7.8125" ry="7.8125" style="stroke:#BDBDBD;stroke-width:2.3438;" width="299.6307" x="704.9805" y="1062.207"/><path d="M939.6118,1062.207 L939.6118,1076.7334 L923.9868,1092.3584 L704.9805,1092.3584" fill="none" style="stroke:#BDBDBD;stroke-width:2.3438;"/><text fill="#222222" font-family="Arial" font-size="21.875" lengthAdjust="spacing" textLength="219.0063" x="709.668" y="1084.0744">Application Security</text><rect fill="#F7F7F7" height="53.0762" rx="7.8125" ry="7.8125" style="stroke:#4C4C4C;stroke-width:0.7813;" width="227.5482" x="741.0217" y="1118.9209"/><text fill="#222222" font-family="Arial" font-size="18.75" lengthAdjust="spacing" textLength="196.2982" x="756.6467" y="1151.9501">Run validation traffic</text><rect fill="#F7F7F7" height="74.9023" rx="7.8125" ry="7.8125" style="stroke:#4C4C4C;stroke-width:0.7813;" width="268.3807" x="720.6055" y="1203.2471"/><text fill="#222222" font-family="Arial" font-size="18.75" lengthAdjust="spacing" textLength="237.1307" x="736.2305" y="1236.2762">Review agent connection</text><text fill="#222222" font-family="Arial" font-size="18.75" lengthAdjust="spacing" textLength="196.9849" x="736.2305" y="1258.1024">and reported version</text><polygon fill="#FFF6E5" points="716.6119,1328.1494,992.9798,1328.1494,1011.7298,1346.8994,992.9798,1365.6494,716.6119,1365.6494,697.8619,1346.8994,716.6119,1328.1494" style="stroke:#B26B00;stroke-width:0.7813;"/><text fill="#222222" font-family="Arial" font-size="17.1875" lengthAdjust="spacing" textLength="276.368" x="716.6119" y="1352.8496">Profiler loaded and data visible?</text><text fill="#000000" font-family="Arial" font-size="17.1875" lengthAdjust="spacing" textLength="29.7005" x="668.1614" y="1342.8459">yes</text><text fill="#000000" font-family="Arial" font-size="17.1875" lengthAdjust="spacing" textLength="21.4088" x="1011.7298" y="1342.8459">no</text><rect fill="#FAFAFA" height="141.04" rx="7.8125" ry="7.8125" style="stroke:#BDBDBD;stroke-width:2.3438;" width="314.9109" x="519.1788" y="1381.2744"/><path d="M753.8101,1381.2744 L753.8101,1395.8008 L738.1851,1411.4258 L519.1788,1411.4258" fill="none" style="stroke:#BDBDBD;stroke-width:2.3438;"/><text fill="#222222" font-family="Arial" font-size="21.875" lengthAdjust="spacing" textLength="219.0063" x="523.8663" y="1403.1418">Application Security</text><rect fill="#F7F7F7" height="53.0762" rx="7.8125" ry="7.8125" style="stroke:#4C4C4C;stroke-width:0.7813;" width="283.6609" x="534.8038" y="1437.9883"/><text fill="#222222" font-family="Arial" font-size="18.75" lengthAdjust="spacing" textLength="252.4109" x="550.4288" y="1471.0175">Record evidence and close</text><ellipse cx="676.6342" cy="1580.1758" fill="none" rx="17.1875" ry="17.1875" style="stroke:#222222;stroke-width:1.5625;"/><ellipse cx="676.6342" cy="1580.1758" fill="#222222" rx="9.375" ry="9.375" style="stroke:#222222;stroke-width:1.5625;"/><rect fill="#FAFAFA" height="244.1162" rx="7.8125" ry="7.8125" style="stroke:#BDBDBD;stroke-width:2.3438;" width="335.2356" x="865.3397" y="1381.2744"/><path d="M1080.6274,1381.2744 L1080.6274,1395.8008 L1065.0024,1411.4258 L865.3397,1411.4258" fill="none" style="stroke:#BDBDBD;stroke-width:2.3438;"/><text fill="#222222" font-family="Arial" font-size="21.875" lengthAdjust="spacing" textLength="199.6628" x="870.0272" y="1403.1418">DevOps / Platform</text><rect fill="#F7F7F7" height="74.9023" rx="7.8125" ry="7.8125" style="stroke:#4C4C4C;stroke-width:0.7813;" width="303.9856" x="880.9647" y="1437.9883"/><text fill="#222222" font-family="Arial" font-size="18.75" lengthAdjust="spacing" textLength="272.7356" x="896.5897" y="1471.0175">Restore prior agent directory</text><text fill="#222222" font-family="Arial" font-size="18.75" lengthAdjust="spacing" textLength="208.136" x="896.5897" y="1492.8436">or prior image version</text><rect fill="#F7F7F7" height="53.0762" rx="7.8125" ry="7.8125" style="stroke:#4C4C4C;stroke-width:0.7813;" width="190.8905" x="937.5122" y="1553.5645"/><text fill="#222222" font-family="Arial" font-size="18.75" lengthAdjust="spacing" textLength="159.6405" x="953.1372" y="1586.5936">Restart workload</text><ellipse cx="1032.9575" cy="1673.8281" fill="none" rx="17.1875" ry="17.1875" style="stroke:#222222;stroke-width:1.5625;"/><ellipse cx="1032.9575" cy="1673.8281" fill="#222222" rx="9.375" ry="9.375" style="stroke:#222222;stroke-width:1.5625;"/><line style="stroke:#000000;stroke-width:1.5625;" x1="854.7958" x2="854.7958" y1="252.3926" y2="283.6426"/><polygon fill="#000000" points="848.5458,268.0176,854.7958,283.6426,861.0458,268.0176,854.7958,274.2676" style="stroke:#000000;stroke-width:1.5625;"/><line style="stroke:#000000;stroke-width:1.5625;" x1="854.7958" x2="854.7958" y1="105.1514" y2="177.4902"/><polygon fill="#000000" points="848.5458,161.8652,854.7958,177.4902,861.0458,161.8652,854.7958,168.1152" style="stroke:#000000;stroke-width:1.5625;"/><line style="stroke:#000000;stroke-width:1.5625;" x1="854.7958" x2="854.7958" y1="502.71" y2="533.96"/><polygon fill="#000000" points="848.5458,518.335,854.7958,533.96,861.0458,518.335,854.7958,524.585" style="stroke:#000000;stroke-width:1.5625;"/><line style="stroke:#000000;stroke-width:1.5625;" x1="854.7958" x2="854.7958" y1="587.0361" y2="618.2861"/><polygon fill="#000000" points="848.5458,602.6611,854.7958,618.2861,861.0458,602.6611,854.7958,608.9111" style="stroke:#000000;stroke-width:1.5625;"/><line style="stroke:#000000;stroke-width:1.5625;" x1="854.7958" x2="854.7958" y1="671.3623" y2="702.6123"/><polygon fill="#000000" points="848.5458,686.9873,854.7958,702.6123,861.0458,686.9873,854.7958,693.2373" style="stroke:#000000;stroke-width:1.5625;"/><line style="stroke:#000000;stroke-width:1.5625;" x1="854.7958" x2="854.7958" y1="755.6885" y2="786.9385"/><polygon fill="#000000" points="848.5458,771.3135,854.7958,786.9385,861.0458,771.3135,854.7958,777.5635" style="stroke:#000000;stroke-width:1.5625;"/><line style="stroke:#000000;stroke-width:1.5625;" x1="854.7958" x2="854.7958" y1="336.7188" y2="427.8076"/><polygon fill="#000000" points="848.5458,412.1826,854.7958,427.8076,861.0458,412.1826,854.7958,418.4326" style="stroke:#000000;stroke-width:1.5625;"/><line style="stroke:#000000;stroke-width:1.5625;" x1="854.7958" x2="854.7958" y1="861.8408" y2="952.9297"/><polygon fill="#000000" points="848.5458,937.3047,854.7958,952.9297,861.0458,937.3047,854.7958,943.5547" style="stroke:#000000;stroke-width:1.5625;"/><line style="stroke:#000000;stroke-width:1.5625;" x1="854.7958" x2="854.7958" y1="1171.9971" y2="1203.2471"/><polygon fill="#000000" points="848.5458,1187.6221,854.7958,1203.2471,861.0458,1187.6221,854.7958,1193.8721" style="stroke:#000000;stroke-width:1.5625;"/><line style="stroke:#000000;stroke-width:1.5625;" x1="854.7958" x2="854.7958" y1="1027.832" y2="1118.9209"/><polygon fill="#000000" points="848.5458,1103.2959,854.7958,1118.9209,861.0458,1103.2959,854.7958,1109.5459" style="stroke:#000000;stroke-width:1.5625;"/><line style="stroke:#000000;stroke-width:1.5625;" x1="676.6342" x2="676.6342" y1="1491.0645" y2="1562.9883"/><polygon fill="#000000" points="670.3842,1547.3633,676.6342,1562.9883,682.8842,1547.3633,676.6342,1553.6133" style="stroke:#000000;stroke-width:1.5625;"/><line style="stroke:#000000;stroke-width:1.5625;" x1="1032.9575" x2="1032.9575" y1="1512.8906" y2="1553.5645"/><polygon fill="#000000" points="1026.7075,1537.9395,1032.9575,1553.5645,1039.2075,1537.9395,1032.9575,1544.1895" style="stroke:#000000;stroke-width:1.5625;"/><line style="stroke:#000000;stroke-width:1.5625;" x1="1032.9575" x2="1032.9575" y1="1606.6406" y2="1656.6406"/><polygon fill="#000000" points="1026.7075,1641.0156,1032.9575,1656.6406,1039.2075,1641.0156,1032.9575,1647.2656" style="stroke:#000000;stroke-width:1.5625;"/><line style="stroke:#000000;stroke-width:1.5625;" x1="697.8619" x2="676.6342" y1="1346.8994" y2="1346.8994"/><line style="stroke:#000000;stroke-width:1.5625;" x1="676.6342" x2="676.6342" y1="1346.8994" y2="1437.9883"/><polygon fill="#000000" points="670.3842,1422.3633,676.6342,1437.9883,682.8842,1422.3633,676.6342,1428.6133" style="stroke:#000000;stroke-width:1.5625;"/><line style="stroke:#000000;stroke-width:1.5625;" x1="1011.7298" x2="1032.9575" y1="1346.8994" y2="1346.8994"/><line style="stroke:#000000;stroke-width:1.5625;" x1="1032.9575" x2="1032.9575" y1="1346.8994" y2="1437.9883"/><polygon fill="#000000" points="1026.7075,1422.3633,1032.9575,1437.9883,1039.2075,1422.3633,1032.9575,1428.6133" style="stroke:#000000;stroke-width:1.5625;"/><line style="stroke:#000000;stroke-width:1.5625;" x1="854.7958" x2="854.7958" y1="1278.1494" y2="1328.1494"/><polygon fill="#000000" points="848.5458,1312.5244,854.7958,1328.1494,861.0458,1312.5244,854.7958,1318.7744" style="stroke:#000000;stroke-width:1.5625;"/><g class="legend" data-source-line="28"><rect fill="none" height="200.1221" rx="7.8125" ry="7.8125" style="stroke:#000000;stroke-width:1.5625;" width="1646.3165" x="34.375" y="1708.2031"/><text fill="#000000" font-family="Arial" font-size="21.875" font-weight="bold" lengthAdjust="spacing" textLength="60.434" x="49.8032" y="1739.4455">Field</text><text fill="#000000" font-family="Arial" font-size="21.875" font-weight="bold" lengthAdjust="spacing" textLength="69.5984" x="253.8879" y="1739.4455">Value</text><text fill="#000000" font-family="Arial" font-size="21.875" lengthAdjust="spacing" textLength="83.847" x="49.1409" y="1764.9094">Process</text><text fill="#000000" font-family="Arial" font-size="21.875" lengthAdjust="spacing" textLength="841.7389" x="253.2257" y="1764.9094">.NET Core Seeker agent refresh for host, container, or Kubernetes workloads</text><text fill="#000000" font-family="Arial" font-size="21.875" lengthAdjust="spacing" textLength="190.1779" x="49.1409" y="1790.3732">Primary message</text><text fill="#000000" font-family="Arial" font-size="21.875" lengthAdjust="spacing" textLength="1412.6999" x="253.2257" y="1790.3732">For .NET Core, replace the agent directory, preserve CORECLR_* and SEEKER_* settings, restart the host, and validate reporting.</text><text fill="#000000" font-family="Arial" font-size="21.875" lengthAdjust="spacing" textLength="78.656" x="49.1409" y="1815.8371">Trigger</text><text fill="#000000" font-family="Arial" font-size="21.875" lengthAdjust="spacing" textLength="672.1115" x="253.2257" y="1815.8371">.NET Core application included in Seeker agent refresh scope</text><text fill="#000000" font-family="Arial" font-size="21.875" lengthAdjust="spacing" textLength="142.7643" x="49.1409" y="1841.301">Entry criteria</text><text fill="#000000" font-family="Arial" font-size="21.875" lengthAdjust="spacing" textLength="885.6277" x="253.2257" y="1841.301">Server upgraded; profiler-based attachment is defined by environment variables</text><text fill="#000000" font-family="Arial" font-size="21.875" lengthAdjust="spacing" textLength="125.9842" x="49.1409" y="1866.7648">Exit criteria</text><text fill="#000000" font-family="Arial" font-size="21.875" lengthAdjust="spacing" textLength="852.0569" x="253.2257" y="1866.7648">Host or container restarted with healthy profiler loading and Seeker reporting</text><text fill="#000000" font-family="Arial" font-size="21.875" lengthAdjust="spacing" textLength="146.8765" x="49.1409" y="1892.2287">Key evidence</text><text fill="#000000" font-family="Arial" font-size="21.875" lengthAdjust="spacing" textLength="1252.0981" x="253.2257" y="1892.2287">Agent ZIP deployment log, environment-variable review, container or service restart log, Seeker validation results</text><line style="stroke:#000000;stroke-width:1.5625;" x1="42.1875" x2="1672.879" y1="1719.1406" y2="1719.1406"/><line style="stroke:#000000;stroke-width:1.5625;" x1="42.1875" x2="1672.879" y1="1744.6045" y2="1744.6045"/><line style="stroke:#000000;stroke-width:1.5625;" x1="42.1875" x2="1672.879" y1="1770.0684" y2="1770.0684"/><line style="stroke:#000000;stroke-width:1.5625;" x1="42.1875" x2="1672.879" y1="1795.5322" y2="1795.5322"/><line style="stroke:#000000;stroke-width:1.5625;" x1="42.1875" x2="1672.879" y1="1820.9961" y2="1820.9961"/><line style="stroke:#000000;stroke-width:1.5625;" x1="42.1875" x2="1672.879" y1="1846.46" y2="1846.46"/><line style="stroke:#000000;stroke-width:1.5625;" x1="42.1875" x2="1672.879" y1="1871.9238" y2="1871.9238"/><line style="stroke:#000000;stroke-width:1.5625;" x1="42.1875" x2="1672.879" y1="1897.3877" y2="1897.3877"/><line style="stroke:#000000;stroke-width:1.5625;" x1="42.1875" x2="42.1875" y1="1719.1406" y2="1897.3877"/><line style="stroke:#000000;stroke-width:1.5625;" x1="246.2723" x2="246.2723" y1="1719.1406" y2="1897.3877"/><line style="stroke:#000000;stroke-width:1.5625;" x1="1672.879" x2="1672.879" y1="1719.1406" y2="1897.3877"/></g><?plantuml-src ZLLjRzis4FwkNt7elgI3qwN5qhKBXi4lqfewS0pRpR0XG42B9ui8JGeaRLTO-jzxf6IPyRok5lnsHpttyZntiez2LSomDInP_hWoUgFuK4jjO5SAXudj_BPaNE-4Ma71f8qzl1Bm-l8YiWION1k51bx7ZhunUjVW3oG5Z5mZBDX6kamhDs5hfAE2oSG99n7cY8y4rL-XSl2fuimXdCEhIRg0eJO8KwDpjFQxils_Eld9F0v-bZkn5Qw6VnA0mH7O3zal_l8URJYQrlhpq5zazQYjxKruaMqas5eh_c-eB7kRNaO7OiJ1cxU3Yuk3ynJmt36pDruEtcNPUpAc7Nvd6Z3ptFGbAfS-YGEXLLFlinn6_ZhPXRw_JjOROojDF9vkusNsFikE0tOPdu8j1KV0TKNCSBIv4PNFEaaaaceu6B4gNVBq6sG29GVwSSVa1k4fUThB1vuYIRMIOq5o1Wk3jeI28fRQkXxab04JfEyUa6syMIA9tQ65dJQFKZDkMsInPgQ6DS4J54N8w7WNfKV85Sq1WYknZSM5mTnfK_UWeg1ejWZ3srawl9az_0YCIfcdwJZrVomwHnAt7iPwiWDCaw0_k6LIX5cXADhuewz2LWjgnegAY-jbLIL5pWBJGkLomv7JZzDziBckcjQbob5vr6s7D2U4EFS96zXKAyC8uegAq8MGQCwNp18aSuxbvTgZ2Uk7ZPh8OLa3ggqmMWNFbX7OKcBJnFIpS7683rIWxth7mRvy0je9LqA9JBgoxaA39yJlWj2zfg2k9I7462c1BIb8vPwaPj7yVJsb12kfwv2KrAjUdENvFal2sWhSHQBmsNdcH8uTDU7sDdXBZEyrkMdR-499fOrMaoG9joJ9OVXUx5SWNmlr8WpDhxED8kwK8hd017TDrlUgY1LsvG-Ez4xv5X0hNWwyPPFgkwB1YQECS7jRMVW9ff8v0bhlGxKonS_2XgQn9bOdrb0xcMm8U4TC5NKdstJI7zoa3zFPRNPzSptvuzIPnfdElkLxcFON7-83xIJCqzaTVNsQtTohQ43eje_fSF4mJlywhhCVgNs1x51cmzMOlWtAPfJkrPz2qSF4xYdjFHFVjw3dc6z8jtL4M4IzCwmeH7xLHFOIQed96rBfJ5DFerNYZIRBaZM450MSJME1UrxfC84ps0ehI9c_l_GRGS5PZVObXVckD4CszF3cXudmkBdKDiZf2xsjqrM2z625CwMFaFz3Gsrx_QwfZD3cUDtTAx8r7jgPj2kxOhjxFJNx_Vey4n9YaNm5?></g></svg>