<?plantuml 1.2026.2?><svg xmlns="http://www.w3.org/2000/svg" xmlns:xlink="http://www.w3.org/1999/xlink" contentStyleType="text/css" data-diagram-type="ACTIVITY" height="1503.125px" preserveAspectRatio="none" style="width:1173px;height:1503px;background:#FFFFFF;" version="1.1" viewBox="0 0 1173 1503" width="1173.4375px" zoomAndPan="magnify"><title>AppSec Process 05: Secret Scanning Response (GHAS)</title><defs/><g><g class="title" data-source-line="2"><text fill="#000000" font-family="Arial" font-size="25" font-weight="bold" lengthAdjust="spacing" textLength="769.2993" x="200.3296" y="54.4556">AppSec Process 05: Secret Scanning Response (GHAS)</text></g><ellipse cx="372.5388" cy="93.1641" fill="#222222" rx="15.625" ry="15.625" style="stroke:#222222;stroke-width:1.5625;"/><rect fill="none" height="209.2285" rx="7.8125" ry="7.8125" style="stroke:#777777;stroke-width:2.3438;" width="417.5323" x="163.7726" y="124.4141"/><path d="M241.9189,124.4141 L241.9189,135.3027 L226.2939,150.9277 L163.7726,150.9277" fill="none" style="stroke:#777777;stroke-width:2.3438;"/><text fill="#111111" font-family="Arial" font-size="18.75" lengthAdjust="spacing" textLength="62.5214" x="168.4601" y="143.3807">Detect</text><rect fill="#F7F7F7" height="53.0762" rx="7.8125" ry="7.8125" style="stroke:#444444;stroke-width:0.7813;" width="288.3209" x="228.3783" y="177.4902"/><text fill="#000000" font-family="Arial" font-size="18.75" lengthAdjust="spacing" textLength="257.0709" x="244.0033" y="210.5194">GHAS secret scanning alert</text><rect fill="#F7F7F7" height="53.0762" rx="7.8125" ry="7.8125" style="stroke:#444444;stroke-width:0.7813;" width="386.2823" x="179.3976" y="261.8164"/><text fill="#000000" font-family="Arial" font-size="18.75" lengthAdjust="spacing" textLength="355.0323" x="195.0226" y="294.8456">Identify AppCode (repo/app mapping)</text><rect fill="none" height="293.5547" rx="7.8125" ry="7.8125" style="stroke:#777777;stroke-width:2.3438;" width="412.9913" x="166.0431" y="349.2676"/><path d="M254.0497,349.2676 L254.0497,360.1563 L238.4247,375.7813 L166.0431,375.7813" fill="none" style="stroke:#777777;stroke-width:2.3438;"/><text fill="#111111" font-family="Arial" font-size="18.75" lengthAdjust="spacing" textLength="72.3816" x="170.7306" y="368.2343">Contain</text><rect fill="#F7F7F7" height="53.0762" rx="7.8125" ry="7.8125" style="stroke:#444444;stroke-width:0.7813;" width="228.1708" x="258.4534" y="402.3438"/><text fill="#000000" font-family="Arial" font-size="18.75" lengthAdjust="spacing" textLength="196.9208" x="274.0784" y="435.3729">Revoke/rotate secret</text><rect fill="#F7F7F7" height="53.0762" rx="7.8125" ry="7.8125" style="stroke:#444444;stroke-width:0.7813;" width="381.7413" x="181.6681" y="486.6699"/><text fill="#000000" font-family="Arial" font-size="18.75" lengthAdjust="spacing" textLength="350.4913" x="197.2931" y="519.6991">Invalidate sessions/tokens as needed</text><rect fill="#F7F7F7" height="53.0762" rx="7.8125" ry="7.8125" style="stroke:#444444;stroke-width:0.7813;" width="365.6555" x="189.711" y="570.9961"/><text fill="#000000" font-family="Arial" font-size="18.75" lengthAdjust="spacing" textLength="334.4055" x="205.336" y="604.0253">Remove secret from code + history</text><rect fill="none" height="224.9023" rx="7.8125" ry="7.8125" style="stroke:#777777;stroke-width:2.3438;" width="685.8948" x="17.1875" y="658.4473"/><path d="M96.2494,658.4473 L96.2494,669.3359 L80.6244,684.9609 L17.1875,684.9609" fill="none" style="stroke:#777777;stroke-width:2.3438;"/><text fill="#111111" font-family="Arial" font-size="18.75" lengthAdjust="spacing" textLength="63.4369" x="21.875" y="677.4139">Assess</text><polygon fill="#F7F7F7" points="211.8271,711.5234,533.2504,711.5234,552.0004,730.2734,533.2504,749.0234,211.8271,749.0234,193.0771,730.2734,211.8271,711.5234" style="stroke:#444444;stroke-width:0.7813;"/><text fill="#000000" font-family="Arial" font-size="18.75" lengthAdjust="spacing" textLength="321.4233" x="211.8271" y="736.7645">Exposed in public or broad scope?</text><text fill="#000000" font-family="Arial" font-size="18.75" lengthAdjust="spacing" textLength="32.7576" x="160.3195" y="725.8514">Yes</text><text fill="#000000" font-family="Arial" font-size="18.75" lengthAdjust="spacing" textLength="25.4974" x="552.0004" y="725.8514">No</text><rect fill="#F7F7F7" height="53.0762" rx="7.8125" ry="7.8125" style="stroke:#444444;stroke-width:0.7813;" width="283.0292" x="35.9375" y="764.6484"/><text fill="#000000" font-family="Arial" font-size="18.75" lengthAdjust="spacing" textLength="251.7792" x="51.5625" y="797.6776">Escalate incident response</text><rect fill="#F7F7F7" height="53.0762" rx="7.8125" ry="7.8125" style="stroke:#444444;stroke-width:0.7813;" width="208.4137" x="463.4186" y="764.6484"/><text fill="#000000" font-family="Arial" font-size="18.75" lengthAdjust="spacing" textLength="177.1637" x="479.0436" y="797.6776">Standard response</text><polygon fill="#F7F7F7" points="372.5388,827.0996,391.2888,845.8496,372.5388,864.5996,353.7888,845.8496,372.5388,827.0996" style="stroke:#444444;stroke-width:0.7813;"/><rect fill="none" height="293.5547" rx="7.8125" ry="7.8125" style="stroke:#777777;stroke-width:2.3438;" width="448.4772" x="148.3002" y="898.9746"/><path d="M236.3434,898.9746 L236.3434,909.8633 L220.7184,925.4883 L148.3002,925.4883" fill="none" style="stroke:#777777;stroke-width:2.3438;"/><text fill="#111111" font-family="Arial" font-size="18.75" lengthAdjust="spacing" textLength="72.4182" x="152.9877" y="917.9413">Prevent</text><rect fill="#F7F7F7" height="53.0762" rx="7.8125" ry="7.8125" style="stroke:#444444;stroke-width:0.7813;" width="349.1943" x="197.9416" y="952.0508"/><text fill="#000000" font-family="Arial" font-size="18.75" lengthAdjust="spacing" textLength="317.9443" x="213.5666" y="985.08">Add secret to allow/deny patterns</text><rect fill="#F7F7F7" height="53.0762" rx="7.8125" ry="7.8125" style="stroke:#444444;stroke-width:0.7813;" width="417.2272" x="163.9252" y="1036.377"/><text fill="#000000" font-family="Arial" font-size="18.75" lengthAdjust="spacing" textLength="385.9772" x="179.5502" y="1069.4061">Add pre-commit hooks / scanning checks</text><rect fill="#F7F7F7" height="53.0762" rx="7.8125" ry="7.8125" style="stroke:#444444;stroke-width:0.7813;" width="291.0858" x="226.9958" y="1120.7031"/><text fill="#000000" font-family="Arial" font-size="18.75" lengthAdjust="spacing" textLength="259.8358" x="242.6208" y="1153.7323">Update developer guidance</text><rect fill="none" height="212.3291" rx="7.8125" ry="7.8125" style="stroke:#777777;stroke-width:2.3438;" width="994.6747" x="162.7838" y="1208.1543"/><path d="M229.4861,1208.1543 L229.4861,1219.043 L213.8611,1234.668 L162.7838,1234.668" fill="none" style="stroke:#777777;stroke-width:2.3438;"/><text fill="#111111" font-family="Arial" font-size="18.75" lengthAdjust="spacing" textLength="51.0773" x="167.4713" y="1227.121">Close</text><rect fill="#F7F7F7" height="53.0762" rx="7.8125" ry="7.8125" style="stroke:#444444;stroke-width:0.7813;" width="294.7571" x="225.1602" y="1261.2305"/><text fill="#000000" font-family="Arial" font-size="18.75" lengthAdjust="spacing" textLength="263.5071" x="240.7852" y="1294.2596">Confirm rotation + no reuse</text><path d="M597.9187,1342.4561 L597.9187,1365.8447 L566.6687,1372.0947 L597.9187,1378.3447 L597.9187,1401.7334 A0,0 0 0 0 597.9187,1401.7334 L1141.8335,1401.7334 A0,0 0 0 0 1141.8335,1401.7334 L1141.8335,1358.0811 L1126.2085,1342.4561 L597.9187,1342.4561 A0,0 0 0 0 597.9187,1342.4561" fill="#FFF8D6" style="stroke:#C7A700;stroke-width:0.7813;"/><path d="M1126.2085,1342.4561 L1126.2085,1358.0811 L1141.8335,1358.0811 L1126.2085,1342.4561" fill="#FFF8D6" style="stroke:#C7A700;stroke-width:0.7813;"/><text fill="#000000" font-family="Arial" font-size="18.75" lengthAdjust="spacing" textLength="131.4697" x="607.2937" y="1367.6727">Key message:</text><text fill="#000000" font-family="Arial" font-size="18.75" font-weight="bold" lengthAdjust="spacing" textLength="254.8096" x="744.7235" y="1367.6727">Contain first, then learn</text><text fill="#000000" font-family="Arial" font-size="18.75" lengthAdjust="spacing" textLength="5.9601" x="999.5331" y="1367.6727">.</text><text fill="#000000" font-family="Arial" font-size="18.75" lengthAdjust="spacing" textLength="511.1023" x="607.2937" y="1389.4989">AppCode ensures notifications reach the right owners.</text><rect fill="#F7F7F7" height="53.0762" rx="7.8125" ry="7.8125" style="stroke:#444444;stroke-width:0.7813;" width="388.2599" x="178.4088" y="1345.5566"/><text fill="#000000" font-family="Arial" font-size="18.75" lengthAdjust="spacing" textLength="357.0099" x="194.0338" y="1378.5858">Close alert + track metrics (AppCode)</text><ellipse cx="372.5388" cy="1468.9209" fill="none" rx="17.1875" ry="17.1875" style="stroke:#222222;stroke-width:1.5625;"/><ellipse cx="372.5388" cy="1468.9209" fill="#222222" rx="9.375" ry="9.375" style="stroke:#222222;stroke-width:1.5625;"/><line style="stroke:#444444;stroke-width:1.5625;" x1="372.5388" x2="372.5388" y1="230.5664" y2="261.8164"/><polygon fill="#444444" points="366.2888,246.1914,372.5388,261.8164,378.7888,246.1914,372.5388,252.4414" style="stroke:#444444;stroke-width:1.5625;"/><line style="stroke:#444444;stroke-width:1.5625;" x1="372.5388" x2="372.5388" y1="108.7891" y2="177.4902"/><polygon fill="#444444" points="366.2888,161.8652,372.5388,177.4902,378.7888,161.8652,372.5388,168.1152" style="stroke:#444444;stroke-width:1.5625;"/><line style="stroke:#444444;stroke-width:1.5625;" x1="372.5388" x2="372.5388" y1="455.4199" y2="486.6699"/><polygon fill="#444444" points="366.2888,471.0449,372.5388,486.6699,378.7888,471.0449,372.5388,477.2949" style="stroke:#444444;stroke-width:1.5625;"/><line style="stroke:#444444;stroke-width:1.5625;" x1="372.5388" x2="372.5388" y1="539.7461" y2="570.9961"/><polygon fill="#444444" points="366.2888,555.3711,372.5388,570.9961,378.7888,555.3711,372.5388,561.6211" style="stroke:#444444;stroke-width:1.5625;"/><line style="stroke:#444444;stroke-width:1.5625;" x1="372.5388" x2="372.5388" y1="314.8926" y2="402.3438"/><polygon fill="#444444" points="366.2888,386.7188,372.5388,402.3438,378.7888,386.7188,372.5388,392.9688" style="stroke:#444444;stroke-width:1.5625;"/><line style="stroke:#444444;stroke-width:1.5625;" x1="193.0771" x2="177.4521" y1="730.2734" y2="730.2734"/><line style="stroke:#444444;stroke-width:1.5625;" x1="177.4521" x2="177.4521" y1="730.2734" y2="764.6484"/><polygon fill="#444444" points="171.2021,749.0234,177.4521,764.6484,183.7021,749.0234,177.4521,755.2734" style="stroke:#444444;stroke-width:1.5625;"/><line style="stroke:#444444;stroke-width:1.5625;" x1="552.0004" x2="567.6254" y1="730.2734" y2="730.2734"/><line style="stroke:#444444;stroke-width:1.5625;" x1="567.6254" x2="567.6254" y1="730.2734" y2="764.6484"/><polygon fill="#444444" points="561.3754,749.0234,567.6254,764.6484,573.8754,749.0234,567.6254,755.2734" style="stroke:#444444;stroke-width:1.5625;"/><line style="stroke:#444444;stroke-width:1.5625;" x1="177.4521" x2="177.4521" y1="817.7246" y2="845.8496"/><line style="stroke:#444444;stroke-width:1.5625;" x1="177.4521" x2="353.7888" y1="845.8496" y2="845.8496"/><polygon fill="#444444" points="338.1638,839.5996,353.7888,845.8496,338.1638,852.0996,344.4138,845.8496" style="stroke:#444444;stroke-width:1.5625;"/><line style="stroke:#444444;stroke-width:1.5625;" x1="567.6254" x2="567.6254" y1="817.7246" y2="845.8496"/><line style="stroke:#444444;stroke-width:1.5625;" x1="567.6254" x2="391.2888" y1="845.8496" y2="845.8496"/><polygon fill="#444444" points="406.9138,839.5996,391.2888,845.8496,406.9138,852.0996,400.6638,845.8496" style="stroke:#444444;stroke-width:1.5625;"/><line style="stroke:#444444;stroke-width:1.5625;" x1="372.5388" x2="372.5388" y1="624.0723" y2="711.5234"/><polygon fill="#444444" points="366.2888,695.8984,372.5388,711.5234,378.7888,695.8984,372.5388,702.1484" style="stroke:#444444;stroke-width:1.5625;"/><line style="stroke:#444444;stroke-width:1.5625;" x1="372.5388" x2="372.5388" y1="1005.127" y2="1036.377"/><polygon fill="#444444" points="366.2888,1020.752,372.5388,1036.377,378.7888,1020.752,372.5388,1027.002" style="stroke:#444444;stroke-width:1.5625;"/><line style="stroke:#444444;stroke-width:1.5625;" x1="372.5388" x2="372.5388" y1="1089.4531" y2="1120.7031"/><polygon fill="#444444" points="366.2888,1105.0781,372.5388,1120.7031,378.7888,1105.0781,372.5388,1111.3281" style="stroke:#444444;stroke-width:1.5625;"/><line style="stroke:#444444;stroke-width:1.5625;" x1="372.5388" x2="372.5388" y1="864.5996" y2="952.0508"/><polygon fill="#444444" points="366.2888,936.4258,372.5388,952.0508,378.7888,936.4258,372.5388,942.6758" style="stroke:#444444;stroke-width:1.5625;"/><line style="stroke:#444444;stroke-width:1.5625;" x1="372.5388" x2="372.5388" y1="1314.3066" y2="1345.5566"/><polygon fill="#444444" points="366.2888,1329.9316,372.5388,1345.5566,378.7888,1329.9316,372.5388,1336.1816" style="stroke:#444444;stroke-width:1.5625;"/><line style="stroke:#444444;stroke-width:1.5625;" x1="372.5388" x2="372.5388" y1="1173.7793" y2="1261.2305"/><polygon fill="#444444" points="366.2888,1245.6055,372.5388,1261.2305,378.7888,1245.6055,372.5388,1251.8555" style="stroke:#444444;stroke-width:1.5625;"/><line style="stroke:#444444;stroke-width:1.5625;" x1="372.5388" x2="372.5388" y1="1398.6328" y2="1451.7334"/><polygon fill="#444444" points="366.2888,1436.1084,372.5388,1451.7334,378.7888,1436.1084,372.5388,1442.3584" style="stroke:#444444;stroke-width:1.5625;"/><?plantuml-src PLDDRnf13BtFht1pAT06aaCkSAXeadweKXG5zT3ZCEDbHyoEHsCl55Nzx_MoIqBI2uBniz_pyuEt8MLRR0DhwxQRGctojnIfmBuEWeQVwrnRJ_kGDb3PoESLdmDStroTlHp7E2e92roV5vQbqBwV_paguLdf3YlRHlb2IHviWmeDDfft8RdOUeJfT3PyvPdDcT5TiXmYJdFRH2D1ehRal487ZuKSCiFLpHpqTq61bRCfTTgVa3CbHXXz_RPSZOrv3uzjoSGuXoURWuy7S2h1XWJQwJ69oW3yhP2s8Eo3rE0YsWAqr_Mu3Xb6IdnB7iTWauU26QtOjGeg95O2fQanBBQ8CRghQjKdkBX3GISNyCS0p3irmBrOFecr4OiiklBtev3g00CJZ9I5EYEWqGy5ZnVcxwlnj_qMm_mdtD4MPqT1E13razFEnk3xLsPjvPaeD35OXeHgWL_q4nhQdLgXAjIeKQha0zI1XShXhO0bTmDx_b31wBxp43seixbTn-10Kx0kPBrkJ1a_ZK5gJ33wXJpM7kMyLojY9qrF7peBrDp-VfqaZDqT7sW0hqJTjyM_nYGVgZV27WlkTDRWpDBxqr92Qdca_Kof3f2j29R4YnCg5xnqr3H1e2RQCinUJkLgTDiU-ZCVtVHA4dMj0fjM_KqE_xjGL3y65NgjAfJcEJ5gQoBTfEtNc1-nVI2q94N_Ez2WbE3u9Nv7WaHANiAc5lC33mfYjXjDzsGo90AKYELZRtQNv3IPJCqfM7fupRbUdZHlmHt5i0gnhkuw-ib3zgT6xUsGsEMRyZy0?></g></svg>