<?xml version="1.0" encoding="us-ascii" standalone="no"?><svg xmlns="http://www.w3.org/2000/svg" xmlns:xlink="http://www.w3.org/1999/xlink" contentStyleType="text/css" height="1503.125px" preserveAspectRatio="none" style="width:1220px;height:1503px;background:#FFFFFF;" version="1.1" viewBox="0 0 1220 1503" width="1220.3125px" zoomAndPan="magnify"><defs/><g><text fill="#000000" font-family="Arial" font-size="25" font-weight="bold" lengthAdjust="spacing" textLength="764.0625" x="226.1719" y="54.4556">AppSec Process 05: Secret Scanning Response (GHAS)</text><ellipse cx="387.5" cy="93.1641" fill="#222222" rx="15.625" ry="15.625" style="stroke:#222222;stroke-width:1.5625;"/><rect fill="none" height="209.2285" rx="7.8125" ry="7.8125" style="stroke:#777777;stroke-width:2.34375;" width="428.125" x="173.4375" y="124.4141"/><path d="M254.6875,124.4141 L254.6875,135.3027 L239.0625,150.9277 L173.4375,150.9277 " fill="none" style="stroke:#777777;stroke-width:2.34375;"/><text fill="#111111" font-family="Arial" font-size="18.75" lengthAdjust="spacing" textLength="65.625" x="178.125" y="143.3807">Detect</text><rect fill="#F7F7F7" height="53.0762" rx="7.8125" ry="7.8125" style="stroke:#444444;stroke-width:0.78125;" width="300" x="237.5" y="177.4902"/><text fill="#000000" font-family="Arial" font-size="18.75" lengthAdjust="spacing" textLength="268.75" x="253.125" y="210.5194">GHAS secret scanning alert</text><rect fill="#F7F7F7" height="53.0762" rx="7.8125" ry="7.8125" style="stroke:#444444;stroke-width:0.78125;" width="396.875" x="189.0625" y="261.8164"/><text fill="#000000" font-family="Arial" font-size="18.75" lengthAdjust="spacing" textLength="365.625" x="204.6875" y="294.8456">Identify AppCode (repo/app mapping)</text><rect fill="none" height="293.5547" rx="7.8125" ry="7.8125" style="stroke:#777777;stroke-width:2.34375;" width="432.8125" x="171.0938" y="349.2676"/><path d="M261.7188,349.2676 L261.7188,360.1563 L246.0938,375.7813 L171.0938,375.7813 " fill="none" style="stroke:#777777;stroke-width:2.34375;"/><text fill="#111111" font-family="Arial" font-size="18.75" lengthAdjust="spacing" textLength="75" x="175.7813" y="368.2343">Contain</text><rect fill="#F7F7F7" height="53.0762" rx="7.8125" ry="7.8125" style="stroke:#444444;stroke-width:0.78125;" width="237.5" x="268.75" y="402.3438"/><text fill="#000000" font-family="Arial" font-size="18.75" lengthAdjust="spacing" textLength="206.25" x="284.375" y="435.3729">Revoke/rotate secret</text><rect fill="#F7F7F7" height="53.0762" rx="7.8125" ry="7.8125" style="stroke:#444444;stroke-width:0.78125;" width="401.5625" x="186.7188" y="486.6699"/><text fill="#000000" font-family="Arial" font-size="18.75" lengthAdjust="spacing" textLength="370.3125" x="202.3438" y="519.6991">Invalidate sessions/tokens as needed</text><rect fill="#F7F7F7" height="53.0762" rx="7.8125" ry="7.8125" style="stroke:#444444;stroke-width:0.78125;" width="375" x="200" y="570.9961"/><text fill="#000000" font-family="Arial" font-size="18.75" lengthAdjust="spacing" textLength="343.75" x="215.625" y="604.0253">Remove secret from code + history</text><rect fill="none" height="224.9023" rx="7.8125" ry="7.8125" style="stroke:#777777;stroke-width:2.34375;" width="714.0625" x="17.1875" y="658.4473"/><path d="M101.5625,658.4473 L101.5625,669.3359 L85.9375,684.9609 L17.1875,684.9609 " fill="none" style="stroke:#777777;stroke-width:2.34375;"/><text fill="#111111" font-family="Arial" font-size="18.75" lengthAdjust="spacing" textLength="68.75" x="21.875" y="677.4139">Assess</text><polygon fill="#F7F7F7" points="219.5313,711.5234,555.4688,711.5234,574.2188,730.2734,555.4688,749.0234,219.5313,749.0234,200.7813,730.2734,219.5313,711.5234" style="stroke:#444444;stroke-width:0.78125;"/><text fill="#000000" font-family="Arial" font-size="18.75" lengthAdjust="spacing" textLength="335.9375" x="219.5313" y="736.7645">Exposed in public or broad scope?</text><text fill="#000000" font-family="Arial" font-size="18.75" lengthAdjust="spacing" textLength="34.375" x="166.4063" y="725.8514">Yes</text><text fill="#000000" font-family="Arial" font-size="18.75" lengthAdjust="spacing" textLength="26.5625" x="574.2188" y="725.8514">No</text><rect fill="#F7F7F7" height="53.0762" rx="7.8125" ry="7.8125" style="stroke:#444444;stroke-width:0.78125;" width="298.4375" x="35.9375" y="764.6484"/><text fill="#000000" font-family="Arial" font-size="18.75" lengthAdjust="spacing" textLength="267.1875" x="51.5625" y="797.6776">Escalate incident response</text><rect fill="#F7F7F7" height="53.0762" rx="7.8125" ry="7.8125" style="stroke:#444444;stroke-width:0.78125;" width="220.3125" x="479.6875" y="764.6484"/><text fill="#000000" font-family="Arial" font-size="18.75" lengthAdjust="spacing" textLength="189.0625" x="495.3125" y="797.6776">Standard response</text><polygon fill="#F7F7F7" points="387.5,827.0996,406.25,845.8496,387.5,864.5996,368.75,845.8496,387.5,827.0996" style="stroke:#444444;stroke-width:0.78125;"/><rect fill="none" height="293.5547" rx="7.8125" ry="7.8125" style="stroke:#777777;stroke-width:2.34375;" width="464.0625" x="155.4688" y="898.9746"/><path d="M246.0938,898.9746 L246.0938,909.8633 L230.4688,925.4883 L155.4688,925.4883 " fill="none" style="stroke:#777777;stroke-width:2.34375;"/><text fill="#111111" font-family="Arial" font-size="18.75" lengthAdjust="spacing" textLength="75" x="160.1563" y="917.9413">Prevent</text><rect fill="#F7F7F7" height="53.0762" rx="7.8125" ry="7.8125" style="stroke:#444444;stroke-width:0.78125;" width="362.5" x="206.25" y="952.0508"/><text fill="#000000" font-family="Arial" font-size="18.75" lengthAdjust="spacing" textLength="331.25" x="221.875" y="985.08">Add secret to allow/deny patterns</text><rect fill="#F7F7F7" height="53.0762" rx="7.8125" ry="7.8125" style="stroke:#444444;stroke-width:0.78125;" width="432.8125" x="171.0938" y="1036.377"/><text fill="#000000" font-family="Arial" font-size="18.75" lengthAdjust="spacing" textLength="401.5625" x="186.7188" y="1069.4061">Add pre-commit hooks / scanning checks</text><rect fill="#F7F7F7" height="53.0762" rx="7.8125" ry="7.8125" style="stroke:#444444;stroke-width:0.78125;" width="303.125" x="235.9375" y="1120.7031"/><text fill="#000000" font-family="Arial" font-size="18.75" lengthAdjust="spacing" textLength="271.875" x="251.5625" y="1153.7323">Update developer guidance</text><rect fill="none" height="212.3291" rx="7.8125" ry="7.8125" style="stroke:#777777;stroke-width:2.34375;" width="1032.8125" x="171.0938" y="1208.1543"/><path d="M239.8438,1208.1543 L239.8438,1219.043 L224.2188,1234.668 L171.0938,1234.668 " fill="none" style="stroke:#777777;stroke-width:2.34375;"/><text fill="#111111" font-family="Arial" font-size="18.75" lengthAdjust="spacing" textLength="53.125" x="175.7813" y="1227.121">Close</text><rect fill="#F7F7F7" height="53.0762" rx="7.8125" ry="7.8125" style="stroke:#444444;stroke-width:0.78125;" width="304.6875" x="235.1563" y="1261.2305"/><text fill="#000000" font-family="Arial" font-size="18.75" lengthAdjust="spacing" textLength="273.4375" x="250.7813" y="1294.2596">Confirm rotation + no reuse</text><path d="M619.5313,1342.4561 L619.5313,1365.8447 L588.2813,1372.0947 L619.5313,1378.3447 L619.5313,1401.7334 A0,0 0 0 0 619.5313,1401.7334 L1188.2813,1401.7334 A0,0 0 0 0 1188.2813,1401.7334 L1188.2813,1358.0811 L1172.6563,1342.4561 L619.5313,1342.4561 A0,0 0 0 0 619.5313,1342.4561 " fill="#FFF8D6" style="stroke:#C7A700;stroke-width:0.78125;"/><path d="M1172.6563,1342.4561 L1172.6563,1358.0811 L1188.2813,1358.0811 L1172.6563,1342.4561 " fill="#FFF8D6" style="stroke:#C7A700;stroke-width:0.78125;"/><text fill="#000000" font-family="Arial" font-size="18.75" lengthAdjust="spacing" textLength="134.375" x="628.9063" y="1367.6727">Key message:</text><text fill="#000000" font-family="Arial" font-size="18.75" font-weight="bold" lengthAdjust="spacing" textLength="267.1875" x="769.5313" y="1367.6727">Contain first, then learn</text><text fill="#000000" font-family="Arial" font-size="18.75" lengthAdjust="spacing" textLength="6.25" x="1036.7188" y="1367.6727">.</text><text fill="#000000" font-family="Arial" font-size="18.75" lengthAdjust="spacing" textLength="535.9375" x="628.9063" y="1389.4989">AppCode ensures notifications reach the right owners.</text><rect fill="#F7F7F7" height="53.0762" rx="7.8125" ry="7.8125" style="stroke:#444444;stroke-width:0.78125;" width="401.5625" x="186.7188" y="1345.5566"/><text fill="#000000" font-family="Arial" font-size="18.75" lengthAdjust="spacing" textLength="370.3125" x="202.3438" y="1378.5858">Close alert + track metrics (AppCode)</text><ellipse cx="387.5" cy="1468.9209" fill="none" rx="17.1875" ry="17.1875" style="stroke:#222222;stroke-width:1.5625;"/><ellipse cx="387.5" cy="1468.9209" fill="#222222" rx="9.375" ry="9.375" style="stroke:#222222;stroke-width:1.5625;"/><line style="stroke:#444444;stroke-width:1.5625;" x1="387.5" x2="387.5" y1="230.5664" y2="261.8164"/><polygon fill="#444444" points="381.25,246.1914,387.5,261.8164,393.75,246.1914,387.5,252.4414" style="stroke:#444444;stroke-width:1.5625;"/><line style="stroke:#444444;stroke-width:1.5625;" x1="387.5" x2="387.5" y1="108.7891" y2="177.4902"/><polygon fill="#444444" points="381.25,161.8652,387.5,177.4902,393.75,161.8652,387.5,168.1152" style="stroke:#444444;stroke-width:1.5625;"/><line style="stroke:#444444;stroke-width:1.5625;" x1="387.5" x2="387.5" y1="455.4199" y2="486.6699"/><polygon fill="#444444" points="381.25,471.0449,387.5,486.6699,393.75,471.0449,387.5,477.2949" style="stroke:#444444;stroke-width:1.5625;"/><line style="stroke:#444444;stroke-width:1.5625;" x1="387.5" x2="387.5" y1="539.7461" y2="570.9961"/><polygon fill="#444444" points="381.25,555.3711,387.5,570.9961,393.75,555.3711,387.5,561.6211" style="stroke:#444444;stroke-width:1.5625;"/><line style="stroke:#444444;stroke-width:1.5625;" x1="387.5" x2="387.5" y1="314.8926" y2="402.3438"/><polygon fill="#444444" points="381.25,386.7188,387.5,402.3438,393.75,386.7188,387.5,392.9688" style="stroke:#444444;stroke-width:1.5625;"/><line style="stroke:#444444;stroke-width:1.5625;" x1="200.7813" x2="185.1563" y1="730.2734" y2="730.2734"/><line style="stroke:#444444;stroke-width:1.5625;" x1="185.1563" x2="185.1563" y1="730.2734" y2="764.6484"/><polygon fill="#444444" points="178.9063,749.0234,185.1563,764.6484,191.4063,749.0234,185.1563,755.2734" style="stroke:#444444;stroke-width:1.5625;"/><line style="stroke:#444444;stroke-width:1.5625;" x1="574.2188" x2="589.8438" y1="730.2734" y2="730.2734"/><line style="stroke:#444444;stroke-width:1.5625;" x1="589.8438" x2="589.8438" y1="730.2734" y2="764.6484"/><polygon fill="#444444" points="583.5938,749.0234,589.8438,764.6484,596.0938,749.0234,589.8438,755.2734" style="stroke:#444444;stroke-width:1.5625;"/><line style="stroke:#444444;stroke-width:1.5625;" x1="185.1563" x2="185.1563" y1="817.7246" y2="845.8496"/><line style="stroke:#444444;stroke-width:1.5625;" x1="185.1563" x2="368.75" y1="845.8496" y2="845.8496"/><polygon fill="#444444" points="353.125,839.5996,368.75,845.8496,353.125,852.0996,359.375,845.8496" style="stroke:#444444;stroke-width:1.5625;"/><line style="stroke:#444444;stroke-width:1.5625;" x1="589.8438" x2="589.8438" y1="817.7246" y2="845.8496"/><line style="stroke:#444444;stroke-width:1.5625;" x1="589.8438" x2="406.25" y1="845.8496" y2="845.8496"/><polygon fill="#444444" points="421.875,839.5996,406.25,845.8496,421.875,852.0996,415.625,845.8496" style="stroke:#444444;stroke-width:1.5625;"/><line style="stroke:#444444;stroke-width:1.5625;" x1="387.5" x2="387.5" y1="624.0723" y2="711.5234"/><polygon fill="#444444" points="381.25,695.8984,387.5,711.5234,393.75,695.8984,387.5,702.1484" style="stroke:#444444;stroke-width:1.5625;"/><line style="stroke:#444444;stroke-width:1.5625;" x1="387.5" x2="387.5" y1="1005.127" y2="1036.377"/><polygon fill="#444444" points="381.25,1020.752,387.5,1036.377,393.75,1020.752,387.5,1027.002" style="stroke:#444444;stroke-width:1.5625;"/><line style="stroke:#444444;stroke-width:1.5625;" x1="387.5" x2="387.5" y1="1089.4531" y2="1120.7031"/><polygon fill="#444444" points="381.25,1105.0781,387.5,1120.7031,393.75,1105.0781,387.5,1111.3281" style="stroke:#444444;stroke-width:1.5625;"/><line style="stroke:#444444;stroke-width:1.5625;" x1="387.5" x2="387.5" y1="864.5996" y2="952.0508"/><polygon fill="#444444" points="381.25,936.4258,387.5,952.0508,393.75,936.4258,387.5,942.6758" style="stroke:#444444;stroke-width:1.5625;"/><line style="stroke:#444444;stroke-width:1.5625;" x1="387.5" x2="387.5" y1="1314.3066" y2="1345.5566"/><polygon fill="#444444" points="381.25,1329.9316,387.5,1345.5566,393.75,1329.9316,387.5,1336.1816" style="stroke:#444444;stroke-width:1.5625;"/><line style="stroke:#444444;stroke-width:1.5625;" x1="387.5" x2="387.5" y1="1173.7793" y2="1261.2305"/><polygon fill="#444444" points="381.25,1245.6055,387.5,1261.2305,393.75,1245.6055,387.5,1251.8555" style="stroke:#444444;stroke-width:1.5625;"/><line style="stroke:#444444;stroke-width:1.5625;" x1="387.5" x2="387.5" y1="1398.6328" y2="1451.7334"/><polygon fill="#444444" points="381.25,1436.1084,387.5,1451.7334,393.75,1436.1084,387.5,1442.3584" style="stroke:#444444;stroke-width:1.5625;"/><!--SRC=[PLDDRnf13BtFht1pAT06aaCkSAXeadweKXG5zT3ZCEDbHyoEHsCl55Nzx_MoIqBI2uBniz_pyuEt8MLRR0DhwxQRGctojnIfmBuEWeQVwrnRJ_kGDb3PoESLdmDStroTlHp7E2e92roV5vQbqBwV_paguLdf3YlRHlb2IHviWmeDDfft8RdOUeJfT3PyvPdDcT5TiXmYJdFRH2D1ehRal487ZuKSCiFLpHpqTq61bRCfTTgVa3CbHXXz_RPSZOrv3uzjoSGuXoURWuy7S2h1XWJQwJ69oW3yhP2s8Eo3rE0YsWAqr_Mu3Xb6IdnB7iTWauU26QtOjGeg95O2fQanBBQ8CRghQjKdkBX3GISNyCS0p3irmBrOFecr4OiiklBtev3g00CJZ9I5EYEWqGy5ZnVcxwlnj_qMm_mdtD4MPqT1E13razFEnk3xLsPjvPaeD35OXeHgWL_q4nhQdLgXAjIeKQha0zI1XShXhO0bTmDx_b31wBxp43seixbTn-10Kx0kPBrkJ1a_ZK5gJ33wXJpM7kMyLojY9qrF7peBrDp-VfqaZDqT7sW0hqJTjyM_nYGVgZV27WlkTDRWpDBxqr92Qdca_Kof3f2j29R4YnCg5xnqr3H1e2RQCinUJkLgTDiU-ZCVtVHA4dMj0fjM_KqE_xjGL3y65NgjAfJcEJ5gQoBTfEtNc1-nVI2q94N_Ez2WbE3u9Nv7WaHANiAc5lC33mfYjXjDzsGo90AKYELZRtQNv3IPJCqfM7fupRbUdZHlmHt5i0gnhkuw-ib3zgT6xUsGsEMRyZy0]--></g></svg>