<?plantuml 1.2026.2?><svg xmlns="http://www.w3.org/2000/svg" xmlns:xlink="http://www.w3.org/1999/xlink" contentStyleType="text/css" data-diagram-type="ACTIVITY" height="2078.125px" preserveAspectRatio="none" style="width:1985px;height:2078px;background:#FFFFFF;" version="1.1" viewBox="0 0 1985 2078" width="1985.9375px" zoomAndPan="magnify"><title>Seeker Agent Update - Node.js Process</title><defs/><g><g class="title" data-source-line="1"><text fill="#000000" font-family="Arial" font-size="21.875" font-weight="bold" lengthAdjust="spacing" textLength="483.696" x="749.0555" y="51.5549">Seeker Agent Update - Node.js Process</text></g><ellipse cx="989.3677" cy="89.5264" fill="#5B8FF9" rx="15.625" ry="15.625" style="stroke:#222222;stroke-width:1.5625;"/><rect fill="#FAFAFA" height="234.6924" rx="7.8125" ry="7.8125" style="stroke:#BDBDBD;stroke-width:2.3438;" width="335.3912" x="821.6721" y="120.7764"/><path d="M990.2725,120.7764 L990.2725,135.3027 L974.6475,150.9277 L821.6721,150.9277" fill="none" style="stroke:#BDBDBD;stroke-width:2.3438;"/><text fill="#222222" font-family="Arial" font-size="21.875" lengthAdjust="spacing" textLength="152.9755" x="826.3596" y="142.6437">Seeker Admin</text><rect fill="#F7F7F7" height="74.9023" rx="7.8125" ry="7.8125" style="stroke:#4C4C4C;stroke-width:0.7813;" width="259.848" x="859.4437" y="177.4902"/><text fill="#222222" font-family="Arial" font-size="18.75" lengthAdjust="spacing" textLength="228.598" x="875.0687" y="210.5194">Run Connect New Agent</text><text fill="#222222" font-family="Arial" font-size="18.75" lengthAdjust="spacing" textLength="101.6144" x="875.0687" y="232.3456">for Node.js</text><rect fill="#F7F7F7" height="53.0762" rx="7.8125" ry="7.8125" style="stroke:#4C4C4C;stroke-width:0.7813;" width="304.1412" x="837.2971" y="283.6426"/><text fill="#222222" font-family="Arial" font-size="18.75" lengthAdjust="spacing" textLength="272.8912" x="852.9221" y="316.6718">Download updated agent ZIP</text><rect fill="#FAFAFA" height="128.54" rx="7.8125" ry="7.8125" style="stroke:#BDBDBD;stroke-width:2.3438;" width="338.6963" x="820.0195" y="371.0938"/><path d="M1026.3565,371.0938 L1026.3565,385.6201 L1010.7315,401.2451 L820.0195,401.2451" fill="none" style="stroke:#BDBDBD;stroke-width:2.3438;"/><text fill="#222222" font-family="Arial" font-size="21.875" lengthAdjust="spacing" textLength="190.712" x="824.707" y="392.9611">Application Team</text><rect fill="#F7F7F7" height="53.0762" rx="7.8125" ry="7.8125" style="stroke:#4C4C4C;stroke-width:0.7813;" width="307.4463" x="835.6445" y="427.8076"/><text fill="#222222" font-family="Arial" font-size="18.75" lengthAdjust="spacing" textLength="276.1963" x="851.2695" y="460.8368">Verify seeker-inline load path</text><rect fill="#FAFAFA" height="150.3662" rx="7.8125" ry="7.8125" style="stroke:#BDBDBD;stroke-width:2.3438;" width="378.6499" x="800.0427" y="602.3064"/><path d="M1006.3797,602.3064 L1006.3797,616.8327 L990.7547,632.4577 L800.0427,632.4577" fill="none" style="stroke:#BDBDBD;stroke-width:2.3438;"/><text fill="#222222" font-family="Arial" font-size="21.875" lengthAdjust="spacing" textLength="190.712" x="804.7302" y="624.1737">Application Team</text><rect fill="#F7F7F7" height="74.9023" rx="7.8125" ry="7.8125" style="stroke:#4C4C4C;stroke-width:0.7813;" width="347.3999" x="815.6677" y="659.0202"/><text fill="#222222" font-family="Arial" font-size="18.75" lengthAdjust="spacing" textLength="316.1499" x="831.2927" y="692.0494">Verify SEEKER_APP_ENTRY_POINT</text><text fill="#222222" font-family="Arial" font-size="18.75" lengthAdjust="spacing" textLength="190.3015" x="831.2927" y="713.8756">points to startup file</text><polygon fill="#FFF6E5" points="898.8396,530.8838,1079.8958,530.8838,1098.6458,549.6338,1079.8958,568.3838,898.8396,568.3838,880.0896,549.6338,898.8396,530.8838" style="stroke:#B26B00;stroke-width:0.7813;"/><text fill="#000000" font-family="Arial" font-size="17.1875" lengthAdjust="spacing" textLength="21.4088" x="995.6177" y="584.3376">no</text><text fill="#222222" font-family="Arial" font-size="17.1875" lengthAdjust="spacing" textLength="181.0562" x="898.8396" y="555.584">require() in first line?</text><text fill="#000000" font-family="Arial" font-size="17.1875" lengthAdjust="spacing" textLength="29.7005" x="1098.6458" y="545.5803">yes</text><polygon fill="#FFF6E5" points="989.3677,783.9226,1008.1177,802.6726,989.3677,821.4226,970.6177,802.6726,989.3677,783.9226" style="stroke:#B26B00;stroke-width:0.7813;"/><rect fill="#FAFAFA" height="340.8447" rx="7.8125" ry="7.8125" style="stroke:#BDBDBD;stroke-width:2.3438;" width="380.2521" x="799.2416" y="837.0476"/><path d="M1014.5294,837.0476 L1014.5294,851.5739 L998.9044,867.1989 L799.2416,867.1989" fill="none" style="stroke:#BDBDBD;stroke-width:2.3438;"/><text fill="#222222" font-family="Arial" font-size="21.875" lengthAdjust="spacing" textLength="199.6628" x="803.9291" y="858.9149">DevOps / Platform</text><rect fill="#F7F7F7" height="74.9023" rx="7.8125" ry="7.8125" style="stroke:#4C4C4C;stroke-width:0.7813;" width="274.6063" x="852.0645" y="893.7614"/><text fill="#222222" font-family="Arial" font-size="18.75" lengthAdjust="spacing" textLength="243.3563" x="867.6895" y="926.7906">Replace deployed Node.js</text><text fill="#222222" font-family="Arial" font-size="18.75" lengthAdjust="spacing" textLength="98.4467" x="867.6895" y="948.6168">agent files</text><rect fill="#F7F7F7" height="74.9023" rx="7.8125" ry="7.8125" style="stroke:#4C4C4C;stroke-width:0.7813;" width="295.3796" x="841.6779" y="999.9138"/><text fill="#222222" font-family="Arial" font-size="18.75" lengthAdjust="spacing" textLength="264.1296" x="857.3029" y="1032.943">Verify SEEKER_SERVER_URL</text><text fill="#222222" font-family="Arial" font-size="18.75" lengthAdjust="spacing" textLength="249.3622" x="857.3029" y="1054.7691">and SEEKER_PROJECT_KEY</text><rect fill="#F7F7F7" height="53.0762" rx="7.8125" ry="7.8125" style="stroke:#4C4C4C;stroke-width:0.7813;" width="349.0021" x="814.8666" y="1106.0661"/><text fill="#222222" font-family="Arial" font-size="18.75" lengthAdjust="spacing" textLength="317.7521" x="830.4916" y="1139.0953">Restart app or redeploy container</text><rect fill="#FAFAFA" height="234.6924" rx="7.8125" ry="7.8125" style="stroke:#BDBDBD;stroke-width:2.3438;" width="258.7982" x="859.9686" y="1193.5173"/><path d="M1094.5999,1193.5173 L1094.5999,1208.0437 L1078.9749,1223.6687 L859.9686,1223.6687" fill="none" style="stroke:#BDBDBD;stroke-width:2.3438;"/><text fill="#222222" font-family="Arial" font-size="21.875" lengthAdjust="spacing" textLength="219.0063" x="864.6561" y="1215.3847">Application Security</text><rect fill="#F7F7F7" height="53.0762" rx="7.8125" ry="7.8125" style="stroke:#4C4C4C;stroke-width:0.7813;" width="227.5482" x="875.5936" y="1250.2312"/><text fill="#222222" font-family="Arial" font-size="18.75" lengthAdjust="spacing" textLength="196.2982" x="891.2186" y="1283.2603">Run validation traffic</text><rect fill="#F7F7F7" height="74.9023" rx="7.8125" ry="7.8125" style="stroke:#4C4C4C;stroke-width:0.7813;" width="226.9806" x="875.8774" y="1334.5573"/><text fill="#222222" font-family="Arial" font-size="18.75" lengthAdjust="spacing" textLength="195.7306" x="891.5024" y="1367.5865">Review Seeker UI for</text><text fill="#222222" font-family="Arial" font-size="18.75" lengthAdjust="spacing" textLength="158.1024" x="891.5024" y="1389.4127">data and version</text><polygon fill="#FFF6E5" points="896.2379,1459.4597,1082.4974,1459.4597,1101.2474,1478.2097,1082.4974,1496.9597,896.2379,1496.9597,877.4879,1478.2097,896.2379,1459.4597" style="stroke:#B26B00;stroke-width:0.7813;"/><text fill="#222222" font-family="Arial" font-size="17.1875" lengthAdjust="spacing" textLength="186.2595" x="896.2379" y="1484.1599">Runtime data visible?</text><text fill="#000000" font-family="Arial" font-size="17.1875" lengthAdjust="spacing" textLength="29.7005" x="847.7875" y="1474.1562">yes</text><text fill="#000000" font-family="Arial" font-size="17.1875" lengthAdjust="spacing" textLength="21.4088" x="1101.2474" y="1474.1562">no</text><rect fill="#FAFAFA" height="141.04" rx="7.8125" ry="7.8125" style="stroke:#BDBDBD;stroke-width:2.3438;" width="314.9109" x="654.9522" y="1512.5847"/><path d="M889.5836,1512.5847 L889.5836,1527.1111 L873.9586,1542.7361 L654.9522,1542.7361" fill="none" style="stroke:#BDBDBD;stroke-width:2.3438;"/><text fill="#222222" font-family="Arial" font-size="21.875" lengthAdjust="spacing" textLength="219.0063" x="659.6397" y="1534.4521">Application Security</text><rect fill="#F7F7F7" height="53.0762" rx="7.8125" ry="7.8125" style="stroke:#4C4C4C;stroke-width:0.7813;" width="283.6609" x="670.5772" y="1569.2986"/><text fill="#222222" font-family="Arial" font-size="18.75" lengthAdjust="spacing" textLength="252.4109" x="686.2022" y="1602.3277">Record evidence and close</text><ellipse cx="812.4077" cy="1711.4861" fill="none" rx="17.1875" ry="17.1875" style="stroke:#222222;stroke-width:1.5625;"/><ellipse cx="812.4077" cy="1711.4861" fill="#222222" rx="9.375" ry="9.375" style="stroke:#222222;stroke-width:1.5625;"/><rect fill="#FAFAFA" height="244.1162" rx="7.8125" ry="7.8125" style="stroke:#BDBDBD;stroke-width:2.3438;" width="330.4291" x="1001.1131" y="1512.5847"/><path d="M1216.4009,1512.5847 L1216.4009,1527.1111 L1200.7759,1542.7361 L1001.1131,1542.7361" fill="none" style="stroke:#BDBDBD;stroke-width:2.3438;"/><text fill="#222222" font-family="Arial" font-size="21.875" lengthAdjust="spacing" textLength="199.6628" x="1005.8006" y="1534.4521">DevOps / Platform</text><rect fill="#F7F7F7" height="74.9023" rx="7.8125" ry="7.8125" style="stroke:#4C4C4C;stroke-width:0.7813;" width="299.1791" x="1016.7381" y="1569.2986"/><text fill="#222222" font-family="Arial" font-size="18.75" lengthAdjust="spacing" textLength="267.9291" x="1032.3631" y="1602.3277">Restore prior agent package</text><text fill="#222222" font-family="Arial" font-size="18.75" lengthAdjust="spacing" textLength="133.5022" x="1032.3631" y="1624.1539">or prior image</text><rect fill="#F7F7F7" height="53.0762" rx="7.8125" ry="7.8125" style="stroke:#4C4C4C;stroke-width:0.7813;" width="140.7379" x="1095.9587" y="1684.8747"/><text fill="#222222" font-family="Arial" font-size="18.75" lengthAdjust="spacing" textLength="109.4879" x="1111.5837" y="1717.9039">Restart app</text><ellipse cx="1166.3277" cy="1805.1384" fill="none" rx="17.1875" ry="17.1875" style="stroke:#222222;stroke-width:1.5625;"/><ellipse cx="1166.3277" cy="1805.1384" fill="#222222" rx="9.375" ry="9.375" style="stroke:#222222;stroke-width:1.5625;"/><line style="stroke:#000000;stroke-width:1.5625;" x1="989.3677" x2="989.3677" y1="252.3926" y2="283.6426"/><polygon fill="#000000" points="983.1177,268.0176,989.3677,283.6426,995.6177,268.0176,989.3677,274.2676" style="stroke:#000000;stroke-width:1.5625;"/><line style="stroke:#000000;stroke-width:1.5625;" x1="989.3677" x2="989.3677" y1="105.1514" y2="177.4902"/><polygon fill="#000000" points="983.1177,161.8652,989.3677,177.4902,995.6177,161.8652,989.3677,168.1152" style="stroke:#000000;stroke-width:1.5625;"/><line style="stroke:#000000;stroke-width:1.5625;" x1="989.3677" x2="989.3677" y1="336.7188" y2="427.8076"/><polygon fill="#000000" points="983.1177,412.1826,989.3677,427.8076,995.6177,412.1826,989.3677,418.4326" style="stroke:#000000;stroke-width:1.5625;"/><line style="stroke:#000000;stroke-width:1.5625;" x1="989.3677" x2="989.3677" y1="568.3838" y2="659.0202"/><polygon fill="#000000" points="983.1177,643.3952,989.3677,659.0202,995.6177,643.3952,989.3677,649.6452" style="stroke:#000000;stroke-width:1.5625;"/><line style="stroke:#000000;stroke-width:1.5625;" x1="1098.6458" x2="1194.3176" y1="549.6338" y2="549.6338"/><polygon fill="#000000" points="1188.0676,668.1145,1194.3176,683.7395,1200.5676,668.1145,1194.3176,674.3645" style="stroke:#000000;stroke-width:1.5625;"/><line style="stroke:#000000;stroke-width:1.5625;" x1="1194.3176" x2="1194.3176" y1="549.6338" y2="802.6726"/><line style="stroke:#000000;stroke-width:1.5625;" x1="1194.3176" x2="1008.1177" y1="802.6726" y2="802.6726"/><polygon fill="#000000" points="1023.7427,796.4226,1008.1177,802.6726,1023.7427,808.9226,1017.4927,802.6726" style="stroke:#000000;stroke-width:1.5625;"/><line style="stroke:#000000;stroke-width:1.5625;" x1="989.3677" x2="989.3677" y1="733.9226" y2="783.9226"/><polygon fill="#000000" points="983.1177,768.2976,989.3677,783.9226,995.6177,768.2976,989.3677,774.5476" style="stroke:#000000;stroke-width:1.5625;"/><line style="stroke:#000000;stroke-width:1.5625;" x1="989.3677" x2="989.3677" y1="480.8838" y2="530.8838"/><polygon fill="#000000" points="983.1177,515.2588,989.3677,530.8838,995.6177,515.2588,989.3677,521.5088" style="stroke:#000000;stroke-width:1.5625;"/><line style="stroke:#000000;stroke-width:1.5625;" x1="989.3677" x2="989.3677" y1="968.6638" y2="999.9138"/><polygon fill="#000000" points="983.1177,984.2888,989.3677,999.9138,995.6177,984.2888,989.3677,990.5388" style="stroke:#000000;stroke-width:1.5625;"/><line style="stroke:#000000;stroke-width:1.5625;" x1="989.3677" x2="989.3677" y1="1074.8161" y2="1106.0661"/><polygon fill="#000000" points="983.1177,1090.4411,989.3677,1106.0661,995.6177,1090.4411,989.3677,1096.6911" style="stroke:#000000;stroke-width:1.5625;"/><line style="stroke:#000000;stroke-width:1.5625;" x1="989.3677" x2="989.3677" y1="821.4226" y2="893.7614"/><polygon fill="#000000" points="983.1177,878.1364,989.3677,893.7614,995.6177,878.1364,989.3677,884.3864" style="stroke:#000000;stroke-width:1.5625;"/><line style="stroke:#000000;stroke-width:1.5625;" x1="989.3677" x2="989.3677" y1="1303.3073" y2="1334.5573"/><polygon fill="#000000" points="983.1177,1318.9323,989.3677,1334.5573,995.6177,1318.9323,989.3677,1325.1823" style="stroke:#000000;stroke-width:1.5625;"/><line style="stroke:#000000;stroke-width:1.5625;" x1="989.3677" x2="989.3677" y1="1159.1423" y2="1250.2312"/><polygon fill="#000000" points="983.1177,1234.6062,989.3677,1250.2312,995.6177,1234.6062,989.3677,1240.8562" style="stroke:#000000;stroke-width:1.5625;"/><line style="stroke:#000000;stroke-width:1.5625;" x1="812.4077" x2="812.4077" y1="1622.3747" y2="1694.2986"/><polygon fill="#000000" points="806.1577,1678.6736,812.4077,1694.2986,818.6577,1678.6736,812.4077,1684.9236" style="stroke:#000000;stroke-width:1.5625;"/><line style="stroke:#000000;stroke-width:1.5625;" x1="1166.3277" x2="1166.3277" y1="1644.2009" y2="1684.8747"/><polygon fill="#000000" points="1160.0777,1669.2497,1166.3277,1684.8747,1172.5777,1669.2497,1166.3277,1675.4997" style="stroke:#000000;stroke-width:1.5625;"/><line style="stroke:#000000;stroke-width:1.5625;" x1="1166.3277" x2="1166.3277" y1="1737.9509" y2="1787.9509"/><polygon fill="#000000" points="1160.0777,1772.3259,1166.3277,1787.9509,1172.5777,1772.3259,1166.3277,1778.5759" style="stroke:#000000;stroke-width:1.5625;"/><line style="stroke:#000000;stroke-width:1.5625;" x1="877.4879" x2="812.4077" y1="1478.2097" y2="1478.2097"/><line style="stroke:#000000;stroke-width:1.5625;" x1="812.4077" x2="812.4077" y1="1478.2097" y2="1569.2986"/><polygon fill="#000000" points="806.1577,1553.6736,812.4077,1569.2986,818.6577,1553.6736,812.4077,1559.9236" style="stroke:#000000;stroke-width:1.5625;"/><line style="stroke:#000000;stroke-width:1.5625;" x1="1101.2474" x2="1166.3277" y1="1478.2097" y2="1478.2097"/><line style="stroke:#000000;stroke-width:1.5625;" x1="1166.3277" x2="1166.3277" y1="1478.2097" y2="1569.2986"/><polygon fill="#000000" points="1160.0777,1553.6736,1166.3277,1569.2986,1172.5777,1553.6736,1166.3277,1559.9236" style="stroke:#000000;stroke-width:1.5625;"/><line style="stroke:#000000;stroke-width:1.5625;" x1="989.3677" x2="989.3677" y1="1409.4597" y2="1459.4597"/><polygon fill="#000000" points="983.1177,1443.8347,989.3677,1459.4597,995.6177,1443.8347,989.3677,1450.0847" style="stroke:#000000;stroke-width:1.5625;"/><g class="legend" data-source-line="28"><rect fill="none" height="200.1221" rx="7.8125" ry="7.8125" style="stroke:#000000;stroke-width:1.5625;" width="1913.0569" x="34.375" y="1839.5134"/><text fill="#000000" font-family="Arial" font-size="21.875" font-weight="bold" lengthAdjust="spacing" textLength="60.434" x="49.8032" y="1870.7558">Field</text><text fill="#000000" font-family="Arial" font-size="21.875" font-weight="bold" lengthAdjust="spacing" textLength="69.5984" x="253.8879" y="1870.7558">Value</text><text fill="#000000" font-family="Arial" font-size="21.875" lengthAdjust="spacing" textLength="83.847" x="49.1409" y="1896.2196">Process</text><text fill="#000000" font-family="Arial" font-size="21.875" lengthAdjust="spacing" textLength="719.9417" x="253.2257" y="1896.2196">Node.js Seeker agent refresh for server-side JavaScript workloads</text><text fill="#000000" font-family="Arial" font-size="21.875" lengthAdjust="spacing" textLength="190.1779" x="49.1409" y="1921.6835">Primary message</text><text fill="#000000" font-family="Arial" font-size="21.875" lengthAdjust="spacing" textLength="1679.4403" x="253.2257" y="1921.6835">For Node.js, rerun Connect New Agent, replace the agent package, preserve require()/entry-point loading, restart the service, and validate runtime data.</text><text fill="#000000" font-family="Arial" font-size="21.875" lengthAdjust="spacing" textLength="78.656" x="49.1409" y="1947.1474">Trigger</text><text fill="#000000" font-family="Arial" font-size="21.875" lengthAdjust="spacing" textLength="645.0668" x="253.2257" y="1947.1474">Node.js application included in Seeker agent refresh scope</text><text fill="#000000" font-family="Arial" font-size="21.875" lengthAdjust="spacing" textLength="142.7643" x="49.1409" y="1972.6112">Entry criteria</text><text fill="#000000" font-family="Arial" font-size="21.875" lengthAdjust="spacing" textLength="866.7221" x="253.2257" y="1972.6112">Server upgraded; Node.js app uses seeker-inline or SEEKER_APP_ENTRY_POINT</text><text fill="#000000" font-family="Arial" font-size="21.875" lengthAdjust="spacing" textLength="125.9842" x="49.1409" y="1998.0751">Exit criteria</text><text fill="#000000" font-family="Arial" font-size="21.875" lengthAdjust="spacing" textLength="686.0397" x="253.2257" y="1998.0751">Node.js app redeployed and reporting healthy runtime activity</text><text fill="#000000" font-family="Arial" font-size="21.875" lengthAdjust="spacing" textLength="146.8765" x="49.1409" y="2023.539">Key evidence</text><text fill="#000000" font-family="Arial" font-size="21.875" lengthAdjust="spacing" textLength="1133.4412" x="253.2257" y="2023.539">Agent ZIP deployment log, entry-point verification, process-manager settings, Seeker validation results</text><line style="stroke:#000000;stroke-width:1.5625;" x1="42.1875" x2="1939.6194" y1="1850.4509" y2="1850.4509"/><line style="stroke:#000000;stroke-width:1.5625;" x1="42.1875" x2="1939.6194" y1="1875.9148" y2="1875.9148"/><line style="stroke:#000000;stroke-width:1.5625;" x1="42.1875" x2="1939.6194" y1="1901.3786" y2="1901.3786"/><line style="stroke:#000000;stroke-width:1.5625;" x1="42.1875" x2="1939.6194" y1="1926.8425" y2="1926.8425"/><line style="stroke:#000000;stroke-width:1.5625;" x1="42.1875" x2="1939.6194" y1="1952.3064" y2="1952.3064"/><line style="stroke:#000000;stroke-width:1.5625;" x1="42.1875" x2="1939.6194" y1="1977.7702" y2="1977.7702"/><line style="stroke:#000000;stroke-width:1.5625;" x1="42.1875" x2="1939.6194" y1="2003.2341" y2="2003.2341"/><line style="stroke:#000000;stroke-width:1.5625;" x1="42.1875" x2="1939.6194" y1="2028.698" y2="2028.698"/><line style="stroke:#000000;stroke-width:1.5625;" x1="42.1875" x2="42.1875" y1="1850.4509" y2="2028.698"/><line style="stroke:#000000;stroke-width:1.5625;" x1="246.2723" x2="246.2723" y1="1850.4509" y2="2028.698"/><line style="stroke:#000000;stroke-width:1.5625;" x1="1939.6194" x2="1939.6194" y1="1850.4509" y2="2028.698"/></g><?plantuml-src ZLLXRzis4FskNt7elYH0tQR5qgqBXi6E9I1DaHYs4w23WO2LJZONYTH8ofwnzB_laP9bENFMXK0i7wbtT--ze-sZL9KmegIl8drS6bshx58Nsj1c9Hr7jjktAv7fZLHBoaLX-pjP9UdT-Lal4c1IRHGRUjVV61gZDmt-g432tjQOSr4NBj7AtOYISLIA8dBI5KmpvaT03PUi7DrLcN1C0xhH6R_vmzB4w9Ij_L-rVg_Bx6WL-tsHEhcMRaj_HqIZPs0_93_vvNUqoTYqqHyl_KBKexQnz-4FiR4KfLRPlw6Iv4DytZlGHnoz_p0wEzjl7WEUEM5smVFHpqdo4S6um-z28s4EGzzwxU8_591QDVqUr33swoWBGx-Ezjl7LXeg7gVnFFcO9CyJTXKVWrt9Z8dB2ifaR5CZArzr51KCpsHav7BbegTVAP5SP8I7Ur7KJ4_Hqyu-zDGPghMR27Opd1ksAygHpx9PinbOd-oJM8jPI4GRRHuBBJBRuibIc2sL00K4S1EyscA_1fwf5LrgfJXrTCERnjP-ey98CBaLjwah48EdrrIX0fyQP_wifU6JqxVODzj1fINE-TmmkuUmNlK0uL-GALuMw7yj2Xcc1hcTXA_nHRm9vSx1pHBTxjiNLLN8L0JPfKgBEkCC3yTfiQck6XvZNn614SSO6k3D0bjKLqiZ077HJq2rPOiQFU90ga8g9h0qY-FhUFemd4mUuflvzCl3vFRgPjx0_oLT7xqFPZW3UNgBEdstO5B3jnZ_5Ol2hRPTsztuUiHhtXAleQLAlKhDxVBxrOGQi983jQ2rppKwaddBZXScU6TG2YKyYPQTpmkPMx9QuZsLe0itY_S87DduCegY85WKxGVjrUwooqgfNeK1-MLwp34BbUzzTU6FZVL6UI-0SYzsrag5bYum8lqSmvx4SnPbc-VUDxTz9aj0h8HR1H2PqqddGk-AN1eBdd3ojrDlF4KdMxQd4UFYfHEbJm7ytSpxtCSTi521VKjEKs2ihf2uOD_sDy-dp0_w6_FwjhBqbYQ5SA1fr-2qdR7EBYrz2zLGvJ4RBW_BcSNJUtpSJJ_Z91pMXYVJsq_nvVpXElvoqS0ty-Sz2MrsjgGKDvO0G-Q_T9XnMiFUsvxcFVSu8tBuhaspbd11QvIxAtytBPGVwMROsLYyqiarxSqyhQMLNujdMhseq65D8JL-rhFzsFXyQQ5jgmH17LszfFqBghJ4QSEO9wdDuUstK8WqSTohov3eaEh3rC4B_m00?></g></svg>