<?plantuml 1.2026.2?><svg xmlns="http://www.w3.org/2000/svg" xmlns:xlink="http://www.w3.org/1999/xlink" contentStyleType="text/css" data-diagram-type="ACTIVITY" height="1500px" preserveAspectRatio="none" style="width:1457px;height:1500px;background:#FFFFFF;" version="1.1" viewBox="0 0 1457 1500" width="1457.8125px" zoomAndPan="magnify"><title>AppSec Process 06: Container &amp; IaC Scanning (Trivy)</title><defs/><g><g class="title" data-source-line="2"><text fill="#000000" font-family="Arial" font-size="25" font-weight="bold" lengthAdjust="spacing" textLength="747.0581" x="353.1769" y="54.4556">AppSec Process 06: Container &amp; IaC Scanning (Trivy)</text></g><ellipse cx="296.6888" cy="93.1641" fill="#222222" rx="15.625" ry="15.625" style="stroke:#222222;stroke-width:1.5625;"/><rect fill="none" height="209.2285" rx="7.8125" ry="7.8125" style="stroke:#777777;stroke-width:2.3438;" width="475.3387" x="59.0195" y="124.4141"/><path d="M147.8317,124.4141 L147.8317,135.3027 L132.2067,150.9277 L59.0195,150.9277" fill="none" style="stroke:#777777;stroke-width:2.3438;"/><text fill="#111111" font-family="Arial" font-size="18.75" lengthAdjust="spacing" textLength="73.1873" x="63.707" y="143.3807">Prepare</text><rect fill="#F7F7F7" height="53.0762" rx="7.8125" ry="7.8125" style="stroke:#444444;stroke-width:0.7813;" width="444.0887" x="74.6445" y="177.4902"/><text fill="#000000" font-family="Arial" font-size="18.75" lengthAdjust="spacing" textLength="412.8387" x="90.2695" y="210.5194">Attach AppCode to image tags / build labels</text><rect fill="#F7F7F7" height="53.0762" rx="7.8125" ry="7.8125" style="stroke:#444444;stroke-width:0.7813;" width="409.9854" x="91.6962" y="261.8164"/><text fill="#000000" font-family="Arial" font-size="18.75" lengthAdjust="spacing" textLength="378.7354" x="107.3212" y="294.8456">Select scan targets (IaC, images, SBOM)</text><rect fill="none" height="293.5547" rx="7.8125" ry="7.8125" style="stroke:#777777;stroke-width:2.3438;" width="386.972" x="103.2028" y="349.2676"/><path d="M164.4119,349.2676 L164.4119,360.1563 L148.7869,375.7813 L103.2028,375.7813" fill="none" style="stroke:#777777;stroke-width:2.3438;"/><text fill="#111111" font-family="Arial" font-size="18.75" lengthAdjust="spacing" textLength="45.5841" x="107.8903" y="368.2343">Scan</text><rect fill="#F7F7F7" height="53.0762" rx="7.8125" ry="7.8125" style="stroke:#444444;stroke-width:0.7813;" width="341.449" x="125.9644" y="402.3438"/><text fill="#000000" font-family="Arial" font-size="18.75" lengthAdjust="spacing" textLength="310.199" x="141.5894" y="435.3729">Trivy config scan (IaC/K8s/Cloud)</text><rect fill="#F7F7F7" height="53.0762" rx="7.8125" ry="7.8125" style="stroke:#444444;stroke-width:0.7813;" width="355.722" x="118.8278" y="486.6699"/><text fill="#000000" font-family="Arial" font-size="18.75" lengthAdjust="spacing" textLength="324.472" x="134.4528" y="519.6991">Trivy image scan (OS + packages)</text><rect fill="#F7F7F7" height="53.0762" rx="7.8125" ry="7.8125" style="stroke:#444444;stroke-width:0.7813;" width="247.406" x="172.9858" y="570.9961"/><text fill="#000000" font-family="Arial" font-size="18.75" lengthAdjust="spacing" textLength="216.156" x="188.6108" y="604.0253">Trivy SBOM generation</text><rect fill="none" height="224.9023" rx="7.8125" ry="7.8125" style="stroke:#777777;stroke-width:2.3438;" width="526.7151" x="17.1875" y="658.4473"/><path d="M114.7156,658.4473 L114.7156,669.3359 L99.0906,684.9609 L17.1875,684.9609" fill="none" style="stroke:#777777;stroke-width:2.3438;"/><text fill="#111111" font-family="Arial" font-size="18.75" lengthAdjust="spacing" textLength="81.9031" x="21.875" y="677.4139">Evaluate</text><polygon fill="#F7F7F7" points="235.3256,711.5234,358.0521,711.5234,376.8021,730.2734,358.0521,749.0234,235.3256,749.0234,216.5756,730.2734,235.3256,711.5234" style="stroke:#444444;stroke-width:0.7813;"/><text fill="#000000" font-family="Arial" font-size="18.75" lengthAdjust="spacing" textLength="122.7264" x="235.3256" y="736.7645">Critical/high?</text><text fill="#000000" font-family="Arial" font-size="18.75" lengthAdjust="spacing" textLength="32.7576" x="183.8181" y="725.8514">Yes</text><text fill="#000000" font-family="Arial" font-size="18.75" lengthAdjust="spacing" textLength="25.4974" x="376.8021" y="725.8514">No</text><rect fill="#F7F7F7" height="53.0762" rx="7.8125" ry="7.8125" style="stroke:#444444;stroke-width:0.7813;" width="267.5201" x="35.9375" y="764.6484"/><text fill="#000000" font-family="Arial" font-size="18.75" lengthAdjust="spacing" textLength="236.2701" x="51.5625" y="797.6776">Fail pipeline stage&#171;gate&#187;</text><rect fill="#F7F7F7" height="53.0762" rx="7.8125" ry="7.8125" style="stroke:#444444;stroke-width:0.7813;" width="177.9449" x="334.7076" y="764.6484"/><text fill="#000000" font-family="Arial" font-size="18.75" lengthAdjust="spacing" textLength="146.6949" x="350.3326" y="797.6776">Allow with SLAs</text><polygon fill="#F7F7F7" points="296.6888,827.0996,315.4388,845.8496,296.6888,864.5996,277.9388,845.8496,296.6888,827.0996" style="stroke:#444444;stroke-width:0.7813;"/><rect fill="none" height="293.5547" rx="7.8125" ry="7.8125" style="stroke:#777777;stroke-width:2.3438;" width="418.7317" x="87.323" y="898.9746"/><path d="M204.8004,898.9746 L204.8004,909.8633 L189.1754,925.4883 L87.323,925.4883" fill="none" style="stroke:#777777;stroke-width:2.3438;"/><text fill="#111111" font-family="Arial" font-size="18.75" lengthAdjust="spacing" textLength="101.8524" x="92.0105" y="917.9413">Remediate</text><rect fill="#F7F7F7" height="53.0762" rx="7.8125" ry="7.8125" style="stroke:#444444;stroke-width:0.7813;" width="363.3118" x="115.033" y="952.0508"/><text fill="#000000" font-family="Arial" font-size="18.75" lengthAdjust="spacing" textLength="332.0618" x="130.658" y="985.08">Update base image / dependencies</text><rect fill="#F7F7F7" height="53.0762" rx="7.8125" ry="7.8125" style="stroke:#444444;stroke-width:0.7813;" width="387.4817" x="102.948" y="1036.377"/><text fill="#000000" font-family="Arial" font-size="18.75" lengthAdjust="spacing" textLength="356.2317" x="118.573" y="1069.4061">Fix misconfigurations (policy-as-code)</text><rect fill="#F7F7F7" height="53.0762" rx="7.8125" ry="7.8125" style="stroke:#444444;stroke-width:0.7813;" width="192.2455" x="200.5661" y="1120.7031"/><text fill="#000000" font-family="Arial" font-size="18.75" lengthAdjust="spacing" textLength="160.9955" x="216.1911" y="1153.7323">Rebuild + rescan</text><rect fill="none" height="209.2285" rx="7.8125" ry="7.8125" style="stroke:#777777;stroke-width:2.3438;" width="1359.8557" x="81.0562" y="1208.1543"/><path d="M163.8443,1208.1543 L163.8443,1219.043 L148.2193,1234.668 L81.0562,1234.668" fill="none" style="stroke:#777777;stroke-width:2.3438;"/><text fill="#111111" font-family="Arial" font-size="18.75" lengthAdjust="spacing" textLength="67.1631" x="85.7437" y="1227.121">Publish</text><rect fill="#F7F7F7" height="53.0762" rx="7.8125" ry="7.8125" style="stroke:#444444;stroke-width:0.7813;" width="400.0153" x="96.6812" y="1261.2305"/><text fill="#000000" font-family="Arial" font-size="18.75" lengthAdjust="spacing" textLength="368.7653" x="112.3062" y="1294.2596">Publish SBOM + scan report (AppCode)</text><path d="M510.6384,1353.3691 L510.6384,1365.8447 L479.3884,1372.0947 L510.6384,1378.3447 L510.6384,1390.8203 A0,0 0 0 0 510.6384,1390.8203 L1425.2869,1390.8203 A0,0 0 0 0 1425.2869,1390.8203 L1425.2869,1368.9941 L1409.6619,1353.3691 L510.6384,1353.3691 A0,0 0 0 0 510.6384,1353.3691" fill="#FFF8D6" style="stroke:#C7A700;stroke-width:0.7813;"/><path d="M1409.6619,1353.3691 L1409.6619,1368.9941 L1425.2869,1368.9941 L1409.6619,1353.3691" fill="#FFF8D6" style="stroke:#C7A700;stroke-width:0.7813;"/><text fill="#000000" font-family="Arial" font-size="18.75" lengthAdjust="spacing" textLength="131.4697" x="520.0134" y="1378.5858">Key message:</text><text fill="#000000" font-family="Arial" font-size="18.75" font-weight="bold" lengthAdjust="spacing" textLength="254.0588" x="657.4432" y="1378.5858">You ship what you build</text><text fill="#000000" font-family="Arial" font-size="18.75" lengthAdjust="spacing" textLength="484.3872" x="917.4622" y="1378.5858">&#8212; scan artifacts and infrastructure, not just source.</text><rect fill="#F7F7F7" height="53.0762" rx="7.8125" ry="7.8125" style="stroke:#444444;stroke-width:0.7813;" width="365.3992" x="113.9893" y="1345.5566"/><text fill="#000000" font-family="Arial" font-size="18.75" lengthAdjust="spacing" textLength="334.1492" x="129.6143" y="1378.5858">Feed vulnerability lifecycle tracking</text><ellipse cx="296.6888" cy="1465.8203" fill="none" rx="17.1875" ry="17.1875" style="stroke:#222222;stroke-width:1.5625;"/><ellipse cx="296.6888" cy="1465.8203" fill="#222222" rx="9.375" ry="9.375" style="stroke:#222222;stroke-width:1.5625;"/><line style="stroke:#444444;stroke-width:1.5625;" x1="296.6888" x2="296.6888" y1="230.5664" y2="261.8164"/><polygon fill="#444444" points="290.4388,246.1914,296.6888,261.8164,302.9388,246.1914,296.6888,252.4414" style="stroke:#444444;stroke-width:1.5625;"/><line style="stroke:#444444;stroke-width:1.5625;" x1="296.6888" x2="296.6888" y1="108.7891" y2="177.4902"/><polygon fill="#444444" points="290.4388,161.8652,296.6888,177.4902,302.9388,161.8652,296.6888,168.1152" style="stroke:#444444;stroke-width:1.5625;"/><line style="stroke:#444444;stroke-width:1.5625;" x1="296.6888" x2="296.6888" y1="455.4199" y2="486.6699"/><polygon fill="#444444" points="290.4388,471.0449,296.6888,486.6699,302.9388,471.0449,296.6888,477.2949" style="stroke:#444444;stroke-width:1.5625;"/><line style="stroke:#444444;stroke-width:1.5625;" x1="296.6888" x2="296.6888" y1="539.7461" y2="570.9961"/><polygon fill="#444444" points="290.4388,555.3711,296.6888,570.9961,302.9388,555.3711,296.6888,561.6211" style="stroke:#444444;stroke-width:1.5625;"/><line style="stroke:#444444;stroke-width:1.5625;" x1="296.6888" x2="296.6888" y1="314.8926" y2="402.3438"/><polygon fill="#444444" points="290.4388,386.7188,296.6888,402.3438,302.9388,386.7188,296.6888,392.9688" style="stroke:#444444;stroke-width:1.5625;"/><line style="stroke:#444444;stroke-width:1.5625;" x1="216.5756" x2="169.6976" y1="730.2734" y2="730.2734"/><line style="stroke:#444444;stroke-width:1.5625;" x1="169.6976" x2="169.6976" y1="730.2734" y2="764.6484"/><polygon fill="#444444" points="163.4476,749.0234,169.6976,764.6484,175.9476,749.0234,169.6976,755.2734" style="stroke:#444444;stroke-width:1.5625;"/><line style="stroke:#444444;stroke-width:1.5625;" x1="376.8021" x2="423.6801" y1="730.2734" y2="730.2734"/><line style="stroke:#444444;stroke-width:1.5625;" x1="423.6801" x2="423.6801" y1="730.2734" y2="764.6484"/><polygon fill="#444444" points="417.4301,749.0234,423.6801,764.6484,429.9301,749.0234,423.6801,755.2734" style="stroke:#444444;stroke-width:1.5625;"/><line style="stroke:#444444;stroke-width:1.5625;" x1="169.6976" x2="169.6976" y1="817.7246" y2="845.8496"/><line style="stroke:#444444;stroke-width:1.5625;" x1="169.6976" x2="277.9388" y1="845.8496" y2="845.8496"/><polygon fill="#444444" points="262.3138,839.5996,277.9388,845.8496,262.3138,852.0996,268.5638,845.8496" style="stroke:#444444;stroke-width:1.5625;"/><line style="stroke:#444444;stroke-width:1.5625;" x1="423.6801" x2="423.6801" y1="817.7246" y2="845.8496"/><line style="stroke:#444444;stroke-width:1.5625;" x1="423.6801" x2="315.4388" y1="845.8496" y2="845.8496"/><polygon fill="#444444" points="331.0638,839.5996,315.4388,845.8496,331.0638,852.0996,324.8138,845.8496" style="stroke:#444444;stroke-width:1.5625;"/><line style="stroke:#444444;stroke-width:1.5625;" x1="296.6888" x2="296.6888" y1="624.0723" y2="711.5234"/><polygon fill="#444444" points="290.4388,695.8984,296.6888,711.5234,302.9388,695.8984,296.6888,702.1484" style="stroke:#444444;stroke-width:1.5625;"/><line style="stroke:#444444;stroke-width:1.5625;" x1="296.6888" x2="296.6888" y1="1005.127" y2="1036.377"/><polygon fill="#444444" points="290.4388,1020.752,296.6888,1036.377,302.9388,1020.752,296.6888,1027.002" style="stroke:#444444;stroke-width:1.5625;"/><line style="stroke:#444444;stroke-width:1.5625;" x1="296.6888" x2="296.6888" y1="1089.4531" y2="1120.7031"/><polygon fill="#444444" points="290.4388,1105.0781,296.6888,1120.7031,302.9388,1105.0781,296.6888,1111.3281" style="stroke:#444444;stroke-width:1.5625;"/><line style="stroke:#444444;stroke-width:1.5625;" x1="296.6888" x2="296.6888" y1="864.5996" y2="952.0508"/><polygon fill="#444444" points="290.4388,936.4258,296.6888,952.0508,302.9388,936.4258,296.6888,942.6758" style="stroke:#444444;stroke-width:1.5625;"/><line style="stroke:#444444;stroke-width:1.5625;" x1="296.6888" x2="296.6888" y1="1314.3066" y2="1345.5566"/><polygon fill="#444444" points="290.4388,1329.9316,296.6888,1345.5566,302.9388,1329.9316,296.6888,1336.1816" style="stroke:#444444;stroke-width:1.5625;"/><line style="stroke:#444444;stroke-width:1.5625;" x1="296.6888" x2="296.6888" y1="1173.7793" y2="1261.2305"/><polygon fill="#444444" points="290.4388,1245.6055,296.6888,1261.2305,302.9388,1245.6055,296.6888,1251.8555" style="stroke:#444444;stroke-width:1.5625;"/><line style="stroke:#444444;stroke-width:1.5625;" x1="296.6888" x2="296.6888" y1="1398.6328" y2="1448.6328"/><polygon fill="#444444" points="290.4388,1433.0078,296.6888,1448.6328,302.9388,1433.0078,296.6888,1439.2578" style="stroke:#444444;stroke-width:1.5625;"/><?plantuml-src PLFBRXD14BplLpGvWEqaTd808ISASWoHK22nOZZas9xjtMqodXdD8yP2I7m4NyYNqBEx61DkEplTLTNLDU61ZKEFQrYXUgYzJQQSMsqzR1gEL8JTVMYmj1isDLIem_vDwHXENvxi_MbXbFM6F9pkNyoyjviE_r8BuTxLMwemwNXbJRp1DKafeowUiL4wbGJZyQJ_31DqBf0w3d6hQUpIMXUHevOMvvQaOE6jeX3WvDKKvWA7d7KyX_SuXwL2O_8GWq-U7xV3edW1Y-IT3JGL2P5KXCUafG5NWiXhh2aSmPg3igRYEdcCR8tyGbEsY1n2ej0U8nDu2Z95W6YpdBajQLmK8QAFHI63Yb1fXuE59pdH0Nmh0AQp654rVnfoRqiC4Ui04rWbrYLeN94EPxb-IJeB3JACrFYQX70WOevsWfUNjn-7PyNtVqZpy3rZEprqCtKukNzo_JfCvjgcSdZsjwhJqXNTBk4Gd6mkq-mNPKAeAHkNoPvIltj4dJ3s0tC5WxcNAuLwqd3Tl1b2R4ZmxmLL2WJs2bc3OqTQrWVYO4tdvxL0N5naMh62O71Z--gPrdO36uuDB3_CMfV8b5mzaN57QofvfsFwsPLoaEo7VjVYTabEMiaefixjA_xwVm1WuAncjJt6SAnaQPqNTzJjwZ3dG0nxQiCYhJI7fcVlJvrtXvt3aWlh8mpwB7ImLqJbBfQiEMv1SqLggoIZqSiw9D8jbx4oZXT7Ot5DMrZBEv2ffZ0QtTiaRvYTF6oCi9LJAtKqWby_VdRSMMU5AdPfPbDv3D4d5PEd8n1e-9A2nCuchoJMubB-IJdVrlq6?></g></svg>