<?xml version="1.0" encoding="us-ascii" standalone="no"?><svg xmlns="http://www.w3.org/2000/svg" xmlns:xlink="http://www.w3.org/1999/xlink" contentStyleType="text/css" height="1500px" preserveAspectRatio="none" style="width:1506px;height:1500px;background:#FFFFFF;" version="1.1" viewBox="0 0 1506 1500" width="1506.25px" zoomAndPan="magnify"><defs/><g><text fill="#000000" font-family="Arial" font-size="25" font-weight="bold" lengthAdjust="spacing" textLength="737.5" x="382.4219" y="54.4556">AppSec Process 06: Container &amp; IaC Scanning (Trivy)</text><ellipse cx="303.125" cy="93.1641" fill="#222222" rx="15.625" ry="15.625" style="stroke:#222222;stroke-width:1.5625;"/><rect fill="none" height="209.2285" rx="7.8125" ry="7.8125" style="stroke:#777777;stroke-width:2.34375;" width="492.1875" x="57.0313" y="124.4141"/><path d="M150.7813,124.4141 L150.7813,135.3027 L135.1563,150.9277 L57.0313,150.9277 " fill="none" style="stroke:#777777;stroke-width:2.34375;"/><text fill="#111111" font-family="Arial" font-size="18.75" lengthAdjust="spacing" textLength="78.125" x="61.7188" y="143.3807">Prepare</text><rect fill="#F7F7F7" height="53.0762" rx="7.8125" ry="7.8125" style="stroke:#444444;stroke-width:0.78125;" width="460.9375" x="72.6563" y="177.4902"/><text fill="#000000" font-family="Arial" font-size="18.75" lengthAdjust="spacing" textLength="429.6875" x="88.2813" y="210.5194">Attach AppCode to image tags / build labels</text><rect fill="#F7F7F7" height="53.0762" rx="7.8125" ry="7.8125" style="stroke:#444444;stroke-width:0.78125;" width="425" x="90.625" y="261.8164"/><text fill="#000000" font-family="Arial" font-size="18.75" lengthAdjust="spacing" textLength="393.75" x="106.25" y="294.8456">Select scan targets (IaC, images, SBOM)</text><rect fill="none" height="293.5547" rx="7.8125" ry="7.8125" style="stroke:#777777;stroke-width:2.34375;" width="395.3125" x="105.4688" y="349.2676"/><path d="M169.5313,349.2676 L169.5313,360.1563 L153.9063,375.7813 L105.4688,375.7813 " fill="none" style="stroke:#777777;stroke-width:2.34375;"/><text fill="#111111" font-family="Arial" font-size="18.75" lengthAdjust="spacing" textLength="48.4375" x="110.1563" y="368.2343">Scan</text><rect fill="#F7F7F7" height="53.0762" rx="7.8125" ry="7.8125" style="stroke:#444444;stroke-width:0.78125;" width="345.3125" x="130.4688" y="402.3438"/><text fill="#000000" font-family="Arial" font-size="18.75" lengthAdjust="spacing" textLength="314.0625" x="146.0938" y="435.3729">Trivy config scan (IaC/K8s/Cloud)</text><rect fill="#F7F7F7" height="53.0762" rx="7.8125" ry="7.8125" style="stroke:#444444;stroke-width:0.78125;" width="364.0625" x="121.0938" y="486.6699"/><text fill="#000000" font-family="Arial" font-size="18.75" lengthAdjust="spacing" textLength="332.8125" x="136.7188" y="519.6991">Trivy image scan (OS + packages)</text><rect fill="#F7F7F7" height="53.0762" rx="7.8125" ry="7.8125" style="stroke:#444444;stroke-width:0.78125;" width="248.4375" x="178.9063" y="570.9961"/><text fill="#000000" font-family="Arial" font-size="18.75" lengthAdjust="spacing" textLength="217.1875" x="194.5313" y="604.0253">Trivy SBOM generation</text><rect fill="none" height="224.9023" rx="7.8125" ry="7.8125" style="stroke:#777777;stroke-width:2.34375;" width="534.375" x="17.1875" y="658.4473"/><path d="M117.1875,658.4473 L117.1875,669.3359 L101.5625,684.9609 L17.1875,684.9609 " fill="none" style="stroke:#777777;stroke-width:2.34375;"/><text fill="#111111" font-family="Arial" font-size="18.75" lengthAdjust="spacing" textLength="84.375" x="21.875" y="677.4139">Evaluate</text><polygon fill="#F7F7F7" points="241.4063,711.5234,364.8438,711.5234,383.5938,730.2734,364.8438,749.0234,241.4063,749.0234,222.6563,730.2734,241.4063,711.5234" style="stroke:#444444;stroke-width:0.78125;"/><text fill="#000000" font-family="Arial" font-size="18.75" lengthAdjust="spacing" textLength="123.4375" x="241.4063" y="736.7645">Critical/high?</text><text fill="#000000" font-family="Arial" font-size="18.75" lengthAdjust="spacing" textLength="34.375" x="188.2813" y="725.8514">Yes</text><text fill="#000000" font-family="Arial" font-size="18.75" lengthAdjust="spacing" textLength="26.5625" x="383.5938" y="725.8514">No</text><rect fill="#F7F7F7" height="53.0762" rx="7.8125" ry="7.8125" style="stroke:#444444;stroke-width:0.78125;" width="276.5625" x="35.9375" y="764.6484"/><text fill="#000000" font-family="Arial" font-size="18.75" lengthAdjust="spacing" textLength="245.3125" x="51.5625" y="797.6776">Fail pipeline stage&#171;gate&#187;</text><rect fill="#F7F7F7" height="53.0762" rx="7.8125" ry="7.8125" style="stroke:#444444;stroke-width:0.78125;" width="176.5625" x="343.75" y="764.6484"/><text fill="#000000" font-family="Arial" font-size="18.75" lengthAdjust="spacing" textLength="145.3125" x="359.375" y="797.6776">Allow with SLAs</text><polygon fill="#F7F7F7" points="303.125,827.0996,321.875,845.8496,303.125,864.5996,284.375,845.8496,303.125,827.0996" style="stroke:#444444;stroke-width:0.78125;"/><rect fill="none" height="293.5547" rx="7.8125" ry="7.8125" style="stroke:#777777;stroke-width:2.34375;" width="428.125" x="89.0625" y="898.9746"/><path d="M209.375,898.9746 L209.375,909.8633 L193.75,925.4883 L89.0625,925.4883 " fill="none" style="stroke:#777777;stroke-width:2.34375;"/><text fill="#111111" font-family="Arial" font-size="18.75" lengthAdjust="spacing" textLength="104.6875" x="93.75" y="917.9413">Remediate</text><rect fill="#F7F7F7" height="53.0762" rx="7.8125" ry="7.8125" style="stroke:#444444;stroke-width:0.78125;" width="381.25" x="112.5" y="952.0508"/><text fill="#000000" font-family="Arial" font-size="18.75" lengthAdjust="spacing" textLength="350" x="128.125" y="985.08">Update base image / dependencies</text><rect fill="#F7F7F7" height="53.0762" rx="7.8125" ry="7.8125" style="stroke:#444444;stroke-width:0.78125;" width="396.875" x="104.6875" y="1036.377"/><text fill="#000000" font-family="Arial" font-size="18.75" lengthAdjust="spacing" textLength="365.625" x="120.3125" y="1069.4061">Fix misconfigurations (policy-as-code)</text><rect fill="#F7F7F7" height="53.0762" rx="7.8125" ry="7.8125" style="stroke:#444444;stroke-width:0.78125;" width="198.4375" x="203.9063" y="1120.7031"/><text fill="#000000" font-family="Arial" font-size="18.75" lengthAdjust="spacing" textLength="167.1875" x="219.5313" y="1153.7323">Rebuild + rescan</text><rect fill="none" height="209.2285" rx="7.8125" ry="7.8125" style="stroke:#777777;stroke-width:2.34375;" width="1409.375" x="80.4688" y="1208.1543"/><path d="M166.4063,1208.1543 L166.4063,1219.043 L150.7813,1234.668 L80.4688,1234.668 " fill="none" style="stroke:#777777;stroke-width:2.34375;"/><text fill="#111111" font-family="Arial" font-size="18.75" lengthAdjust="spacing" textLength="70.3125" x="85.1563" y="1227.121">Publish</text><rect fill="#F7F7F7" height="53.0762" rx="7.8125" ry="7.8125" style="stroke:#444444;stroke-width:0.78125;" width="414.0625" x="96.0938" y="1261.2305"/><text fill="#000000" font-family="Arial" font-size="18.75" lengthAdjust="spacing" textLength="382.8125" x="111.7188" y="1294.2596">Publish SBOM + scan report (AppCode)</text><path d="M519.5313,1353.3691 L519.5313,1365.8447 L488.2813,1372.0947 L519.5313,1378.3447 L519.5313,1390.8203 A0,0 0 0 0 519.5313,1390.8203 L1474.2188,1390.8203 A0,0 0 0 0 1474.2188,1390.8203 L1474.2188,1368.9941 L1458.5938,1353.3691 L519.5313,1353.3691 A0,0 0 0 0 519.5313,1353.3691 " fill="#FFF8D6" style="stroke:#C7A700;stroke-width:0.78125;"/><path d="M1458.5938,1353.3691 L1458.5938,1368.9941 L1474.2188,1368.9941 L1458.5938,1353.3691 " fill="#FFF8D6" style="stroke:#C7A700;stroke-width:0.78125;"/><text fill="#000000" font-family="Arial" font-size="18.75" lengthAdjust="spacing" textLength="134.375" x="528.9063" y="1378.5858">Key message:</text><text fill="#000000" font-family="Arial" font-size="18.75" font-weight="bold" lengthAdjust="spacing" textLength="264.0625" x="669.5313" y="1378.5858">You ship what you build</text><text fill="#000000" font-family="Arial" font-size="18.75" lengthAdjust="spacing" textLength="510.9375" x="939.8438" y="1378.5858">&#8212; scan artifacts and infrastructure, not just source.</text><rect fill="#F7F7F7" height="53.0762" rx="7.8125" ry="7.8125" style="stroke:#444444;stroke-width:0.78125;" width="370.3125" x="117.9688" y="1345.5566"/><text fill="#000000" font-family="Arial" font-size="18.75" lengthAdjust="spacing" textLength="339.0625" x="133.5938" y="1378.5858">Feed vulnerability lifecycle tracking</text><ellipse cx="303.125" cy="1465.8203" fill="none" rx="17.1875" ry="17.1875" style="stroke:#222222;stroke-width:1.5625;"/><ellipse cx="303.125" cy="1465.8203" fill="#222222" rx="9.375" ry="9.375" style="stroke:#222222;stroke-width:1.5625;"/><line style="stroke:#444444;stroke-width:1.5625;" x1="303.125" x2="303.125" y1="230.5664" y2="261.8164"/><polygon fill="#444444" points="296.875,246.1914,303.125,261.8164,309.375,246.1914,303.125,252.4414" style="stroke:#444444;stroke-width:1.5625;"/><line style="stroke:#444444;stroke-width:1.5625;" x1="303.125" x2="303.125" y1="108.7891" y2="177.4902"/><polygon fill="#444444" points="296.875,161.8652,303.125,177.4902,309.375,161.8652,303.125,168.1152" style="stroke:#444444;stroke-width:1.5625;"/><line style="stroke:#444444;stroke-width:1.5625;" x1="303.125" x2="303.125" y1="455.4199" y2="486.6699"/><polygon fill="#444444" points="296.875,471.0449,303.125,486.6699,309.375,471.0449,303.125,477.2949" style="stroke:#444444;stroke-width:1.5625;"/><line style="stroke:#444444;stroke-width:1.5625;" x1="303.125" x2="303.125" y1="539.7461" y2="570.9961"/><polygon fill="#444444" points="296.875,555.3711,303.125,570.9961,309.375,555.3711,303.125,561.6211" style="stroke:#444444;stroke-width:1.5625;"/><line style="stroke:#444444;stroke-width:1.5625;" x1="303.125" x2="303.125" y1="314.8926" y2="402.3438"/><polygon fill="#444444" points="296.875,386.7188,303.125,402.3438,309.375,386.7188,303.125,392.9688" style="stroke:#444444;stroke-width:1.5625;"/><line style="stroke:#444444;stroke-width:1.5625;" x1="222.6563" x2="174.2188" y1="730.2734" y2="730.2734"/><line style="stroke:#444444;stroke-width:1.5625;" x1="174.2188" x2="174.2188" y1="730.2734" y2="764.6484"/><polygon fill="#444444" points="167.9688,749.0234,174.2188,764.6484,180.4688,749.0234,174.2188,755.2734" style="stroke:#444444;stroke-width:1.5625;"/><line style="stroke:#444444;stroke-width:1.5625;" x1="383.5938" x2="432.0313" y1="730.2734" y2="730.2734"/><line style="stroke:#444444;stroke-width:1.5625;" x1="432.0313" x2="432.0313" y1="730.2734" y2="764.6484"/><polygon fill="#444444" points="425.7813,749.0234,432.0313,764.6484,438.2813,749.0234,432.0313,755.2734" style="stroke:#444444;stroke-width:1.5625;"/><line style="stroke:#444444;stroke-width:1.5625;" x1="174.2188" x2="174.2188" y1="817.7246" y2="845.8496"/><line style="stroke:#444444;stroke-width:1.5625;" x1="174.2188" x2="284.375" y1="845.8496" y2="845.8496"/><polygon fill="#444444" points="268.75,839.5996,284.375,845.8496,268.75,852.0996,275,845.8496" style="stroke:#444444;stroke-width:1.5625;"/><line style="stroke:#444444;stroke-width:1.5625;" x1="432.0313" x2="432.0313" y1="817.7246" y2="845.8496"/><line style="stroke:#444444;stroke-width:1.5625;" x1="432.0313" x2="321.875" y1="845.8496" y2="845.8496"/><polygon fill="#444444" points="337.5,839.5996,321.875,845.8496,337.5,852.0996,331.25,845.8496" style="stroke:#444444;stroke-width:1.5625;"/><line style="stroke:#444444;stroke-width:1.5625;" x1="303.125" x2="303.125" y1="624.0723" y2="711.5234"/><polygon fill="#444444" points="296.875,695.8984,303.125,711.5234,309.375,695.8984,303.125,702.1484" style="stroke:#444444;stroke-width:1.5625;"/><line style="stroke:#444444;stroke-width:1.5625;" x1="303.125" x2="303.125" y1="1005.127" y2="1036.377"/><polygon fill="#444444" points="296.875,1020.752,303.125,1036.377,309.375,1020.752,303.125,1027.002" style="stroke:#444444;stroke-width:1.5625;"/><line style="stroke:#444444;stroke-width:1.5625;" x1="303.125" x2="303.125" y1="1089.4531" y2="1120.7031"/><polygon fill="#444444" points="296.875,1105.0781,303.125,1120.7031,309.375,1105.0781,303.125,1111.3281" style="stroke:#444444;stroke-width:1.5625;"/><line style="stroke:#444444;stroke-width:1.5625;" x1="303.125" x2="303.125" y1="864.5996" y2="952.0508"/><polygon fill="#444444" points="296.875,936.4258,303.125,952.0508,309.375,936.4258,303.125,942.6758" style="stroke:#444444;stroke-width:1.5625;"/><line style="stroke:#444444;stroke-width:1.5625;" x1="303.125" x2="303.125" y1="1314.3066" y2="1345.5566"/><polygon fill="#444444" points="296.875,1329.9316,303.125,1345.5566,309.375,1329.9316,303.125,1336.1816" style="stroke:#444444;stroke-width:1.5625;"/><line style="stroke:#444444;stroke-width:1.5625;" x1="303.125" x2="303.125" y1="1173.7793" y2="1261.2305"/><polygon fill="#444444" points="296.875,1245.6055,303.125,1261.2305,309.375,1245.6055,303.125,1251.8555" style="stroke:#444444;stroke-width:1.5625;"/><line style="stroke:#444444;stroke-width:1.5625;" x1="303.125" x2="303.125" y1="1398.6328" y2="1448.6328"/><polygon fill="#444444" points="296.875,1433.0078,303.125,1448.6328,309.375,1433.0078,303.125,1439.2578" style="stroke:#444444;stroke-width:1.5625;"/><!--SRC=[PLFBRXD14BplLpGvWEqaTd808ISASWoHK22nOZZas9xjtMqodXdD8yP2I7m4NyYNqBEx61DkEplTLTNLDU61ZKEFQrYXUgYzJQQSMsqzR1gEL8JTVMYmj1isDLIem_vDwHXENvxi_MbXbFM6F9pkNyoyjviE_r8BuTxLMwemwNXbJRp1DKafeowUiL4wbGJZyQJ_31DqBf0w3d6hQUpIMXUHevOMvvQaOE6jeX3WvDKKvWA7d7KyX_SuXwL2O_8GWq-U7xV3edW1Y-IT3JGL2P5KXCUafG5NWiXhh2aSmPg3igRYEdcCR8tyGbEsY1n2ej0U8nDu2Z95W6YpdBajQLmK8QAFHI63Yb1fXuE59pdH0Nmh0AQp654rVnfoRqiC4Ui04rWbrYLeN94EPxb-IJeB3JACrFYQX70WOevsWfUNjn-7PyNtVqZpy3rZEprqCtKukNzo_JfCvjgcSdZsjwhJqXNTBk4Gd6mkq-mNPKAeAHkNoPvIltj4dJ3s0tC5WxcNAuLwqd3Tl1b2R4ZmxmLL2WJs2bc3OqTQrWVYO4tdvxL0N5naMh62O71Z- -gPrdO36uuDB3_CMfV8b5mzaN57QofvfsFwsPLoaEo7VjVYTabEMiaefixjA_xwVm1WuAncjJt6SAnaQPqNTzJjwZ3dG0nxQiCYhJI7fcVlJvrtXvt3aWlh8mpwB7ImLqJbBfQiEMv1SqLggoIZqSiw9D8jbx4oZXT7Ot5DMrZBEv2ffZ0QtTiaRvYTF6oCi9LJAtKqWby_VdRSMMU5AdPfPbDv3D4d5PEd8n1e-9A2nCuchoJMubB-IJdVrlq6]--></g></svg>