<?plantuml 1.2026.2?><svg xmlns="http://www.w3.org/2000/svg" xmlns:xlink="http://www.w3.org/1999/xlink" contentStyleType="text/css" data-diagram-type="ACTIVITY" height="1584.375px" preserveAspectRatio="none" style="width:1357px;height:1584px;background:#FFFFFF;" version="1.1" viewBox="0 0 1357 1584" width="1357.8125px" zoomAndPan="magnify"><title>AppSec Process 07: DAST Lifecycle (Rapid7 InsightAppSec)</title><defs/><g><g class="title" data-source-line="2"><text fill="#000000" font-family="Arial" font-size="25" font-weight="bold" lengthAdjust="spacing" textLength="834.082" x="260.0723" y="54.4556">AppSec Process 07: DAST Lifecycle (Rapid7 InsightAppSec)</text></g><ellipse cx="256.7429" cy="93.1641" fill="#222222" rx="15.625" ry="15.625" style="stroke:#222222;stroke-width:1.5625;"/><rect fill="none" height="293.5547" rx="7.8125" ry="7.8125" style="stroke:#777777;stroke-width:2.3438;" width="441.6107" x="35.9375" y="124.4141"/><path d="M91.452,124.4141 L91.452,135.3027 L75.827,150.9277 L35.9375,150.9277" fill="none" style="stroke:#777777;stroke-width:2.3438;"/><text fill="#111111" font-family="Arial" font-size="18.75" lengthAdjust="spacing" textLength="39.8895" x="40.625" y="143.3807">Plan</text><rect fill="#F7F7F7" height="53.0762" rx="7.8125" ry="7.8125" style="stroke:#444444;stroke-width:0.7813;" width="410.3607" x="51.5625" y="177.4902"/><text fill="#000000" font-family="Arial" font-size="18.75" lengthAdjust="spacing" textLength="379.1107" x="67.1875" y="210.5194">Define targets (URLs/APIs) + credentials</text><rect fill="#F7F7F7" height="53.0762" rx="7.8125" ry="7.8125" style="stroke:#444444;stroke-width:0.7813;" width="275.4944" x="118.9957" y="261.8164"/><text fill="#000000" font-family="Arial" font-size="18.75" lengthAdjust="spacing" textLength="244.2444" x="134.6207" y="294.8456">Tag targets with AppCode</text><rect fill="#F7F7F7" height="53.0762" rx="7.8125" ry="7.8125" style="stroke:#444444;stroke-width:0.7813;" width="363.8153" x="74.8352" y="346.1426"/><text fill="#000000" font-family="Arial" font-size="18.75" lengthAdjust="spacing" textLength="332.5653" x="90.4602" y="379.1718">Choose scan cadence (per risk tier)</text><rect fill="none" height="209.2285" rx="7.8125" ry="7.8125" style="stroke:#777777;stroke-width:2.3438;" width="330.4199" x="91.5329" y="433.5938"/><path d="M182.7164,433.5938 L182.7164,444.4824 L167.0914,460.1074 L91.5329,460.1074" fill="none" style="stroke:#777777;stroke-width:2.3438;"/><text fill="#111111" font-family="Arial" font-size="18.75" lengthAdjust="spacing" textLength="75.5585" x="96.2204" y="452.5604">Execute</text><rect fill="#F7F7F7" height="53.0762" rx="7.8125" ry="7.8125" style="stroke:#444444;stroke-width:0.7813;" width="257.3212" x="128.0823" y="486.6699"/><text fill="#000000" font-family="Arial" font-size="18.75" lengthAdjust="spacing" textLength="226.0712" x="143.7073" y="519.6991">Run InsightAppSec scan</text><rect fill="#F7F7F7" height="53.0762" rx="7.8125" ry="7.8125" style="stroke:#444444;stroke-width:0.7813;" width="299.1699" x="107.1579" y="570.9961"/><text fill="#000000" font-family="Arial" font-size="18.75" lengthAdjust="spacing" textLength="267.9199" x="122.7829" y="604.0253">Capture findings + evidence</text><rect fill="none" height="393.5547" rx="7.8125" ry="7.8125" style="stroke:#777777;stroke-width:2.3438;" width="482.5188" x="17.1875" y="658.4473"/><path d="M92.1112,658.4473 L92.1112,669.3359 L76.4862,684.9609 L17.1875,684.9609" fill="none" style="stroke:#777777;stroke-width:2.3438;"/><text fill="#111111" font-family="Arial" font-size="18.75" lengthAdjust="spacing" textLength="59.2987" x="21.875" y="677.4139">Triage</text><rect fill="#F7F7F7" height="53.0762" rx="7.8125" ry="7.8125" style="stroke:#444444;stroke-width:0.7813;" width="375.2411" x="69.1223" y="711.5234"/><text fill="#000000" font-family="Arial" font-size="18.75" lengthAdjust="spacing" textLength="343.9911" x="84.7473" y="744.5526">Validate signal (false positive check)</text><rect fill="#F7F7F7" height="53.0762" rx="7.8125" ry="7.8125" style="stroke:#444444;stroke-width:0.7813;" width="319.2932" x="97.0963" y="795.8496"/><text fill="#000000" font-family="Arial" font-size="18.75" lengthAdjust="spacing" textLength="288.0432" x="112.7213" y="828.8788">Correlate to AppCode + owner</text><polygon fill="#F7F7F7" points="195.3796,880.1758,318.1061,880.1758,336.8561,898.9258,318.1061,917.6758,195.3796,917.6758,176.6296,898.9258,195.3796,880.1758" style="stroke:#444444;stroke-width:0.7813;"/><text fill="#000000" font-family="Arial" font-size="18.75" lengthAdjust="spacing" textLength="122.7264" x="195.3796" y="905.4169">Critical/high?</text><text fill="#000000" font-family="Arial" font-size="18.75" lengthAdjust="spacing" textLength="32.7576" x="143.8721" y="894.5038">Yes</text><text fill="#000000" font-family="Arial" font-size="18.75" lengthAdjust="spacing" textLength="25.4974" x="336.8561" y="894.5038">No</text><rect fill="#F7F7F7" height="53.0762" rx="7.8125" ry="7.8125" style="stroke:#444444;stroke-width:0.7813;" width="207.6721" x="37.307" y="933.3008"/><text fill="#000000" font-family="Arial" font-size="18.75" lengthAdjust="spacing" textLength="176.4221" x="52.932" y="966.33">Escalate + set SLA</text><rect fill="#F7F7F7" height="53.0762" rx="7.8125" ry="7.8125" style="stroke:#444444;stroke-width:0.7813;" width="192.2272" x="276.2291" y="933.3008"/><text fill="#000000" font-family="Arial" font-size="18.75" lengthAdjust="spacing" textLength="160.9772" x="291.8541" y="966.33">Backlog with SLA</text><polygon fill="#F7F7F7" points="256.7429,995.752,275.4929,1014.502,256.7429,1033.252,237.9929,1014.502,256.7429,995.752" style="stroke:#444444;stroke-width:0.7813;"/><rect fill="none" height="209.2285" rx="7.8125" ry="7.8125" style="stroke:#777777;stroke-width:2.3438;" width="244.2047" x="134.6405" y="1067.627"/><path d="M252.1179,1067.627 L252.1179,1078.5156 L236.4929,1094.1406 L134.6405,1094.1406" fill="none" style="stroke:#777777;stroke-width:2.3438;"/><text fill="#111111" font-family="Arial" font-size="18.75" lengthAdjust="spacing" textLength="101.8524" x="139.328" y="1086.5936">Remediate</text><rect fill="#F7F7F7" height="53.0762" rx="7.8125" ry="7.8125" style="stroke:#444444;stroke-width:0.7813;" width="173.2117" x="170.137" y="1120.7031"/><text fill="#000000" font-family="Arial" font-size="18.75" lengthAdjust="spacing" textLength="141.9617" x="185.762" y="1153.7323">Fix code/config</text><rect fill="#F7F7F7" height="53.0762" rx="7.8125" ry="7.8125" style="stroke:#444444;stroke-width:0.7813;" width="212.9547" x="150.2655" y="1205.0293"/><text fill="#000000" font-family="Arial" font-size="18.75" lengthAdjust="spacing" textLength="181.7047" x="165.8905" y="1238.0585">Deploy to test/prod</text><rect fill="none" height="209.2285" rx="7.8125" ry="7.8125" style="stroke:#777777;stroke-width:2.3438;" width="1241.6428" x="100.0839" y="1292.4805"/><path d="M170.6863,1292.4805 L170.6863,1303.3691 L155.0613,1318.9941 L100.0839,1318.9941" fill="none" style="stroke:#777777;stroke-width:2.3438;"/><text fill="#111111" font-family="Arial" font-size="18.75" lengthAdjust="spacing" textLength="54.9774" x="104.7714" y="1311.4471">Verify</text><rect fill="#F7F7F7" height="53.0762" rx="7.8125" ry="7.8125" style="stroke:#444444;stroke-width:0.7813;" width="282.0679" x="115.7089" y="1345.5566"/><text fill="#000000" font-family="Arial" font-size="18.75" lengthAdjust="spacing" textLength="250.8179" x="131.3339" y="1378.5858">Re-scan to confirm closure</text><path d="M428.2349,1437.6953 L428.2349,1450.1709 L396.9849,1456.4209 L428.2349,1462.6709 L428.2349,1475.1465 A0,0 0 0 0 428.2349,1475.1465 L1326.1017,1475.1465 A0,0 0 0 0 1326.1017,1475.1465 L1326.1017,1453.3203 L1310.4767,1437.6953 L428.2349,1437.6953 A0,0 0 0 0 428.2349,1437.6953" fill="#FFF8D6" style="stroke:#C7A700;stroke-width:0.7813;"/><path d="M1310.4767,1437.6953 L1310.4767,1453.3203 L1326.1017,1453.3203 L1310.4767,1437.6953" fill="#FFF8D6" style="stroke:#C7A700;stroke-width:0.7813;"/><text fill="#000000" font-family="Arial" font-size="18.75" lengthAdjust="spacing" textLength="131.4697" x="437.6099" y="1462.912">Key message:</text><text fill="#000000" font-family="Arial" font-size="18.75" font-weight="bold" lengthAdjust="spacing" textLength="360.8093" x="575.0397" y="1462.912">DAST finds what static scans miss</text><text fill="#000000" font-family="Arial" font-size="18.75" lengthAdjust="spacing" textLength="360.8551" x="941.8091" y="1462.912">(auth flows, config, runtime behavior).</text><rect fill="#F7F7F7" height="53.0762" rx="7.8125" ry="7.8125" style="stroke:#444444;stroke-width:0.7813;" width="280.484" x="116.5009" y="1429.8828"/><text fill="#000000" font-family="Arial" font-size="18.75" lengthAdjust="spacing" textLength="249.234" x="132.1259" y="1462.912">Update metrics (AppCode)</text><ellipse cx="256.7429" cy="1550.1465" fill="none" rx="17.1875" ry="17.1875" style="stroke:#222222;stroke-width:1.5625;"/><ellipse cx="256.7429" cy="1550.1465" fill="#222222" rx="9.375" ry="9.375" style="stroke:#222222;stroke-width:1.5625;"/><line style="stroke:#444444;stroke-width:1.5625;" x1="256.7429" x2="256.7429" y1="230.5664" y2="261.8164"/><polygon fill="#444444" points="250.4929,246.1914,256.7429,261.8164,262.9929,246.1914,256.7429,252.4414" style="stroke:#444444;stroke-width:1.5625;"/><line style="stroke:#444444;stroke-width:1.5625;" x1="256.7429" x2="256.7429" y1="314.8926" y2="346.1426"/><polygon fill="#444444" points="250.4929,330.5176,256.7429,346.1426,262.9929,330.5176,256.7429,336.7676" style="stroke:#444444;stroke-width:1.5625;"/><line style="stroke:#444444;stroke-width:1.5625;" x1="256.7429" x2="256.7429" y1="108.7891" y2="177.4902"/><polygon fill="#444444" points="250.4929,161.8652,256.7429,177.4902,262.9929,161.8652,256.7429,168.1152" style="stroke:#444444;stroke-width:1.5625;"/><line style="stroke:#444444;stroke-width:1.5625;" x1="256.7429" x2="256.7429" y1="539.7461" y2="570.9961"/><polygon fill="#444444" points="250.4929,555.3711,256.7429,570.9961,262.9929,555.3711,256.7429,561.6211" style="stroke:#444444;stroke-width:1.5625;"/><line style="stroke:#444444;stroke-width:1.5625;" x1="256.7429" x2="256.7429" y1="399.2188" y2="486.6699"/><polygon fill="#444444" points="250.4929,471.0449,256.7429,486.6699,262.9929,471.0449,256.7429,477.2949" style="stroke:#444444;stroke-width:1.5625;"/><line style="stroke:#444444;stroke-width:1.5625;" x1="256.7429" x2="256.7429" y1="764.5996" y2="795.8496"/><polygon fill="#444444" points="250.4929,780.2246,256.7429,795.8496,262.9929,780.2246,256.7429,786.4746" style="stroke:#444444;stroke-width:1.5625;"/><line style="stroke:#444444;stroke-width:1.5625;" x1="176.6296" x2="141.143" y1="898.9258" y2="898.9258"/><line style="stroke:#444444;stroke-width:1.5625;" x1="141.143" x2="141.143" y1="898.9258" y2="933.3008"/><polygon fill="#444444" points="134.893,917.6758,141.143,933.3008,147.393,917.6758,141.143,923.9258" style="stroke:#444444;stroke-width:1.5625;"/><line style="stroke:#444444;stroke-width:1.5625;" x1="336.8561" x2="372.3427" y1="898.9258" y2="898.9258"/><line style="stroke:#444444;stroke-width:1.5625;" x1="372.3427" x2="372.3427" y1="898.9258" y2="933.3008"/><polygon fill="#444444" points="366.0927,917.6758,372.3427,933.3008,378.5927,917.6758,372.3427,923.9258" style="stroke:#444444;stroke-width:1.5625;"/><line style="stroke:#444444;stroke-width:1.5625;" x1="141.143" x2="141.143" y1="986.377" y2="1014.502"/><line style="stroke:#444444;stroke-width:1.5625;" x1="141.143" x2="237.9929" y1="1014.502" y2="1014.502"/><polygon fill="#444444" points="222.3679,1008.252,237.9929,1014.502,222.3679,1020.752,228.6179,1014.502" style="stroke:#444444;stroke-width:1.5625;"/><line style="stroke:#444444;stroke-width:1.5625;" x1="372.3427" x2="372.3427" y1="986.377" y2="1014.502"/><line style="stroke:#444444;stroke-width:1.5625;" x1="372.3427" x2="275.4929" y1="1014.502" y2="1014.502"/><polygon fill="#444444" points="291.1179,1008.252,275.4929,1014.502,291.1179,1020.752,284.8679,1014.502" style="stroke:#444444;stroke-width:1.5625;"/><line style="stroke:#444444;stroke-width:1.5625;" x1="256.7429" x2="256.7429" y1="848.9258" y2="880.1758"/><polygon fill="#444444" points="250.4929,864.5508,256.7429,880.1758,262.9929,864.5508,256.7429,870.8008" style="stroke:#444444;stroke-width:1.5625;"/><line style="stroke:#444444;stroke-width:1.5625;" x1="256.7429" x2="256.7429" y1="624.0723" y2="711.5234"/><polygon fill="#444444" points="250.4929,695.8984,256.7429,711.5234,262.9929,695.8984,256.7429,702.1484" style="stroke:#444444;stroke-width:1.5625;"/><line style="stroke:#444444;stroke-width:1.5625;" x1="256.7429" x2="256.7429" y1="1173.7793" y2="1205.0293"/><polygon fill="#444444" points="250.4929,1189.4043,256.7429,1205.0293,262.9929,1189.4043,256.7429,1195.6543" style="stroke:#444444;stroke-width:1.5625;"/><line style="stroke:#444444;stroke-width:1.5625;" x1="256.7429" x2="256.7429" y1="1033.252" y2="1120.7031"/><polygon fill="#444444" points="250.4929,1105.0781,256.7429,1120.7031,262.9929,1105.0781,256.7429,1111.3281" style="stroke:#444444;stroke-width:1.5625;"/><line style="stroke:#444444;stroke-width:1.5625;" x1="256.7429" x2="256.7429" y1="1398.6328" y2="1429.8828"/><polygon fill="#444444" points="250.4929,1414.2578,256.7429,1429.8828,262.9929,1414.2578,256.7429,1420.5078" style="stroke:#444444;stroke-width:1.5625;"/><line style="stroke:#444444;stroke-width:1.5625;" x1="256.7429" x2="256.7429" y1="1258.1055" y2="1345.5566"/><polygon fill="#444444" points="250.4929,1329.9316,256.7429,1345.5566,262.9929,1329.9316,256.7429,1336.1816" style="stroke:#444444;stroke-width:1.5625;"/><line style="stroke:#444444;stroke-width:1.5625;" x1="256.7429" x2="256.7429" y1="1482.959" y2="1532.959"/><polygon fill="#444444" points="250.4929,1517.334,256.7429,1532.959,262.9929,1517.334,256.7429,1523.584" style="stroke:#444444;stroke-width:1.5625;"/><?plantuml-src NLDTJ-Cm47pFhzZZvP82BJmWfFRXL0f8w12goeTqZyRP9AiwjkLrMghJ_VTR9oqgl5NnxEpCx9JNPBqAgeLtfTTrS9qj5ywu0Dk68cRy-SwDAjsMR0sLCdpyKdg2owkBeoyzZNR1Oe3BuuTv26uxyDyOMNZqT8kLwaoyTpO-gHO5IifaFyXgqvK8u_5a_vCdodj6VSvnPt3ikzPaaQAH4U-VKSCoE8tCS74zXTlvymiyKeLwfmMHhvIdyXeUB5FTn66WoBAViEo2TunJM8W0ifthsEmW8aS8dRN9TreBbKZ73sySHVKkZCJS8P-18Rl64g9BAXPE52Uasqe4t90VPnb75MAMYLjHIyx2oT8eUm9_Cu2fk2UB890Q8qF-kdhaoNpvm0MSWWvOegYIt6S9_ABgJ-IMOdDOsJyk6YS-WBMoe9NCQR7jvH21U0sHC1IpxDyN7NSVgBk8UochpdxDf-SQk9MFNH1hP4j9X4KRRgZVyPtpHSvN7oZVbA5IHL55jLK6yhv2884BUeEW6zJhObZXGa2Ji4THdWv19W1La2-2Z6bb9es8_5L0RD12_WUv481mt8dWdk8K62CyFyxJ9AQL-PFRWswaViRLGu07YDYglXbPOOibgSzuxka3j8YQQ6ShgcV3zQGGkwGu5MRYWok_v_66WQhT8M8yx-yZ0prBQ44Rnn9jJ_Vg-x1QZ86qb64Vmt0tw-GffEjalt4d86O9UWgZKT_rT1ffHQCYIE4aflvw3AqKTJI2N7LYjp9kAvqT79obWaUIlzmxDcf3BXJZJ9A0j2dLrld_?></g></svg>