<?plantuml 1.2026.2?><svg xmlns="http://www.w3.org/2000/svg" xmlns:xlink="http://www.w3.org/1999/xlink" contentStyleType="text/css" data-diagram-type="ACTIVITY" height="1756.25px" preserveAspectRatio="none" style="width:1978px;height:1756px;background:#FFFFFF;" version="1.1" viewBox="0 0 1978 1756" width="1978.125px" zoomAndPan="magnify"><title>Seeker Agent Update - Kubernetes Admission Controller Process</title><defs/><g><g class="title" data-source-line="1"><text fill="#000000" font-family="Arial" font-size="21.875" font-weight="bold" lengthAdjust="spacing" textLength="799.3668" x="587.8021" y="51.5549">Seeker Agent Update - Kubernetes Admission Controller Process</text></g><ellipse cx="989.7583" cy="89.5264" fill="#5B8FF9" rx="15.625" ry="15.625" style="stroke:#222222;stroke-width:1.5625;"/><rect fill="#FAFAFA" height="150.3662" rx="7.8125" ry="7.8125" style="stroke:#BDBDBD;stroke-width:2.3438;" width="352.9877" x="813.2645" y="120.7764"/><path d="M981.8649,120.7764 L981.8649,135.3027 L966.2399,150.9277 L813.2645,150.9277" fill="none" style="stroke:#BDBDBD;stroke-width:2.3438;"/><text fill="#222222" font-family="Arial" font-size="21.875" lengthAdjust="spacing" textLength="152.9755" x="817.952" y="142.6437">Seeker Admin</text><rect fill="#F7F7F7" height="74.9023" rx="7.8125" ry="7.8125" style="stroke:#4C4C4C;stroke-width:0.7813;" width="321.7377" x="828.8895" y="177.4902"/><text fill="#222222" font-family="Arial" font-size="18.75" lengthAdjust="spacing" textLength="290.4877" x="844.5145" y="210.5194">Download updated Kubernetes</text><text fill="#222222" font-family="Arial" font-size="18.75" lengthAdjust="spacing" textLength="188.443" x="844.5145" y="232.3456">integration package</text><rect fill="#FAFAFA" height="403.3447" rx="7.8125" ry="7.8125" style="stroke:#BDBDBD;stroke-width:2.3438;" width="407.9926" x="785.762" y="286.7676"/><path d="M1032.2281,286.7676 L1032.2281,301.2939 L1016.6031,316.9189 L785.762,316.9189" fill="none" style="stroke:#BDBDBD;stroke-width:2.3438;"/><text fill="#222222" font-family="Arial" font-size="21.875" lengthAdjust="spacing" textLength="230.8411" x="790.4495" y="308.6349">Platform Engineering</text><rect fill="#F7F7F7" height="74.9023" rx="7.8125" ry="7.8125" style="stroke:#4C4C4C;stroke-width:0.7813;" width="376.7426" x="801.387" y="343.4814"/><text fill="#222222" font-family="Arial" font-size="18.75" lengthAdjust="spacing" textLength="256.0822" x="817.012" y="376.5106">Update webhook.yaml with</text><text fill="#222222" font-family="Arial" font-size="18.75" lengthAdjust="spacing" textLength="345.4926" x="817.012" y="398.3368">SEEKER_SERVER_URL and image tag</text><rect fill="#F7F7F7" height="53.0762" rx="7.8125" ry="7.8125" style="stroke:#4C4C4C;stroke-width:0.7813;" width="303.244" x="838.1363" y="449.6338"/><text fill="#222222" font-family="Arial" font-size="18.75" lengthAdjust="spacing" textLength="271.994" x="853.7613" y="482.663">Build updated injector image</text><rect fill="#F7F7F7" height="53.0762" rx="7.8125" ry="7.8125" style="stroke:#4C4C4C;stroke-width:0.7813;" width="243.4784" x="868.0191" y="533.96"/><text fill="#222222" font-family="Arial" font-size="18.75" lengthAdjust="spacing" textLength="212.2284" x="883.6441" y="566.9891">Push image to registry</text><rect fill="#F7F7F7" height="53.0762" rx="7.8125" ry="7.8125" style="stroke:#4C4C4C;stroke-width:0.7813;" width="262.6678" x="858.4244" y="618.2861"/><text fill="#222222" font-family="Arial" font-size="18.75" lengthAdjust="spacing" textLength="231.4178" x="874.0494" y="651.3153">Apply webhook manifest</text><rect fill="#FAFAFA" height="150.3662" rx="7.8125" ry="7.8125" style="stroke:#BDBDBD;stroke-width:2.3438;" width="327.5177" x="825.9995" y="705.7373"/><path d="M1041.2872,705.7373 L1041.2872,720.2637 L1025.6622,735.8887 L825.9995,735.8887" fill="none" style="stroke:#BDBDBD;stroke-width:2.3438;"/><text fill="#222222" font-family="Arial" font-size="21.875" lengthAdjust="spacing" textLength="199.6628" x="830.687" y="727.6047">DevOps / Platform</text><rect fill="#F7F7F7" height="74.9023" rx="7.8125" ry="7.8125" style="stroke:#4C4C4C;stroke-width:0.7813;" width="296.2677" x="841.6245" y="762.4512"/><text fill="#222222" font-family="Arial" font-size="18.75" lengthAdjust="spacing" textLength="236.0321" x="857.2495" y="795.4803">Roll restart instrumented</text><text fill="#222222" font-family="Arial" font-size="18.75" lengthAdjust="spacing" textLength="265.0177" x="857.2495" y="817.3065">deployments by namespace</text><rect fill="#FAFAFA" height="234.6924" rx="7.8125" ry="7.8125" style="stroke:#BDBDBD;stroke-width:2.3438;" width="315.7532" x="831.8817" y="871.7285"/><path d="M1066.5131,871.7285 L1066.5131,886.2549 L1050.8881,901.8799 L831.8817,901.8799" fill="none" style="stroke:#BDBDBD;stroke-width:2.3438;"/><text fill="#222222" font-family="Arial" font-size="21.875" lengthAdjust="spacing" textLength="219.0063" x="836.5692" y="893.5959">Application Security</text><rect fill="#F7F7F7" height="53.0762" rx="7.8125" ry="7.8125" style="stroke:#4C4C4C;stroke-width:0.7813;" width="227.5482" x="875.9842" y="928.4424"/><text fill="#222222" font-family="Arial" font-size="18.75" lengthAdjust="spacing" textLength="196.2982" x="891.6092" y="961.4716">Run validation traffic</text><rect fill="#F7F7F7" height="74.9023" rx="7.8125" ry="7.8125" style="stroke:#4C4C4C;stroke-width:0.7813;" width="284.5032" x="847.5067" y="1012.7686"/><text fill="#222222" font-family="Arial" font-size="18.75" lengthAdjust="spacing" textLength="253.2532" x="863.1317" y="1045.7977">Confirm agents map to the</text><text fill="#222222" font-family="Arial" font-size="18.75" lengthAdjust="spacing" textLength="168.3838" x="863.1317" y="1067.6239">expected projects</text><polygon fill="#FFF6E5" points="883.6498,1137.6709,1095.8668,1137.6709,1114.6168,1156.4209,1095.8668,1175.1709,883.6498,1175.1709,864.8998,1156.4209,883.6498,1137.6709" style="stroke:#B26B00;stroke-width:0.7813;"/><text fill="#222222" font-family="Arial" font-size="17.1875" lengthAdjust="spacing" textLength="212.2169" x="883.6498" y="1162.3711">Injected agents healthy?</text><text fill="#000000" font-family="Arial" font-size="17.1875" lengthAdjust="spacing" textLength="29.7005" x="835.1994" y="1152.3674">yes</text><text fill="#000000" font-family="Arial" font-size="17.1875" lengthAdjust="spacing" textLength="21.4088" x="1114.6168" y="1152.3674">no</text><rect fill="#FAFAFA" height="141.04" rx="7.8125" ry="7.8125" style="stroke:#BDBDBD;stroke-width:2.3438;" width="314.9109" x="659.1515" y="1190.7959"/><path d="M893.7828,1190.7959 L893.7828,1205.3223 L878.1578,1220.9473 L659.1515,1220.9473" fill="none" style="stroke:#BDBDBD;stroke-width:2.3438;"/><text fill="#222222" font-family="Arial" font-size="21.875" lengthAdjust="spacing" textLength="219.0063" x="663.839" y="1212.6633">Application Security</text><rect fill="#F7F7F7" height="53.0762" rx="7.8125" ry="7.8125" style="stroke:#4C4C4C;stroke-width:0.7813;" width="283.6609" x="674.7765" y="1247.5098"/><text fill="#222222" font-family="Arial" font-size="18.75" lengthAdjust="spacing" textLength="252.4109" x="690.4015" y="1280.5389">Record evidence and close</text><ellipse cx="816.6069" cy="1389.6973" fill="none" rx="17.1875" ry="17.1875" style="stroke:#222222;stroke-width:1.5625;"/><ellipse cx="816.6069" cy="1389.6973" fill="#222222" rx="9.375" ry="9.375" style="stroke:#222222;stroke-width:1.5625;"/><rect fill="#FAFAFA" height="244.1162" rx="7.8125" ry="7.8125" style="stroke:#BDBDBD;stroke-width:2.3438;" width="315.1947" x="1005.3123" y="1190.7959"/><path d="M1251.7784,1190.7959 L1251.7784,1205.3223 L1236.1534,1220.9473 L1005.3123,1220.9473" fill="none" style="stroke:#BDBDBD;stroke-width:2.3438;"/><text fill="#222222" font-family="Arial" font-size="21.875" lengthAdjust="spacing" textLength="230.8411" x="1009.9998" y="1212.6633">Platform Engineering</text><rect fill="#F7F7F7" height="74.9023" rx="7.8125" ry="7.8125" style="stroke:#4C4C4C;stroke-width:0.7813;" width="271.4661" x="1027.1767" y="1247.5098"/><text fill="#222222" font-family="Arial" font-size="18.75" lengthAdjust="spacing" textLength="240.2161" x="1042.8017" y="1280.5389">Roll back webhook image</text><text fill="#222222" font-family="Arial" font-size="18.75" lengthAdjust="spacing" textLength="157.2052" x="1042.8017" y="1302.3651">or prior manifest</text><rect fill="#F7F7F7" height="53.0762" rx="7.8125" ry="7.8125" style="stroke:#4C4C4C;stroke-width:0.7813;" width="283.9447" x="1020.9373" y="1363.0859"/><text fill="#222222" font-family="Arial" font-size="18.75" lengthAdjust="spacing" textLength="252.6947" x="1036.5623" y="1396.1151">Restart affected workloads</text><ellipse cx="1162.9097" cy="1483.3496" fill="none" rx="17.1875" ry="17.1875" style="stroke:#222222;stroke-width:1.5625;"/><ellipse cx="1162.9097" cy="1483.3496" fill="#222222" rx="9.375" ry="9.375" style="stroke:#222222;stroke-width:1.5625;"/><line style="stroke:#000000;stroke-width:1.5625;" x1="989.7583" x2="989.7583" y1="105.1514" y2="177.4902"/><polygon fill="#000000" points="983.5083,161.8652,989.7583,177.4902,996.0083,161.8652,989.7583,168.1152" style="stroke:#000000;stroke-width:1.5625;"/><line style="stroke:#000000;stroke-width:1.5625;" x1="989.7583" x2="989.7583" y1="418.3838" y2="449.6338"/><polygon fill="#000000" points="983.5083,434.0088,989.7583,449.6338,996.0083,434.0088,989.7583,440.2588" style="stroke:#000000;stroke-width:1.5625;"/><line style="stroke:#000000;stroke-width:1.5625;" x1="989.7583" x2="989.7583" y1="502.71" y2="533.96"/><polygon fill="#000000" points="983.5083,518.335,989.7583,533.96,996.0083,518.335,989.7583,524.585" style="stroke:#000000;stroke-width:1.5625;"/><line style="stroke:#000000;stroke-width:1.5625;" x1="989.7583" x2="989.7583" y1="587.0361" y2="618.2861"/><polygon fill="#000000" points="983.5083,602.6611,989.7583,618.2861,996.0083,602.6611,989.7583,608.9111" style="stroke:#000000;stroke-width:1.5625;"/><line style="stroke:#000000;stroke-width:1.5625;" x1="989.7583" x2="989.7583" y1="252.3926" y2="343.4814"/><polygon fill="#000000" points="983.5083,327.8564,989.7583,343.4814,996.0083,327.8564,989.7583,334.1064" style="stroke:#000000;stroke-width:1.5625;"/><line style="stroke:#000000;stroke-width:1.5625;" x1="989.7583" x2="989.7583" y1="671.3623" y2="762.4512"/><polygon fill="#000000" points="983.5083,746.8262,989.7583,762.4512,996.0083,746.8262,989.7583,753.0762" style="stroke:#000000;stroke-width:1.5625;"/><line style="stroke:#000000;stroke-width:1.5625;" x1="989.7583" x2="989.7583" y1="981.5186" y2="1012.7686"/><polygon fill="#000000" points="983.5083,997.1436,989.7583,1012.7686,996.0083,997.1436,989.7583,1003.3936" style="stroke:#000000;stroke-width:1.5625;"/><line style="stroke:#000000;stroke-width:1.5625;" x1="989.7583" x2="989.7583" y1="837.3535" y2="928.4424"/><polygon fill="#000000" points="983.5083,912.8174,989.7583,928.4424,996.0083,912.8174,989.7583,919.0674" style="stroke:#000000;stroke-width:1.5625;"/><line style="stroke:#000000;stroke-width:1.5625;" x1="816.6069" x2="816.6069" y1="1300.5859" y2="1372.5098"/><polygon fill="#000000" points="810.3569,1356.8848,816.6069,1372.5098,822.8569,1356.8848,816.6069,1363.1348" style="stroke:#000000;stroke-width:1.5625;"/><line style="stroke:#000000;stroke-width:1.5625;" x1="1162.9097" x2="1162.9097" y1="1322.4121" y2="1363.0859"/><polygon fill="#000000" points="1156.6597,1347.4609,1162.9097,1363.0859,1169.1597,1347.4609,1162.9097,1353.7109" style="stroke:#000000;stroke-width:1.5625;"/><line style="stroke:#000000;stroke-width:1.5625;" x1="1162.9097" x2="1162.9097" y1="1416.1621" y2="1466.1621"/><polygon fill="#000000" points="1156.6597,1450.5371,1162.9097,1466.1621,1169.1597,1450.5371,1162.9097,1456.7871" style="stroke:#000000;stroke-width:1.5625;"/><line style="stroke:#000000;stroke-width:1.5625;" x1="864.8998" x2="816.6069" y1="1156.4209" y2="1156.4209"/><line style="stroke:#000000;stroke-width:1.5625;" x1="816.6069" x2="816.6069" y1="1156.4209" y2="1247.5098"/><polygon fill="#000000" points="810.3569,1231.8848,816.6069,1247.5098,822.8569,1231.8848,816.6069,1238.1348" style="stroke:#000000;stroke-width:1.5625;"/><line style="stroke:#000000;stroke-width:1.5625;" x1="1114.6168" x2="1162.9097" y1="1156.4209" y2="1156.4209"/><line style="stroke:#000000;stroke-width:1.5625;" x1="1162.9097" x2="1162.9097" y1="1156.4209" y2="1247.5098"/><polygon fill="#000000" points="1156.6597,1231.8848,1162.9097,1247.5098,1169.1597,1231.8848,1162.9097,1238.1348" style="stroke:#000000;stroke-width:1.5625;"/><line style="stroke:#000000;stroke-width:1.5625;" x1="989.7583" x2="989.7583" y1="1087.6709" y2="1137.6709"/><polygon fill="#000000" points="983.5083,1122.0459,989.7583,1137.6709,996.0083,1122.0459,989.7583,1128.2959" style="stroke:#000000;stroke-width:1.5625;"/><g class="legend" data-source-line="28"><rect fill="none" height="200.1221" rx="7.8125" ry="7.8125" style="stroke:#000000;stroke-width:1.5625;" width="1906.221" x="34.375" y="1517.7246"/><text fill="#000000" font-family="Arial" font-size="21.875" font-weight="bold" lengthAdjust="spacing" textLength="60.434" x="49.8032" y="1548.967">Field</text><text fill="#000000" font-family="Arial" font-size="21.875" font-weight="bold" lengthAdjust="spacing" textLength="69.5984" x="253.8879" y="1548.967">Value</text><text fill="#000000" font-family="Arial" font-size="21.875" lengthAdjust="spacing" textLength="83.847" x="49.1409" y="1574.4308">Process</text><text fill="#000000" font-family="Arial" font-size="21.875" lengthAdjust="spacing" textLength="667.54" x="253.2257" y="1574.4308">Kubernetes admission-controller-based Seeker agent refresh</text><text fill="#000000" font-family="Arial" font-size="21.875" lengthAdjust="spacing" textLength="190.1779" x="49.1409" y="1599.8947">Primary message</text><text fill="#000000" font-family="Arial" font-size="21.875" lengthAdjust="spacing" textLength="1672.6044" x="253.2257" y="1599.8947">For Kubernetes injection, refresh the webhook package and image, apply the updated manifest, roll workloads, and validate namespace-level reporting.</text><text fill="#000000" font-family="Arial" font-size="21.875" lengthAdjust="spacing" textLength="78.656" x="49.1409" y="1625.3586">Trigger</text><text fill="#000000" font-family="Arial" font-size="21.875" lengthAdjust="spacing" textLength="819.4473" x="253.2257" y="1625.3586">Seeker agent injection is managed by the Kubernetes admission controller</text><text fill="#000000" font-family="Arial" font-size="21.875" lengthAdjust="spacing" textLength="142.7643" x="49.1409" y="1650.8224">Entry criteria</text><text fill="#000000" font-family="Arial" font-size="21.875" lengthAdjust="spacing" textLength="890.7654" x="253.2257" y="1650.8224">Server upgraded; webhook-based injection is in use for one or more namespaces</text><text fill="#000000" font-family="Arial" font-size="21.875" lengthAdjust="spacing" textLength="125.9842" x="49.1409" y="1676.2863">Exit criteria</text><text fill="#000000" font-family="Arial" font-size="21.875" lengthAdjust="spacing" textLength="838.4171" x="253.2257" y="1676.2863">Webhook updated, workloads rolled, and injected agents report successfully</text><text fill="#000000" font-family="Arial" font-size="21.875" lengthAdjust="spacing" textLength="146.8765" x="49.1409" y="1701.7502">Key evidence</text><text fill="#000000" font-family="Arial" font-size="21.875" lengthAdjust="spacing" textLength="1161.2549" x="253.2257" y="1701.7502">Webhook manifest diff, image build log, kubectl apply output, rollout restart log, Seeker validation results</text><line style="stroke:#000000;stroke-width:1.5625;" x1="42.1875" x2="1932.7835" y1="1528.6621" y2="1528.6621"/><line style="stroke:#000000;stroke-width:1.5625;" x1="42.1875" x2="1932.7835" y1="1554.126" y2="1554.126"/><line style="stroke:#000000;stroke-width:1.5625;" x1="42.1875" x2="1932.7835" y1="1579.5898" y2="1579.5898"/><line style="stroke:#000000;stroke-width:1.5625;" x1="42.1875" x2="1932.7835" y1="1605.0537" y2="1605.0537"/><line style="stroke:#000000;stroke-width:1.5625;" x1="42.1875" x2="1932.7835" y1="1630.5176" y2="1630.5176"/><line style="stroke:#000000;stroke-width:1.5625;" x1="42.1875" x2="1932.7835" y1="1655.9814" y2="1655.9814"/><line style="stroke:#000000;stroke-width:1.5625;" x1="42.1875" x2="1932.7835" y1="1681.4453" y2="1681.4453"/><line style="stroke:#000000;stroke-width:1.5625;" x1="42.1875" x2="1932.7835" y1="1706.9092" y2="1706.9092"/><line style="stroke:#000000;stroke-width:1.5625;" x1="42.1875" x2="42.1875" y1="1528.6621" y2="1706.9092"/><line style="stroke:#000000;stroke-width:1.5625;" x1="246.2723" x2="246.2723" y1="1528.6621" y2="1706.9092"/><line style="stroke:#000000;stroke-width:1.5625;" x1="1932.7835" x2="1932.7835" y1="1528.6621" y2="1706.9092"/></g><?plantuml-src ZLNRZjis47tNLmpIbmtWJJT1DvSkYi9UMq2nHRjOD-cBWO8MHn9hYYH8oeuGvzyxf2XPwxfeBFWs9C_Cd7D6SZkX3BEiWIqhTfNLhUBtMceBXrfupDouxch6zK6e2aectNI56m6lRsycaGXJQAlGmklfmjnQVUZn5v8IJfQMMB9M-bmh_njhaBOA9ZCll4HO8-u8QbwXyl3HSEOHhk6XtIAbyEXWpXlXdD0AxkcyrLBIzaUh2tJkcthul-xvnUfEwwpmOYzy1ryoWCKPs7Vvkt255MqvsXJzuJvS50seAVOclYYs5ApHYlyRAi_Vhcud6wQ8YpTl5pStfyLBm6lFx12yNRpFymyKN8tuOsZ1xFFGrqcxz4dA1Bw_d7UrM8Rh8WlpS5tiTugjDAbxcSRR_4EUdoSSAxu4MmkEW8qXPJYwmWeJgiuoYUGb3bPKjS-EFq4kK7AW7v-OR16EsN6m3nodHcE3qQwBqMZNM-QG3oPbqQGMIukkJa2YORQ3Xj1ebG1pgd42AjJVM8IwPkCvNoCSS5jhlIEoYrqunwXWGgfm1imOsSLDRPm63WrJeaJd2OAAWeEsEwaPTxDuRC-aY5EZoBoE0F5QuXubvJEQf5JLgrZg7qH8HKqSdtSp5WZ2XKmKvR3j2xX43fp8YR0h-jS1iU-HvYQYspsjjQQoZ2E_6tfDL3xB9nIq3g4aphH2eAz6sqadha_nMVXfXZyJUOcVsOcHI528H3vZ9aeP6tM93t1j4RGlMqaq1_W7x03tP2PLu0HzO1suACjPhmviMq5UahgQmOx8ARnCUkdMcpOfHByfcGl3s6zDX2UbGk-qJBUSq1vPjJTibcNnI9QT9l35S7SazjMBE3a_BlL1XMP7UvnKsYYXF1BlyN3orXsDoXJoKJ9FX3UaN2KK4gUgIj3fzfi4UzMnXjmcVBrHwzNgOVNqrthrz8c-FZxzUd8iU5RTXTEBoCrGLSy-AHetnGsFBRa_dT54GIKSUISkpIE9XpFgpqjVulvtu-1x67f8TJ-5iHWO5ufGsuOaHxvH78tKNHCDGAuUdNKE7GeGHK_S6ekMtDODwAsQIkSjAqjHnBBfYLGAeZ8vh64cT4QZir7usVJkCrO79bpCA4gu-kNCbpKowUlkvvVXe8Ah3jrB0l-cua9vI4zZVd9m4AQGsaNElzBRUMqof6SYN2bzXlpVPXXe3K_FKPWetaQHgiQACAsZKAcKNW8YgEzm7CpdjIWQgUmV?></g></svg>