<?plantuml 1.2026.2?><svg xmlns="http://www.w3.org/2000/svg" xmlns:xlink="http://www.w3.org/1999/xlink" contentStyleType="text/css" data-diagram-type="ACTIVITY" height="1503.125px" preserveAspectRatio="none" style="width:1060px;height:1503px;background:#FFFFFF;" version="1.1" viewBox="0 0 1060 1503" width="1060.9375px" zoomAndPan="magnify"><title>AppSec Process 08: IAST Verified Vulnerabilities (Seeker)</title><defs/><g><g class="title" data-source-line="2"><text fill="#000000" font-family="Arial" font-size="25" font-weight="bold" lengthAdjust="spacing" textLength="812.8052" x="121.8857" y="54.4556">AppSec Process 08: IAST Verified Vulnerabilities (Seeker)</text></g><ellipse cx="272.1115" cy="93.1641" fill="#222222" rx="15.625" ry="15.625" style="stroke:#222222;stroke-width:1.5625;"/><rect fill="none" height="209.2285" rx="7.8125" ry="7.8125" style="stroke:#777777;stroke-width:2.3438;" width="386.2579" x="78.9825" y="124.4141"/><path d="M197.7692,124.4141 L197.7692,135.3027 L182.1442,150.9277 L78.9825,150.9277" fill="none" style="stroke:#777777;stroke-width:2.3438;"/><text fill="#111111" font-family="Arial" font-size="18.75" lengthAdjust="spacing" textLength="103.1616" x="83.67" y="143.3807">Instrument</text><rect fill="#F7F7F7" height="53.0762" rx="7.8125" ry="7.8125" style="stroke:#444444;stroke-width:0.7813;" width="328.714" x="107.7545" y="177.4902"/><text fill="#000000" font-family="Arial" font-size="18.75" lengthAdjust="spacing" textLength="297.464" x="123.3795" y="210.5194">Deploy Seeker agent to test/QA</text><rect fill="#F7F7F7" height="53.0762" rx="7.8125" ry="7.8125" style="stroke:#444444;stroke-width:0.7813;" width="355.0079" x="94.6075" y="261.8164"/><text fill="#000000" font-family="Arial" font-size="18.75" lengthAdjust="spacing" textLength="323.7579" x="110.2325" y="294.8456">Register application with AppCode</text><rect fill="none" height="209.2285" rx="7.8125" ry="7.8125" style="stroke:#777777;stroke-width:2.3438;" width="361.0718" x="91.5756" y="349.2676"/><path d="M228.801,349.2676 L228.801,360.1563 L213.176,375.7813 L91.5756,375.7813" fill="none" style="stroke:#777777;stroke-width:2.3438;"/><text fill="#111111" font-family="Arial" font-size="18.75" lengthAdjust="spacing" textLength="121.6003" x="96.2631" y="368.2343">Exercise App</text><rect fill="#F7F7F7" height="53.0762" rx="7.8125" ry="7.8125" style="stroke:#444444;stroke-width:0.7813;" width="328.3478" x="107.9376" y="402.3438"/><text fill="#000000" font-family="Arial" font-size="18.75" lengthAdjust="spacing" textLength="297.0978" x="123.5626" y="435.3729">Run functional/integration tests</text><rect fill="#F7F7F7" height="53.0762" rx="7.8125" ry="7.8125" style="stroke:#444444;stroke-width:0.7813;" width="329.8218" x="107.2006" y="486.6699"/><text fill="#000000" font-family="Arial" font-size="18.75" lengthAdjust="spacing" textLength="298.5718" x="122.8256" y="519.6991">Optional targeted security tests</text><rect fill="none" height="309.2285" rx="7.8125" ry="7.8125" style="stroke:#777777;stroke-width:2.3438;" width="570.459" x="17.1875" y="574.1211"/><path d="M95.3339,574.1211 L95.3339,585.0098 L79.7089,600.6348 L17.1875,600.6348" fill="none" style="stroke:#777777;stroke-width:2.3438;"/><text fill="#111111" font-family="Arial" font-size="18.75" lengthAdjust="spacing" textLength="62.5214" x="21.875" y="593.0878">Detect</text><rect fill="#F7F7F7" height="53.0762" rx="7.8125" ry="7.8125" style="stroke:#444444;stroke-width:0.7813;" width="391.0339" x="76.5945" y="627.1973"/><text fill="#000000" font-family="Arial" font-size="18.75" lengthAdjust="spacing" textLength="359.7839" x="92.2195" y="660.2264">Seeker identifies runtime vulnerability</text><polygon fill="#F7F7F7" points="196.2189,711.5234,348.0042,711.5234,366.7542,730.2734,348.0042,749.0234,196.2189,749.0234,177.4689,730.2734,196.2189,711.5234" style="stroke:#444444;stroke-width:0.7813;"/><text fill="#000000" font-family="Arial" font-size="18.75" lengthAdjust="spacing" textLength="151.7853" x="196.2189" y="736.7645">Seeker verified?</text><text fill="#000000" font-family="Arial" font-size="18.75" lengthAdjust="spacing" textLength="32.7576" x="144.7113" y="725.8514">Yes</text><text fill="#000000" font-family="Arial" font-size="18.75" lengthAdjust="spacing" textLength="25.4974" x="366.7542" y="725.8514">No</text><rect fill="#F7F7F7" height="53.0762" rx="7.8125" ry="7.8125" style="stroke:#444444;stroke-width:0.7813;" width="196.4935" x="35.9375" y="764.6484"/><text fill="#000000" font-family="Arial" font-size="18.75" lengthAdjust="spacing" textLength="165.2435" x="51.5625" y="797.6776">Mark as VERIFIED</text><rect fill="#F7F7F7" height="53.0762" rx="7.8125" ry="7.8125" style="stroke:#444444;stroke-width:0.7813;" width="292.7155" x="263.681" y="764.6484"/><text fill="#000000" font-family="Arial" font-size="18.75" lengthAdjust="spacing" textLength="261.4655" x="279.306" y="797.6776">Route for manual validation</text><polygon fill="#F7F7F7" points="272.1115,827.0996,290.8615,845.8496,272.1115,864.5996,253.3615,845.8496,272.1115,827.0996" style="stroke:#444444;stroke-width:0.7813;"/><rect fill="none" height="293.5547" rx="7.8125" ry="7.8125" style="stroke:#777777;stroke-width:2.3438;" width="394.7174" x="74.7528" y="898.9746"/><path d="M228.0365,898.9746 L228.0365,909.8633 L212.4115,925.4883 L74.7528,925.4883" fill="none" style="stroke:#777777;stroke-width:2.3438;"/><text fill="#111111" font-family="Arial" font-size="18.75" lengthAdjust="spacing" textLength="137.6587" x="79.4403" y="917.9413">Triage &amp; Track</text><rect fill="#F7F7F7" height="53.0762" rx="7.8125" ry="7.8125" style="stroke:#444444;stroke-width:0.7813;" width="319.2932" x="112.4649" y="952.0508"/><text fill="#000000" font-family="Arial" font-size="18.75" lengthAdjust="spacing" textLength="288.0432" x="128.0899" y="985.08">Correlate to AppCode + owner</text><rect fill="#F7F7F7" height="53.0762" rx="7.8125" ry="7.8125" style="stroke:#444444;stroke-width:0.7813;" width="363.4674" x="90.3778" y="1036.377"/><text fill="#000000" font-family="Arial" font-size="18.75" lengthAdjust="spacing" textLength="332.2174" x="106.0028" y="1069.4061">Create/Update ticket with evidence</text><rect fill="#F7F7F7" height="53.0762" rx="7.8125" ry="7.8125" style="stroke:#444444;stroke-width:0.7813;" width="213.3942" x="165.4144" y="1120.7031"/><text fill="#000000" font-family="Arial" font-size="18.75" lengthAdjust="spacing" textLength="182.1442" x="181.0394" y="1153.7323">Set SLA by severity</text><rect fill="none" height="212.3291" rx="7.8125" ry="7.8125" style="stroke:#777777;stroke-width:2.3438;" width="948.5046" x="95.5719" y="1208.1543"/><path d="M294.5679,1208.1543 L294.5679,1219.043 L278.9429,1234.668 L95.5719,1234.668" fill="none" style="stroke:#777777;stroke-width:2.3438;"/><text fill="#111111" font-family="Arial" font-size="18.75" lengthAdjust="spacing" textLength="183.371" x="100.2594" y="1227.121">Remediate &amp; Verify</text><rect fill="#F7F7F7" height="53.0762" rx="7.8125" ry="7.8125" style="stroke:#444444;stroke-width:0.7813;" width="187.8967" x="178.1631" y="1261.2305"/><text fill="#000000" font-family="Arial" font-size="18.75" lengthAdjust="spacing" textLength="156.6467" x="193.7881" y="1294.2596">Fix and redeploy</text><path d="M464.2761,1342.4561 L464.2761,1365.8447 L433.0261,1372.0947 L464.2761,1378.3447 L464.2761,1401.7334 A0,0 0 0 0 464.2761,1401.7334 L1028.4515,1401.7334 A0,0 0 0 0 1028.4515,1401.7334 L1028.4515,1358.0811 L1012.8265,1342.4561 L464.2761,1342.4561 A0,0 0 0 0 464.2761,1342.4561" fill="#FFF8D6" style="stroke:#C7A700;stroke-width:0.7813;"/><path d="M1012.8265,1342.4561 L1012.8265,1358.0811 L1028.4515,1358.0811 L1012.8265,1342.4561" fill="#FFF8D6" style="stroke:#C7A700;stroke-width:0.7813;"/><text fill="#000000" font-family="Arial" font-size="18.75" lengthAdjust="spacing" textLength="131.4697" x="473.6511" y="1367.6727">Key message:</text><text fill="#000000" font-family="Arial" font-size="18.75" font-weight="bold" lengthAdjust="spacing" textLength="387.973" x="611.0809" y="1367.6727">Verified findings reduce triage noise</text><text fill="#000000" font-family="Arial" font-size="18.75" lengthAdjust="spacing" textLength="5.9601" x="999.054" y="1367.6727">.</text><text fill="#000000" font-family="Arial" font-size="18.75" lengthAdjust="spacing" textLength="513.1256" x="473.6511" y="1389.4989">AppCode keeps runtime findings tied to release trains.</text><rect fill="#F7F7F7" height="53.0762" rx="7.8125" ry="7.8125" style="stroke:#444444;stroke-width:0.7813;" width="321.8292" x="111.1969" y="1345.5566"/><text fill="#000000" font-family="Arial" font-size="18.75" lengthAdjust="spacing" textLength="290.5792" x="126.8219" y="1378.5858">Re-run tests to confirm closure</text><ellipse cx="272.1115" cy="1468.9209" fill="none" rx="17.1875" ry="17.1875" style="stroke:#222222;stroke-width:1.5625;"/><ellipse cx="272.1115" cy="1468.9209" fill="#222222" rx="9.375" ry="9.375" style="stroke:#222222;stroke-width:1.5625;"/><line style="stroke:#444444;stroke-width:1.5625;" x1="272.1115" x2="272.1115" y1="230.5664" y2="261.8164"/><polygon fill="#444444" points="265.8615,246.1914,272.1115,261.8164,278.3615,246.1914,272.1115,252.4414" style="stroke:#444444;stroke-width:1.5625;"/><line style="stroke:#444444;stroke-width:1.5625;" x1="272.1115" x2="272.1115" y1="108.7891" y2="177.4902"/><polygon fill="#444444" points="265.8615,161.8652,272.1115,177.4902,278.3615,161.8652,272.1115,168.1152" style="stroke:#444444;stroke-width:1.5625;"/><line style="stroke:#444444;stroke-width:1.5625;" x1="272.1115" x2="272.1115" y1="455.4199" y2="486.6699"/><polygon fill="#444444" points="265.8615,471.0449,272.1115,486.6699,278.3615,471.0449,272.1115,477.2949" style="stroke:#444444;stroke-width:1.5625;"/><line style="stroke:#444444;stroke-width:1.5625;" x1="272.1115" x2="272.1115" y1="314.8926" y2="402.3438"/><polygon fill="#444444" points="265.8615,386.7188,272.1115,402.3438,278.3615,386.7188,272.1115,392.9688" style="stroke:#444444;stroke-width:1.5625;"/><line style="stroke:#444444;stroke-width:1.5625;" x1="177.4689" x2="134.1843" y1="730.2734" y2="730.2734"/><line style="stroke:#444444;stroke-width:1.5625;" x1="134.1843" x2="134.1843" y1="730.2734" y2="764.6484"/><polygon fill="#444444" points="127.9343,749.0234,134.1843,764.6484,140.4343,749.0234,134.1843,755.2734" style="stroke:#444444;stroke-width:1.5625;"/><line style="stroke:#444444;stroke-width:1.5625;" x1="366.7542" x2="410.0388" y1="730.2734" y2="730.2734"/><line style="stroke:#444444;stroke-width:1.5625;" x1="410.0388" x2="410.0388" y1="730.2734" y2="764.6484"/><polygon fill="#444444" points="403.7888,749.0234,410.0388,764.6484,416.2888,749.0234,410.0388,755.2734" style="stroke:#444444;stroke-width:1.5625;"/><line style="stroke:#444444;stroke-width:1.5625;" x1="134.1843" x2="134.1843" y1="817.7246" y2="845.8496"/><line style="stroke:#444444;stroke-width:1.5625;" x1="134.1843" x2="253.3615" y1="845.8496" y2="845.8496"/><polygon fill="#444444" points="237.7365,839.5996,253.3615,845.8496,237.7365,852.0996,243.9865,845.8496" style="stroke:#444444;stroke-width:1.5625;"/><line style="stroke:#444444;stroke-width:1.5625;" x1="410.0388" x2="410.0388" y1="817.7246" y2="845.8496"/><line style="stroke:#444444;stroke-width:1.5625;" x1="410.0388" x2="290.8615" y1="845.8496" y2="845.8496"/><polygon fill="#444444" points="306.4865,839.5996,290.8615,845.8496,306.4865,852.0996,300.2365,845.8496" style="stroke:#444444;stroke-width:1.5625;"/><line style="stroke:#444444;stroke-width:1.5625;" x1="272.1115" x2="272.1115" y1="680.2734" y2="711.5234"/><polygon fill="#444444" points="265.8615,695.8984,272.1115,711.5234,278.3615,695.8984,272.1115,702.1484" style="stroke:#444444;stroke-width:1.5625;"/><line style="stroke:#444444;stroke-width:1.5625;" x1="272.1115" x2="272.1115" y1="539.7461" y2="627.1973"/><polygon fill="#444444" points="265.8615,611.5723,272.1115,627.1973,278.3615,611.5723,272.1115,617.8223" style="stroke:#444444;stroke-width:1.5625;"/><line style="stroke:#444444;stroke-width:1.5625;" x1="272.1115" x2="272.1115" y1="1005.127" y2="1036.377"/><polygon fill="#444444" points="265.8615,1020.752,272.1115,1036.377,278.3615,1020.752,272.1115,1027.002" style="stroke:#444444;stroke-width:1.5625;"/><line style="stroke:#444444;stroke-width:1.5625;" x1="272.1115" x2="272.1115" y1="1089.4531" y2="1120.7031"/><polygon fill="#444444" points="265.8615,1105.0781,272.1115,1120.7031,278.3615,1105.0781,272.1115,1111.3281" style="stroke:#444444;stroke-width:1.5625;"/><line style="stroke:#444444;stroke-width:1.5625;" x1="272.1115" x2="272.1115" y1="864.5996" y2="952.0508"/><polygon fill="#444444" points="265.8615,936.4258,272.1115,952.0508,278.3615,936.4258,272.1115,942.6758" style="stroke:#444444;stroke-width:1.5625;"/><line style="stroke:#444444;stroke-width:1.5625;" x1="272.1115" x2="272.1115" y1="1314.3066" y2="1345.5566"/><polygon fill="#444444" points="265.8615,1329.9316,272.1115,1345.5566,278.3615,1329.9316,272.1115,1336.1816" style="stroke:#444444;stroke-width:1.5625;"/><line style="stroke:#444444;stroke-width:1.5625;" x1="272.1115" x2="272.1115" y1="1173.7793" y2="1261.2305"/><polygon fill="#444444" points="265.8615,1245.6055,272.1115,1261.2305,278.3615,1245.6055,272.1115,1251.8555" style="stroke:#444444;stroke-width:1.5625;"/><line style="stroke:#444444;stroke-width:1.5625;" x1="272.1115" x2="272.1115" y1="1398.6328" y2="1451.7334"/><polygon fill="#444444" points="265.8615,1436.1084,272.1115,1451.7334,278.3615,1436.1084,272.1115,1442.3584" style="stroke:#444444;stroke-width:1.5625;"/><?plantuml-src PLDBRnen4BxxLqnpI1EgG7AeL953HI6HK5yf94WzElRiCi9hMtv0KDN_tl7kGabxM-tCVAyPnmrPBuDiu5cgJHrSjdhgZ0kmMrD24O_rk9RQxSZMK4aJJolQ4zoylpxvqy8e5om6k3ajJ49mkmx_as72az8CAvbDkdSsVPCDSYj98zwGLIPhXE5mr7_6aVG-ehgAQMzmw7DZHA9aUCJx9Ifu24vXZ73zOGppoV8HLXYe8jImoeOboMSob0WZN2mHDnWkXNWB3pbu5t4CJn4XP9k8HP2DAUG6RPA9d8Nam0UdiqBO7a0hiffZYR2Zj0RZTbr0Lup6B5i6amdZK8YOP4X2i5sMMz3EvaVuC_Wb0COpzCRjePC5ikPAuUJvDFenkIqj2wmffbBrtf3gTBNKR7_gDDwAtwz8xbumA8fjF3tD8bkeibMbGHeEDc4TUeTC5LkYxxuh0ykkCR5J3Zq7Ilj3qskU6VUeWv7U0MbsK6AAnqYt9plO5oAg3diuPlhn4j8QBLpyn7Z9BGpuLOODo0YhkyNyVdutAvF8CSF5DzUtB5nE21NVLYDjPk5RQKYtjjfkNbFrZ-P7Fh8QuHmU0rzZhttgGa33IolHzw72Et0xrjqcCmt8rT6JrsqJgGscRWMuBOuLtdOP95X-cS3pdfChrehVr_mBR51JGJdlhdJVQxYd5v1MGq3TdaI_-YjEiKk_Q5FELXGQKCR57Bh5MyTWWUfr4fzn3mq_17OuXi5WzT_1CdYvvDI5O1qVoM0m50VB6qJ_Ts_7gLGmc9qpGXdBkEHdCXISBnJsSkZE_m40?></g></svg>