<?xml version="1.0" encoding="us-ascii" standalone="no"?><svg xmlns="http://www.w3.org/2000/svg" xmlns:xlink="http://www.w3.org/1999/xlink" contentStyleType="text/css" height="1503.125px" preserveAspectRatio="none" style="width:1090px;height:1503px;background:#FFFFFF;" version="1.1" viewBox="0 0 1090 1503" width="1090.625px" zoomAndPan="magnify"><defs/><g><text fill="#000000" font-family="Arial" font-size="25" font-weight="bold" lengthAdjust="spacing" textLength="796.875" x="144.7266" y="54.4556">AppSec Process 08: IAST Verified Vulnerabilities (Seeker)</text><ellipse cx="275.3906" cy="93.1641" fill="#222222" rx="15.625" ry="15.625" style="stroke:#222222;stroke-width:1.5625;"/><rect fill="none" height="209.2285" rx="7.8125" ry="7.8125" style="stroke:#777777;stroke-width:2.34375;" width="396.875" x="76.9531" y="124.4141"/><path d="M198.8281,124.4141 L198.8281,135.3027 L183.2031,150.9277 L76.9531,150.9277 " fill="none" style="stroke:#777777;stroke-width:2.34375;"/><text fill="#111111" font-family="Arial" font-size="18.75" lengthAdjust="spacing" textLength="106.25" x="81.6406" y="143.3807">Instrument</text><rect fill="#F7F7F7" height="53.0762" rx="7.8125" ry="7.8125" style="stroke:#444444;stroke-width:0.78125;" width="340.625" x="105.0781" y="177.4902"/><text fill="#000000" font-family="Arial" font-size="18.75" lengthAdjust="spacing" textLength="309.375" x="120.7031" y="210.5194">Deploy Seeker agent to test/QA</text><rect fill="#F7F7F7" height="53.0762" rx="7.8125" ry="7.8125" style="stroke:#444444;stroke-width:0.78125;" width="365.625" x="92.5781" y="261.8164"/><text fill="#000000" font-family="Arial" font-size="18.75" lengthAdjust="spacing" textLength="334.375" x="108.2031" y="294.8456">Register application with AppCode</text><rect fill="none" height="209.2285" rx="7.8125" ry="7.8125" style="stroke:#777777;stroke-width:2.34375;" width="375" x="87.8906" y="349.2676"/><path d="M228.5156,349.2676 L228.5156,360.1563 L212.8906,375.7813 L87.8906,375.7813 " fill="none" style="stroke:#777777;stroke-width:2.34375;"/><text fill="#111111" font-family="Arial" font-size="18.75" lengthAdjust="spacing" textLength="125" x="92.5781" y="368.2343">Exercise App</text><rect fill="#F7F7F7" height="53.0762" rx="7.8125" ry="7.8125" style="stroke:#444444;stroke-width:0.78125;" width="342.1875" x="104.2969" y="402.3438"/><text fill="#000000" font-family="Arial" font-size="18.75" lengthAdjust="spacing" textLength="310.9375" x="119.9219" y="435.3729">Run functional/integration tests</text><rect fill="#F7F7F7" height="53.0762" rx="7.8125" ry="7.8125" style="stroke:#444444;stroke-width:0.78125;" width="343.75" x="103.5156" y="486.6699"/><text fill="#000000" font-family="Arial" font-size="18.75" lengthAdjust="spacing" textLength="312.5" x="119.1406" y="519.6991">Optional targeted security tests</text><rect fill="none" height="309.2285" rx="7.8125" ry="7.8125" style="stroke:#777777;stroke-width:2.34375;" width="579.6875" x="17.1875" y="574.1211"/><path d="M98.4375,574.1211 L98.4375,585.0098 L82.8125,600.6348 L17.1875,600.6348 " fill="none" style="stroke:#777777;stroke-width:2.34375;"/><text fill="#111111" font-family="Arial" font-size="18.75" lengthAdjust="spacing" textLength="65.625" x="21.875" y="593.0878">Detect</text><rect fill="#F7F7F7" height="53.0762" rx="7.8125" ry="7.8125" style="stroke:#444444;stroke-width:0.78125;" width="398.4375" x="76.1719" y="627.1973"/><text fill="#000000" font-family="Arial" font-size="18.75" lengthAdjust="spacing" textLength="367.1875" x="91.7969" y="660.2264">Seeker identifies runtime vulnerability</text><polygon fill="#F7F7F7" points="198.0469,711.5234,352.7344,711.5234,371.4844,730.2734,352.7344,749.0234,198.0469,749.0234,179.2969,730.2734,198.0469,711.5234" style="stroke:#444444;stroke-width:0.78125;"/><text fill="#000000" font-family="Arial" font-size="18.75" lengthAdjust="spacing" textLength="154.6875" x="198.0469" y="736.7645">Seeker verified?</text><text fill="#000000" font-family="Arial" font-size="18.75" lengthAdjust="spacing" textLength="34.375" x="144.9219" y="725.8514">Yes</text><text fill="#000000" font-family="Arial" font-size="18.75" lengthAdjust="spacing" textLength="26.5625" x="371.4844" y="725.8514">No</text><rect fill="#F7F7F7" height="53.0762" rx="7.8125" ry="7.8125" style="stroke:#444444;stroke-width:0.78125;" width="198.4375" x="35.9375" y="764.6484"/><text fill="#000000" font-family="Arial" font-size="18.75" lengthAdjust="spacing" textLength="167.1875" x="51.5625" y="797.6776">Mark as VERIFIED</text><rect fill="#F7F7F7" height="53.0762" rx="7.8125" ry="7.8125" style="stroke:#444444;stroke-width:0.78125;" width="300" x="265.625" y="764.6484"/><text fill="#000000" font-family="Arial" font-size="18.75" lengthAdjust="spacing" textLength="268.75" x="281.25" y="797.6776">Route for manual validation</text><polygon fill="#F7F7F7" points="275.3906,827.0996,294.1406,845.8496,275.3906,864.5996,256.6406,845.8496,275.3906,827.0996" style="stroke:#444444;stroke-width:0.78125;"/><rect fill="none" height="293.5547" rx="7.8125" ry="7.8125" style="stroke:#777777;stroke-width:2.34375;" width="406.25" x="72.2656" y="898.9746"/><path d="M230.0781,898.9746 L230.0781,909.8633 L214.4531,925.4883 L72.2656,925.4883 " fill="none" style="stroke:#777777;stroke-width:2.34375;"/><text fill="#111111" font-family="Arial" font-size="18.75" lengthAdjust="spacing" textLength="142.1875" x="76.9531" y="917.9413">Triage &amp; Track</text><rect fill="#F7F7F7" height="53.0762" rx="7.8125" ry="7.8125" style="stroke:#444444;stroke-width:0.78125;" width="329.6875" x="110.5469" y="952.0508"/><text fill="#000000" font-family="Arial" font-size="18.75" lengthAdjust="spacing" textLength="298.4375" x="126.1719" y="985.08">Correlate to AppCode + owner</text><rect fill="#F7F7F7" height="53.0762" rx="7.8125" ry="7.8125" style="stroke:#444444;stroke-width:0.78125;" width="375" x="87.8906" y="1036.377"/><text fill="#000000" font-family="Arial" font-size="18.75" lengthAdjust="spacing" textLength="343.75" x="103.5156" y="1069.4061">Create/Update ticket with evidence</text><rect fill="#F7F7F7" height="53.0762" rx="7.8125" ry="7.8125" style="stroke:#444444;stroke-width:0.78125;" width="214.0625" x="168.3594" y="1120.7031"/><text fill="#000000" font-family="Arial" font-size="18.75" lengthAdjust="spacing" textLength="182.8125" x="183.9844" y="1153.7323">Set SLA by severity</text><rect fill="none" height="212.3291" rx="7.8125" ry="7.8125" style="stroke:#777777;stroke-width:2.34375;" width="981.25" x="92.5781" y="1208.1543"/><path d="M294.1406,1208.1543 L294.1406,1219.043 L278.5156,1234.668 L92.5781,1234.668 " fill="none" style="stroke:#777777;stroke-width:2.34375;"/><text fill="#111111" font-family="Arial" font-size="18.75" lengthAdjust="spacing" textLength="185.9375" x="97.2656" y="1227.121">Remediate &amp; Verify</text><rect fill="#F7F7F7" height="53.0762" rx="7.8125" ry="7.8125" style="stroke:#444444;stroke-width:0.78125;" width="190.625" x="180.0781" y="1261.2305"/><text fill="#000000" font-family="Arial" font-size="18.75" lengthAdjust="spacing" textLength="159.375" x="195.7031" y="1294.2596">Fix and redeploy</text><path d="M473.8281,1342.4561 L473.8281,1365.8447 L442.5781,1372.0947 L473.8281,1378.3447 L473.8281,1401.7334 A0,0 0 0 0 473.8281,1401.7334 L1058.2031,1401.7334 A0,0 0 0 0 1058.2031,1401.7334 L1058.2031,1358.0811 L1042.5781,1342.4561 L473.8281,1342.4561 A0,0 0 0 0 473.8281,1342.4561 " fill="#FFF8D6" style="stroke:#C7A700;stroke-width:0.78125;"/><path d="M1042.5781,1342.4561 L1042.5781,1358.0811 L1058.2031,1358.0811 L1042.5781,1342.4561 " fill="#FFF8D6" style="stroke:#C7A700;stroke-width:0.78125;"/><text fill="#000000" font-family="Arial" font-size="18.75" lengthAdjust="spacing" textLength="134.375" x="483.2031" y="1367.6727">Key message:</text><text fill="#000000" font-family="Arial" font-size="18.75" font-weight="bold" lengthAdjust="spacing" textLength="404.6875" x="623.8281" y="1367.6727">Verified findings reduce triage noise</text><text fill="#000000" font-family="Arial" font-size="18.75" lengthAdjust="spacing" textLength="6.25" x="1028.5156" y="1367.6727">.</text><text fill="#000000" font-family="Arial" font-size="18.75" lengthAdjust="spacing" textLength="535.9375" x="483.2031" y="1389.4989">AppCode keeps runtime findings tied to release trains.</text><rect fill="#F7F7F7" height="53.0762" rx="7.8125" ry="7.8125" style="stroke:#444444;stroke-width:0.78125;" width="334.375" x="108.2031" y="1345.5566"/><text fill="#000000" font-family="Arial" font-size="18.75" lengthAdjust="spacing" textLength="303.125" x="123.8281" y="1378.5858">Re-run tests to confirm closure</text><ellipse cx="275.3906" cy="1468.9209" fill="none" rx="17.1875" ry="17.1875" style="stroke:#222222;stroke-width:1.5625;"/><ellipse cx="275.3906" cy="1468.9209" fill="#222222" rx="9.375" ry="9.375" style="stroke:#222222;stroke-width:1.5625;"/><line style="stroke:#444444;stroke-width:1.5625;" x1="275.3906" x2="275.3906" y1="230.5664" y2="261.8164"/><polygon fill="#444444" points="269.1406,246.1914,275.3906,261.8164,281.6406,246.1914,275.3906,252.4414" style="stroke:#444444;stroke-width:1.5625;"/><line style="stroke:#444444;stroke-width:1.5625;" x1="275.3906" x2="275.3906" y1="108.7891" y2="177.4902"/><polygon fill="#444444" points="269.1406,161.8652,275.3906,177.4902,281.6406,161.8652,275.3906,168.1152" style="stroke:#444444;stroke-width:1.5625;"/><line style="stroke:#444444;stroke-width:1.5625;" x1="275.3906" x2="275.3906" y1="455.4199" y2="486.6699"/><polygon fill="#444444" points="269.1406,471.0449,275.3906,486.6699,281.6406,471.0449,275.3906,477.2949" style="stroke:#444444;stroke-width:1.5625;"/><line style="stroke:#444444;stroke-width:1.5625;" x1="275.3906" x2="275.3906" y1="314.8926" y2="402.3438"/><polygon fill="#444444" points="269.1406,386.7188,275.3906,402.3438,281.6406,386.7188,275.3906,392.9688" style="stroke:#444444;stroke-width:1.5625;"/><line style="stroke:#444444;stroke-width:1.5625;" x1="179.2969" x2="135.1563" y1="730.2734" y2="730.2734"/><line style="stroke:#444444;stroke-width:1.5625;" x1="135.1563" x2="135.1563" y1="730.2734" y2="764.6484"/><polygon fill="#444444" points="128.9063,749.0234,135.1563,764.6484,141.4063,749.0234,135.1563,755.2734" style="stroke:#444444;stroke-width:1.5625;"/><line style="stroke:#444444;stroke-width:1.5625;" x1="371.4844" x2="415.625" y1="730.2734" y2="730.2734"/><line style="stroke:#444444;stroke-width:1.5625;" x1="415.625" x2="415.625" y1="730.2734" y2="764.6484"/><polygon fill="#444444" points="409.375,749.0234,415.625,764.6484,421.875,749.0234,415.625,755.2734" style="stroke:#444444;stroke-width:1.5625;"/><line style="stroke:#444444;stroke-width:1.5625;" x1="135.1563" x2="135.1563" y1="817.7246" y2="845.8496"/><line style="stroke:#444444;stroke-width:1.5625;" x1="135.1563" x2="256.6406" y1="845.8496" y2="845.8496"/><polygon fill="#444444" points="241.0156,839.5996,256.6406,845.8496,241.0156,852.0996,247.2656,845.8496" style="stroke:#444444;stroke-width:1.5625;"/><line style="stroke:#444444;stroke-width:1.5625;" x1="415.625" x2="415.625" y1="817.7246" y2="845.8496"/><line style="stroke:#444444;stroke-width:1.5625;" x1="415.625" x2="294.1406" y1="845.8496" y2="845.8496"/><polygon fill="#444444" points="309.7656,839.5996,294.1406,845.8496,309.7656,852.0996,303.5156,845.8496" style="stroke:#444444;stroke-width:1.5625;"/><line style="stroke:#444444;stroke-width:1.5625;" x1="275.3906" x2="275.3906" y1="680.2734" y2="711.5234"/><polygon fill="#444444" points="269.1406,695.8984,275.3906,711.5234,281.6406,695.8984,275.3906,702.1484" style="stroke:#444444;stroke-width:1.5625;"/><line style="stroke:#444444;stroke-width:1.5625;" x1="275.3906" x2="275.3906" y1="539.7461" y2="627.1973"/><polygon fill="#444444" points="269.1406,611.5723,275.3906,627.1973,281.6406,611.5723,275.3906,617.8223" style="stroke:#444444;stroke-width:1.5625;"/><line style="stroke:#444444;stroke-width:1.5625;" x1="275.3906" x2="275.3906" y1="1005.127" y2="1036.377"/><polygon fill="#444444" points="269.1406,1020.752,275.3906,1036.377,281.6406,1020.752,275.3906,1027.002" style="stroke:#444444;stroke-width:1.5625;"/><line style="stroke:#444444;stroke-width:1.5625;" x1="275.3906" x2="275.3906" y1="1089.4531" y2="1120.7031"/><polygon fill="#444444" points="269.1406,1105.0781,275.3906,1120.7031,281.6406,1105.0781,275.3906,1111.3281" style="stroke:#444444;stroke-width:1.5625;"/><line style="stroke:#444444;stroke-width:1.5625;" x1="275.3906" x2="275.3906" y1="864.5996" y2="952.0508"/><polygon fill="#444444" points="269.1406,936.4258,275.3906,952.0508,281.6406,936.4258,275.3906,942.6758" style="stroke:#444444;stroke-width:1.5625;"/><line style="stroke:#444444;stroke-width:1.5625;" x1="275.3906" x2="275.3906" y1="1314.3066" y2="1345.5566"/><polygon fill="#444444" points="269.1406,1329.9316,275.3906,1345.5566,281.6406,1329.9316,275.3906,1336.1816" style="stroke:#444444;stroke-width:1.5625;"/><line style="stroke:#444444;stroke-width:1.5625;" x1="275.3906" x2="275.3906" y1="1173.7793" y2="1261.2305"/><polygon fill="#444444" points="269.1406,1245.6055,275.3906,1261.2305,281.6406,1245.6055,275.3906,1251.8555" style="stroke:#444444;stroke-width:1.5625;"/><line style="stroke:#444444;stroke-width:1.5625;" x1="275.3906" x2="275.3906" y1="1398.6328" y2="1451.7334"/><polygon fill="#444444" points="269.1406,1436.1084,275.3906,1451.7334,281.6406,1436.1084,275.3906,1442.3584" style="stroke:#444444;stroke-width:1.5625;"/><!--SRC=[PLDBRnen4BxxLqnpI1EgG7AeL953HI6HK5yf94WzElRiCi9hMtv0KDN_tl7kGabxM-tCVAyPnmrPBuDiu5cgJHrSjdhgZ0kmMrD24O_rk9RQxSZMK4aJJolQ4zoylpxvqy8e5om6k3ajJ49mkmx_as72az8CAvbDkdSsVPCDSYj98zwGLIPhXE5mr7_6aVG-ehgAQMzmw7DZHA9aUCJx9Ifu24vXZ73zOGppoV8HLXYe8jImoeOboMSob0WZN2mHDnWkXNWB3pbu5t4CJn4XP9k8HP2DAUG6RPA9d8Nam0UdiqBO7a0hiffZYR2Zj0RZTbr0Lup6B5i6amdZK8YOP4X2i5sMMz3EvaVuC_Wb0COpzCRjePC5ikPAuUJvDFenkIqj2wmffbBrtf3gTBNKR7_gDDwAtwz8xbumA8fjF3tD8bkeibMbGHeEDc4TUeTC5LkYxxuh0ykkCR5J3Zq7Ilj3qskU6VUeWv7U0MbsK6AAnqYt9plO5oAg3diuPlhn4j8QBLpyn7Z9BGpuLOODo0YhkyNyVdutAvF8CSF5DzUtB5nE21NVLYDjPk5RQKYtjjfkNbFrZ-P7Fh8QuHmU0rzZhttgGa33IolHzw72Et0xrjqcCmt8rT6JrsqJgGscRWMuBOuLtdOP95X-cS3pdfChrehVr_mBR51JGJdlhdJVQxYd5v1MGq3TdaI_-YjEiKk_Q5FELXGQKCR57Bh5MyTWWUfr4fzn3mq_17OuXi5WzT_1CdYvvDI5O1qVoM0m50VB6qJ_Ts_7gLGmc9qpGXdBkEHdCXISBnJsSkZE_m40]--></g></svg>