<?plantuml 1.2026.2?><svg xmlns="http://www.w3.org/2000/svg" xmlns:xlink="http://www.w3.org/1999/xlink" contentStyleType="text/css" data-diagram-type="ACTIVITY" height="1837.5px" preserveAspectRatio="none" style="width:1273px;height:1837px;background:#FFFFFF;" version="1.1" viewBox="0 0 1273 1837" width="1273.4375px" zoomAndPan="magnify"><title>AppSec Process 10: COTS &amp; SaaS Vulnerability Management (Vendor-Led Fixes)</title><defs/><g><g class="title" data-source-line="2"><text fill="#000000" font-family="Arial" font-size="25" font-weight="bold" lengthAdjust="spacing" textLength="1128.2715" x="70.2454" y="54.4556">AppSec Process 10: COTS &amp; SaaS Vulnerability Management (Vendor-Led Fixes)</text></g><ellipse cx="299.9557" cy="93.1641" fill="#222222" rx="15.625" ry="15.625" style="stroke:#222222;stroke-width:1.5625;"/><rect fill="none" height="293.5547" rx="7.8125" ry="7.8125" style="stroke:#777777;stroke-width:2.3438;" width="395.2759" x="102.3178" y="124.4141"/><path d="M195.9824,124.4141 L195.9824,135.3027 L180.3574,150.9277 L102.3178,150.9277" fill="none" style="stroke:#777777;stroke-width:2.3438;"/><text fill="#111111" font-family="Arial" font-size="18.75" lengthAdjust="spacing" textLength="78.0396" x="107.0053" y="143.3807">Register</text><rect fill="#F7F7F7" height="53.0762" rx="7.8125" ry="7.8125" style="stroke:#444444;stroke-width:0.7813;" width="242.7643" x="178.5736" y="177.4902"/><text fill="#000000" font-family="Arial" font-size="18.75" lengthAdjust="spacing" textLength="211.5143" x="194.1986" y="210.5194">Assign/verify AppCode</text><rect fill="#F7F7F7" height="53.0762" rx="7.8125" ry="7.8125" style="stroke:#444444;stroke-width:0.7813;" width="342.4011" x="128.7552" y="261.8164"/><text fill="#000000" font-family="Arial" font-size="18.75" lengthAdjust="spacing" textLength="311.1511" x="144.3802" y="294.8456">Record vendor + product/service</text><rect fill="#F7F7F7" height="53.0762" rx="7.8125" ry="7.8125" style="stroke:#444444;stroke-width:0.7813;" width="364.0259" x="117.9428" y="346.1426"/><text fill="#000000" font-family="Arial" font-size="18.75" lengthAdjust="spacing" textLength="332.7759" x="133.5678" y="379.1718">Record install model + integrations</text><rect fill="none" height="293.5547" rx="7.8125" ry="7.8125" style="stroke:#777777;stroke-width:2.3438;" width="507.3181" x="46.2967" y="433.5938"/><path d="M133.1955,433.5938 L133.1955,444.4824 L117.5705,460.1074 L46.2967,460.1074" fill="none" style="stroke:#777777;stroke-width:2.3438;"/><text fill="#111111" font-family="Arial" font-size="18.75" lengthAdjust="spacing" textLength="71.2738" x="50.9842" y="452.5604">Monitor</text><rect fill="#F7F7F7" height="53.0762" rx="7.8125" ry="7.8125" style="stroke:#444444;stroke-width:0.7813;" width="465.4572" x="67.2272" y="486.6699"/><text fill="#000000" font-family="Arial" font-size="18.75" lengthAdjust="spacing" textLength="434.2072" x="82.8522" y="519.6991">Subscribe to advisories (CVE/vendor bulletins)</text><rect fill="#F7F7F7" height="53.0762" rx="7.8125" ry="7.8125" style="stroke:#444444;stroke-width:0.7813;" width="476.0681" x="61.9217" y="570.9961"/><text fill="#000000" font-family="Arial" font-size="18.75" lengthAdjust="spacing" textLength="444.8181" x="77.5467" y="604.0253">Periodic assurance review (SOC2/ISO, pen test)</text><rect fill="#F7F7F7" height="53.0762" rx="7.8125" ry="7.8125" style="stroke:#444444;stroke-width:0.7813;" width="447.8058" x="76.0529" y="655.3223"/><text fill="#000000" font-family="Arial" font-size="18.75" lengthAdjust="spacing" textLength="416.5558" x="91.6779" y="688.3514">Validate exposure (env + integration scope)</text><rect fill="none" height="309.2285" rx="7.8125" ry="7.8125" style="stroke:#777777;stroke-width:2.3438;" width="598.6221" x="17.1875" y="742.7734"/><path d="M92.1112,742.7734 L92.1112,753.6621 L76.4862,769.2871 L17.1875,769.2871" fill="none" style="stroke:#777777;stroke-width:2.3438;"/><text fill="#111111" font-family="Arial" font-size="18.75" lengthAdjust="spacing" textLength="59.2987" x="21.875" y="761.7401">Triage</text><polygon fill="#F7F7F7" points="186.5723,795.8496,413.3392,795.8496,432.0892,814.5996,413.3392,833.3496,186.5723,833.3496,167.8223,814.5996,186.5723,795.8496" style="stroke:#444444;stroke-width:0.7813;"/><text fill="#000000" font-family="Arial" font-size="18.75" lengthAdjust="spacing" textLength="226.767" x="186.5723" y="821.0907">Vendor patch available?</text><text fill="#000000" font-family="Arial" font-size="18.75" lengthAdjust="spacing" textLength="32.7576" x="135.0647" y="810.1776">Yes</text><text fill="#000000" font-family="Arial" font-size="18.75" lengthAdjust="spacing" textLength="25.4974" x="432.0892" y="810.1776">No</text><rect fill="#F7F7F7" height="53.0762" rx="7.8125" ry="7.8125" style="stroke:#444444;stroke-width:0.7813;" width="232.5195" x="35.9375" y="848.9746"/><text fill="#000000" font-family="Arial" font-size="18.75" lengthAdjust="spacing" textLength="201.2695" x="51.5625" y="882.0038">Plan upgrade window</text><rect fill="#F7F7F7" height="53.0762" rx="7.8125" ry="7.8125" style="stroke:#444444;stroke-width:0.7813;" width="273.6908" x="310.8688" y="848.9746"/><text fill="#000000" font-family="Arial" font-size="18.75" lengthAdjust="spacing" textLength="242.4408" x="326.4938" y="882.0038">Request ETA + escalation</text><polygon fill="#F7F7F7" points="299.9557,911.4258,318.7057,930.1758,299.9557,948.9258,281.2057,930.1758,299.9557,911.4258" style="stroke:#444444;stroke-width:0.7813;"/><rect fill="#F7F7F7" height="53.0762" rx="7.8125" ry="7.8125" style="stroke:#444444;stroke-width:0.7813;" width="417.5476" x="91.1819" y="980.1758"/><text fill="#000000" font-family="Arial" font-size="18.75" lengthAdjust="spacing" textLength="386.2976" x="106.8069" y="1013.205">Create/Update ticket (AppCode + owner)</text><rect fill="none" height="377.8809" rx="7.8125" ry="7.8125" style="stroke:#777777;stroke-width:2.3438;" width="321.3013" x="139.3051" y="1067.627"/><path d="M231.1569,1067.627 L231.1569,1078.5156 L215.5319,1094.1406 L139.3051,1094.1406" fill="none" style="stroke:#777777;stroke-width:2.3438;"/><text fill="#111111" font-family="Arial" font-size="18.75" lengthAdjust="spacing" textLength="76.2268" x="143.9926" y="1086.5936">Mitigate</text><rect fill="#F7F7F7" height="53.0762" rx="7.8125" ry="7.8125" style="stroke:#444444;stroke-width:0.7813;" width="248.88" x="175.5157" y="1120.7031"/><text fill="#000000" font-family="Arial" font-size="18.75" lengthAdjust="spacing" textLength="217.63" x="191.1407" y="1153.7323">Apply config hardening</text><rect fill="#F7F7F7" height="53.0762" rx="7.8125" ry="7.8125" style="stroke:#444444;stroke-width:0.7813;" width="251.059" x="174.4263" y="1205.0293"/><text fill="#000000" font-family="Arial" font-size="18.75" lengthAdjust="spacing" textLength="219.809" x="190.0513" y="1238.0585">Network controls / WAF</text><rect fill="#F7F7F7" height="53.0762" rx="7.8125" ry="7.8125" style="stroke:#444444;stroke-width:0.7813;" width="290.0513" x="154.9301" y="1289.3555"/><text fill="#000000" font-family="Arial" font-size="18.75" lengthAdjust="spacing" textLength="258.8013" x="170.5551" y="1322.3846">Disable vulnerable features</text><rect fill="#F7F7F7" height="53.0762" rx="7.8125" ry="7.8125" style="stroke:#444444;stroke-width:0.7813;" width="280.8319" x="159.5398" y="1373.6816"/><text fill="#000000" font-family="Arial" font-size="18.75" lengthAdjust="spacing" textLength="249.5819" x="175.1648" y="1406.7108">Add monitoring/detections</text><rect fill="none" height="293.5547" rx="7.8125" ry="7.8125" style="stroke:#777777;stroke-width:2.3438;" width="1165.3656" x="90.8966" y="1461.1328"/><path d="M239.1174,1461.1328 L239.1174,1472.0215 L223.4924,1487.6465 L90.8966,1487.6465" fill="none" style="stroke:#777777;stroke-width:2.3438;"/><text fill="#111111" font-family="Arial" font-size="18.75" lengthAdjust="spacing" textLength="132.5958" x="95.5841" y="1480.0995">Verify &amp; Close</text><rect fill="#F7F7F7" height="53.0762" rx="7.8125" ry="7.8125" style="stroke:#444444;stroke-width:0.7813;" width="386.8683" x="106.5216" y="1514.209"/><text fill="#000000" font-family="Arial" font-size="18.75" lengthAdjust="spacing" textLength="355.6183" x="122.1466" y="1547.2382">Confirm patch applied or risk reduced</text><rect fill="#F7F7F7" height="53.0762" rx="7.8125" ry="7.8125" style="stroke:#444444;stroke-width:0.7813;" width="324.5758" x="137.6678" y="1598.5352"/><text fill="#000000" font-family="Arial" font-size="18.75" lengthAdjust="spacing" textLength="293.3258" x="153.2928" y="1631.5643">Document evidence (AppCode)</text><path d="M518.7347,1690.6738 L518.7347,1703.1494 L487.4847,1709.3994 L518.7347,1715.6494 L518.7347,1728.125 A0,0 0 0 0 518.7347,1728.125 L1240.6372,1728.125 A0,0 0 0 0 1240.6372,1728.125 L1240.6372,1706.2988 L1225.0122,1690.6738 L518.7347,1690.6738 A0,0 0 0 0 518.7347,1690.6738" fill="#FFF8D6" style="stroke:#C7A700;stroke-width:0.7813;"/><path d="M1225.0122,1690.6738 L1225.0122,1706.2988 L1240.6372,1706.2988 L1225.0122,1690.6738" fill="#FFF8D6" style="stroke:#C7A700;stroke-width:0.7813;"/><text fill="#000000" font-family="Arial" font-size="18.75" lengthAdjust="spacing" textLength="131.4697" x="528.1097" y="1715.8905">Key message:</text><text fill="#000000" font-family="Arial" font-size="18.75" font-weight="bold" lengthAdjust="spacing" textLength="223.2056" x="665.5396" y="1715.8905">You still own the risk</text><text fill="#000000" font-family="Arial" font-size="18.75" lengthAdjust="spacing" textLength="322.4945" x="894.7052" y="1715.8905">even when vendors own the code.</text><rect fill="#F7F7F7" height="53.0762" rx="7.8125" ry="7.8125" style="stroke:#444444;stroke-width:0.7813;" width="375.058" x="112.4268" y="1682.8613"/><text fill="#000000" font-family="Arial" font-size="18.75" lengthAdjust="spacing" textLength="343.808" x="128.0518" y="1715.8905">Close or renew waiver with time-box</text><ellipse cx="299.9557" cy="1803.125" fill="none" rx="17.1875" ry="17.1875" style="stroke:#222222;stroke-width:1.5625;"/><ellipse cx="299.9557" cy="1803.125" fill="#222222" rx="9.375" ry="9.375" style="stroke:#222222;stroke-width:1.5625;"/><line style="stroke:#444444;stroke-width:1.5625;" x1="299.9557" x2="299.9557" y1="230.5664" y2="261.8164"/><polygon fill="#444444" points="293.7057,246.1914,299.9557,261.8164,306.2057,246.1914,299.9557,252.4414" style="stroke:#444444;stroke-width:1.5625;"/><line style="stroke:#444444;stroke-width:1.5625;" x1="299.9557" x2="299.9557" y1="314.8926" y2="346.1426"/><polygon fill="#444444" points="293.7057,330.5176,299.9557,346.1426,306.2057,330.5176,299.9557,336.7676" style="stroke:#444444;stroke-width:1.5625;"/><line style="stroke:#444444;stroke-width:1.5625;" x1="299.9557" x2="299.9557" y1="108.7891" y2="177.4902"/><polygon fill="#444444" points="293.7057,161.8652,299.9557,177.4902,306.2057,161.8652,299.9557,168.1152" style="stroke:#444444;stroke-width:1.5625;"/><line style="stroke:#444444;stroke-width:1.5625;" x1="299.9557" x2="299.9557" y1="539.7461" y2="570.9961"/><polygon fill="#444444" points="293.7057,555.3711,299.9557,570.9961,306.2057,555.3711,299.9557,561.6211" style="stroke:#444444;stroke-width:1.5625;"/><line style="stroke:#444444;stroke-width:1.5625;" x1="299.9557" x2="299.9557" y1="624.0723" y2="655.3223"/><polygon fill="#444444" points="293.7057,639.6973,299.9557,655.3223,306.2057,639.6973,299.9557,645.9473" style="stroke:#444444;stroke-width:1.5625;"/><line style="stroke:#444444;stroke-width:1.5625;" x1="299.9557" x2="299.9557" y1="399.2188" y2="486.6699"/><polygon fill="#444444" points="293.7057,471.0449,299.9557,486.6699,306.2057,471.0449,299.9557,477.2949" style="stroke:#444444;stroke-width:1.5625;"/><line style="stroke:#444444;stroke-width:1.5625;" x1="167.8223" x2="152.1973" y1="814.5996" y2="814.5996"/><line style="stroke:#444444;stroke-width:1.5625;" x1="152.1973" x2="152.1973" y1="814.5996" y2="848.9746"/><polygon fill="#444444" points="145.9473,833.3496,152.1973,848.9746,158.4473,833.3496,152.1973,839.5996" style="stroke:#444444;stroke-width:1.5625;"/><line style="stroke:#444444;stroke-width:1.5625;" x1="432.0892" x2="447.7142" y1="814.5996" y2="814.5996"/><line style="stroke:#444444;stroke-width:1.5625;" x1="447.7142" x2="447.7142" y1="814.5996" y2="848.9746"/><polygon fill="#444444" points="441.4642,833.3496,447.7142,848.9746,453.9642,833.3496,447.7142,839.5996" style="stroke:#444444;stroke-width:1.5625;"/><line style="stroke:#444444;stroke-width:1.5625;" x1="152.1973" x2="152.1973" y1="902.0508" y2="930.1758"/><line style="stroke:#444444;stroke-width:1.5625;" x1="152.1973" x2="281.2057" y1="930.1758" y2="930.1758"/><polygon fill="#444444" points="265.5807,923.9258,281.2057,930.1758,265.5807,936.4258,271.8307,930.1758" style="stroke:#444444;stroke-width:1.5625;"/><line style="stroke:#444444;stroke-width:1.5625;" x1="447.7142" x2="447.7142" y1="902.0508" y2="930.1758"/><line style="stroke:#444444;stroke-width:1.5625;" x1="447.7142" x2="318.7057" y1="930.1758" y2="930.1758"/><polygon fill="#444444" points="334.3307,923.9258,318.7057,930.1758,334.3307,936.4258,328.0807,930.1758" style="stroke:#444444;stroke-width:1.5625;"/><line style="stroke:#444444;stroke-width:1.5625;" x1="299.9557" x2="299.9557" y1="948.9258" y2="980.1758"/><polygon fill="#444444" points="293.7057,964.5508,299.9557,980.1758,306.2057,964.5508,299.9557,970.8008" style="stroke:#444444;stroke-width:1.5625;"/><line style="stroke:#444444;stroke-width:1.5625;" x1="299.9557" x2="299.9557" y1="708.3984" y2="795.8496"/><polygon fill="#444444" points="293.7057,780.2246,299.9557,795.8496,306.2057,780.2246,299.9557,786.4746" style="stroke:#444444;stroke-width:1.5625;"/><line style="stroke:#444444;stroke-width:1.5625;" x1="299.9557" x2="299.9557" y1="1173.7793" y2="1205.0293"/><polygon fill="#444444" points="293.7057,1189.4043,299.9557,1205.0293,306.2057,1189.4043,299.9557,1195.6543" style="stroke:#444444;stroke-width:1.5625;"/><line style="stroke:#444444;stroke-width:1.5625;" x1="299.9557" x2="299.9557" y1="1258.1055" y2="1289.3555"/><polygon fill="#444444" points="293.7057,1273.7305,299.9557,1289.3555,306.2057,1273.7305,299.9557,1279.9805" style="stroke:#444444;stroke-width:1.5625;"/><line style="stroke:#444444;stroke-width:1.5625;" x1="299.9557" x2="299.9557" y1="1342.4316" y2="1373.6816"/><polygon fill="#444444" points="293.7057,1358.0566,299.9557,1373.6816,306.2057,1358.0566,299.9557,1364.3066" style="stroke:#444444;stroke-width:1.5625;"/><line style="stroke:#444444;stroke-width:1.5625;" x1="299.9557" x2="299.9557" y1="1033.252" y2="1120.7031"/><polygon fill="#444444" points="293.7057,1105.0781,299.9557,1120.7031,306.2057,1105.0781,299.9557,1111.3281" style="stroke:#444444;stroke-width:1.5625;"/><line style="stroke:#444444;stroke-width:1.5625;" x1="299.9557" x2="299.9557" y1="1567.2852" y2="1598.5352"/><polygon fill="#444444" points="293.7057,1582.9102,299.9557,1598.5352,306.2057,1582.9102,299.9557,1589.1602" style="stroke:#444444;stroke-width:1.5625;"/><line style="stroke:#444444;stroke-width:1.5625;" x1="299.9557" x2="299.9557" y1="1651.6113" y2="1682.8613"/><polygon fill="#444444" points="293.7057,1667.2363,299.9557,1682.8613,306.2057,1667.2363,299.9557,1673.4863" style="stroke:#444444;stroke-width:1.5625;"/><line style="stroke:#444444;stroke-width:1.5625;" x1="299.9557" x2="299.9557" y1="1426.7578" y2="1514.209"/><polygon fill="#444444" points="293.7057,1498.584,299.9557,1514.209,306.2057,1498.584,299.9557,1504.834" style="stroke:#444444;stroke-width:1.5625;"/><line style="stroke:#444444;stroke-width:1.5625;" x1="299.9557" x2="299.9557" y1="1735.9375" y2="1785.9375"/><polygon fill="#444444" points="293.7057,1770.3125,299.9557,1785.9375,306.2057,1770.3125,299.9557,1776.5625" style="stroke:#444444;stroke-width:1.5625;"/><?plantuml-src RPFDRnen4CNl-rTCSqZ91snJgHTog2XffAhDXmAboj7Oiyi8Oxks5uAg_kzzkq2Kj3snxDWplttlJLgA2ogg5SsLNjRHDywClVMHDWl9NAJdUbeeupVYQggKJIyh9WXTV7ZtuatNHlleEDB5oy8eHh_PzVzaCV15wOehrTXyxLs-LIl6KL6sU2DEsyOm3GRb_Z6LAeJ4kf_orl8WD2jRPCaMLqAOiARxw3MdXCb36jzD9tHC4wKcD6iiWDHShEGjtIYdQbwnozIRiJC-zh-neMjvudHI56_fled19nxID8AKyaAYwOCLTwEa9GJYoBJr3MdbdCza9BBETakLF97sXi-fIQrWu1hZBrNuRAKrnCbxYa5Hf8oMHT4sbYpUqT43rv8onoFwLH0DHob9xSerHwcsXrwNRUM1eR6XTKTFPnIYDutEPUAu5ltgZ3ZCiPPMk6jnL5pcEgfsOBeiVh-QV-ETP7yOFsdcIKUPCsLFogmb-IYSg3UUVIxte-UDjPmnuwIRUGzKRqIJIgc9occco6lX3VKcT-FtvPV9tJa5TfGvvTsLcR9YL6RY9uZUGDWUk_LhK4hQ1pxv6tUAeDIyevNgO2O5bVM2r5g9LNFB7q_W84Rs7bjxYLfCgnmr0TtX3PADUBSiZ7HJxzRlJptmpmQOz7aw0WudhMn7qnrrHgeMVnmPyENtq7r35hranEhW-ndv3PBt3_aDVcjSE1WT0iAZlQkafeMAXXtIqybpotdZux8jvkXjef9-ZAwxqfMazljelKyt7Yl0GCBKrKV6mFNEKNGh3MU4z7-sptO1EwQnHUptJEEM9guEQe9Gi2IGjrk1oCWRcns7rqstJN0QvF3yyFqxXxkktKrsIC962H8DsVC2UgsuF_TF7H4s2N6HUf6Bhxob5JOPzWxfzFGHgvQo8CMGitMpWpWznKGOksdTtUKnFHzejt1Gu2MrRTjby-4F?></g></svg>