<?xml version="1.0" encoding="us-ascii" standalone="no"?><svg xmlns="http://www.w3.org/2000/svg" xmlns:xlink="http://www.w3.org/1999/xlink" contentStyleType="text/css" height="1687.5px" preserveAspectRatio="none" style="width:1410px;height:1687px;background:#FFFFFF;" version="1.1" viewBox="0 0 1410 1687" width="1410.9375px" zoomAndPan="magnify"><defs/><g><text fill="#000000" font-family="Arial" font-size="25" font-weight="bold" lengthAdjust="spacing" textLength="946.875" x="230.2734" y="54.4556">AppSec Process 11: SonarQube Quality + Security Gate (PR &amp; Main)</text><ellipse cx="337.8906" cy="93.1641" fill="#222222" rx="15.625" ry="15.625" style="stroke:#222222;stroke-width:1.5625;"/><rect fill="none" height="293.5547" rx="7.8125" ry="7.8125" style="stroke:#777777;stroke-width:2.34375;" width="534.375" x="70.7031" y="124.4141"/><path d="M144.1406,124.4141 L144.1406,135.3027 L128.5156,150.9277 L70.7031,150.9277 " fill="none" style="stroke:#777777;stroke-width:2.34375;"/><text fill="#111111" font-family="Arial" font-size="18.75" lengthAdjust="spacing" textLength="57.8125" x="75.3906" y="143.3807">Setup</text><rect fill="#F7F7F7" height="53.0762" rx="7.8125" ry="7.8125" style="stroke:#444444;stroke-width:0.78125;" width="457.8125" x="108.9844" y="177.4902"/><text fill="#000000" font-family="Arial" font-size="18.75" lengthAdjust="spacing" textLength="426.5625" x="124.6094" y="210.5194">Create SonarQube project (key = AppCode)</text><rect fill="#F7F7F7" height="53.0762" rx="7.8125" ry="7.8125" style="stroke:#444444;stroke-width:0.78125;" width="503.125" x="86.3281" y="261.8164"/><text fill="#000000" font-family="Arial" font-size="18.75" lengthAdjust="spacing" textLength="471.875" x="101.9531" y="294.8456">Select quality profile (language + security rules)</text><rect fill="#F7F7F7" height="53.0762" rx="7.8125" ry="7.8125" style="stroke:#444444;stroke-width:0.78125;" width="450" x="112.8906" y="346.1426"/><text fill="#000000" font-family="Arial" font-size="18.75" lengthAdjust="spacing" textLength="418.75" x="128.5156" y="379.1718">Configure PR decoration + branch analysis</text><rect fill="none" height="209.2285" rx="7.8125" ry="7.8125" style="stroke:#777777;stroke-width:2.34375;" width="420.3125" x="127.7344" y="433.5938"/><path d="M227.7344,433.5938 L227.7344,444.4824 L212.1094,460.1074 L127.7344,460.1074 " fill="none" style="stroke:#777777;stroke-width:2.34375;"/><text fill="#111111" font-family="Arial" font-size="18.75" lengthAdjust="spacing" textLength="84.375" x="132.4219" y="452.5604">Run in CI</text><rect fill="#F7F7F7" height="53.0762" rx="7.8125" ry="7.8125" style="stroke:#444444;stroke-width:0.78125;" width="243.75" x="216.0156" y="486.6699"/><text fill="#000000" font-family="Arial" font-size="18.75" lengthAdjust="spacing" textLength="212.5" x="231.6406" y="519.6991">CI runs SonarScanner</text><rect fill="#F7F7F7" height="53.0762" rx="7.8125" ry="7.8125" style="stroke:#444444;stroke-width:0.78125;" width="389.0625" x="143.3594" y="570.9961"/><text fill="#000000" font-family="Arial" font-size="18.75" lengthAdjust="spacing" textLength="357.8125" x="158.9844" y="604.0253">Publish results to PR and dashboard</text><rect fill="none" height="309.2285" rx="7.8125" ry="7.8125" style="stroke:#777777;stroke-width:2.34375;" width="664.0625" x="35.9375" y="658.4473"/><path d="M170.3125,658.4473 L170.3125,669.3359 L154.6875,684.9609 L35.9375,684.9609 " fill="none" style="stroke:#777777;stroke-width:2.34375;"/><text fill="#111111" font-family="Arial" font-size="18.75" lengthAdjust="spacing" textLength="118.75" x="40.625" y="677.4139">Quality Gate</text><polygon fill="#F7F7F7" points="235.5469,711.5234,440.2344,711.5234,458.9844,730.2734,440.2344,749.0234,235.5469,749.0234,216.7969,730.2734,235.5469,711.5234" style="stroke:#444444;stroke-width:0.78125;"/><text fill="#000000" font-family="Arial" font-size="18.75" lengthAdjust="spacing" textLength="204.6875" x="235.5469" y="736.7645">Quality gate passed?</text><text fill="#000000" font-family="Arial" font-size="18.75" lengthAdjust="spacing" textLength="34.375" x="182.4219" y="725.8514">Yes</text><text fill="#000000" font-family="Arial" font-size="18.75" lengthAdjust="spacing" textLength="26.5625" x="458.9844" y="725.8514">No</text><rect fill="#F7F7F7" height="53.0762" rx="7.8125" ry="7.8125" style="stroke:#444444;stroke-width:0.78125;" width="225" x="67.1875" y="764.6484"/><text fill="#000000" font-family="Arial" font-size="18.75" lengthAdjust="spacing" textLength="193.75" x="82.8125" y="797.6776">Allow PR to proceed</text><rect fill="#F7F7F7" height="53.0762" rx="7.8125" ry="7.8125" style="stroke:#444444;stroke-width:0.78125;" width="218.75" x="386.7188" y="764.6484"/><text fill="#000000" font-family="Arial" font-size="18.75" lengthAdjust="spacing" textLength="187.5" x="402.3438" y="797.6776">Block merge&#171;gate&#187;</text><rect fill="#F7F7F7" height="53.0762" rx="7.8125" ry="7.8125" style="stroke:#444444;stroke-width:0.78125;" width="345.3125" x="323.4375" y="848.9746"/><text fill="#000000" font-family="Arial" font-size="18.75" lengthAdjust="spacing" textLength="314.0625" x="339.0625" y="882.0038">Create/Update ticket (AppCode)</text><polygon fill="#F7F7F7" points="337.8906,911.4258,356.6406,930.1758,337.8906,948.9258,319.1406,930.1758,337.8906,911.4258" style="stroke:#444444;stroke-width:0.78125;"/><rect fill="none" height="209.2285" rx="7.8125" ry="7.8125" style="stroke:#777777;stroke-width:2.34375;" width="473.4375" x="101.1719" y="983.3008"/><path d="M221.4844,983.3008 L221.4844,994.1895 L205.8594,1009.8145 L101.1719,1009.8145 " fill="none" style="stroke:#777777;stroke-width:2.34375;"/><text fill="#111111" font-family="Arial" font-size="18.75" lengthAdjust="spacing" textLength="104.6875" x="105.8594" y="1002.2675">Remediate</text><rect fill="#F7F7F7" height="53.0762" rx="7.8125" ry="7.8125" style="stroke:#444444;stroke-width:0.78125;" width="442.1875" x="116.7969" y="1036.377"/><text fill="#000000" font-family="Arial" font-size="18.75" lengthAdjust="spacing" textLength="410.9375" x="132.4219" y="1069.4061">Fix issues (bugs, hotspots, vulnerabilities)</text><rect fill="#F7F7F7" height="53.0762" rx="7.8125" ry="7.8125" style="stroke:#444444;stroke-width:0.78125;" width="281.25" x="197.2656" y="1120.7031"/><text fill="#000000" font-family="Arial" font-size="18.75" lengthAdjust="spacing" textLength="250" x="212.8906" y="1153.7323">Re-run analysis until pass</text><rect fill="none" height="396.6553" rx="7.8125" ry="7.8125" style="stroke:#777777;stroke-width:2.34375;" width="1377.7344" x="17.1875" y="1208.1543"/><path d="M101.5625,1208.1543 L101.5625,1219.043 L85.9375,1234.668 L17.1875,1234.668 " fill="none" style="stroke:#777777;stroke-width:2.34375;"/><text fill="#111111" font-family="Arial" font-size="18.75" lengthAdjust="spacing" textLength="68.75" x="21.875" y="1227.121">Govern</text><polygon fill="#F7F7F7" points="244.9219,1261.2305,430.8594,1261.2305,449.6094,1279.9805,430.8594,1298.7305,244.9219,1298.7305,226.1719,1279.9805,244.9219,1261.2305" style="stroke:#444444;stroke-width:0.78125;"/><text fill="#000000" font-family="Arial" font-size="18.75" lengthAdjust="spacing" textLength="185.9375" x="244.9219" y="1286.4716">Exception needed?</text><text fill="#000000" font-family="Arial" font-size="18.75" lengthAdjust="spacing" textLength="34.375" x="191.7969" y="1275.5585">Yes</text><text fill="#000000" font-family="Arial" font-size="18.75" lengthAdjust="spacing" textLength="26.5625" x="449.6094" y="1275.5585">No</text><rect fill="#F7F7F7" height="53.0762" rx="7.8125" ry="7.8125" style="stroke:#444444;stroke-width:0.78125;" width="325" x="38.6719" y="1314.3555"/><text fill="#000000" font-family="Arial" font-size="18.75" lengthAdjust="spacing" textLength="293.75" x="54.2969" y="1347.3846">Time-boxed waiver + rationale</text><rect fill="#F7F7F7" height="53.0762" rx="7.8125" ry="7.8125" style="stroke:#444444;stroke-width:0.78125;" width="289.0625" x="56.6406" y="1398.6816"/><text fill="#000000" font-family="Arial" font-size="18.75" lengthAdjust="spacing" textLength="257.8125" x="72.2656" y="1431.7108">Add compensating control</text><rect fill="#F7F7F7" height="53.0762" rx="7.8125" ry="7.8125" style="stroke:#444444;stroke-width:0.78125;" width="159.375" x="394.9219" y="1314.3555"/><text fill="#000000" font-family="Arial" font-size="18.75" lengthAdjust="spacing" textLength="128.125" x="410.5469" y="1347.3846">No exception</text><polygon fill="#F7F7F7" points="337.8906,1461.1328,356.6406,1479.8828,337.8906,1498.6328,319.1406,1479.8828,337.8906,1461.1328" style="stroke:#444444;stroke-width:0.78125;"/><path d="M601.1719,1526.7822 L601.1719,1550.1709 L569.9219,1556.4209 L601.1719,1562.6709 L601.1719,1586.0596 A0,0 0 0 0 601.1719,1586.0596 L1379.2969,1586.0596 A0,0 0 0 0 1379.2969,1586.0596 L1379.2969,1542.4072 L1363.6719,1526.7822 L601.1719,1526.7822 A0,0 0 0 0 601.1719,1526.7822 " fill="#FFF8D6" style="stroke:#C7A700;stroke-width:0.78125;"/><path d="M1363.6719,1526.7822 L1363.6719,1542.4072 L1379.2969,1542.4072 L1363.6719,1526.7822 " fill="#FFF8D6" style="stroke:#C7A700;stroke-width:0.78125;"/><text fill="#000000" font-family="Arial" font-size="18.75" lengthAdjust="spacing" textLength="134.375" x="610.5469" y="1551.9989">Key message:</text><text fill="#000000" font-family="Arial" font-size="18.75" font-weight="bold" lengthAdjust="spacing" textLength="368.75" x="751.1719" y="1551.9989">Fast quality gates reduce rework</text><text fill="#000000" font-family="Arial" font-size="18.75" lengthAdjust="spacing" textLength="6.25" x="1119.9219" y="1551.9989">.</text><text fill="#000000" font-family="Arial" font-size="18.75" lengthAdjust="spacing" textLength="745.3125" x="610.5469" y="1573.8251">Use SonarQube for continuous hygiene; use GHAS/Coverity for deeper SAST.</text><rect fill="#F7F7F7" height="53.0762" rx="7.8125" ry="7.8125" style="stroke:#444444;stroke-width:0.78125;" width="464.0625" x="105.8594" y="1529.8828"/><text fill="#000000" font-family="Arial" font-size="18.75" lengthAdjust="spacing" textLength="432.8125" x="121.4844" y="1562.912">Track trends (new issues, debt) by AppCode</text><ellipse cx="337.8906" cy="1653.2471" fill="none" rx="17.1875" ry="17.1875" style="stroke:#222222;stroke-width:1.5625;"/><ellipse cx="337.8906" cy="1653.2471" fill="#222222" rx="9.375" ry="9.375" style="stroke:#222222;stroke-width:1.5625;"/><line style="stroke:#444444;stroke-width:1.5625;" x1="337.8906" x2="337.8906" y1="230.5664" y2="261.8164"/><polygon fill="#444444" points="331.6406,246.1914,337.8906,261.8164,344.1406,246.1914,337.8906,252.4414" style="stroke:#444444;stroke-width:1.5625;"/><line style="stroke:#444444;stroke-width:1.5625;" x1="337.8906" x2="337.8906" y1="314.8926" y2="346.1426"/><polygon fill="#444444" points="331.6406,330.5176,337.8906,346.1426,344.1406,330.5176,337.8906,336.7676" style="stroke:#444444;stroke-width:1.5625;"/><line style="stroke:#444444;stroke-width:1.5625;" x1="337.8906" x2="337.8906" y1="108.7891" y2="177.4902"/><polygon fill="#444444" points="331.6406,161.8652,337.8906,177.4902,344.1406,161.8652,337.8906,168.1152" style="stroke:#444444;stroke-width:1.5625;"/><line style="stroke:#444444;stroke-width:1.5625;" x1="337.8906" x2="337.8906" y1="539.7461" y2="570.9961"/><polygon fill="#444444" points="331.6406,555.3711,337.8906,570.9961,344.1406,555.3711,337.8906,561.6211" style="stroke:#444444;stroke-width:1.5625;"/><line style="stroke:#444444;stroke-width:1.5625;" x1="337.8906" x2="337.8906" y1="399.2188" y2="486.6699"/><polygon fill="#444444" points="331.6406,471.0449,337.8906,486.6699,344.1406,471.0449,337.8906,477.2949" style="stroke:#444444;stroke-width:1.5625;"/><line style="stroke:#444444;stroke-width:1.5625;" x1="496.0938" x2="496.0938" y1="817.7246" y2="848.9746"/><polygon fill="#444444" points="489.8438,833.3496,496.0938,848.9746,502.3438,833.3496,496.0938,839.5996" style="stroke:#444444;stroke-width:1.5625;"/><line style="stroke:#444444;stroke-width:1.5625;" x1="216.7969" x2="179.6875" y1="730.2734" y2="730.2734"/><line style="stroke:#444444;stroke-width:1.5625;" x1="179.6875" x2="179.6875" y1="730.2734" y2="764.6484"/><polygon fill="#444444" points="173.4375,749.0234,179.6875,764.6484,185.9375,749.0234,179.6875,755.2734" style="stroke:#444444;stroke-width:1.5625;"/><line style="stroke:#444444;stroke-width:1.5625;" x1="458.9844" x2="496.0938" y1="730.2734" y2="730.2734"/><line style="stroke:#444444;stroke-width:1.5625;" x1="496.0938" x2="496.0938" y1="730.2734" y2="764.6484"/><polygon fill="#444444" points="489.8438,749.0234,496.0938,764.6484,502.3438,749.0234,496.0938,755.2734" style="stroke:#444444;stroke-width:1.5625;"/><line style="stroke:#444444;stroke-width:1.5625;" x1="179.6875" x2="179.6875" y1="817.7246" y2="930.1758"/><line style="stroke:#444444;stroke-width:1.5625;" x1="179.6875" x2="319.1406" y1="930.1758" y2="930.1758"/><polygon fill="#444444" points="303.5156,923.9258,319.1406,930.1758,303.5156,936.4258,309.7656,930.1758" style="stroke:#444444;stroke-width:1.5625;"/><line style="stroke:#444444;stroke-width:1.5625;" x1="496.0938" x2="496.0938" y1="902.0508" y2="930.1758"/><line style="stroke:#444444;stroke-width:1.5625;" x1="496.0938" x2="356.6406" y1="930.1758" y2="930.1758"/><polygon fill="#444444" points="372.2656,923.9258,356.6406,930.1758,372.2656,936.4258,366.0156,930.1758" style="stroke:#444444;stroke-width:1.5625;"/><line style="stroke:#444444;stroke-width:1.5625;" x1="337.8906" x2="337.8906" y1="624.0723" y2="711.5234"/><polygon fill="#444444" points="331.6406,695.8984,337.8906,711.5234,344.1406,695.8984,337.8906,702.1484" style="stroke:#444444;stroke-width:1.5625;"/><line style="stroke:#444444;stroke-width:1.5625;" x1="337.8906" x2="337.8906" y1="1089.4531" y2="1120.7031"/><polygon fill="#444444" points="331.6406,1105.0781,337.8906,1120.7031,344.1406,1105.0781,337.8906,1111.3281" style="stroke:#444444;stroke-width:1.5625;"/><line style="stroke:#444444;stroke-width:1.5625;" x1="337.8906" x2="337.8906" y1="948.9258" y2="1036.377"/><polygon fill="#444444" points="331.6406,1020.752,337.8906,1036.377,344.1406,1020.752,337.8906,1027.002" style="stroke:#444444;stroke-width:1.5625;"/><line style="stroke:#444444;stroke-width:1.5625;" x1="201.1719" x2="201.1719" y1="1367.4316" y2="1398.6816"/><polygon fill="#444444" points="194.9219,1383.0566,201.1719,1398.6816,207.4219,1383.0566,201.1719,1389.3066" style="stroke:#444444;stroke-width:1.5625;"/><line style="stroke:#444444;stroke-width:1.5625;" x1="226.1719" x2="201.1719" y1="1279.9805" y2="1279.9805"/><line style="stroke:#444444;stroke-width:1.5625;" x1="201.1719" x2="201.1719" y1="1279.9805" y2="1314.3555"/><polygon fill="#444444" points="194.9219,1298.7305,201.1719,1314.3555,207.4219,1298.7305,201.1719,1304.9805" style="stroke:#444444;stroke-width:1.5625;"/><line style="stroke:#444444;stroke-width:1.5625;" x1="449.6094" x2="474.6094" y1="1279.9805" y2="1279.9805"/><line style="stroke:#444444;stroke-width:1.5625;" x1="474.6094" x2="474.6094" y1="1279.9805" y2="1314.3555"/><polygon fill="#444444" points="468.3594,1298.7305,474.6094,1314.3555,480.8594,1298.7305,474.6094,1304.9805" style="stroke:#444444;stroke-width:1.5625;"/><line style="stroke:#444444;stroke-width:1.5625;" x1="201.1719" x2="201.1719" y1="1451.7578" y2="1479.8828"/><line style="stroke:#444444;stroke-width:1.5625;" x1="201.1719" x2="319.1406" y1="1479.8828" y2="1479.8828"/><polygon fill="#444444" points="303.5156,1473.6328,319.1406,1479.8828,303.5156,1486.1328,309.7656,1479.8828" style="stroke:#444444;stroke-width:1.5625;"/><line style="stroke:#444444;stroke-width:1.5625;" x1="474.6094" x2="474.6094" y1="1367.4316" y2="1479.8828"/><line style="stroke:#444444;stroke-width:1.5625;" x1="474.6094" x2="356.6406" y1="1479.8828" y2="1479.8828"/><polygon fill="#444444" points="372.2656,1473.6328,356.6406,1479.8828,372.2656,1486.1328,366.0156,1479.8828" style="stroke:#444444;stroke-width:1.5625;"/><line style="stroke:#444444;stroke-width:1.5625;" x1="337.8906" x2="337.8906" y1="1498.6328" y2="1529.8828"/><polygon fill="#444444" points="331.6406,1514.2578,337.8906,1529.8828,344.1406,1514.2578,337.8906,1520.5078" style="stroke:#444444;stroke-width:1.5625;"/><line style="stroke:#444444;stroke-width:1.5625;" x1="337.8906" x2="337.8906" y1="1173.7793" y2="1261.2305"/><polygon fill="#444444" points="331.6406,1245.6055,337.8906,1261.2305,344.1406,1245.6055,337.8906,1251.8555" style="stroke:#444444;stroke-width:1.5625;"/><line style="stroke:#444444;stroke-width:1.5625;" x1="337.8906" x2="337.8906" y1="1582.959" y2="1636.0596"/><polygon fill="#444444" points="331.6406,1620.4346,337.8906,1636.0596,344.1406,1620.4346,337.8906,1626.6846" style="stroke:#444444;stroke-width:1.5625;"/><!--SRC=[RPDDRnen48Rl-okcERH0W9H3Bv2c8ZH9eweH2ScXHwyzxBeOZ-kF45JrltSCB92eAwsqslb-tfcmqDO9BvPG2hceF2Mh9cJ8mwhM4OkmjuTQA5ffMy5Sc71iKKx3uDF7ep-RD9AyHG-3OyFOUrfjyryQBdXa-efpaKoy9Xlln1BPLGjJlDDMcgGG-lsptMSu4yu5bBqGrmRxBYrD4NKq7EBS32LCFKaC0GQ38Sp82d-VIeJx98oEQpW5zaa-Vzw8YD2QFi1x-26qRHV51vWcxoZW4AxidBn4a0Q5xKdY7eHL49hWtxjy5IS9WCARTHTMEjQK8gZaZ9OYPbmttyQpimazOmxhSudzSsXE1uWrCjaGOOweiXXWYDme3pN9nNSkpjClb14MoBcA48MFHS44cO0c2oSpZCcTm9y2O3Znc2Syb6c2MnmDdvlKxL5sdg79fcOiTfrhPjeombP9LCZWzhFxP31imoPavxfA7e4vAcJHnQQHKoYziB9cQCAiWmwZuk-hHX-I1MrXSjiqUyjfRTXsEvF2yl9iAanJQNIemMFW_M0Ab4jbBPG8TKd2gxUv6wspmDlqUWwj-oF5m8aGK7rfPwWMMZzvdY9hCXmRGwjSWUkul4ceSXl8Em-jEzfvNHfYXPReApm_pmalBaPRonRwsPDJkKpKSe4C_1WrMgNdRsdW4fNUjpkyrY-iU4YyMgqoLQ4BDSNW-Et2SpBCHfIQfz6D3W_OOtnxsf1ir6OpvLiuDtaLxG7BrOj4jp5PdlM_J1xr4diblQ22bT0Spl9kTHO6TtEFbG99IuSsRFTUyYLxCl-1TqU0JT43a5p7vxsFdd_mt1PNEmPTtgmojg5SDpkx6SeI4_QwgcFndHTwoKVFYpg4JkSw7zBh2_Me4f-pnnNvHQVJBvx2yMdmiMywrZPH2b2lAuqMHv3OwzK5RpmLecCAi_7iiLzmjv1RoUT8xXy0]--></g></svg>