<?plantuml 1.2026.2?><svg xmlns="http://www.w3.org/2000/svg" xmlns:xlink="http://www.w3.org/1999/xlink" contentStyleType="text/css" data-diagram-type="ACTIVITY" height="1687.5px" preserveAspectRatio="none" style="width:1371px;height:1687px;background:#FFFFFF;" version="1.1" viewBox="0 0 1371 1687" width="1371.875px" zoomAndPan="magnify"><title>AppSec Process 11: SonarQube Quality + Security Gate (PR &amp; Main)</title><defs/><g><g class="title" data-source-line="2"><text fill="#000000" font-family="Arial" font-size="25" font-weight="bold" lengthAdjust="spacing" textLength="957.8003" x="205.0484" y="54.4556">AppSec Process 11: SonarQube Quality + Security Gate (PR &amp; Main)</text></g><ellipse cx="331.5887" cy="93.1641" fill="#222222" rx="15.625" ry="15.625" style="stroke:#222222;stroke-width:1.5625;"/><rect fill="none" height="293.5547" rx="7.8125" ry="7.8125" style="stroke:#777777;stroke-width:2.3438;" width="518.4875" x="72.345" y="124.4141"/><path d="M142.5446,124.4141 L142.5446,135.3027 L126.9196,150.9277 L72.345,150.9277" fill="none" style="stroke:#777777;stroke-width:2.3438;"/><text fill="#111111" font-family="Arial" font-size="18.75" lengthAdjust="spacing" textLength="54.5746" x="77.0325" y="143.3807">Setup</text><rect fill="#F7F7F7" height="53.0762" rx="7.8125" ry="7.8125" style="stroke:#444444;stroke-width:0.7813;" width="442.2485" x="110.4645" y="177.4902"/><text fill="#000000" font-family="Arial" font-size="18.75" lengthAdjust="spacing" textLength="410.9985" x="126.0895" y="210.5194">Create SonarQube project (key = AppCode)</text><rect fill="#F7F7F7" height="53.0762" rx="7.8125" ry="7.8125" style="stroke:#444444;stroke-width:0.7813;" width="487.2375" x="87.97" y="261.8164"/><text fill="#000000" font-family="Arial" font-size="18.75" lengthAdjust="spacing" textLength="455.9875" x="103.595" y="294.8456">Select quality profile (language + security rules)</text><rect fill="#F7F7F7" height="53.0762" rx="7.8125" ry="7.8125" style="stroke:#444444;stroke-width:0.7813;" width="433.8074" x="114.6851" y="346.1426"/><text fill="#000000" font-family="Arial" font-size="18.75" lengthAdjust="spacing" textLength="402.5574" x="130.3101" y="379.1718">Configure PR decoration + branch analysis</text><rect fill="none" height="209.2285" rx="7.8125" ry="7.8125" style="stroke:#777777;stroke-width:2.3438;" width="400.6409" x="131.2683" y="433.5938"/><path d="M231.3232,433.5938 L231.3232,444.4824 L215.6982,460.1074 L131.2683,460.1074" fill="none" style="stroke:#777777;stroke-width:2.3438;"/><text fill="#111111" font-family="Arial" font-size="18.75" lengthAdjust="spacing" textLength="84.4299" x="135.9558" y="452.5604">Run in CI</text><rect fill="#F7F7F7" height="53.0762" rx="7.8125" ry="7.8125" style="stroke:#444444;stroke-width:0.7813;" width="234.2041" x="214.4867" y="486.6699"/><text fill="#000000" font-family="Arial" font-size="18.75" lengthAdjust="spacing" textLength="202.9541" x="230.1117" y="519.6991">CI runs SonarScanner</text><rect fill="#F7F7F7" height="53.0762" rx="7.8125" ry="7.8125" style="stroke:#444444;stroke-width:0.7813;" width="369.3909" x="146.8933" y="570.9961"/><text fill="#000000" font-family="Arial" font-size="18.75" lengthAdjust="spacing" textLength="338.1409" x="162.5183" y="604.0253">Publish results to PR and dashboard</text><rect fill="none" height="309.2285" rx="7.8125" ry="7.8125" style="stroke:#777777;stroke-width:2.3438;" width="644.4366" x="37.69" y="658.4473"/><path d="M171.18,658.4473 L171.18,669.3359 L155.555,684.9609 L37.69,684.9609" fill="none" style="stroke:#777777;stroke-width:2.3438;"/><text fill="#111111" font-family="Arial" font-size="18.75" lengthAdjust="spacing" textLength="117.865" x="42.3775" y="677.4139">Quality Gate</text><polygon fill="#F7F7F7" points="232.8308,711.5234,430.3467,711.5234,449.0967,730.2734,430.3467,749.0234,232.8308,749.0234,214.0808,730.2734,232.8308,711.5234" style="stroke:#444444;stroke-width:0.7813;"/><text fill="#000000" font-family="Arial" font-size="18.75" lengthAdjust="spacing" textLength="197.5159" x="232.8308" y="736.7645">Quality gate passed?</text><text fill="#000000" font-family="Arial" font-size="18.75" lengthAdjust="spacing" textLength="32.7576" x="181.3232" y="725.8514">Yes</text><text fill="#000000" font-family="Arial" font-size="18.75" lengthAdjust="spacing" textLength="25.4974" x="449.0967" y="725.8514">No</text><rect fill="#F7F7F7" height="53.0762" rx="7.8125" ry="7.8125" style="stroke:#444444;stroke-width:0.7813;" width="218.7042" x="68.94" y="764.6484"/><text fill="#000000" font-family="Arial" font-size="18.75" lengthAdjust="spacing" textLength="187.4542" x="84.565" y="797.6776">Allow PR to proceed</text><rect fill="#F7F7F7" height="53.0762" rx="7.8125" ry="7.8125" style="stroke:#444444;stroke-width:0.7813;" width="214.09" x="377.8404" y="764.6484"/><text fill="#000000" font-family="Arial" font-size="18.75" lengthAdjust="spacing" textLength="182.84" x="393.4654" y="797.6776">Block merge&#171;gate&#187;</text><rect fill="#F7F7F7" height="53.0762" rx="7.8125" ry="7.8125" style="stroke:#444444;stroke-width:0.7813;" width="331.9824" x="318.8942" y="848.9746"/><text fill="#000000" font-family="Arial" font-size="18.75" lengthAdjust="spacing" textLength="300.7324" x="334.5192" y="882.0038">Create/Update ticket (AppCode)</text><polygon fill="#F7F7F7" points="331.5887,911.4258,350.3387,930.1758,331.5887,948.9258,312.8387,930.1758,331.5887,911.4258" style="stroke:#444444;stroke-width:0.7813;"/><rect fill="none" height="209.2285" rx="7.8125" ry="7.8125" style="stroke:#777777;stroke-width:2.3438;" width="456.543" x="103.3173" y="983.3008"/><path d="M220.7947,983.3008 L220.7947,994.1895 L205.1697,1009.8145 L103.3173,1009.8145" fill="none" style="stroke:#777777;stroke-width:2.3438;"/><text fill="#111111" font-family="Arial" font-size="18.75" lengthAdjust="spacing" textLength="101.8524" x="108.0048" y="1002.2675">Remediate</text><rect fill="#F7F7F7" height="53.0762" rx="7.8125" ry="7.8125" style="stroke:#444444;stroke-width:0.7813;" width="425.293" x="118.9423" y="1036.377"/><text fill="#000000" font-family="Arial" font-size="18.75" lengthAdjust="spacing" textLength="394.043" x="134.5673" y="1069.4061">Fix issues (bugs, hotspots, vulnerabilities)</text><rect fill="#F7F7F7" height="53.0762" rx="7.8125" ry="7.8125" style="stroke:#444444;stroke-width:0.7813;" width="272.3175" x="195.43" y="1120.7031"/><text fill="#000000" font-family="Arial" font-size="18.75" lengthAdjust="spacing" textLength="241.0675" x="211.055" y="1153.7323">Re-run analysis until pass</text><rect fill="none" height="396.6553" rx="7.8125" ry="7.8125" style="stroke:#777777;stroke-width:2.3438;" width="1338.2095" x="17.1875" y="1208.1543"/><path d="M101.0376,1208.1543 L101.0376,1219.043 L85.4126,1234.668 L17.1875,1234.668" fill="none" style="stroke:#777777;stroke-width:2.3438;"/><text fill="#111111" font-family="Arial" font-size="18.75" lengthAdjust="spacing" textLength="68.2251" x="21.875" y="1227.121">Govern</text><polygon fill="#F7F7F7" points="242.1829,1261.2305,420.9946,1261.2305,439.7446,1279.9805,420.9946,1298.7305,242.1829,1298.7305,223.4329,1279.9805,242.1829,1261.2305" style="stroke:#444444;stroke-width:0.7813;"/><text fill="#000000" font-family="Arial" font-size="18.75" lengthAdjust="spacing" textLength="178.8116" x="242.1829" y="1286.4716">Exception needed?</text><text fill="#000000" font-family="Arial" font-size="18.75" lengthAdjust="spacing" textLength="32.7576" x="190.6754" y="1275.5585">Yes</text><text fill="#000000" font-family="Arial" font-size="18.75" lengthAdjust="spacing" textLength="25.4974" x="439.7446" y="1275.5585">No</text><rect fill="#F7F7F7" height="53.0762" rx="7.8125" ry="7.8125" style="stroke:#444444;stroke-width:0.7813;" width="321.701" x="35.9375" y="1314.3555"/><text fill="#000000" font-family="Arial" font-size="18.75" lengthAdjust="spacing" textLength="290.451" x="51.5625" y="1347.3846">Time-boxed waiver + rationale</text><rect fill="#F7F7F7" height="53.0762" rx="7.8125" ry="7.8125" style="stroke:#444444;stroke-width:0.7813;" width="278.1769" x="57.6996" y="1398.6816"/><text fill="#000000" font-family="Arial" font-size="18.75" lengthAdjust="spacing" textLength="246.9269" x="73.3246" y="1431.7108">Add compensating control</text><rect fill="#F7F7F7" height="53.0762" rx="7.8125" ry="7.8125" style="stroke:#444444;stroke-width:0.7813;" width="155.0018" x="388.8885" y="1314.3555"/><text fill="#000000" font-family="Arial" font-size="18.75" lengthAdjust="spacing" textLength="123.7518" x="404.5135" y="1347.3846">No exception</text><polygon fill="#F7F7F7" points="331.5887,1461.1328,350.3387,1479.8828,331.5887,1498.6328,312.8387,1479.8828,331.5887,1461.1328" style="stroke:#444444;stroke-width:0.7813;"/><path d="M586.1282,1526.7822 L586.1282,1550.1709 L554.8782,1556.4209 L586.1282,1562.6709 L586.1282,1586.0596 A0,0 0 0 0 586.1282,1586.0596 L1339.772,1586.0596 A0,0 0 0 0 1339.772,1586.0596 L1339.772,1542.4072 L1324.147,1526.7822 L586.1282,1526.7822 A0,0 0 0 0 586.1282,1526.7822" fill="#FFF8D6" style="stroke:#C7A700;stroke-width:0.7813;"/><path d="M1324.147,1526.7822 L1324.147,1542.4072 L1339.772,1542.4072 L1324.147,1526.7822" fill="#FFF8D6" style="stroke:#C7A700;stroke-width:0.7813;"/><text fill="#000000" font-family="Arial" font-size="18.75" lengthAdjust="spacing" textLength="131.4697" x="595.5032" y="1551.9989">Key message:</text><text fill="#000000" font-family="Arial" font-size="18.75" font-weight="bold" lengthAdjust="spacing" textLength="350.5188" x="732.933" y="1551.9989">Fast quality gates reduce rework</text><text fill="#000000" font-family="Arial" font-size="18.75" lengthAdjust="spacing" textLength="5.9601" x="1083.4518" y="1551.9989">.</text><text fill="#000000" font-family="Arial" font-size="18.75" lengthAdjust="spacing" textLength="720.8313" x="595.5032" y="1573.8251">Use SonarQube for continuous hygiene; use GHAS/Coverity for deeper SAST.</text><rect fill="#F7F7F7" height="53.0762" rx="7.8125" ry="7.8125" style="stroke:#444444;stroke-width:0.7813;" width="446.579" x="108.2993" y="1529.8828"/><text fill="#000000" font-family="Arial" font-size="18.75" lengthAdjust="spacing" textLength="415.329" x="123.9243" y="1562.912">Track trends (new issues, debt) by AppCode</text><ellipse cx="331.5887" cy="1653.2471" fill="none" rx="17.1875" ry="17.1875" style="stroke:#222222;stroke-width:1.5625;"/><ellipse cx="331.5887" cy="1653.2471" fill="#222222" rx="9.375" ry="9.375" style="stroke:#222222;stroke-width:1.5625;"/><line style="stroke:#444444;stroke-width:1.5625;" x1="331.5887" x2="331.5887" y1="230.5664" y2="261.8164"/><polygon fill="#444444" points="325.3387,246.1914,331.5887,261.8164,337.8387,246.1914,331.5887,252.4414" style="stroke:#444444;stroke-width:1.5625;"/><line style="stroke:#444444;stroke-width:1.5625;" x1="331.5887" x2="331.5887" y1="314.8926" y2="346.1426"/><polygon fill="#444444" points="325.3387,330.5176,331.5887,346.1426,337.8387,330.5176,331.5887,336.7676" style="stroke:#444444;stroke-width:1.5625;"/><line style="stroke:#444444;stroke-width:1.5625;" x1="331.5887" x2="331.5887" y1="108.7891" y2="177.4902"/><polygon fill="#444444" points="325.3387,161.8652,331.5887,177.4902,337.8387,161.8652,331.5887,168.1152" style="stroke:#444444;stroke-width:1.5625;"/><line style="stroke:#444444;stroke-width:1.5625;" x1="331.5887" x2="331.5887" y1="539.7461" y2="570.9961"/><polygon fill="#444444" points="325.3387,555.3711,331.5887,570.9961,337.8387,555.3711,331.5887,561.6211" style="stroke:#444444;stroke-width:1.5625;"/><line style="stroke:#444444;stroke-width:1.5625;" x1="331.5887" x2="331.5887" y1="399.2188" y2="486.6699"/><polygon fill="#444444" points="325.3387,471.0449,331.5887,486.6699,337.8387,471.0449,331.5887,477.2949" style="stroke:#444444;stroke-width:1.5625;"/><line style="stroke:#444444;stroke-width:1.5625;" x1="484.8854" x2="484.8854" y1="817.7246" y2="848.9746"/><polygon fill="#444444" points="478.6354,833.3496,484.8854,848.9746,491.1354,833.3496,484.8854,839.5996" style="stroke:#444444;stroke-width:1.5625;"/><line style="stroke:#444444;stroke-width:1.5625;" x1="214.0808" x2="178.2921" y1="730.2734" y2="730.2734"/><line style="stroke:#444444;stroke-width:1.5625;" x1="178.2921" x2="178.2921" y1="730.2734" y2="764.6484"/><polygon fill="#444444" points="172.0421,749.0234,178.2921,764.6484,184.5421,749.0234,178.2921,755.2734" style="stroke:#444444;stroke-width:1.5625;"/><line style="stroke:#444444;stroke-width:1.5625;" x1="449.0967" x2="484.8854" y1="730.2734" y2="730.2734"/><line style="stroke:#444444;stroke-width:1.5625;" x1="484.8854" x2="484.8854" y1="730.2734" y2="764.6484"/><polygon fill="#444444" points="478.6354,749.0234,484.8854,764.6484,491.1354,749.0234,484.8854,755.2734" style="stroke:#444444;stroke-width:1.5625;"/><line style="stroke:#444444;stroke-width:1.5625;" x1="178.2921" x2="178.2921" y1="817.7246" y2="930.1758"/><line style="stroke:#444444;stroke-width:1.5625;" x1="178.2921" x2="312.8387" y1="930.1758" y2="930.1758"/><polygon fill="#444444" points="297.2137,923.9258,312.8387,930.1758,297.2137,936.4258,303.4637,930.1758" style="stroke:#444444;stroke-width:1.5625;"/><line style="stroke:#444444;stroke-width:1.5625;" x1="484.8854" x2="484.8854" y1="902.0508" y2="930.1758"/><line style="stroke:#444444;stroke-width:1.5625;" x1="484.8854" x2="350.3387" y1="930.1758" y2="930.1758"/><polygon fill="#444444" points="365.9637,923.9258,350.3387,930.1758,365.9637,936.4258,359.7137,930.1758" style="stroke:#444444;stroke-width:1.5625;"/><line style="stroke:#444444;stroke-width:1.5625;" x1="331.5887" x2="331.5887" y1="624.0723" y2="711.5234"/><polygon fill="#444444" points="325.3387,695.8984,331.5887,711.5234,337.8387,695.8984,331.5887,702.1484" style="stroke:#444444;stroke-width:1.5625;"/><line style="stroke:#444444;stroke-width:1.5625;" x1="331.5887" x2="331.5887" y1="1089.4531" y2="1120.7031"/><polygon fill="#444444" points="325.3387,1105.0781,331.5887,1120.7031,337.8387,1105.0781,331.5887,1111.3281" style="stroke:#444444;stroke-width:1.5625;"/><line style="stroke:#444444;stroke-width:1.5625;" x1="331.5887" x2="331.5887" y1="948.9258" y2="1036.377"/><polygon fill="#444444" points="325.3387,1020.752,331.5887,1036.377,337.8387,1020.752,331.5887,1027.002" style="stroke:#444444;stroke-width:1.5625;"/><line style="stroke:#444444;stroke-width:1.5625;" x1="196.788" x2="196.788" y1="1367.4316" y2="1398.6816"/><polygon fill="#444444" points="190.538,1383.0566,196.788,1398.6816,203.038,1383.0566,196.788,1389.3066" style="stroke:#444444;stroke-width:1.5625;"/><line style="stroke:#444444;stroke-width:1.5625;" x1="223.4329" x2="196.788" y1="1279.9805" y2="1279.9805"/><line style="stroke:#444444;stroke-width:1.5625;" x1="196.788" x2="196.788" y1="1279.9805" y2="1314.3555"/><polygon fill="#444444" points="190.538,1298.7305,196.788,1314.3555,203.038,1298.7305,196.788,1304.9805" style="stroke:#444444;stroke-width:1.5625;"/><line style="stroke:#444444;stroke-width:1.5625;" x1="439.7446" x2="466.3895" y1="1279.9805" y2="1279.9805"/><line style="stroke:#444444;stroke-width:1.5625;" x1="466.3895" x2="466.3895" y1="1279.9805" y2="1314.3555"/><polygon fill="#444444" points="460.1395,1298.7305,466.3895,1314.3555,472.6395,1298.7305,466.3895,1304.9805" style="stroke:#444444;stroke-width:1.5625;"/><line style="stroke:#444444;stroke-width:1.5625;" x1="196.788" x2="196.788" y1="1451.7578" y2="1479.8828"/><line style="stroke:#444444;stroke-width:1.5625;" x1="196.788" x2="312.8387" y1="1479.8828" y2="1479.8828"/><polygon fill="#444444" points="297.2137,1473.6328,312.8387,1479.8828,297.2137,1486.1328,303.4637,1479.8828" style="stroke:#444444;stroke-width:1.5625;"/><line style="stroke:#444444;stroke-width:1.5625;" x1="466.3895" x2="466.3895" y1="1367.4316" y2="1479.8828"/><line style="stroke:#444444;stroke-width:1.5625;" x1="466.3895" x2="350.3387" y1="1479.8828" y2="1479.8828"/><polygon fill="#444444" points="365.9637,1473.6328,350.3387,1479.8828,365.9637,1486.1328,359.7137,1479.8828" style="stroke:#444444;stroke-width:1.5625;"/><line style="stroke:#444444;stroke-width:1.5625;" x1="331.5887" x2="331.5887" y1="1498.6328" y2="1529.8828"/><polygon fill="#444444" points="325.3387,1514.2578,331.5887,1529.8828,337.8387,1514.2578,331.5887,1520.5078" style="stroke:#444444;stroke-width:1.5625;"/><line style="stroke:#444444;stroke-width:1.5625;" x1="331.5887" x2="331.5887" y1="1173.7793" y2="1261.2305"/><polygon fill="#444444" points="325.3387,1245.6055,331.5887,1261.2305,337.8387,1245.6055,331.5887,1251.8555" style="stroke:#444444;stroke-width:1.5625;"/><line style="stroke:#444444;stroke-width:1.5625;" x1="331.5887" x2="331.5887" y1="1582.959" y2="1636.0596"/><polygon fill="#444444" points="325.3387,1620.4346,331.5887,1636.0596,337.8387,1620.4346,331.5887,1626.6846" style="stroke:#444444;stroke-width:1.5625;"/><?plantuml-src RPDDRnen48Rl-okcERH0W9H3Bv2c8ZH9eweH2ScXHwyzxBeOZ-kF45JrltSCB92eAwsqslb-tfcmqDO9BvPG2hceF2Mh9cJ8mwhM4OkmjuTQA5ffMy5Sc71iKKx3uDF7ep-RD9AyHG-3OyFOUrfjyryQBdXa-efpaKoy9Xlln1BPLGjJlDDMcgGG-lsptMSu4yu5bBqGrmRxBYrD4NKq7EBS32LCFKaC0GQ38Sp82d-VIeJx98oEQpW5zaa-Vzw8YD2QFi1x-26qRHV51vWcxoZW4AxidBn4a0Q5xKdY7eHL49hWtxjy5IS9WCARTHTMEjQK8gZaZ9OYPbmttyQpimazOmxhSudzSsXE1uWrCjaGOOweiXXWYDme3pN9nNSkpjClb14MoBcA48MFHS44cO0c2oSpZCcTm9y2O3Znc2Syb6c2MnmDdvlKxL5sdg79fcOiTfrhPjeombP9LCZWzhFxP31imoPavxfA7e4vAcJHnQQHKoYziB9cQCAiWmwZuk-hHX-I1MrXSjiqUyjfRTXsEvF2yl9iAanJQNIemMFW_M0Ab4jbBPG8TKd2gxUv6wspmDlqUWwj-oF5m8aGK7rfPwWMMZzvdY9hCXmRGwjSWUkul4ceSXl8Em-jEzfvNHfYXPReApm_pmalBaPRonRwsPDJkKpKSe4C_1WrMgNdRsdW4fNUjpkyrY-iU4YyMgqoLQ4BDSNW-Et2SpBCHfIQfz6D3W_OOtnxsf1ir6OpvLiuDtaLxG7BrOj4jp5PdlM_J1xr4diblQ22bT0Spl9kTHO6TtEFbG99IuSsRFTUyYLxCl-1TqU0JT43a5p7vxsFdd_mt1PNEmPTtgmojg5SDpkx6SeI4_QwgcFndHTwoKVFYpg4JkSw7zBh2_Me4f-pnnNvHQVJBvx2yMdmiMywrZPH2b2lAuqMHv3OwzK5RpmLecCAi_7iiLzmjv1RoUT8xXy0?></g></svg>