<?xml version="1.0" encoding="us-ascii" standalone="no"?><svg xmlns="http://www.w3.org/2000/svg" xmlns:xlink="http://www.w3.org/1999/xlink" contentStyleType="text/css" height="1873.4375px" preserveAspectRatio="none" style="width:1409px;height:1873px;background:#FFFFFF;" version="1.1" viewBox="0 0 1409 1873" width="1409.375px" zoomAndPan="magnify"><defs/><g><text fill="#000000" font-family="Arial" font-size="25" font-weight="bold" lengthAdjust="spacing" textLength="1250" x="77.5391" y="54.4556">AppSec Process 12: Non-Compliant Application Handling (Coverage, SLAs, and Exceptions)</text><ellipse cx="487.1094" cy="93.1641" fill="#222222" rx="15.625" ry="15.625" style="stroke:#222222;stroke-width:1.5625;"/><rect fill="none" height="380.8594" rx="7.8125" ry="7.8125" style="stroke:#777777;stroke-width:2.34375;" width="509.375" x="232.4219" y="124.4141"/><path d="M477.7344,124.4141 L477.7344,135.3027 L462.1094,150.9277 L232.4219,150.9277 " fill="none" style="stroke:#777777;stroke-width:2.34375;"/><text fill="#111111" font-family="Arial" font-size="18.75" lengthAdjust="spacing" textLength="229.6875" x="237.1094" y="143.3807">Detect Non-Compliance</text><rect fill="#F7F7F7" height="53.0762" rx="7.8125" ry="7.8125" style="stroke:#444444;stroke-width:0.78125;" width="310.9375" x="331.6406" y="177.4902"/><text fill="#000000" font-family="Arial" font-size="18.75" lengthAdjust="spacing" textLength="279.6875" x="347.2656" y="210.5194">Trigger (audit/metrics/event)</text><rect fill="#F7F7F7" height="53.0762" rx="7.8125" ry="7.8125" style="stroke:#444444;stroke-width:0.78125;" width="475" x="249.6094" y="261.8164"/><text fill="#000000" font-family="Arial" font-size="18.75" lengthAdjust="spacing" textLength="240.625" x="265.2344" y="294.8456">Identify AppCode (or flag</text><text fill="#000000" font-family="Arial" font-size="18.75" font-weight="bold" lengthAdjust="spacing" textLength="189.0625" x="512.1094" y="294.8456">missing AppCode</text><text fill="#000000" font-family="Arial" font-size="18.75" lengthAdjust="spacing" textLength="7.8125" x="701.1719" y="294.8456">)</text><rect fill="#F7F7F7" height="140.3809" rx="7.8125" ry="7.8125" style="stroke:#444444;stroke-width:0.78125;" width="478.125" x="248.0469" y="346.1426"/><text fill="#000000" font-family="Arial" font-size="18.75" lengthAdjust="spacing" textLength="287.5" x="263.6719" y="379.1718">Classify non-compliance type:</text><text fill="#000000" font-family="Arial" font-size="18.75" lengthAdjust="spacing" textLength="446.875" x="263.6719" y="400.9979">- Missing coverage (SAST/SCA/DAST/IAST/Trivy)</text><text fill="#000000" font-family="Arial" font-size="18.75" lengthAdjust="spacing" textLength="342.1875" x="263.6719" y="422.8241">- SLA breach (critical/high overdue)</text><text fill="#000000" font-family="Arial" font-size="18.75" lengthAdjust="spacing" textLength="234.375" x="263.6719" y="444.6503">- Repeated gate bypass</text><text fill="#000000" font-family="Arial" font-size="18.75" lengthAdjust="spacing" textLength="268.75" x="263.6719" y="466.4764">- Vendor delay (COTS/SaaS)</text><rect fill="none" height="309.2285" rx="7.8125" ry="7.8125" style="stroke:#777777;stroke-width:2.34375;" width="564.0625" x="214.4531" y="520.8984"/><path d="M298.8281,520.8984 L298.8281,531.7871 L283.2031,547.4121 L214.4531,547.4121 " fill="none" style="stroke:#777777;stroke-width:2.34375;"/><text fill="#111111" font-family="Arial" font-size="18.75" lengthAdjust="spacing" textLength="68.75" x="219.1406" y="539.8651">Assess</text><rect fill="#F7F7F7" height="53.0762" rx="7.8125" ry="7.8125" style="stroke:#444444;stroke-width:0.78125;" width="492.1875" x="241.0156" y="573.9746"/><text fill="#000000" font-family="Arial" font-size="18.75" lengthAdjust="spacing" textLength="460.9375" x="256.6406" y="607.0038">Confirm scope + exposure (install model, envs)</text><polygon fill="#F7F7F7" points="358.9844,658.3008,615.2344,658.3008,633.9844,677.0508,615.2344,695.8008,358.9844,695.8008,340.2344,677.0508,358.9844,658.3008" style="stroke:#444444;stroke-width:0.78125;"/><text fill="#000000" font-family="Arial" font-size="18.75" lengthAdjust="spacing" textLength="256.25" x="358.9844" y="683.5419">Customer/regulated data?</text><text fill="#000000" font-family="Arial" font-size="18.75" lengthAdjust="spacing" textLength="34.375" x="305.8594" y="672.6288">Yes</text><text fill="#000000" font-family="Arial" font-size="18.75" lengthAdjust="spacing" textLength="26.5625" x="633.9844" y="672.6288">No</text><rect fill="#F7F7F7" height="53.0762" rx="7.8125" ry="7.8125" style="stroke:#444444;stroke-width:0.78125;" width="157.8125" x="245.7031" y="711.4258"/><text fill="#000000" font-family="Arial" font-size="18.75" lengthAdjust="spacing" textLength="126.5625" x="261.3281" y="744.455">Raise priority</text><rect fill="#F7F7F7" height="53.0762" rx="7.8125" ry="7.8125" style="stroke:#444444;stroke-width:0.78125;" width="195.3125" x="551.9531" y="711.4258"/><text fill="#000000" font-family="Arial" font-size="18.75" lengthAdjust="spacing" textLength="164.0625" x="567.5781" y="744.455">Standard priority</text><polygon fill="#F7F7F7" points="487.1094,773.877,505.8594,792.627,487.1094,811.377,468.3594,792.627,487.1094,773.877" style="stroke:#444444;stroke-width:0.78125;"/><rect fill="none" height="309.2285" rx="7.8125" ry="7.8125" style="stroke:#777777;stroke-width:2.34375;" width="928.9063" x="17.1875" y="845.752"/><path d="M179.6875,845.752 L179.6875,856.6406 L164.0625,872.2656 L17.1875,872.2656 " fill="none" style="stroke:#777777;stroke-width:2.34375;"/><text fill="#111111" font-family="Arial" font-size="18.75" lengthAdjust="spacing" textLength="146.875" x="21.875" y="864.7186">Risk Treatment</text><polygon fill="#F7F7F7" points="374.6094,898.8281,599.6094,898.8281,618.3594,917.5781,599.6094,936.3281,374.6094,936.3281,355.8594,917.5781,374.6094,898.8281" style="stroke:#444444;stroke-width:0.78125;"/><text fill="#000000" font-family="Arial" font-size="18.75" lengthAdjust="spacing" textLength="225" x="374.6094" y="924.0692">Can remediate quickly?</text><text fill="#000000" font-family="Arial" font-size="18.75" lengthAdjust="spacing" textLength="34.375" x="321.4844" y="913.1561">Yes</text><text fill="#000000" font-family="Arial" font-size="18.75" lengthAdjust="spacing" textLength="26.5625" x="618.3594" y="913.1561">No</text><rect fill="#F7F7F7" height="53.0762" rx="7.8125" ry="7.8125" style="stroke:#444444;stroke-width:0.78125;" width="434.375" x="44.5313" y="951.9531"/><text fill="#000000" font-family="Arial" font-size="18.75" lengthAdjust="spacing" textLength="403.125" x="60.1563" y="984.9823">Create remediation plan (owner + dates)</text><rect fill="#F7F7F7" height="53.0762" rx="7.8125" ry="7.8125" style="stroke:#444444;stroke-width:0.78125;" width="325" x="550" y="951.9531"/><text fill="#000000" font-family="Arial" font-size="18.75" lengthAdjust="spacing" textLength="293.75" x="565.625" y="984.9823">Define compensating controls</text><rect fill="#F7F7F7" height="53.0762" rx="7.8125" ry="7.8125" style="stroke:#444444;stroke-width:0.78125;" width="404.6875" x="510.1563" y="1036.2793"/><text fill="#000000" font-family="Arial" font-size="18.75" lengthAdjust="spacing" textLength="373.4375" x="525.7813" y="1069.3085">Time-boxed waiver (approval required)</text><polygon fill="#F7F7F7" points="487.1094,1098.7305,505.8594,1117.4805,487.1094,1136.2305,468.3594,1117.4805,487.1094,1098.7305" style="stroke:#444444;stroke-width:0.78125;"/><rect fill="none" height="309.2285" rx="7.8125" ry="7.8125" style="stroke:#777777;stroke-width:2.34375;" width="873.4375" x="35.9375" y="1170.6055"/><path d="M176.5625,1170.6055 L176.5625,1181.4941 L160.9375,1197.1191 L35.9375,1197.1191 " fill="none" style="stroke:#777777;stroke-width:2.34375;"/><text fill="#111111" font-family="Arial" font-size="18.75" lengthAdjust="spacing" textLength="125" x="40.625" y="1189.5721">Enforcement</text><polygon fill="#F7F7F7" points="358.9844,1223.6816,615.2344,1223.6816,633.9844,1242.4316,615.2344,1261.1816,358.9844,1261.1816,340.2344,1242.4316,358.9844,1223.6816" style="stroke:#444444;stroke-width:0.78125;"/><text fill="#000000" font-family="Arial" font-size="18.75" lengthAdjust="spacing" textLength="256.25" x="358.9844" y="1248.9227">Release must be blocked?</text><text fill="#000000" font-family="Arial" font-size="18.75" lengthAdjust="spacing" textLength="34.375" x="305.8594" y="1238.0096">Yes</text><text fill="#000000" font-family="Arial" font-size="18.75" lengthAdjust="spacing" textLength="26.5625" x="633.9844" y="1238.0096">No</text><rect fill="#F7F7F7" height="53.0762" rx="7.8125" ry="7.8125" style="stroke:#444444;stroke-width:0.78125;" width="418.75" x="67.1875" y="1276.8066"/><text fill="#000000" font-family="Arial" font-size="18.75" lengthAdjust="spacing" textLength="387.5" x="82.8125" y="1309.8358">Freeze release / block promotion&#171;gate&#187;</text><rect fill="#F7F7F7" height="53.0762" rx="7.8125" ry="7.8125" style="stroke:#444444;stroke-width:0.78125;" width="360.9375" x="517.1875" y="1276.8066"/><text fill="#000000" font-family="Arial" font-size="18.75" lengthAdjust="spacing" textLength="329.6875" x="532.8125" y="1309.8358">Allow limited release with controls</text><polygon fill="#F7F7F7" points="487.1094,1339.2578,505.8594,1358.0078,487.1094,1376.7578,468.3594,1358.0078,487.1094,1339.2578" style="stroke:#444444;stroke-width:0.78125;"/><rect fill="#F7F7F7" height="53.0762" rx="7.8125" ry="7.8125" style="stroke:#444444;stroke-width:0.78125;" width="370.3125" x="301.9531" y="1408.0078"/><text fill="#000000" font-family="Arial" font-size="18.75" lengthAdjust="spacing" textLength="339.0625" x="317.5781" y="1441.037">Escalate to leadership as required</text><rect fill="none" height="296.6553" rx="7.8125" ry="7.8125" style="stroke:#777777;stroke-width:2.34375;" width="1129.6875" x="262.8906" y="1495.459"/><path d="M555.0781,1495.459 L555.0781,1506.3477 L539.4531,1521.9727 L262.8906,1521.9727 " fill="none" style="stroke:#777777;stroke-width:2.34375;"/><text fill="#111111" font-family="Arial" font-size="18.75" lengthAdjust="spacing" textLength="276.5625" x="267.5781" y="1514.4257">Verify &amp; Restore Compliance</text><rect fill="#F7F7F7" height="53.0762" rx="7.8125" ry="7.8125" style="stroke:#444444;stroke-width:0.78125;" width="328.125" x="323.0469" y="1548.5352"/><text fill="#000000" font-family="Arial" font-size="18.75" lengthAdjust="spacing" textLength="296.875" x="338.6719" y="1581.5643">Execute plan (fix/patch/config)</text><rect fill="#F7F7F7" height="53.0762" rx="7.8125" ry="7.8125" style="stroke:#444444;stroke-width:0.78125;" width="417.1875" x="278.5156" y="1632.8613"/><text fill="#000000" font-family="Arial" font-size="18.75" lengthAdjust="spacing" textLength="385.9375" x="294.1406" y="1665.8905">Re-scan/re-test (sources as applicable)</text><path d="M720.7031,1714.0869 L720.7031,1737.4756 L689.4531,1743.7256 L720.7031,1749.9756 L720.7031,1773.3643 A0,0 0 0 0 720.7031,1773.3643 L1376.9531,1773.3643 A0,0 0 0 0 1376.9531,1773.3643 L1376.9531,1729.7119 L1361.3281,1714.0869 L720.7031,1714.0869 A0,0 0 0 0 720.7031,1714.0869 " fill="#FFF8D6" style="stroke:#C7A700;stroke-width:0.78125;"/><path d="M1361.3281,1714.0869 L1361.3281,1729.7119 L1376.9531,1729.7119 L1361.3281,1714.0869 " fill="#FFF8D6" style="stroke:#C7A700;stroke-width:0.78125;"/><text fill="#000000" font-family="Arial" font-size="18.75" lengthAdjust="spacing" textLength="134.375" x="730.0781" y="1739.3036">Key message:</text><text fill="#000000" font-family="Arial" font-size="18.75" font-weight="bold" lengthAdjust="spacing" textLength="476.5625" x="870.7031" y="1739.3036">Non-compliance has a predictable outcome</text><text fill="#000000" font-family="Arial" font-size="18.75" lengthAdjust="spacing" textLength="6.25" x="1347.2656" y="1739.3036">:</text><text fill="#000000" font-family="Arial" font-size="18.75" lengthAdjust="spacing" textLength="409.375" x="730.0781" y="1761.1298">remediate, mitigate-with-waiver, or freeze.</text><rect fill="#F7F7F7" height="53.0762" rx="7.8125" ry="7.8125" style="stroke:#444444;stroke-width:0.78125;" width="404.6875" x="284.7656" y="1717.1875"/><text fill="#000000" font-family="Arial" font-size="18.75" lengthAdjust="spacing" textLength="373.4375" x="300.3906" y="1750.2167">Update compliance status + evidence</text><ellipse cx="487.1094" cy="1840.5518" fill="none" rx="17.1875" ry="17.1875" style="stroke:#222222;stroke-width:1.5625;"/><ellipse cx="487.1094" cy="1840.5518" fill="#222222" rx="9.375" ry="9.375" style="stroke:#222222;stroke-width:1.5625;"/><line style="stroke:#444444;stroke-width:1.5625;" x1="487.1094" x2="487.1094" y1="230.5664" y2="261.8164"/><polygon fill="#444444" points="480.8594,246.1914,487.1094,261.8164,493.3594,246.1914,487.1094,252.4414" style="stroke:#444444;stroke-width:1.5625;"/><line style="stroke:#444444;stroke-width:1.5625;" x1="487.1094" x2="487.1094" y1="314.8926" y2="346.1426"/><polygon fill="#444444" points="480.8594,330.5176,487.1094,346.1426,493.3594,330.5176,487.1094,336.7676" style="stroke:#444444;stroke-width:1.5625;"/><line style="stroke:#444444;stroke-width:1.5625;" x1="487.1094" x2="487.1094" y1="108.7891" y2="177.4902"/><polygon fill="#444444" points="480.8594,161.8652,487.1094,177.4902,493.3594,161.8652,487.1094,168.1152" style="stroke:#444444;stroke-width:1.5625;"/><line style="stroke:#444444;stroke-width:1.5625;" x1="340.2344" x2="324.6094" y1="677.0508" y2="677.0508"/><line style="stroke:#444444;stroke-width:1.5625;" x1="324.6094" x2="324.6094" y1="677.0508" y2="711.4258"/><polygon fill="#444444" points="318.3594,695.8008,324.6094,711.4258,330.8594,695.8008,324.6094,702.0508" style="stroke:#444444;stroke-width:1.5625;"/><line style="stroke:#444444;stroke-width:1.5625;" x1="633.9844" x2="649.6094" y1="677.0508" y2="677.0508"/><line style="stroke:#444444;stroke-width:1.5625;" x1="649.6094" x2="649.6094" y1="677.0508" y2="711.4258"/><polygon fill="#444444" points="643.3594,695.8008,649.6094,711.4258,655.8594,695.8008,649.6094,702.0508" style="stroke:#444444;stroke-width:1.5625;"/><line style="stroke:#444444;stroke-width:1.5625;" x1="324.6094" x2="324.6094" y1="764.502" y2="792.627"/><line style="stroke:#444444;stroke-width:1.5625;" x1="324.6094" x2="468.3594" y1="792.627" y2="792.627"/><polygon fill="#444444" points="452.7344,786.377,468.3594,792.627,452.7344,798.877,458.9844,792.627" style="stroke:#444444;stroke-width:1.5625;"/><line style="stroke:#444444;stroke-width:1.5625;" x1="649.6094" x2="649.6094" y1="764.502" y2="792.627"/><line style="stroke:#444444;stroke-width:1.5625;" x1="649.6094" x2="505.8594" y1="792.627" y2="792.627"/><polygon fill="#444444" points="521.4844,786.377,505.8594,792.627,521.4844,798.877,515.2344,792.627" style="stroke:#444444;stroke-width:1.5625;"/><line style="stroke:#444444;stroke-width:1.5625;" x1="487.1094" x2="487.1094" y1="627.0508" y2="658.3008"/><polygon fill="#444444" points="480.8594,642.6758,487.1094,658.3008,493.3594,642.6758,487.1094,648.9258" style="stroke:#444444;stroke-width:1.5625;"/><line style="stroke:#444444;stroke-width:1.5625;" x1="487.1094" x2="487.1094" y1="486.5234" y2="573.9746"/><polygon fill="#444444" points="480.8594,558.3496,487.1094,573.9746,493.3594,558.3496,487.1094,564.5996" style="stroke:#444444;stroke-width:1.5625;"/><line style="stroke:#444444;stroke-width:1.5625;" x1="712.5" x2="712.5" y1="1005.0293" y2="1036.2793"/><polygon fill="#444444" points="706.25,1020.6543,712.5,1036.2793,718.75,1020.6543,712.5,1026.9043" style="stroke:#444444;stroke-width:1.5625;"/><line style="stroke:#444444;stroke-width:1.5625;" x1="355.8594" x2="261.7188" y1="917.5781" y2="917.5781"/><line style="stroke:#444444;stroke-width:1.5625;" x1="261.7188" x2="261.7188" y1="917.5781" y2="951.9531"/><polygon fill="#444444" points="255.4688,936.3281,261.7188,951.9531,267.9688,936.3281,261.7188,942.5781" style="stroke:#444444;stroke-width:1.5625;"/><line style="stroke:#444444;stroke-width:1.5625;" x1="618.3594" x2="712.5" y1="917.5781" y2="917.5781"/><line style="stroke:#444444;stroke-width:1.5625;" x1="712.5" x2="712.5" y1="917.5781" y2="951.9531"/><polygon fill="#444444" points="706.25,936.3281,712.5,951.9531,718.75,936.3281,712.5,942.5781" style="stroke:#444444;stroke-width:1.5625;"/><line style="stroke:#444444;stroke-width:1.5625;" x1="261.7188" x2="261.7188" y1="1005.0293" y2="1117.4805"/><line style="stroke:#444444;stroke-width:1.5625;" x1="261.7188" x2="468.3594" y1="1117.4805" y2="1117.4805"/><polygon fill="#444444" points="452.7344,1111.2305,468.3594,1117.4805,452.7344,1123.7305,458.9844,1117.4805" style="stroke:#444444;stroke-width:1.5625;"/><line style="stroke:#444444;stroke-width:1.5625;" x1="712.5" x2="712.5" y1="1089.3555" y2="1117.4805"/><line style="stroke:#444444;stroke-width:1.5625;" x1="712.5" x2="505.8594" y1="1117.4805" y2="1117.4805"/><polygon fill="#444444" points="521.4844,1111.2305,505.8594,1117.4805,521.4844,1123.7305,515.2344,1117.4805" style="stroke:#444444;stroke-width:1.5625;"/><line style="stroke:#444444;stroke-width:1.5625;" x1="487.1094" x2="487.1094" y1="811.377" y2="898.8281"/><polygon fill="#444444" points="480.8594,883.2031,487.1094,898.8281,493.3594,883.2031,487.1094,889.4531" style="stroke:#444444;stroke-width:1.5625;"/><line style="stroke:#444444;stroke-width:1.5625;" x1="340.2344" x2="276.5625" y1="1242.4316" y2="1242.4316"/><line style="stroke:#444444;stroke-width:1.5625;" x1="276.5625" x2="276.5625" y1="1242.4316" y2="1276.8066"/><polygon fill="#444444" points="270.3125,1261.1816,276.5625,1276.8066,282.8125,1261.1816,276.5625,1267.4316" style="stroke:#444444;stroke-width:1.5625;"/><line style="stroke:#444444;stroke-width:1.5625;" x1="633.9844" x2="697.6563" y1="1242.4316" y2="1242.4316"/><line style="stroke:#444444;stroke-width:1.5625;" x1="697.6563" x2="697.6563" y1="1242.4316" y2="1276.8066"/><polygon fill="#444444" points="691.4063,1261.1816,697.6563,1276.8066,703.9063,1261.1816,697.6563,1267.4316" style="stroke:#444444;stroke-width:1.5625;"/><line style="stroke:#444444;stroke-width:1.5625;" x1="276.5625" x2="276.5625" y1="1329.8828" y2="1358.0078"/><line style="stroke:#444444;stroke-width:1.5625;" x1="276.5625" x2="468.3594" y1="1358.0078" y2="1358.0078"/><polygon fill="#444444" points="452.7344,1351.7578,468.3594,1358.0078,452.7344,1364.2578,458.9844,1358.0078" style="stroke:#444444;stroke-width:1.5625;"/><line style="stroke:#444444;stroke-width:1.5625;" x1="697.6563" x2="697.6563" y1="1329.8828" y2="1358.0078"/><line style="stroke:#444444;stroke-width:1.5625;" x1="697.6563" x2="505.8594" y1="1358.0078" y2="1358.0078"/><polygon fill="#444444" points="521.4844,1351.7578,505.8594,1358.0078,521.4844,1364.2578,515.2344,1358.0078" style="stroke:#444444;stroke-width:1.5625;"/><line style="stroke:#444444;stroke-width:1.5625;" x1="487.1094" x2="487.1094" y1="1376.7578" y2="1408.0078"/><polygon fill="#444444" points="480.8594,1392.3828,487.1094,1408.0078,493.3594,1392.3828,487.1094,1398.6328" style="stroke:#444444;stroke-width:1.5625;"/><line style="stroke:#444444;stroke-width:1.5625;" x1="487.1094" x2="487.1094" y1="1136.2305" y2="1223.6816"/><polygon fill="#444444" points="480.8594,1208.0566,487.1094,1223.6816,493.3594,1208.0566,487.1094,1214.3066" style="stroke:#444444;stroke-width:1.5625;"/><line style="stroke:#444444;stroke-width:1.5625;" x1="487.1094" x2="487.1094" y1="1601.6113" y2="1632.8613"/><polygon fill="#444444" points="480.8594,1617.2363,487.1094,1632.8613,493.3594,1617.2363,487.1094,1623.4863" style="stroke:#444444;stroke-width:1.5625;"/><line style="stroke:#444444;stroke-width:1.5625;" x1="487.1094" x2="487.1094" y1="1685.9375" y2="1717.1875"/><polygon fill="#444444" points="480.8594,1701.5625,487.1094,1717.1875,493.3594,1701.5625,487.1094,1707.8125" style="stroke:#444444;stroke-width:1.5625;"/><line style="stroke:#444444;stroke-width:1.5625;" x1="487.1094" x2="487.1094" y1="1461.084" y2="1548.5352"/><polygon fill="#444444" points="480.8594,1532.9102,487.1094,1548.5352,493.3594,1532.9102,487.1094,1539.1602" style="stroke:#444444;stroke-width:1.5625;"/><line style="stroke:#444444;stroke-width:1.5625;" x1="487.1094" x2="487.1094" y1="1770.2637" y2="1823.3643"/><polygon fill="#444444" points="480.8594,1807.7393,487.1094,1823.3643,493.3594,1807.7393,487.1094,1813.9893" style="stroke:#444444;stroke-width:1.5625;"/><!--SRC=[TLHDZoCr4BtthoZs0Cdi9CqWSSck5eNCh5W1moe9At5qt9ME5RTjR7S-GFntNdKdKJ8CERGwxNBLgrVlLTeQ5rHK3QsKtjRHjwwQUUiZxJScSv4kvscZAhythgQrikdwf0g67hx_zkfBbqRxw3ZIm_N1D4Q_x_F_Q57mwkYHrwgr-QDt-LarZ52ZRF6LSTgs5TDuN9vUKwb2IAn7AHyjZqFRs2ARR74bX0Lh-XozvfJeuRi9FNitclacMADSbW1hjCh6E_f9kSfAEuEPtt5KDT_JufTfkYSSqDD1Sv2uD2oAR-Xp6uDFF97SEmCuYhHb5U-9tTf7pMg5-a7b3NXZXnIahcgPH0v0z1a8Cbv-WyQa93YILWxLpt-1TUOhW19qLSkaeyb8Q14JER3AN56D9wsEGQKq71T5oYhceW2X84GAltdap3hVqA3v3VrT44sMqTGr9ZHGRMLosN2EHgUIT-poy9r4VAhmQjR7CnWQO71hgsgwktk1y-wklpApm29NhXlMJFaOU8A04VrwkgXFjDDWCLqioyLiMZxAooTv0DlkEEpYCHHQHLPwGuCp1-N6r9ipCttO_1LEkeClx2h0hjYg8uRzst9HBfHQ0Eu_DrHDKu9gJjpCl5kR2DLh7vZU4Xym_pO2h75WsLfgqBIL-UzIrxbP8tcRicyubf7hrdPeAfNL3qFAeeh17vm4BFBFbKaGJ3GU7HtbFiDKD7Zsfu15XWnLh6vZN6NMBs3FJThI4lpa1iFguNTOeC783LT6-FYpDNfhZwyWcSbLleHApc1nT-3tOj-tqW7tBRw02CSQ1rrYoEmIhdP3TJbwczxr8KlJy6Zb3o1Yhyok4ri8y92og0XGaQlX_tNsr5lhjgqvmtU0qO1gMc7GrkijLwyqzZ4o_oMDzHVAFXHy-iPBWVVlHIaVFhpIsTHQloTh6YCZF6VO6zZxki4UDEAVu5qPDsLFYAqufeq9fDAboPTY-y9HJF8rP0l9G5V_SUVJWNMBbFqmrkPGOhteJQb5cNLljZcFP6j0RYFCADCW-HQC9QbysZ_OIttixq46ILUMX8vpcqJSijBmfGFflAW1zih5ptoa1fw0IITm_FEjepTI17H2DZft-y-t6UTO1PFYeZnPQDa8qoFXRzJB05iDYwGRqBW0ZIHLPN_vy2y0]--></g></svg>