<?plantuml 1.2026.2?><svg xmlns="http://www.w3.org/2000/svg" xmlns:xlink="http://www.w3.org/1999/xlink" contentStyleType="text/css" data-diagram-type="ACTIVITY" height="2850px" preserveAspectRatio="none" style="width:1203px;height:2850px;background:#FFFFFF;" version="1.1" viewBox="0 0 1203 2850" width="1203.125px" zoomAndPan="magnify"><title>AppSec Process 13: 16-Gate CI/CD Pipeline &#8212; AppSec Overlay (AppCode-Centric)</title><defs/><g><g class="title" data-source-line="2"><text fill="#000000" font-family="Arial" font-size="25" font-weight="bold" lengthAdjust="spacing" textLength="1136.377" x="31.25" y="54.4556">AppSec Process 13: 16-Gate CI/CD Pipeline &#8212; AppSec Overlay (AppCode-Centric)</text></g><ellipse cx="327.2873" cy="93.1641" fill="#222222" rx="15.625" ry="15.625" style="stroke:#222222;stroke-width:1.5625;"/><rect fill="none" height="282.373" rx="7.8125" ry="7.8125" style="stroke:#777777;stroke-width:2.3438;" width="885.6628" x="125.914" y="124.4141"/><path d="M389.7842,124.4141 L389.7842,135.3027 L374.1592,150.9277 L125.914,150.9277" fill="none" style="stroke:#777777;stroke-width:2.3438;"/><text fill="#111111" font-family="Arial" font-size="18.75" lengthAdjust="spacing" textLength="248.2452" x="130.6015" y="143.3807">Source Code Management</text><path d="M541.4154,166.5527 L541.4154,211.7676 L510.1654,218.0176 L541.4154,224.2676 L541.4154,269.4824 A0,0 0 0 0 541.4154,269.4824 L963.7115,269.4824 A0,0 0 0 0 963.7115,269.4824 L963.7115,182.1777 L948.0865,166.5527 L541.4154,166.5527 A0,0 0 0 0 541.4154,166.5527" fill="#FFF8D6" style="stroke:#C7A700;stroke-width:0.7813;"/><path d="M948.0865,166.5527 L948.0865,182.1777 L963.7115,182.1777 L948.0865,166.5527" fill="#FFF8D6" style="stroke:#C7A700;stroke-width:0.7813;"/><text fill="#000000" font-family="Arial" font-size="18.75" lengthAdjust="spacing" textLength="223.1964" x="550.7904" y="191.7694">AppCode requirements:</text><text fill="#000000" font-family="Arial" font-size="18.75" lengthAdjust="spacing" textLength="349.7406" x="550.7904" y="213.5956">- Repo/pipeline tagged with AppCode</text><text fill="#000000" font-family="Arial" font-size="18.75" lengthAdjust="spacing" textLength="389.4836" x="550.7904" y="235.4218">- Ownership mapping (AppCode -&gt; team)</text><text fill="#000000" font-family="Arial" font-size="18.75" lengthAdjust="spacing" textLength="279.4739" x="550.7904" y="257.2479">Related processes: 01, 02, 09</text><rect fill="#F7F7F7" height="53.0762" rx="7.8125" ry="7.8125" style="stroke:#444444;stroke-width:0.7813;" width="365.7562" x="144.4092" y="191.4795"/><text fill="#000000" font-family="Arial" font-size="18.75" lengthAdjust="spacing" textLength="334.5062" x="160.0342" y="224.5087">Source Code Version Control&#171;gate&#187;</text><path d="M544.2856,285.1074 L544.2856,330.3223 L513.0356,336.5723 L544.2856,342.8223 L544.2856,388.0371 A0,0 0 0 0 544.2856,388.0371 L995.9518,388.0371 A0,0 0 0 0 995.9518,388.0371 L995.9518,300.7324 L980.3268,285.1074 L544.2856,285.1074 A0,0 0 0 0 544.2856,285.1074" fill="#FFF8D6" style="stroke:#C7A700;stroke-width:0.7813;"/><path d="M980.3268,285.1074 L980.3268,300.7324 L995.9518,300.7324 L980.3268,285.1074" fill="#FFF8D6" style="stroke:#C7A700;stroke-width:0.7813;"/><text fill="#000000" font-family="Arial" font-size="18.75" lengthAdjust="spacing" textLength="84.2743" x="553.6606" y="310.3241">Controls:</text><text fill="#000000" font-family="Arial" font-size="18.75" lengthAdjust="spacing" textLength="380.8044" x="553.6606" y="332.1503">- Protected branches + required reviews</text><text fill="#000000" font-family="Arial" font-size="18.75" lengthAdjust="spacing" textLength="418.8538" x="553.6606" y="353.9764">- Required status checks (quality + security)</text><text fill="#000000" font-family="Arial" font-size="18.75" lengthAdjust="spacing" textLength="207.9163" x="553.6606" y="375.8026">Related processes: 02</text><rect fill="#F7F7F7" height="53.0762" rx="7.8125" ry="7.8125" style="stroke:#444444;stroke-width:0.7813;" width="371.4966" x="141.539" y="310.0342"/><text fill="#000000" font-family="Arial" font-size="18.75" lengthAdjust="spacing" textLength="340.2466" x="157.164" y="343.0634">Optimum Branching Strategy&#171;gate&#187;</text><rect fill="none" height="262.1582" rx="7.8125" ry="7.8125" style="stroke:#777777;stroke-width:2.3438;" width="695.1965" x="167.7124" y="422.4121"/><path d="M323.9441,422.4121 L323.9441,433.3008 L308.3191,448.9258 L167.7124,448.9258" fill="none" style="stroke:#777777;stroke-width:2.3438;"/><text fill="#111111" font-family="Arial" font-size="18.75" lengthAdjust="spacing" textLength="140.6067" x="172.3999" y="441.3788">Build &amp; Quality</text><path d="M475.1862,464.5508 L475.1862,509.7656 L443.9362,516.0156 L475.1862,522.2656 L475.1862,567.4805 A0,0 0 0 0 475.1862,567.4805 L794.4946,567.4805 A0,0 0 0 0 794.4946,567.4805 L794.4946,480.1758 L778.8696,464.5508 L475.1862,464.5508 A0,0 0 0 0 475.1862,464.5508" fill="#FFF8D6" style="stroke:#C7A700;stroke-width:0.7813;"/><path d="M778.8696,464.5508 L778.8696,480.1758 L794.4946,480.1758 L778.8696,464.5508" fill="#FFF8D6" style="stroke:#C7A700;stroke-width:0.7813;"/><text fill="#000000" font-family="Arial" font-size="18.75" lengthAdjust="spacing" textLength="55.6915" x="484.5612" y="489.7675">Tools:</text><text fill="#000000" font-family="Arial" font-size="18.75" lengthAdjust="spacing" textLength="161.7096" x="484.5612" y="511.5936">- SonarQube (11)</text><text fill="#000000" font-family="Arial" font-size="18.75" lengthAdjust="spacing" textLength="286.496" x="484.5612" y="533.4198">- GHAS CodeQL / Coverity (03)</text><text fill="#000000" font-family="Arial" font-size="18.75" lengthAdjust="spacing" textLength="279.4739" x="484.5612" y="555.246">Related processes: 02, 03, 11</text><rect fill="#F7F7F7" height="53.0762" rx="7.8125" ry="7.8125" style="stroke:#444444;stroke-width:0.7813;" width="233.2977" x="210.6384" y="489.4775"/><text fill="#000000" font-family="Arial" font-size="18.75" lengthAdjust="spacing" textLength="202.0477" x="226.2634" y="522.5067">Static Analysis&#171;gate&#187;</text><path d="M502.4872,584.7168 L502.4872,619.0186 L471.2372,625.2686 L502.4872,631.5186 L502.4872,665.8203 A0,0 0 0 0 502.4872,665.8203 L847.2839,665.8203 A0,0 0 0 0 847.2839,665.8203 L847.2839,600.3418 L831.6589,584.7168 L502.4872,584.7168 A0,0 0 0 0 502.4872,584.7168" fill="#FFF8D6" style="stroke:#C7A700;stroke-width:0.7813;"/><path d="M831.6589,584.7168 L831.6589,600.3418 L847.2839,600.3418 L831.6589,584.7168" fill="#FFF8D6" style="stroke:#C7A700;stroke-width:0.7813;"/><text fill="#000000" font-family="Arial" font-size="18.75" lengthAdjust="spacing" textLength="84.2743" x="511.8622" y="609.9335">Controls:</text><text fill="#000000" font-family="Arial" font-size="18.75" lengthAdjust="spacing" textLength="311.9843" x="511.8622" y="631.7596">- Unit tests + coverage threshold</text><text fill="#000000" font-family="Arial" font-size="18.75" lengthAdjust="spacing" textLength="207.9163" x="511.8622" y="653.5858">Related processes: 02</text><rect fill="#F7F7F7" height="53.0762" rx="7.8125" ry="7.8125" style="stroke:#444444;stroke-width:0.7813;" width="287.8998" x="183.3374" y="598.7305"/><text fill="#000000" font-family="Arial" font-size="18.75" lengthAdjust="spacing" textLength="256.6498" x="198.9624" y="631.7596">80% Code Coverage&#171;gate&#187;</text><rect fill="none" height="282.373" rx="7.8125" ry="7.8125" style="stroke:#777777;stroke-width:2.3438;" width="807.5775" x="177.2293" y="700.1953"/><path d="M362.2726,700.1953 L362.2726,711.084 L346.6476,726.709 L177.2293,726.709" fill="none" style="stroke:#777777;stroke-width:2.3438;"/><text fill="#111111" font-family="Arial" font-size="18.75" lengthAdjust="spacing" textLength="169.4183" x="181.9168" y="719.162">Security Scanning</text><path d="M491.803,742.334 L491.803,787.5488 L460.553,793.7988 L491.803,800.0488 L491.803,845.2637 A0,0 0 0 0 491.803,845.2637 L897.1985,845.2637 A0,0 0 0 0 897.1985,845.2637 L897.1985,757.959 L881.5735,742.334 L491.803,742.334 A0,0 0 0 0 491.803,742.334" fill="#FFF8D6" style="stroke:#C7A700;stroke-width:0.7813;"/><path d="M881.5735,742.334 L881.5735,757.959 L897.1985,757.959 L881.5735,742.334" fill="#FFF8D6" style="stroke:#C7A700;stroke-width:0.7813;"/><text fill="#000000" font-family="Arial" font-size="18.75" lengthAdjust="spacing" textLength="55.6915" x="501.178" y="767.5507">Tools:</text><text fill="#000000" font-family="Arial" font-size="18.75" lengthAdjust="spacing" textLength="302.1515" x="501.178" y="789.3768">- Trivy (IaC, images, SBOM) (06)</text><text fill="#000000" font-family="Arial" font-size="18.75" lengthAdjust="spacing" textLength="372.583" x="501.178" y="811.203">- GHAS CodeQL findings contribute (03)</text><text fill="#000000" font-family="Arial" font-size="18.75" lengthAdjust="spacing" textLength="279.4739" x="501.178" y="833.0292">Related processes: 02, 06, 09</text><rect fill="#F7F7F7" height="53.0762" rx="7.8125" ry="7.8125" style="stroke:#444444;stroke-width:0.7813;" width="266.5314" x="194.0216" y="767.2607"/><text fill="#000000" font-family="Arial" font-size="18.75" lengthAdjust="spacing" textLength="235.2814" x="209.6466" y="800.2899">Vulnerability Scan&#171;gate&#187;</text><path d="M492.9703,860.8887 L492.9703,906.1035 L461.7203,912.3535 L492.9703,918.6035 L492.9703,963.8184 A0,0 0 0 0 492.9703,963.8184 L969.1818,963.8184 A0,0 0 0 0 969.1818,963.8184 L969.1818,876.5137 L953.5568,860.8887 L492.9703,860.8887 A0,0 0 0 0 492.9703,860.8887" fill="#FFF8D6" style="stroke:#C7A700;stroke-width:0.7813;"/><path d="M953.5568,860.8887 L953.5568,876.5137 L969.1818,876.5137 L953.5568,860.8887" fill="#FFF8D6" style="stroke:#C7A700;stroke-width:0.7813;"/><text fill="#000000" font-family="Arial" font-size="18.75" lengthAdjust="spacing" textLength="55.6915" x="502.3453" y="886.1053">Tools:</text><text fill="#000000" font-family="Arial" font-size="18.75" lengthAdjust="spacing" textLength="443.399" x="502.3453" y="907.9315">- GHAS dependency review + Dependabot (04)</text><text fill="#000000" font-family="Arial" font-size="18.75" lengthAdjust="spacing" textLength="259.6436" x="502.3453" y="929.7577">- License policy checks (04)</text><text fill="#000000" font-family="Arial" font-size="18.75" lengthAdjust="spacing" textLength="243.6951" x="502.3453" y="951.5839">Related processes: 04, 09</text><rect fill="#F7F7F7" height="53.0762" rx="7.8125" ry="7.8125" style="stroke:#444444;stroke-width:0.7813;" width="268.866" x="192.8543" y="885.8154"/><text fill="#000000" font-family="Arial" font-size="18.75" lengthAdjust="spacing" textLength="237.616" x="208.4793" y="918.8446">Open Source Scan&#171;gate&#187;</text><rect fill="none" height="163.8184" rx="7.8125" ry="7.8125" style="stroke:#777777;stroke-width:2.3438;" width="819.278" x="153.746" y="998.1934"/><path d="M367.6926,998.1934 L367.6926,1009.082 L352.0676,1024.707 L153.746,1024.707" fill="none" style="stroke:#777777;stroke-width:2.3438;"/><text fill="#111111" font-family="Arial" font-size="18.75" lengthAdjust="spacing" textLength="198.3215" x="158.4335" y="1017.16">Artifact Management</text><path d="M516.4536,1040.332 L516.4536,1085.5469 L485.2036,1091.7969 L516.4536,1098.0469 L516.4536,1143.2617 A0,0 0 0 0 516.4536,1143.2617 L957.399,1143.2617 A0,0 0 0 0 957.399,1143.2617 L957.399,1055.957 L941.774,1040.332 L516.4536,1040.332 A0,0 0 0 0 516.4536,1040.332" fill="#FFF8D6" style="stroke:#C7A700;stroke-width:0.7813;"/><path d="M941.774,1040.332 L941.774,1055.957 L957.399,1055.957 L941.774,1040.332" fill="#FFF8D6" style="stroke:#C7A700;stroke-width:0.7813;"/><text fill="#000000" font-family="Arial" font-size="18.75" lengthAdjust="spacing" textLength="84.2743" x="525.8286" y="1065.5487">Controls:</text><text fill="#000000" font-family="Arial" font-size="18.75" lengthAdjust="spacing" textLength="301.4282" x="525.8286" y="1087.3749">- Immutable, versioned artifacts</text><text fill="#000000" font-family="Arial" font-size="18.75" lengthAdjust="spacing" textLength="408.1329" x="525.8286" y="1109.201">- Labels include AppCode + build metadata</text><text fill="#000000" font-family="Arial" font-size="18.75" lengthAdjust="spacing" textLength="243.6951" x="525.8286" y="1131.0272">Related processes: 06, 09</text><rect fill="#F7F7F7" height="53.0762" rx="7.8125" ry="7.8125" style="stroke:#444444;stroke-width:0.7813;" width="315.8325" x="169.371" y="1065.2588"/><text fill="#000000" font-family="Arial" font-size="18.75" lengthAdjust="spacing" textLength="284.5825" x="184.996" y="1098.288">Artifact Version Control&#171;gate&#187;</text><rect fill="none" height="265.2832" rx="7.8125" ry="7.8125" style="stroke:#777777;stroke-width:2.3438;" width="816.8015" x="169.8044" y="1177.6367"/><path d="M434.2239,1177.6367 L434.2239,1188.5254 L418.5989,1204.1504 L169.8044,1204.1504" fill="none" style="stroke:#777777;stroke-width:2.3438;"/><text fill="#111111" font-family="Arial" font-size="18.75" lengthAdjust="spacing" textLength="248.7946" x="174.4919" y="1196.6034">Infrastructure Provisioning</text><rect fill="#F7F7F7" height="53.0762" rx="7.8125" ry="7.8125" style="stroke:#444444;stroke-width:0.7813;" width="283.7158" x="185.4294" y="1230.7129"/><text fill="#000000" font-family="Arial" font-size="18.75" lengthAdjust="spacing" textLength="252.4658" x="201.0544" y="1263.7421">Automatic Provision&#171;gate&#187;</text><path d="M496.0968,1299.4141 L496.0968,1355.542 L464.8468,1361.792 L496.0968,1368.042 L496.0968,1424.1699 A0,0 0 0 0 496.0968,1424.1699 L970.9808,1424.1699 A0,0 0 0 0 970.9808,1424.1699 L970.9808,1315.0391 L955.3558,1299.4141 L496.0968,1299.4141 A0,0 0 0 0 496.0968,1299.4141" fill="#FFF8D6" style="stroke:#C7A700;stroke-width:0.7813;"/><path d="M955.3558,1299.4141 L955.3558,1315.0391 L970.9808,1315.0391 L955.3558,1299.4141" fill="#FFF8D6" style="stroke:#C7A700;stroke-width:0.7813;"/><text fill="#000000" font-family="Arial" font-size="18.75" lengthAdjust="spacing" textLength="84.2743" x="505.4718" y="1324.6307">Controls:</text><text fill="#000000" font-family="Arial" font-size="18.75" lengthAdjust="spacing" textLength="254.5258" x="505.4718" y="1346.4569">- IaC-defined infrastructure</text><text fill="#000000" font-family="Arial" font-size="18.75" lengthAdjust="spacing" textLength="230.2643" x="505.4718" y="1368.2831">- Immutable image bake</text><text fill="#000000" font-family="Arial" font-size="18.75" lengthAdjust="spacing" textLength="442.0715" x="505.4718" y="1390.1093">- Trivy config scan supports IaC assurance (06)</text><text fill="#000000" font-family="Arial" font-size="18.75" lengthAdjust="spacing" textLength="207.9163" x="505.4718" y="1411.9354">Related processes: 06</text><rect fill="#F7F7F7" height="53.0762" rx="7.8125" ry="7.8125" style="stroke:#444444;stroke-width:0.7813;" width="275.119" x="189.7278" y="1335.2539"/><text fill="#000000" font-family="Arial" font-size="18.75" lengthAdjust="spacing" textLength="243.869" x="205.3528" y="1368.2831">Immutable Servers&#171;gate&#187;</text><rect fill="none" height="282.373" rx="7.8125" ry="7.8125" style="stroke:#777777;stroke-width:2.3438;" width="847.6227" x="165.9866" y="1458.5449"/><path d="M431.2851,1458.5449 L431.2851,1469.4336 L415.6601,1485.0586 L165.9866,1485.0586" fill="none" style="stroke:#777777;stroke-width:2.3438;"/><text fill="#111111" font-family="Arial" font-size="18.75" lengthAdjust="spacing" textLength="249.6735" x="170.6741" y="1477.5116">Integration &amp; Performance</text><path d="M495.9641,1500.6836 L495.9641,1545.8984 L464.7141,1552.1484 L495.9641,1558.3984 L495.9641,1603.6133 A0,0 0 0 0 495.9641,1603.6133 L958.3328,1603.6133 A0,0 0 0 0 958.3328,1603.6133 L958.3328,1516.3086 L942.7078,1500.6836 L495.9641,1500.6836 A0,0 0 0 0 495.9641,1500.6836" fill="#FFF8D6" style="stroke:#C7A700;stroke-width:0.7813;"/><path d="M942.7078,1500.6836 L942.7078,1516.3086 L958.3328,1516.3086 L942.7078,1500.6836" fill="#FFF8D6" style="stroke:#C7A700;stroke-width:0.7813;"/><text fill="#000000" font-family="Arial" font-size="18.75" lengthAdjust="spacing" textLength="55.6915" x="505.3391" y="1525.9003">Tools:</text><text fill="#000000" font-family="Arial" font-size="18.75" lengthAdjust="spacing" textLength="429.5563" x="505.3391" y="1547.7264">- DAST (InsightAppSec) against test envs (07)</text><text fill="#000000" font-family="Arial" font-size="18.75" lengthAdjust="spacing" textLength="401.9897" x="505.3391" y="1569.5526">- IAST (Seeker) during functional tests (08)</text><text fill="#000000" font-family="Arial" font-size="18.75" lengthAdjust="spacing" textLength="243.6951" x="505.3391" y="1591.3788">Related processes: 07, 08</text><rect fill="#F7F7F7" height="53.0762" rx="7.8125" ry="7.8125" style="stroke:#444444;stroke-width:0.7813;" width="274.8535" x="189.8605" y="1525.6104"/><text fill="#000000" font-family="Arial" font-size="18.75" lengthAdjust="spacing" textLength="243.6035" x="205.4855" y="1558.6395">Integration Testing&#171;gate&#187;</text><path d="M504.213,1619.2383 L504.213,1664.4531 L472.963,1670.7031 L504.213,1676.9531 L504.213,1722.168 A0,0 0 0 0 504.213,1722.168 L997.9843,1722.168 A0,0 0 0 0 997.9843,1722.168 L997.9843,1634.8633 L982.3593,1619.2383 L504.213,1619.2383 A0,0 0 0 0 504.213,1619.2383" fill="#FFF8D6" style="stroke:#C7A700;stroke-width:0.7813;"/><path d="M982.3593,1619.2383 L982.3593,1634.8633 L997.9843,1634.8633 L982.3593,1619.2383" fill="#FFF8D6" style="stroke:#C7A700;stroke-width:0.7813;"/><text fill="#000000" font-family="Arial" font-size="18.75" lengthAdjust="spacing" textLength="84.2743" x="513.588" y="1644.455">Controls:</text><text fill="#000000" font-family="Arial" font-size="18.75" lengthAdjust="spacing" textLength="237.6709" x="513.588" y="1666.2811">- Load/latency thresholds</text><text fill="#000000" font-family="Arial" font-size="18.75" lengthAdjust="spacing" textLength="460.9589" x="513.588" y="1688.1073">- Security impact: rate limits, stability under load</text><text fill="#000000" font-family="Arial" font-size="18.75" lengthAdjust="spacing" textLength="387.03" x="513.588" y="1709.9335">Related processes: 09 (risk prioritization)</text><rect fill="#F7F7F7" height="53.0762" rx="7.8125" ry="7.8125" style="stroke:#444444;stroke-width:0.7813;" width="291.3513" x="181.6116" y="1644.165"/><text fill="#000000" font-family="Arial" font-size="18.75" lengthAdjust="spacing" textLength="260.1013" x="197.2366" y="1677.1942">Performance Testing&#171;gate&#187;</text><rect fill="none" height="366.6992" rx="7.8125" ry="7.8125" style="stroke:#777777;stroke-width:2.3438;" width="909.4116" x="134.8358" y="1756.543"/><path d="M360.3088,1756.543 L360.3088,1767.4316 L344.6838,1783.0566 L134.8358,1783.0566" fill="none" style="stroke:#777777;stroke-width:2.3438;"/><text fill="#111111" font-family="Arial" font-size="18.75" lengthAdjust="spacing" textLength="209.848" x="139.5233" y="1775.5096">Automation &amp; Release</text><path d="M535.3638,1798.6816 L535.3638,1843.8965 L504.1138,1850.1465 L535.3638,1856.3965 L535.3638,1901.6113 A0,0 0 0 0 535.3638,1901.6113 L1028.6224,1901.6113 A0,0 0 0 0 1028.6224,1901.6113 L1028.6224,1814.3066 L1012.9974,1798.6816 L535.3638,1798.6816 A0,0 0 0 0 535.3638,1798.6816" fill="#FFF8D6" style="stroke:#C7A700;stroke-width:0.7813;"/><path d="M1012.9974,1798.6816 L1012.9974,1814.3066 L1028.6224,1814.3066 L1012.9974,1798.6816" fill="#FFF8D6" style="stroke:#C7A700;stroke-width:0.7813;"/><text fill="#000000" font-family="Arial" font-size="18.75" lengthAdjust="spacing" textLength="84.2743" x="544.7388" y="1823.8983">Controls:</text><text fill="#000000" font-family="Arial" font-size="18.75" lengthAdjust="spacing" textLength="412.6465" x="544.7388" y="1845.7245">- Commit -&gt; build -&gt; test -&gt; scan -&gt; deploy</text><text fill="#000000" font-family="Arial" font-size="18.75" lengthAdjust="spacing" textLength="460.4462" x="544.7388" y="1867.5507">- Fail-fast + consistent evidence trails (AppCode)</text><text fill="#000000" font-family="Arial" font-size="18.75" lengthAdjust="spacing" textLength="243.6951" x="544.7388" y="1889.3768">Related processes: 02, 09</text><rect fill="#F7F7F7" height="53.0762" rx="7.8125" ry="7.8125" style="stroke:#444444;stroke-width:0.7813;" width="353.653" x="150.4608" y="1823.6084"/><text fill="#000000" font-family="Arial" font-size="18.75" lengthAdjust="spacing" textLength="322.403" x="166.0858" y="1856.6376">Full Automation on Commit&#171;gate&#187;</text><rect fill="#F7F7F7" height="53.0762" rx="7.8125" ry="7.8125" style="stroke:#444444;stroke-width:0.7813;" width="321.5454" x="166.5146" y="1932.8613"/><text fill="#000000" font-family="Arial" font-size="18.75" lengthAdjust="spacing" textLength="290.2954" x="182.1396" y="1965.8905">Zero Downtime Release&#171;gate&#187;</text><path d="M477.6352,2001.5625 L477.6352,2046.7773 L446.3852,2053.0273 L477.6352,2059.2773 L477.6352,2104.4922 A0,0 0 0 0 477.6352,2104.4922 L1014.5828,2104.4922 A0,0 0 0 0 1014.5828,2104.4922 L1014.5828,2017.1875 L998.9578,2001.5625 L477.6352,2001.5625 A0,0 0 0 0 477.6352,2001.5625" fill="#FFF8D6" style="stroke:#C7A700;stroke-width:0.7813;"/><path d="M998.9578,2001.5625 L998.9578,2017.1875 L1014.5828,2017.1875 L998.9578,2001.5625" fill="#FFF8D6" style="stroke:#C7A700;stroke-width:0.7813;"/><text fill="#000000" font-family="Arial" font-size="18.75" lengthAdjust="spacing" textLength="84.2743" x="487.0102" y="2026.7792">Controls:</text><text fill="#000000" font-family="Arial" font-size="18.75" lengthAdjust="spacing" textLength="395.2881" x="487.0102" y="2048.6053">- Progressive delivery (blue/green/canary)</text><text fill="#000000" font-family="Arial" font-size="18.75" lengthAdjust="spacing" textLength="279.3091" x="487.0102" y="2070.4315">- Feature flags for safe rollout</text><text fill="#000000" font-family="Arial" font-size="18.75" lengthAdjust="spacing" textLength="504.1351" x="487.0102" y="2092.2577">Related processes: 12 (non-compliance enforcement)</text><rect fill="#F7F7F7" height="53.0762" rx="7.8125" ry="7.8125" style="stroke:#444444;stroke-width:0.7813;" width="238.1958" x="208.1894" y="2026.4893"/><text fill="#000000" font-family="Arial" font-size="18.75" lengthAdjust="spacing" textLength="206.9458" x="223.8144" y="2059.5184">Feature Toggle&#171;gate&#187;</text><rect fill="none" height="243.457" rx="7.8125" ry="7.8125" style="stroke:#777777;stroke-width:2.3438;" width="934.9228" x="142.7277" y="2138.8672"/><path d="M359.613,2138.8672 L359.613,2149.7559 L343.988,2165.3809 L142.7277,2165.3809" fill="none" style="stroke:#777777;stroke-width:2.3438;"/><text fill="#111111" font-family="Arial" font-size="18.75" lengthAdjust="spacing" textLength="201.2604" x="147.4152" y="2157.8339">Change Management</text><rect fill="#F7F7F7" height="53.0762" rx="7.8125" ry="7.8125" style="stroke:#444444;stroke-width:0.7813;" width="337.8693" x="158.3527" y="2191.9434"/><text fill="#000000" font-family="Arial" font-size="18.75" lengthAdjust="spacing" textLength="306.6193" x="173.9777" y="2224.9725">Automated Change Order&#171;gate&#187;</text><path d="M501.5305,2260.6445 L501.5305,2305.8594 L470.2805,2312.1094 L501.5305,2318.3594 L501.5305,2363.5742 A0,0 0 0 0 501.5305,2363.5742 L1062.0255,2363.5742 A0,0 0 0 0 1062.0255,2363.5742 L1062.0255,2276.2695 L1046.4005,2260.6445 L501.5305,2260.6445 A0,0 0 0 0 501.5305,2260.6445" fill="#FFF8D6" style="stroke:#C7A700;stroke-width:0.7813;"/><path d="M1046.4005,2260.6445 L1046.4005,2276.2695 L1062.0255,2276.2695 L1046.4005,2260.6445" fill="#FFF8D6" style="stroke:#C7A700;stroke-width:0.7813;"/><text fill="#000000" font-family="Arial" font-size="18.75" lengthAdjust="spacing" textLength="84.2743" x="510.9055" y="2285.8612">Controls:</text><text fill="#000000" font-family="Arial" font-size="18.75" lengthAdjust="spacing" textLength="527.6825" x="510.9055" y="2307.6874">- Auto change records include AppCode + risk summary</text><text fill="#000000" font-family="Arial" font-size="18.75" lengthAdjust="spacing" textLength="301.0437" x="510.9055" y="2329.5135">- Rollback on health/SLO breach</text><text fill="#000000" font-family="Arial" font-size="18.75" lengthAdjust="spacing" textLength="243.6951" x="510.9055" y="2351.3397">Related processes: 09, 12</text><rect fill="#F7F7F7" height="53.0762" rx="7.8125" ry="7.8125" style="stroke:#444444;stroke-width:0.7813;" width="285.9863" x="184.2941" y="2285.5713"/><text fill="#000000" font-family="Arial" font-size="18.75" lengthAdjust="spacing" textLength="254.7363" x="199.9191" y="2318.6005">Automated Rollback&#171;gate&#187;</text><ellipse cx="327.2873" cy="2430.7617" fill="none" rx="17.1875" ry="17.1875" style="stroke:#222222;stroke-width:1.5625;"/><ellipse cx="327.2873" cy="2430.7617" fill="#222222" rx="9.375" ry="9.375" style="stroke:#222222;stroke-width:1.5625;"/><line style="stroke:#444444;stroke-width:1.5625;" x1="327.2873" x2="327.2873" y1="244.5557" y2="310.0342"/><polygon fill="#444444" points="321.0373,294.4092,327.2873,310.0342,333.5373,294.4092,327.2873,300.6592" style="stroke:#444444;stroke-width:1.5625;"/><line style="stroke:#444444;stroke-width:1.5625;" x1="327.2873" x2="327.2873" y1="108.7891" y2="191.4795"/><polygon fill="#444444" points="321.0373,175.8545,327.2873,191.4795,333.5373,175.8545,327.2873,182.1045" style="stroke:#444444;stroke-width:1.5625;"/><line style="stroke:#444444;stroke-width:1.5625;" x1="327.2873" x2="327.2873" y1="542.5537" y2="598.7305"/><polygon fill="#444444" points="321.0373,583.1055,327.2873,598.7305,333.5373,583.1055,327.2873,589.3555" style="stroke:#444444;stroke-width:1.5625;"/><line style="stroke:#444444;stroke-width:1.5625;" x1="327.2873" x2="327.2873" y1="363.1104" y2="489.4775"/><polygon fill="#444444" points="321.0373,473.8525,327.2873,489.4775,333.5373,473.8525,327.2873,480.1025" style="stroke:#444444;stroke-width:1.5625;"/><line style="stroke:#444444;stroke-width:1.5625;" x1="327.2873" x2="327.2873" y1="820.3369" y2="885.8154"/><polygon fill="#444444" points="321.0373,870.1904,327.2873,885.8154,333.5373,870.1904,327.2873,876.4404" style="stroke:#444444;stroke-width:1.5625;"/><line style="stroke:#444444;stroke-width:1.5625;" x1="327.2873" x2="327.2873" y1="651.8066" y2="767.2607"/><polygon fill="#444444" points="321.0373,751.6357,327.2873,767.2607,333.5373,751.6357,327.2873,757.8857" style="stroke:#444444;stroke-width:1.5625;"/><line style="stroke:#444444;stroke-width:1.5625;" x1="327.2873" x2="327.2873" y1="938.8916" y2="1065.2588"/><polygon fill="#444444" points="321.0373,1049.6338,327.2873,1065.2588,333.5373,1049.6338,327.2873,1055.8838" style="stroke:#444444;stroke-width:1.5625;"/><line style="stroke:#444444;stroke-width:1.5625;" x1="327.2873" x2="327.2873" y1="1283.7891" y2="1335.2539"/><polygon fill="#444444" points="321.0373,1319.6289,327.2873,1335.2539,333.5373,1319.6289,327.2873,1325.8789" style="stroke:#444444;stroke-width:1.5625;"/><line style="stroke:#444444;stroke-width:1.5625;" x1="327.2873" x2="327.2873" y1="1118.335" y2="1230.7129"/><polygon fill="#444444" points="321.0373,1215.0879,327.2873,1230.7129,333.5373,1215.0879,327.2873,1221.3379" style="stroke:#444444;stroke-width:1.5625;"/><line style="stroke:#444444;stroke-width:1.5625;" x1="327.2873" x2="327.2873" y1="1578.6865" y2="1644.165"/><polygon fill="#444444" points="321.0373,1628.54,327.2873,1644.165,333.5373,1628.54,327.2873,1634.79" style="stroke:#444444;stroke-width:1.5625;"/><line style="stroke:#444444;stroke-width:1.5625;" x1="327.2873" x2="327.2873" y1="1388.3301" y2="1525.6104"/><polygon fill="#444444" points="321.0373,1509.9854,327.2873,1525.6104,333.5373,1509.9854,327.2873,1516.2354" style="stroke:#444444;stroke-width:1.5625;"/><line style="stroke:#444444;stroke-width:1.5625;" x1="327.2873" x2="327.2873" y1="1876.6846" y2="1932.8613"/><polygon fill="#444444" points="321.0373,1917.2363,327.2873,1932.8613,333.5373,1917.2363,327.2873,1923.4863" style="stroke:#444444;stroke-width:1.5625;"/><line style="stroke:#444444;stroke-width:1.5625;" x1="327.2873" x2="327.2873" y1="1985.9375" y2="2026.4893"/><polygon fill="#444444" points="321.0373,2010.8643,327.2873,2026.4893,333.5373,2010.8643,327.2873,2017.1143" style="stroke:#444444;stroke-width:1.5625;"/><line style="stroke:#444444;stroke-width:1.5625;" x1="327.2873" x2="327.2873" y1="1697.2412" y2="1823.6084"/><polygon fill="#444444" points="321.0373,1807.9834,327.2873,1823.6084,333.5373,1807.9834,327.2873,1814.2334" style="stroke:#444444;stroke-width:1.5625;"/><line style="stroke:#444444;stroke-width:1.5625;" x1="327.2873" x2="327.2873" y1="2245.0195" y2="2285.5713"/><polygon fill="#444444" points="321.0373,2269.9463,327.2873,2285.5713,333.5373,2269.9463,327.2873,2276.1963" style="stroke:#444444;stroke-width:1.5625;"/><line style="stroke:#444444;stroke-width:1.5625;" x1="327.2873" x2="327.2873" y1="2079.5654" y2="2191.9434"/><polygon fill="#444444" points="321.0373,2176.3184,327.2873,2191.9434,333.5373,2176.3184,327.2873,2182.5684" style="stroke:#444444;stroke-width:1.5625;"/><line style="stroke:#444444;stroke-width:1.5625;" x1="327.2873" x2="327.2873" y1="2338.6475" y2="2413.5742"/><polygon fill="#444444" points="321.0373,2397.9492,327.2873,2413.5742,333.5373,2397.9492,327.2873,2404.1992" style="stroke:#444444;stroke-width:1.5625;"/><g class="legend" data-source-line="134"><rect fill="none" height="346.6553" rx="7.8125" ry="7.8125" style="stroke:#777777;stroke-width:1.5625;" width="594.458" x="143.1015" y="2465.1367"/><text fill="#000000" font-family="Arial" font-size="21.875" font-weight="bold" lengthAdjust="spacing" textLength="300.824" x="150.914" y="2493.2541">Process crosswalk (IDs):</text><text fill="#000000" font-family="Arial" font-size="21.875" lengthAdjust="spacing" textLength="349.9573" x="150.914" y="2518.718">01 Onboarding &amp; coverage plan</text><text fill="#000000" font-family="Arial" font-size="21.875" lengthAdjust="spacing" textLength="218.483" x="150.914" y="2544.1818">02 CI security gates</text><text fill="#000000" font-family="Arial" font-size="21.875" lengthAdjust="spacing" textLength="578.833" x="150.914" y="2569.6457">03 Static analysis triage (GHAS/Coverity/SonarQube)</text><text fill="#000000" font-family="Arial" font-size="21.875" lengthAdjust="spacing" textLength="262.5961" x="150.914" y="2595.1096">04 SCA &amp; dependencies</text><text fill="#000000" font-family="Arial" font-size="21.875" lengthAdjust="spacing" textLength="317.3157" x="150.914" y="2620.5734">05 Secret scanning response</text><text fill="#000000" font-family="Arial" font-size="21.875" lengthAdjust="spacing" textLength="314.5706" x="150.914" y="2646.0373">06 Trivy container/IaC/SBOM</text><text fill="#000000" font-family="Arial" font-size="21.875" lengthAdjust="spacing" textLength="274.0891" x="150.914" y="2671.5012">07 DAST (InsightAppSec)</text><text fill="#000000" font-family="Arial" font-size="21.875" lengthAdjust="spacing" textLength="272.9462" x="150.914" y="2696.965">08 IAST verified (Seeker)</text><text fill="#000000" font-family="Arial" font-size="21.875" lengthAdjust="spacing" textLength="351.8692" x="150.914" y="2722.4289">09 Unified vulnerability lifecycle</text><text fill="#000000" font-family="Arial" font-size="21.875" lengthAdjust="spacing" textLength="286.0519" x="150.914" y="2747.8928">10 COTS/SaaS vendor risk</text><text fill="#000000" font-family="Arial" font-size="21.875" lengthAdjust="spacing" textLength="294.8105" x="150.914" y="2773.3566">11 SonarQube quality gate</text><text fill="#000000" font-family="Arial" font-size="21.875" lengthAdjust="spacing" textLength="344.9051" x="150.914" y="2798.8205">12 Non-compliant app handling</text></g><?plantuml-src bLRRRXit47tVhvWQQ2evjYNPYUEeHG1RXbC3JkHatJpqZTeThGXpoGt9bQ0M1VeH_S9-IG_t8akEvQW10g_8uLpEdBcuUwaBOKLE4v7SPzQKEXqPPImjPj9pv5RtRYPIiv0wewbGRlqcBIGDNlVNJYerYR6QBGtMBywjDOjQ_uM2mRMhIvwAKlahe_r7aJD4fL3H3r8dgaoPZevwpQVhYQ9md1mwlrHyL9IvYhpq2a-A8kQ4Rgr9s3aQd0nfS7huNdYcqNLlT4ctic0bDTE_V__JIe_dR9LOKWU_HoRbmn5hRsNIZQAVwBQqXN4yf7Xc5e24BHEBPDO-BcfJFM-CegdqZXRIpwGcF-DWEtkmNJIsZw1szQ_oJIDSHqB93EzCzNJlaRz1A_HLycwFB4_XYKwWB79UM1z5014WIADfBpQbJM0MmT07eKN6EKBQepyZek7wvHUsBhmO0NDhr2-_17VVlViPSjh0CIkpcSUF1XcO_LfAMsbpGvmVqcSkJA-DZBp8CavhPvitbTHu0IAucImeH-e2XLgmwV0TUHPv5tAVMS5yscBARaZzmG7rZ_7_BUvPfvLRKGXZN7YPbpbTMA6JML0PUuldsN9h54sKZUSWYUSas9jKAf21bss0AJxcaXUkYR4v1DA-T0JPvDvHvsk9bFabde6CfSNdjYYErxt_QoDN5wLKARsWJxMoDacm91Cwrq8jdNHRGxepgtXYeuNzL4wOEeD1jpfw_-jvN2Nwqmtry06Y1tyx_PEjZWBgamCQ31x3VTR_iQPCfGMCsX7btxJqIB3p0TsaUGk6MtOpezB_ZrVSG4rn8hH6tXl4lfGA71CJgThBNK2xit8EGAx5w81a3jVS0SKNumzTW7JwBOXJgLEO10L2a79IGkjtq3nzchoigId4NLsj_4WPBrCK_h9XA52zhCx4n7Zuygfs-aOch1rJOPI4RClO-lefLryzTdCJzNDyJKNYlsqdgvjTUyacFwxplFHYelY0vhK2E2OQdNNvtOW9AqVj76WRnqkQLAMJinUfy69BOAVF1tQjfrOuRyl4bsZjQ0fp6Rnu8DPvwKrULUFgSZssuIe2Yjc667QDN8mEKmQZuB3Sy68Jc9gNcCxtl4PP470gCt8W3xcoA8n5XK4b2UVAqC-uPV2Je3m727ee6cduyO9ksKwDpOE-1exr-plKDO3QXRsNv_4TwaoxS5NFpYw9J4Zjwlu0V-Q1eMzg0bzNyZ7pFTikfIZvi7UKEWc6XMfQIgT_jYt4DyZxsUEwMmldkyvlPkl6YBGNh8JIMxMlcg2hbYJp0gmTKfX3f6IETU0W38scAM4bmZgae6cBps-fOwMxnvaqK2Z_g63kFbEM3JUhN44Z2zVcwQfKYjRkgyhCuTAE0TV2OJpNPLRDQLSTLAJ3NpGZPPQLz9MGwd0A2bTT7bbsG0evdSlGhD3mBGJSQke_rp2_QPQ_ipLqQHOQ0v_RA3TAy8f5LRrt9iiKxpx_CwJHoJaZ4eK_5fDWeahkuPnr3r4Akwpfs5gOAe7k3mwH4rDeDagPqZyTpU2OEjhemyJaXP8LvrZZQLArpsUoEfe9dJsnkJNPX9L6Ocn1g0qa7aG-mxMmqU-8HdY8CL6fjOpDFNsgurRiT6MU0vXwDMgi17hDM2W_wyKtOsnKOKVUndBi5uy7lFEcY2B5MJXKFFNH_dwxnIVMEBSGwXxzuz9rX_lxKNz0OpqnmePf3Egl5ej22HtrZx5nhtOo2l6xg7z2pL8bcgKAf9JXJITCrbwx7VLMUrGtwh-YU7GE_QknAuEcrw7YBVkg4CAa06Ak0Eivwfy-z6UFviQsXwRS2oj5r7_pP1UC-cTrjmlsfn9WjMqlGaF0_bITpJVM6oMdd2mJnT6WJwFnNToBXOYXGQUWPiXID1YiROJjfXgWYC3BZskqz8ILd93v52jy5a55dOR_0000?></g></svg>