<?xml version="1.0" encoding="us-ascii" standalone="no"?><svg xmlns="http://www.w3.org/2000/svg" xmlns:xlink="http://www.w3.org/1999/xlink" contentStyleType="text/css" height="646.875px" preserveAspectRatio="none" style="width:295px;height:646px;background:#FFFFFF;" version="1.1" viewBox="0 0 295 646" width="295.3125px" zoomAndPan="magnify"><defs/><g><text fill="#000000" font-family="Arial" font-size="21.875" font-weight="bold" lengthAdjust="spacing" textLength="251.5625" x="15.625" y="35.9299">Component Example</text><!--cluster Frontend--><g id="cluster_Frontend"><path d="M57.8125,67.6514 L164.0625,67.6514 A11.7188,11.7188 0 0 1 171.875,75.4639 L182.8125,102.4902 L229.6875,102.4902 A7.8125,7.8125 0 0 1 237.5,110.3027 L237.5,211.4014 A7.8125,7.8125 0 0 1 229.6875,219.2139 L57.8125,219.2139 A7.8125,7.8125 0 0 1 50,211.4014 L50,75.4639 A7.8125,7.8125 0 0 1 57.8125,67.6514 " fill="none" style="stroke:#000000;stroke-width:2.34375;"/><line style="stroke:#000000;stroke-width:2.34375;" x1="50" x2="182.8125" y1="102.4902" y2="102.4902"/><text fill="#000000" font-family="Arial" font-size="21.875" font-weight="bold" lengthAdjust="spacing" textLength="112.5" x="56.25" y="91.0812">Frontend</text></g><!--cluster Backend--><g id="cluster_Backend"><path d="M35.9375,256.7139 L134.375,256.7139 A11.7188,11.7188 0 0 1 142.1875,264.5264 L153.125,291.5527 L251.5625,291.5527 A7.8125,7.8125 0 0 1 259.375,299.3652 L259.375,400.4639 A7.8125,7.8125 0 0 1 251.5625,408.2764 L35.9375,408.2764 A7.8125,7.8125 0 0 1 28.125,400.4639 L28.125,264.5264 A7.8125,7.8125 0 0 1 35.9375,256.7139 " fill="none" style="stroke:#000000;stroke-width:2.34375;"/><line style="stroke:#000000;stroke-width:2.34375;" x1="28.125" x2="153.125" y1="291.5527" y2="291.5527"/><text fill="#000000" font-family="Arial" font-size="21.875" font-weight="bold" lengthAdjust="spacing" textLength="104.6875" x="34.375" y="280.1437">Backend</text></g><!--cluster Data--><g id="cluster_Data"><path d="M23.4375,461.4014 C23.4375,445.7764 143.75,445.7764 143.75,445.7764 C143.75,445.7764 264.0625,445.7764 264.0625,461.4014 L264.0625,605.1514 C264.0625,620.7764 143.75,620.7764 143.75,620.7764 C143.75,620.7764 23.4375,620.7764 23.4375,605.1514 L23.4375,461.4014 " fill="none" style="stroke:#181818;stroke-width:1.5625;"/><path d="M23.4375,461.4014 C23.4375,477.0264 143.75,477.0264 143.75,477.0264 C143.75,477.0264 264.0625,477.0264 264.0625,461.4014 " fill="none" style="stroke:#181818;stroke-width:1.5625;"/><text fill="#000000" font-family="Arial" font-size="21.875" font-weight="bold" lengthAdjust="spacing" textLength="54.6875" x="116.4063" y="500.4562">Data</text></g><!--entity Web UI--><g id="elem_Web UI"><rect fill="#F1F1F1" height="72.3389" rx="7.8125" ry="7.8125" style="stroke:#181818;stroke-width:0.78125;" width="137.5" x="75" y="122.3389"/><rect fill="#F1F1F1" height="15.625" style="stroke:#181818;stroke-width:0.78125;" width="23.4375" x="181.25" y="130.1514"/><rect fill="#F1F1F1" height="3.125" style="stroke:#181818;stroke-width:0.78125;" width="6.25" x="178.125" y="133.2764"/><rect fill="#F1F1F1" height="3.125" style="stroke:#181818;stroke-width:0.78125;" width="6.25" x="178.125" y="139.5264"/><text fill="#000000" font-family="Arial" font-size="21.875" lengthAdjust="spacing" textLength="75" x="98.4375" y="173.8937">Web UI</text></g><!--entity API Service--><g id="elem_API Service"><rect fill="#F1F1F1" height="72.3389" rx="7.8125" ry="7.8125" style="stroke:#181818;stroke-width:0.78125;" width="179.6875" x="53.9063" y="311.4014"/><rect fill="#F1F1F1" height="15.625" style="stroke:#181818;stroke-width:0.78125;" width="23.4375" x="202.3438" y="319.2139"/><rect fill="#F1F1F1" height="3.125" style="stroke:#181818;stroke-width:0.78125;" width="6.25" x="199.2188" y="322.3389"/><rect fill="#F1F1F1" height="3.125" style="stroke:#181818;stroke-width:0.78125;" width="6.25" x="199.2188" y="328.5889"/><text fill="#000000" font-family="Arial" font-size="21.875" lengthAdjust="spacing" textLength="117.1875" x="77.3438" y="362.9562">API Service</text></g><!--entity PostgreSQL--><g id="elem_PostgreSQL"><rect fill="#F1F1F1" height="72.3389" rx="7.8125" ry="7.8125" style="stroke:#181818;stroke-width:0.78125;" width="189.0625" x="49.2188" y="523.9014"/><rect fill="#F1F1F1" height="15.625" style="stroke:#181818;stroke-width:0.78125;" width="23.4375" x="207.0313" y="531.7139"/><rect fill="#F1F1F1" height="3.125" style="stroke:#181818;stroke-width:0.78125;" width="6.25" x="203.9063" y="534.8389"/><rect fill="#F1F1F1" height="3.125" style="stroke:#181818;stroke-width:0.78125;" width="6.25" x="203.9063" y="541.0889"/><text fill="#000000" font-family="Arial" font-size="21.875" lengthAdjust="spacing" textLength="126.5625" x="72.6563" y="575.4562">PostgreSQL</text></g><!--link Web UI to API Service--><g id="link_Web UI_API Service"><path d="M143.75,194.3701 C143.75,227.5576 143.75,268.0889 143.75,301.417 " fill="none" id="Web UI-to-API Service" style="stroke:#000000;stroke-width:1.5625;"/><polygon fill="#000000" points="143.75,310.792,150,296.7295,143.75,302.9795,137.5,296.7295,143.75,310.792" style="stroke:#000000;stroke-width:1.5625;"/></g><!--link API Service to PostgreSQL--><g id="link_API Service_PostgreSQL"><path d="M143.75,383.4795 C143.75,422.2764 143.75,475.4639 143.75,514.2764 " fill="none" id="API Service-to-PostgreSQL" style="stroke:#000000;stroke-width:1.5625;"/><polygon fill="#000000" points="143.75,523.6514,150,509.5889,143.75,515.8389,137.5,509.5889,143.75,523.6514" style="stroke:#000000;stroke-width:1.5625;"/></g><!--SRC=[NOrDgm8n34Nt_HN1lQ0Bju8VJn14514NyXQPQHoBdQQarH74__xgnzFgBiavzoOSZFCeM4E1vQ4IFZezOii2pTv4Kk75mnurDyPLi4CRSgAzWMwlartkDIMB8u5k3WOYt3pwXpOzpD2OTdYqSS8kph6cf1gqAffe2KPSUtRa8loSiVQMb4zXh0XQ4qa1She55mMmtL01w-clkhwDOHhUmc0nXHN9oPHqipH6B30aRPocfxFW42kXrN9sK_uxeTtkV-K_jWVFidy0]--></g></svg>