<?plantuml 1.2026.2?><svg xmlns="http://www.w3.org/2000/svg" xmlns:xlink="http://www.w3.org/1999/xlink" contentStyleType="text/css" data-diagram-type="DESCRIPTION" height="646.875px" preserveAspectRatio="none" style="width:296px;height:646px;background:#FFFFFF;" version="1.1" viewBox="0 0 296 646" width="296.875px" zoomAndPan="magnify"><title>Component Example</title><defs/><g><g class="title" data-source-line="1"><text fill="#000000" font-family="Arial" font-size="21.875" font-weight="bold" lengthAdjust="spacing" textLength="253.2181" x="15.625" y="35.9299">Component Example</text></g><!--cluster Frontend--><g class="cluster" data-qualified-name="Frontend" data-source-line="2" id="ent0002"><path d="M57.0778,67.6514 L163.6848,67.6514 A11.7188,11.7188 0 0 1 171.4973,75.4639 L182.4348,102.4902 L232.0778,102.4902 A7.8125,7.8125 0 0 1 239.8903,110.3027 L239.8903,211.4014 A7.8125,7.8125 0 0 1 232.0778,219.2139 L57.0778,219.2139 A7.8125,7.8125 0 0 1 49.2653,211.4014 L49.2653,75.4639 A7.8125,7.8125 0 0 1 57.0778,67.6514" fill="none" style="stroke:#000000;stroke-width:2.3438;"/><line style="stroke:#000000;stroke-width:2.3438;" x1="49.2653" x2="182.4348" y1="102.4902" y2="102.4902"/><text fill="#000000" font-family="Arial" font-size="21.875" font-weight="bold" lengthAdjust="spacing" textLength="112.8571" x="55.5153" y="91.0812">Frontend</text></g><!--cluster Backend--><g class="cluster" data-qualified-name="Backend" data-source-line="5" id="ent0004"><path d="M35.2028,256.7139 L133.9699,256.7139 A11.7188,11.7188 0 0 1 141.7824,264.5264 L152.7199,291.5527 L253.9528,291.5527 A7.8125,7.8125 0 0 1 261.7653,299.3652 L261.7653,400.4639 A7.8125,7.8125 0 0 1 253.9528,408.2764 L35.2028,408.2764 A7.8125,7.8125 0 0 1 27.3903,400.4639 L27.3903,264.5264 A7.8125,7.8125 0 0 1 35.2028,256.7139" fill="none" style="stroke:#000000;stroke-width:2.3438;"/><line style="stroke:#000000;stroke-width:2.3438;" x1="27.3903" x2="152.7199" y1="291.5527" y2="291.5527"/><text fill="#000000" font-family="Arial" font-size="21.875" font-weight="bold" lengthAdjust="spacing" textLength="105.0171" x="33.6403" y="280.1437">Backend</text></g><!--cluster Data--><g class="cluster" data-qualified-name="Data" data-source-line="8" id="ent0006"><path d="M24.2653,461.4014 C24.2653,445.7764 144.5778,445.7764 144.5778,445.7764 C144.5778,445.7764 264.8903,445.7764 264.8903,461.4014 L264.8903,605.1514 C264.8903,620.7764 144.5778,620.7764 144.5778,620.7764 C144.5778,620.7764 24.2653,620.7764 24.2653,605.1514 L24.2653,461.4014" fill="none" style="stroke:#181818;stroke-width:1.5625;"/><path d="M24.2653,461.4014 C24.2653,477.0264 144.5778,477.0264 144.5778,477.0264 C144.5778,477.0264 264.8903,477.0264 264.8903,461.4014" fill="none" style="stroke:#181818;stroke-width:1.5625;"/><text fill="#000000" font-family="Arial" font-size="21.875" font-weight="bold" lengthAdjust="spacing" textLength="58.1375" x="115.509" y="500.4562">Data</text></g><!--entity Web UI--><g class="entity" data-qualified-name="Frontend.Web UI" data-source-line="3" id="ent0003"><rect fill="#F1F1F1" height="72.3389" rx="7.8125" ry="7.8125" style="stroke:#181818;stroke-width:0.7813;" width="140.889" x="74.2653" y="122.3389"/><rect fill="#F1F1F1" height="15.625" style="stroke:#181818;stroke-width:0.7813;" width="23.4375" x="183.9043" y="130.1514"/><rect fill="#F1F1F1" height="3.125" style="stroke:#181818;stroke-width:0.7813;" width="6.25" x="180.7793" y="133.2764"/><rect fill="#F1F1F1" height="3.125" style="stroke:#181818;stroke-width:0.7813;" width="6.25" x="180.7793" y="139.5264"/><text fill="#000000" font-family="Arial" font-size="21.875" lengthAdjust="spacing" textLength="78.389" x="97.7028" y="173.8937">Web UI</text></g><!--entity API Service--><g class="entity" data-qualified-name="Backend.API Service" data-source-line="6" id="ent0005"><rect fill="#F1F1F1" height="72.3389" rx="7.8125" ry="7.8125" style="stroke:#181818;stroke-width:0.7813;" width="184.906" x="52.3903" y="311.4014"/><rect fill="#F1F1F1" height="15.625" style="stroke:#181818;stroke-width:0.7813;" width="23.4375" x="206.0463" y="319.2139"/><rect fill="#F1F1F1" height="3.125" style="stroke:#181818;stroke-width:0.7813;" width="6.25" x="202.9213" y="322.3389"/><rect fill="#F1F1F1" height="3.125" style="stroke:#181818;stroke-width:0.7813;" width="6.25" x="202.9213" y="328.5889"/><text fill="#000000" font-family="Arial" font-size="21.875" lengthAdjust="spacing" textLength="122.406" x="75.8278" y="362.9562">API Service</text></g><!--entity PostgreSQL--><g class="entity" data-qualified-name="Data.PostgreSQL" data-source-line="9" id="ent0007"><rect fill="#F1F1F1" height="72.3389" rx="7.8125" ry="7.8125" style="stroke:#181818;stroke-width:0.7813;" width="188.6765" x="50.0465" y="523.9014"/><rect fill="#F1F1F1" height="15.625" style="stroke:#181818;stroke-width:0.7813;" width="23.4375" x="207.473" y="531.7139"/><rect fill="#F1F1F1" height="3.125" style="stroke:#181818;stroke-width:0.7813;" width="6.25" x="204.348" y="534.8389"/><rect fill="#F1F1F1" height="3.125" style="stroke:#181818;stroke-width:0.7813;" width="6.25" x="204.348" y="541.0889"/><text fill="#000000" font-family="Arial" font-size="21.875" lengthAdjust="spacing" textLength="126.1765" x="73.484" y="575.4562">PostgreSQL</text></g><!--link Web UI to API Service--><g class="link" data-entity-1="ent0003" data-entity-2="ent0005" data-link-type="dependency" data-source-line="11" id="lnk8"><path d="M144.5778,194.3701 C144.5778,227.5576 144.5778,268.0889 144.5778,301.417" fill="none" id="Web UI-to-API Service" style="stroke:#000000;stroke-width:1.5625;"/><polygon fill="#000000" points="144.5778,310.792,150.8278,296.7295,144.5778,302.9795,138.3278,296.7295,144.5778,310.792" style="stroke:#000000;stroke-width:1.5625;"/></g><!--link API Service to PostgreSQL--><g class="link" data-entity-1="ent0005" data-entity-2="ent0007" data-link-type="dependency" data-source-line="12" id="lnk9"><path d="M144.5778,383.4795 C144.5778,422.2764 144.5778,475.4639 144.5778,514.2764" fill="none" id="API Service-to-PostgreSQL" style="stroke:#000000;stroke-width:1.5625;"/><polygon fill="#000000" points="144.5778,523.6514,150.8278,509.5889,144.5778,515.8389,138.3278,509.5889,144.5778,523.6514" style="stroke:#000000;stroke-width:1.5625;"/></g><?plantuml-src NOrDgm8n34Nt_HN1lQ0Bju8VJn14514NyXQPQHoBdQQarH74__xgnzFgBiavzoOSZFCeM4E1vQ4IFZezOii2pTv4Kk75mnurDyPLi4CRSgAzWMwlartkDIMB8u5k3WOYt3pwXpOzpD2OTdYqSS8kph6cf1gqAffe2KPSUtRa8loSiVQMb4zXh0XQ4qa1She55mMmtL01w-clkhwDOHhUmc0nXHN9oPHqipH6B30aRPocfxFW42kXrN9sK_uxeTtkV-K_jWVFidy0?></g></svg>