<?plantuml 1.2026.2?><svg xmlns="http://www.w3.org/2000/svg" xmlns:xlink="http://www.w3.org/1999/xlink" contentStyleType="text/css" data-diagram-type="SEQUENCE" height="615.625px" preserveAspectRatio="none" style="width:579px;height:615px;background:#FFFFFF;" version="1.1" viewBox="0 0 579 615" width="579.6875px" zoomAndPan="magnify"><title>Sequence Example</title><defs/><g><text fill="#000000" font-family="Arial" font-size="21.875" font-weight="bold" lengthAdjust="spacing" textLength="232.251" x="163.6497" y="43.7424">Sequence Example</text><g class="participant-lifeline" data-entity-uid="part1" data-qualified-name="User" id="part1-lifeline"><g><title>User</title><rect fill="#000000" fill-opacity="0.00000" height="304.3701" width="12.5" x="31.1798" y="185.3027"/><line style="stroke:#181818;stroke-width:0.7813;stroke-dasharray:7.8125,7.8125;" x1="35.9375" x2="35.9375" y1="185.3027" y2="489.6729"/></g></g><g class="participant-lifeline" data-entity-uid="part2" data-qualified-name="UI" id="part2-lifeline"><g><title>Web UI</title><rect fill="#000000" fill-opacity="0.00000" height="304.3701" width="12.5" x="192.0822" y="185.3027"/><line style="stroke:#181818;stroke-width:0.7813;stroke-dasharray:7.8125,7.8125;" x1="198.2002" x2="198.2002" y1="185.3027" y2="489.6729"/></g></g><g class="participant-lifeline" data-entity-uid="part3" data-qualified-name="API" id="part3-lifeline"><g><title>API</title><rect fill="#000000" fill-opacity="0.00000" height="304.3701" width="12.5" x="355.6427" y="185.3027"/><line style="stroke:#181818;stroke-width:0.7813;stroke-dasharray:7.8125,7.8125;" x1="361.7767" x2="361.7767" y1="185.3027" y2="489.6729"/></g></g><g class="participant-lifeline" data-entity-uid="part4" data-qualified-name="DB" id="part4-lifeline"><g><title>DB</title><rect fill="#000000" fill-opacity="0.00000" height="304.3701" width="12.5" x="518.9255" y="185.3027"/><line style="stroke:#181818;stroke-width:0.7813;stroke-dasharray:7.8125,7.8125;" x1="525.1755" x2="525.1755" y1="185.3027" y2="489.6729"/></g></g><g class="participant participant-head" data-entity-uid="part1" data-qualified-name="User" id="part1-head"><text fill="#000000" font-family="Arial" font-size="21.875" lengthAdjust="spacing" textLength="49.8596" x="7.8125" y="180.1437">User</text><ellipse cx="37.4298" cy="79.3701" fill="#E2E2F0" rx="12.5" ry="12.5" style="stroke:#181818;stroke-width:0.7813;"/><path d="M37.4298,91.8701 L37.4298,134.0576 M17.1173,104.3701 L57.7423,104.3701 M37.4298,134.0576 L17.1173,157.4951 M37.4298,134.0576 L57.7423,157.4951" fill="none" style="stroke:#181818;stroke-width:0.7813;"/></g><g class="participant participant-tail" data-entity-uid="part1" data-qualified-name="User" id="part1-tail"><text fill="#000000" font-family="Arial" font-size="21.875" lengthAdjust="spacing" textLength="49.8596" x="7.8125" y="508.4152">User</text><ellipse cx="37.4298" cy="526.8555" fill="#E2E2F0" rx="12.5" ry="12.5" style="stroke:#181818;stroke-width:0.7813;"/><path d="M37.4298,539.3555 L37.4298,581.543 M17.1173,551.8555 L57.7423,551.8555 M37.4298,581.543 L17.1173,604.9805 M37.4298,581.543 L57.7423,604.9805" fill="none" style="stroke:#181818;stroke-width:0.7813;"/></g><g class="participant participant-head" data-entity-uid="part2" data-qualified-name="UI" id="part2-head"><rect fill="#E2E2F0" height="47.3389" rx="7.8125" ry="7.8125" style="stroke:#181818;stroke-width:0.7813;" width="100.264" x="148.2002" y="136.4014"/><text fill="#000000" font-family="Arial" font-size="21.875" lengthAdjust="spacing" textLength="78.389" x="159.1377" y="167.6437">Web UI</text></g><g class="participant participant-tail" data-entity-uid="part2" data-qualified-name="UI" id="part2-tail"><rect fill="#E2E2F0" height="47.3389" rx="7.8125" ry="7.8125" style="stroke:#181818;stroke-width:0.7813;" width="100.264" x="148.2002" y="488.1104"/><text fill="#000000" font-family="Arial" font-size="21.875" lengthAdjust="spacing" textLength="78.389" x="159.1377" y="519.3527">Web UI</text></g><g class="participant participant-head" data-entity-uid="part3" data-qualified-name="API" id="part3-head"><rect fill="#E2E2F0" height="47.3389" rx="7.8125" ry="7.8125" style="stroke:#181818;stroke-width:0.7813;" width="56.4819" x="333.6517" y="136.4014"/><text fill="#000000" font-family="Arial" font-size="21.875" lengthAdjust="spacing" textLength="34.6069" x="344.5892" y="167.6437">API</text></g><g class="participant participant-tail" data-entity-uid="part3" data-qualified-name="API" id="part3-tail"><rect fill="#E2E2F0" height="47.3389" rx="7.8125" ry="7.8125" style="stroke:#181818;stroke-width:0.7813;" width="56.4819" x="333.6517" y="488.1104"/><text fill="#000000" font-family="Arial" font-size="21.875" lengthAdjust="spacing" textLength="34.6069" x="344.5892" y="519.3527">API</text></g><g class="participant participant-head" data-entity-uid="part4" data-qualified-name="DB" id="part4-head"><text fill="#000000" font-family="Arial" font-size="21.875" lengthAdjust="spacing" textLength="31.8512" x="504.5624" y="180.1437">DB</text><path d="M497.0505,103.5889 C497.0505,87.9639 525.1755,87.9639 525.1755,87.9639 C525.1755,87.9639 553.3005,87.9639 553.3005,103.5889 L553.3005,144.2139 C553.3005,159.8389 525.1755,159.8389 525.1755,159.8389 C525.1755,159.8389 497.0505,159.8389 497.0505,144.2139 L497.0505,103.5889" fill="#E2E2F0" style="stroke:#181818;stroke-width:0.7813;"/><path d="M497.0505,103.5889 C497.0505,119.2139 525.1755,119.2139 525.1755,119.2139 C525.1755,119.2139 553.3005,119.2139 553.3005,103.5889" fill="none" style="stroke:#181818;stroke-width:0.7813;"/></g><g class="participant participant-tail" data-entity-uid="part4" data-qualified-name="DB" id="part4-tail"><text fill="#000000" font-family="Arial" font-size="21.875" lengthAdjust="spacing" textLength="31.8512" x="504.5624" y="508.4152">DB</text><path d="M497.0505,529.1992 C497.0505,513.5742 525.1755,513.5742 525.1755,513.5742 C525.1755,513.5742 553.3005,513.5742 553.3005,529.1992 L553.3005,569.8242 C553.3005,585.4492 525.1755,585.4492 525.1755,585.4492 C525.1755,585.4492 497.0505,585.4492 497.0505,569.8242 L497.0505,529.1992" fill="#E2E2F0" style="stroke:#181818;stroke-width:0.7813;"/><path d="M497.0505,529.1992 C497.0505,544.8242 525.1755,544.8242 525.1755,544.8242 C525.1755,544.8242 553.3005,544.8242 553.3005,529.1992" fill="none" style="stroke:#181818;stroke-width:0.7813;"/></g><g class="message" data-entity-1="part1" data-entity-2="part2" id="msg1"><polygon fill="#000000" points="179.5822,227.6978,195.2072,233.9478,179.5822,240.1978,185.8322,233.9478" style="stroke:#000000;stroke-width:1.5625;"/><line style="stroke:#000000;stroke-width:1.5625;" x1="37.4298" x2="188.9572" y1="233.9478" y2="233.9478"/><text fill="#000000" font-family="Arial" font-size="20.3125" lengthAdjust="spacing" textLength="123.4024" x="48.3673" y="226.0323">Click "Save"</text></g><g class="message" data-entity-1="part2" data-entity-2="part3" id="msg2"><polygon fill="#000000" points="343.1427,273.2178,358.7677,279.4678,343.1427,285.7178,349.3927,279.4678" style="stroke:#000000;stroke-width:1.5625;"/><line style="stroke:#000000;stroke-width:1.5625;" x1="198.3322" x2="352.5177" y1="279.4678" y2="279.4678"/><text fill="#000000" font-family="Arial" font-size="20.3125" lengthAdjust="spacing" textLength="123.3131" x="209.2697" y="271.5523">POST /items</text></g><g class="message" data-entity-1="part3" data-entity-2="part4" id="msg3"><polygon fill="#000000" points="506.4255,318.7378,522.0505,324.9878,506.4255,331.2378,512.6755,324.9878" style="stroke:#000000;stroke-width:1.5625;"/><line style="stroke:#000000;stroke-width:1.5625;" x1="361.8927" x2="515.8005" y1="324.9878" y2="324.9878"/><text fill="#000000" font-family="Arial" font-size="20.3125" lengthAdjust="spacing" textLength="125.7828" x="372.8302" y="317.0723">INSERT item</text></g><g class="message" data-entity-1="part4" data-entity-2="part3" id="msg4"><polygon fill="#000000" points="379.0802,364.2578,363.4552,370.5078,379.0802,376.7578,372.8302,370.5078" style="stroke:#000000;stroke-width:1.5625;"/><line style="stroke:#000000;stroke-width:1.5625;stroke-dasharray:3.125,3.125;" x1="369.7052" x2="523.613" y1="370.5078" y2="370.5078"/><text fill="#000000" font-family="Arial" font-size="20.3125" lengthAdjust="spacing" textLength="29.3083" x="388.4552" y="362.5923">OK</text></g><g class="message" data-entity-1="part3" data-entity-2="part2" id="msg5"><polygon fill="#000000" points="215.5197,409.7778,199.8947,416.0278,215.5197,422.2778,209.2697,416.0278" style="stroke:#000000;stroke-width:1.5625;"/><line style="stroke:#000000;stroke-width:1.5625;stroke-dasharray:3.125,3.125;" x1="206.1447" x2="360.3302" y1="416.0278" y2="416.0278"/><text fill="#000000" font-family="Arial" font-size="20.3125" lengthAdjust="spacing" textLength="126.0605" x="224.8947" y="408.1123">201 Created</text></g><g class="message" data-entity-1="part2" data-entity-2="part1" id="msg6"><polygon fill="#000000" points="54.6173,455.2979,38.9923,461.5479,54.6173,467.7979,48.3673,461.5479" style="stroke:#000000;stroke-width:1.5625;"/><line style="stroke:#000000;stroke-width:1.5625;stroke-dasharray:3.125,3.125;" x1="45.2423" x2="196.7697" y1="461.5479" y2="461.5479"/><text fill="#000000" font-family="Arial" font-size="20.3125" lengthAdjust="spacing" textLength="81.7657" x="63.9923" y="453.6324">Success</text></g><?plantuml-src LP31QeD048Rl-nI3zz1OwCL38MeAKaX2ZFGyhfDaSTqrksljutVKjjZJmFV_ymsCRvNfqM47DShsvknWcingws2ygq32_-N-ZeqTbRd15RLV9qsl87xPhiYiaTOPSX2lWvrpTbpygUQ3goYdAmuwl5aJ3jWHLnLg4LJG12Kz1ZAIOF-5NQz9e0oig3mvmTj1ITMZ2H1zK0rL4G5w7l-ZtMdXF4M30Mlq156UpZ1FXPXii7dbnGGohMGBKOcV58cgc33l9N0wbXTuuiTqNZ2OU9ucK1pA_Va24nTv2flV-l5zQVrOdxSnP8umK3DB9yn74oW7ASdxRm00?></g></svg>