<?xml version="1.0" encoding="us-ascii" standalone="no"?><svg xmlns="http://www.w3.org/2000/svg" xmlns:xlink="http://www.w3.org/1999/xlink" contentStyleType="text/css" height="615.625px" preserveAspectRatio="none" style="width:567px;height:615px;background:#FFFFFF;" version="1.1" viewBox="0 0 567 615" width="567.1875px" zoomAndPan="magnify"><defs/><g><text fill="#000000" font-family="Arial" font-size="21.875" font-weight="bold" lengthAdjust="spacing" textLength="232.8125" x="157.0313" y="43.7424">Sequence Example</text><line style="stroke:#181818;stroke-width:0.78125;stroke-dasharray:5.0,5.0;" x1="37.5" x2="37.5" y1="185.3027" y2="489.6729"/><line style="stroke:#181818;stroke-width:0.78125;stroke-dasharray:5.0,5.0;" x1="192.1875" x2="192.1875" y1="185.3027" y2="489.6729"/><line style="stroke:#181818;stroke-width:0.78125;stroke-dasharray:5.0,5.0;" x1="352.3438" x2="352.3438" y1="185.3027" y2="489.6729"/><line style="stroke:#181818;stroke-width:0.78125;stroke-dasharray:5.0,5.0;" x1="512.5" x2="512.5" y1="185.3027" y2="489.6729"/><text fill="#000000" font-family="Arial" font-size="21.875" lengthAdjust="spacing" textLength="50" x="7.8125" y="180.1437">User</text><ellipse cx="37.5" cy="79.3701" fill="#E2E2F0" rx="12.5" ry="12.5" style="stroke:#181818;stroke-width:0.78125;"/><path d="M37.5,91.8701 L37.5,134.0576 M17.1875,104.3701 L57.8125,104.3701 M37.5,134.0576 L17.1875,157.4951 M37.5,134.0576 L57.8125,157.4951 " fill="none" style="stroke:#181818;stroke-width:0.78125;"/><text fill="#000000" font-family="Arial" font-size="21.875" lengthAdjust="spacing" textLength="50" x="7.8125" y="508.4152">User</text><ellipse cx="37.5" cy="526.8555" fill="#E2E2F0" rx="12.5" ry="12.5" style="stroke:#181818;stroke-width:0.78125;"/><path d="M37.5,539.3555 L37.5,581.543 M17.1875,551.8555 L57.8125,551.8555 M37.5,581.543 L17.1875,604.9805 M37.5,581.543 L57.8125,604.9805 " fill="none" style="stroke:#181818;stroke-width:0.78125;"/><rect fill="#E2E2F0" height="47.3389" rx="7.8125" ry="7.8125" style="stroke:#181818;stroke-width:0.78125;" width="96.875" x="143.75" y="136.4014"/><text fill="#000000" font-family="Arial" font-size="21.875" lengthAdjust="spacing" textLength="75" x="154.6875" y="167.6437">Web UI</text><rect fill="#E2E2F0" height="47.3389" rx="7.8125" ry="7.8125" style="stroke:#181818;stroke-width:0.78125;" width="96.875" x="143.75" y="488.1104"/><text fill="#000000" font-family="Arial" font-size="21.875" lengthAdjust="spacing" textLength="75" x="154.6875" y="519.3527">Web UI</text><rect fill="#E2E2F0" height="47.3389" rx="7.8125" ry="7.8125" style="stroke:#181818;stroke-width:0.78125;" width="54.6875" x="325.7813" y="136.4014"/><text fill="#000000" font-family="Arial" font-size="21.875" lengthAdjust="spacing" textLength="32.8125" x="336.7188" y="167.6437">API</text><rect fill="#E2E2F0" height="47.3389" rx="7.8125" ry="7.8125" style="stroke:#181818;stroke-width:0.78125;" width="54.6875" x="325.7813" y="488.1104"/><text fill="#000000" font-family="Arial" font-size="21.875" lengthAdjust="spacing" textLength="32.8125" x="336.7188" y="519.3527">API</text><text fill="#000000" font-family="Arial" font-size="21.875" lengthAdjust="spacing" textLength="32.8125" x="491.4063" y="180.1437">DB</text><path d="M484.375,103.5889 C484.375,87.9639 512.5,87.9639 512.5,87.9639 C512.5,87.9639 540.625,87.9639 540.625,103.5889 L540.625,144.2139 C540.625,159.8389 512.5,159.8389 512.5,159.8389 C512.5,159.8389 484.375,159.8389 484.375,144.2139 L484.375,103.5889 " fill="#E2E2F0" style="stroke:#181818;stroke-width:2.34375;"/><path d="M484.375,103.5889 C484.375,119.2139 512.5,119.2139 512.5,119.2139 C512.5,119.2139 540.625,119.2139 540.625,103.5889 " fill="none" style="stroke:#181818;stroke-width:2.34375;"/><text fill="#000000" font-family="Arial" font-size="21.875" lengthAdjust="spacing" textLength="32.8125" x="491.4063" y="508.4152">DB</text><path d="M484.375,529.1992 C484.375,513.5742 512.5,513.5742 512.5,513.5742 C512.5,513.5742 540.625,513.5742 540.625,529.1992 L540.625,569.8242 C540.625,585.4492 512.5,585.4492 512.5,585.4492 C512.5,585.4492 484.375,585.4492 484.375,569.8242 L484.375,529.1992 " fill="#E2E2F0" style="stroke:#181818;stroke-width:2.34375;"/><path d="M484.375,529.1992 C484.375,544.8242 512.5,544.8242 512.5,544.8242 C512.5,544.8242 540.625,544.8242 540.625,529.1992 " fill="none" style="stroke:#181818;stroke-width:2.34375;"/><polygon fill="#000000" points="173.4375,227.6978,189.0625,233.9478,173.4375,240.1978,179.6875,233.9478" style="stroke:#000000;stroke-width:1.5625;"/><line style="stroke:#000000;stroke-width:1.5625;" x1="37.5" x2="182.8125" y1="233.9478" y2="233.9478"/><text fill="#000000" font-family="Arial" font-size="20.3125" lengthAdjust="spacing" textLength="117.1875" x="48.4375" y="226.0323">Click "Save"</text><polygon fill="#000000" points="334.375,273.2178,350,279.4678,334.375,285.7178,340.625,279.4678" style="stroke:#000000;stroke-width:1.5625;"/><line style="stroke:#000000;stroke-width:1.5625;" x1="192.1875" x2="343.75" y1="279.4678" y2="279.4678"/><text fill="#000000" font-family="Arial" font-size="20.3125" lengthAdjust="spacing" textLength="121.875" x="203.125" y="271.5523">POST /items</text><polygon fill="#000000" points="493.75,318.7378,509.375,324.9878,493.75,331.2378,500,324.9878" style="stroke:#000000;stroke-width:1.5625;"/><line style="stroke:#000000;stroke-width:1.5625;" x1="353.125" x2="503.125" y1="324.9878" y2="324.9878"/><text fill="#000000" font-family="Arial" font-size="20.3125" lengthAdjust="spacing" textLength="121.875" x="364.0625" y="317.0723">INSERT item</text><polygon fill="#000000" points="370.3125,364.2578,354.6875,370.5078,370.3125,376.7578,364.0625,370.5078" style="stroke:#000000;stroke-width:1.5625;"/><line style="stroke:#000000;stroke-width:1.5625;stroke-dasharray:2.0,2.0;" x1="360.9375" x2="510.9375" y1="370.5078" y2="370.5078"/><text fill="#000000" font-family="Arial" font-size="20.3125" lengthAdjust="spacing" textLength="28.125" x="379.6875" y="362.5923">OK</text><polygon fill="#000000" points="209.375,409.7778,193.75,416.0278,209.375,422.2778,203.125,416.0278" style="stroke:#000000;stroke-width:1.5625;"/><line style="stroke:#000000;stroke-width:1.5625;stroke-dasharray:2.0,2.0;" x1="200" x2="351.5625" y1="416.0278" y2="416.0278"/><text fill="#000000" font-family="Arial" font-size="20.3125" lengthAdjust="spacing" textLength="123.4375" x="218.75" y="408.1123">201 Created</text><polygon fill="#000000" points="54.6875,455.2979,39.0625,461.5479,54.6875,467.7979,48.4375,461.5479" style="stroke:#000000;stroke-width:1.5625;"/><line style="stroke:#000000;stroke-width:1.5625;stroke-dasharray:2.0,2.0;" x1="45.3125" x2="190.625" y1="461.5479" y2="461.5479"/><text fill="#000000" font-family="Arial" font-size="20.3125" lengthAdjust="spacing" textLength="82.8125" x="64.0625" y="453.6324">Success</text><!--SRC=[LP31QeD048Rl-nI3zz1OwCL38MeAKaX2ZFGyhfDaSTqrksljutVKjjZJmFV_ymsCRvNfqM47DShsvknWcingws2ygq32_-N-ZeqTbRd15RLV9qsl87xPhiYiaTOPSX2lWvrpTbpygUQ3goYdAmuwl5aJ3jWHLnLg4LJG12Kz1ZAIOF-5NQz9e0oig3mvmTj1ITMZ2H1zK0rL4G5w7l-ZtMdXF4M30Mlq156UpZ1FXPXii7dbnGGohMGBKOcV58cgc33l9N0wbXTuuiTqNZ2OU9ucK1pA_Va24nTv2flV-l5zQVrOdxSnP8umK3DB9yn74oW7ASdxRm00]--></g></svg>